G04 #@! TF.GenerationSoftware,KiCad,Pcbnew,(5.1.5)-3*
G04 #@! TF.CreationDate,2021-02-28T20:58:20+01:00*
G04 #@! TF.ProjectId,ATtimer,41547469-6d65-4722-9e6b-696361645f70,rev?*
G04 #@! TF.SameCoordinates,Original*
G04 #@! TF.FileFunction,Copper,L2,Bot*
G04 #@! TF.FilePolarity,Positive*
%FSLAX46Y46*%
G04 Gerber Fmt 4.6, Leading zero omitted, Abs format (unit mm)*
G04 Created by KiCad (PCBNEW (5.1.5)-3) date 2021-02-28 20:58:20*
%MOMM*%
%LPD*%
G04 APERTURE LIST*
%ADD10O,3.000000X4.000000*%
%ADD11C,0.100000*%
%ADD12O,1.700000X1.700000*%
%ADD13C,1.700000*%
%ADD14C,2.700000*%
%ADD15C,1.600000*%
%ADD16R,1.600000X1.600000*%
%ADD17O,2.000000X1.905000*%
%ADD18R,2.000000X1.905000*%
%ADD19C,4.000000*%
%ADD20R,4.000000X4.000000*%
%ADD21R,2.000000X2.000000*%
%ADD22C,2.000000*%
%ADD23C,1.500000*%
%ADD24R,1.700000X1.700000*%
%ADD25C,0.500000*%
%ADD26C,0.800000*%
%ADD27C,2.000000*%
%ADD28C,0.750000*%
%ADD29C,0.250000*%
%ADD30C,1.000000*%
%ADD31C,1.250000*%
%ADD32C,0.254000*%
G04 APERTURE END LIST*
D10*
X39878000Y-131445000D03*
X44958000Y-131445000D03*
G04 #@! TA.AperFunction,SMDPad,CuDef*
D11*
G36*
X84548505Y-77921204D02*
G01*
X84572773Y-77924804D01*
X84596572Y-77930765D01*
X84619671Y-77939030D01*
X84641850Y-77949520D01*
X84662893Y-77962132D01*
X84682599Y-77976747D01*
X84700777Y-77993223D01*
X84717253Y-78011401D01*
X84731868Y-78031107D01*
X84744480Y-78052150D01*
X84754970Y-78074329D01*
X84763235Y-78097428D01*
X84769196Y-78121227D01*
X84772796Y-78145495D01*
X84774000Y-78169999D01*
X84774000Y-78820001D01*
X84772796Y-78844505D01*
X84769196Y-78868773D01*
X84763235Y-78892572D01*
X84754970Y-78915671D01*
X84744480Y-78937850D01*
X84731868Y-78958893D01*
X84717253Y-78978599D01*
X84700777Y-78996777D01*
X84682599Y-79013253D01*
X84662893Y-79027868D01*
X84641850Y-79040480D01*
X84619671Y-79050970D01*
X84596572Y-79059235D01*
X84572773Y-79065196D01*
X84548505Y-79068796D01*
X84524001Y-79070000D01*
X83623999Y-79070000D01*
X83599495Y-79068796D01*
X83575227Y-79065196D01*
X83551428Y-79059235D01*
X83528329Y-79050970D01*
X83506150Y-79040480D01*
X83485107Y-79027868D01*
X83465401Y-79013253D01*
X83447223Y-78996777D01*
X83430747Y-78978599D01*
X83416132Y-78958893D01*
X83403520Y-78937850D01*
X83393030Y-78915671D01*
X83384765Y-78892572D01*
X83378804Y-78868773D01*
X83375204Y-78844505D01*
X83374000Y-78820001D01*
X83374000Y-78169999D01*
X83375204Y-78145495D01*
X83378804Y-78121227D01*
X83384765Y-78097428D01*
X83393030Y-78074329D01*
X83403520Y-78052150D01*
X83416132Y-78031107D01*
X83430747Y-78011401D01*
X83447223Y-77993223D01*
X83465401Y-77976747D01*
X83485107Y-77962132D01*
X83506150Y-77949520D01*
X83528329Y-77939030D01*
X83551428Y-77930765D01*
X83575227Y-77924804D01*
X83599495Y-77921204D01*
X83623999Y-77920000D01*
X84524001Y-77920000D01*
X84548505Y-77921204D01*
G37*
G04 #@! TD.AperFunction*
G04 #@! TA.AperFunction,SMDPad,CuDef*
G36*
X84548505Y-75871204D02*
G01*
X84572773Y-75874804D01*
X84596572Y-75880765D01*
X84619671Y-75889030D01*
X84641850Y-75899520D01*
X84662893Y-75912132D01*
X84682599Y-75926747D01*
X84700777Y-75943223D01*
X84717253Y-75961401D01*
X84731868Y-75981107D01*
X84744480Y-76002150D01*
X84754970Y-76024329D01*
X84763235Y-76047428D01*
X84769196Y-76071227D01*
X84772796Y-76095495D01*
X84774000Y-76119999D01*
X84774000Y-76770001D01*
X84772796Y-76794505D01*
X84769196Y-76818773D01*
X84763235Y-76842572D01*
X84754970Y-76865671D01*
X84744480Y-76887850D01*
X84731868Y-76908893D01*
X84717253Y-76928599D01*
X84700777Y-76946777D01*
X84682599Y-76963253D01*
X84662893Y-76977868D01*
X84641850Y-76990480D01*
X84619671Y-77000970D01*
X84596572Y-77009235D01*
X84572773Y-77015196D01*
X84548505Y-77018796D01*
X84524001Y-77020000D01*
X83623999Y-77020000D01*
X83599495Y-77018796D01*
X83575227Y-77015196D01*
X83551428Y-77009235D01*
X83528329Y-77000970D01*
X83506150Y-76990480D01*
X83485107Y-76977868D01*
X83465401Y-76963253D01*
X83447223Y-76946777D01*
X83430747Y-76928599D01*
X83416132Y-76908893D01*
X83403520Y-76887850D01*
X83393030Y-76865671D01*
X83384765Y-76842572D01*
X83378804Y-76818773D01*
X83375204Y-76794505D01*
X83374000Y-76770001D01*
X83374000Y-76119999D01*
X83375204Y-76095495D01*
X83378804Y-76071227D01*
X83384765Y-76047428D01*
X83393030Y-76024329D01*
X83403520Y-76002150D01*
X83416132Y-75981107D01*
X83430747Y-75961401D01*
X83447223Y-75943223D01*
X83465401Y-75926747D01*
X83485107Y-75912132D01*
X83506150Y-75899520D01*
X83528329Y-75889030D01*
X83551428Y-75880765D01*
X83575227Y-75874804D01*
X83599495Y-75871204D01*
X83623999Y-75870000D01*
X84524001Y-75870000D01*
X84548505Y-75871204D01*
G37*
G04 #@! TD.AperFunction*
G04 #@! TA.AperFunction,SMDPad,CuDef*
G36*
X84548505Y-80316204D02*
G01*
X84572773Y-80319804D01*
X84596572Y-80325765D01*
X84619671Y-80334030D01*
X84641850Y-80344520D01*
X84662893Y-80357132D01*
X84682599Y-80371747D01*
X84700777Y-80388223D01*
X84717253Y-80406401D01*
X84731868Y-80426107D01*
X84744480Y-80447150D01*
X84754970Y-80469329D01*
X84763235Y-80492428D01*
X84769196Y-80516227D01*
X84772796Y-80540495D01*
X84774000Y-80564999D01*
X84774000Y-81215001D01*
X84772796Y-81239505D01*
X84769196Y-81263773D01*
X84763235Y-81287572D01*
X84754970Y-81310671D01*
X84744480Y-81332850D01*
X84731868Y-81353893D01*
X84717253Y-81373599D01*
X84700777Y-81391777D01*
X84682599Y-81408253D01*
X84662893Y-81422868D01*
X84641850Y-81435480D01*
X84619671Y-81445970D01*
X84596572Y-81454235D01*
X84572773Y-81460196D01*
X84548505Y-81463796D01*
X84524001Y-81465000D01*
X83623999Y-81465000D01*
X83599495Y-81463796D01*
X83575227Y-81460196D01*
X83551428Y-81454235D01*
X83528329Y-81445970D01*
X83506150Y-81435480D01*
X83485107Y-81422868D01*
X83465401Y-81408253D01*
X83447223Y-81391777D01*
X83430747Y-81373599D01*
X83416132Y-81353893D01*
X83403520Y-81332850D01*
X83393030Y-81310671D01*
X83384765Y-81287572D01*
X83378804Y-81263773D01*
X83375204Y-81239505D01*
X83374000Y-81215001D01*
X83374000Y-80564999D01*
X83375204Y-80540495D01*
X83378804Y-80516227D01*
X83384765Y-80492428D01*
X83393030Y-80469329D01*
X83403520Y-80447150D01*
X83416132Y-80426107D01*
X83430747Y-80406401D01*
X83447223Y-80388223D01*
X83465401Y-80371747D01*
X83485107Y-80357132D01*
X83506150Y-80344520D01*
X83528329Y-80334030D01*
X83551428Y-80325765D01*
X83575227Y-80319804D01*
X83599495Y-80316204D01*
X83623999Y-80315000D01*
X84524001Y-80315000D01*
X84548505Y-80316204D01*
G37*
G04 #@! TD.AperFunction*
G04 #@! TA.AperFunction,SMDPad,CuDef*
G36*
X84548505Y-82366204D02*
G01*
X84572773Y-82369804D01*
X84596572Y-82375765D01*
X84619671Y-82384030D01*
X84641850Y-82394520D01*
X84662893Y-82407132D01*
X84682599Y-82421747D01*
X84700777Y-82438223D01*
X84717253Y-82456401D01*
X84731868Y-82476107D01*
X84744480Y-82497150D01*
X84754970Y-82519329D01*
X84763235Y-82542428D01*
X84769196Y-82566227D01*
X84772796Y-82590495D01*
X84774000Y-82614999D01*
X84774000Y-83265001D01*
X84772796Y-83289505D01*
X84769196Y-83313773D01*
X84763235Y-83337572D01*
X84754970Y-83360671D01*
X84744480Y-83382850D01*
X84731868Y-83403893D01*
X84717253Y-83423599D01*
X84700777Y-83441777D01*
X84682599Y-83458253D01*
X84662893Y-83472868D01*
X84641850Y-83485480D01*
X84619671Y-83495970D01*
X84596572Y-83504235D01*
X84572773Y-83510196D01*
X84548505Y-83513796D01*
X84524001Y-83515000D01*
X83623999Y-83515000D01*
X83599495Y-83513796D01*
X83575227Y-83510196D01*
X83551428Y-83504235D01*
X83528329Y-83495970D01*
X83506150Y-83485480D01*
X83485107Y-83472868D01*
X83465401Y-83458253D01*
X83447223Y-83441777D01*
X83430747Y-83423599D01*
X83416132Y-83403893D01*
X83403520Y-83382850D01*
X83393030Y-83360671D01*
X83384765Y-83337572D01*
X83378804Y-83313773D01*
X83375204Y-83289505D01*
X83374000Y-83265001D01*
X83374000Y-82614999D01*
X83375204Y-82590495D01*
X83378804Y-82566227D01*
X83384765Y-82542428D01*
X83393030Y-82519329D01*
X83403520Y-82497150D01*
X83416132Y-82476107D01*
X83430747Y-82456401D01*
X83447223Y-82438223D01*
X83465401Y-82421747D01*
X83485107Y-82407132D01*
X83506150Y-82394520D01*
X83528329Y-82384030D01*
X83551428Y-82375765D01*
X83575227Y-82369804D01*
X83599495Y-82366204D01*
X83623999Y-82365000D01*
X84524001Y-82365000D01*
X84548505Y-82366204D01*
G37*
G04 #@! TD.AperFunction*
D12*
X62992000Y-64008000D03*
D13*
X62992000Y-61468000D03*
D14*
X79375000Y-76995000D03*
X79375000Y-81995000D03*
X79375000Y-86995000D03*
D15*
X51760000Y-123190000D03*
D16*
X48260000Y-123190000D03*
D15*
X57475000Y-114935000D03*
D16*
X53975000Y-114935000D03*
D17*
X41910000Y-115570000D03*
X41910000Y-118110000D03*
D18*
X41910000Y-120650000D03*
D19*
X72390000Y-109380000D03*
D20*
X72390000Y-119380000D03*
D21*
X77787500Y-131445000D03*
D22*
X62787500Y-131445000D03*
X70294500Y-131445000D03*
X54864000Y-131445000D03*
D23*
X51308000Y-83820000D03*
X49276000Y-75184000D03*
X54356000Y-69088000D03*
X51562000Y-70358000D03*
X53848000Y-73660000D03*
X62992000Y-73660000D03*
X46228000Y-83820000D03*
G04 #@! TA.AperFunction,SMDPad,CuDef*
D11*
G36*
X46448505Y-74873204D02*
G01*
X46472773Y-74876804D01*
X46496572Y-74882765D01*
X46519671Y-74891030D01*
X46541850Y-74901520D01*
X46562893Y-74914132D01*
X46582599Y-74928747D01*
X46600777Y-74945223D01*
X46617253Y-74963401D01*
X46631868Y-74983107D01*
X46644480Y-75004150D01*
X46654970Y-75026329D01*
X46663235Y-75049428D01*
X46669196Y-75073227D01*
X46672796Y-75097495D01*
X46674000Y-75121999D01*
X46674000Y-75772001D01*
X46672796Y-75796505D01*
X46669196Y-75820773D01*
X46663235Y-75844572D01*
X46654970Y-75867671D01*
X46644480Y-75889850D01*
X46631868Y-75910893D01*
X46617253Y-75930599D01*
X46600777Y-75948777D01*
X46582599Y-75965253D01*
X46562893Y-75979868D01*
X46541850Y-75992480D01*
X46519671Y-76002970D01*
X46496572Y-76011235D01*
X46472773Y-76017196D01*
X46448505Y-76020796D01*
X46424001Y-76022000D01*
X45523999Y-76022000D01*
X45499495Y-76020796D01*
X45475227Y-76017196D01*
X45451428Y-76011235D01*
X45428329Y-76002970D01*
X45406150Y-75992480D01*
X45385107Y-75979868D01*
X45365401Y-75965253D01*
X45347223Y-75948777D01*
X45330747Y-75930599D01*
X45316132Y-75910893D01*
X45303520Y-75889850D01*
X45293030Y-75867671D01*
X45284765Y-75844572D01*
X45278804Y-75820773D01*
X45275204Y-75796505D01*
X45274000Y-75772001D01*
X45274000Y-75121999D01*
X45275204Y-75097495D01*
X45278804Y-75073227D01*
X45284765Y-75049428D01*
X45293030Y-75026329D01*
X45303520Y-75004150D01*
X45316132Y-74983107D01*
X45330747Y-74963401D01*
X45347223Y-74945223D01*
X45365401Y-74928747D01*
X45385107Y-74914132D01*
X45406150Y-74901520D01*
X45428329Y-74891030D01*
X45451428Y-74882765D01*
X45475227Y-74876804D01*
X45499495Y-74873204D01*
X45523999Y-74872000D01*
X46424001Y-74872000D01*
X46448505Y-74873204D01*
G37*
G04 #@! TD.AperFunction*
G04 #@! TA.AperFunction,SMDPad,CuDef*
G36*
X46448505Y-72823204D02*
G01*
X46472773Y-72826804D01*
X46496572Y-72832765D01*
X46519671Y-72841030D01*
X46541850Y-72851520D01*
X46562893Y-72864132D01*
X46582599Y-72878747D01*
X46600777Y-72895223D01*
X46617253Y-72913401D01*
X46631868Y-72933107D01*
X46644480Y-72954150D01*
X46654970Y-72976329D01*
X46663235Y-72999428D01*
X46669196Y-73023227D01*
X46672796Y-73047495D01*
X46674000Y-73071999D01*
X46674000Y-73722001D01*
X46672796Y-73746505D01*
X46669196Y-73770773D01*
X46663235Y-73794572D01*
X46654970Y-73817671D01*
X46644480Y-73839850D01*
X46631868Y-73860893D01*
X46617253Y-73880599D01*
X46600777Y-73898777D01*
X46582599Y-73915253D01*
X46562893Y-73929868D01*
X46541850Y-73942480D01*
X46519671Y-73952970D01*
X46496572Y-73961235D01*
X46472773Y-73967196D01*
X46448505Y-73970796D01*
X46424001Y-73972000D01*
X45523999Y-73972000D01*
X45499495Y-73970796D01*
X45475227Y-73967196D01*
X45451428Y-73961235D01*
X45428329Y-73952970D01*
X45406150Y-73942480D01*
X45385107Y-73929868D01*
X45365401Y-73915253D01*
X45347223Y-73898777D01*
X45330747Y-73880599D01*
X45316132Y-73860893D01*
X45303520Y-73839850D01*
X45293030Y-73817671D01*
X45284765Y-73794572D01*
X45278804Y-73770773D01*
X45275204Y-73746505D01*
X45274000Y-73722001D01*
X45274000Y-73071999D01*
X45275204Y-73047495D01*
X45278804Y-73023227D01*
X45284765Y-72999428D01*
X45293030Y-72976329D01*
X45303520Y-72954150D01*
X45316132Y-72933107D01*
X45330747Y-72913401D01*
X45347223Y-72895223D01*
X45365401Y-72878747D01*
X45385107Y-72864132D01*
X45406150Y-72851520D01*
X45428329Y-72841030D01*
X45451428Y-72832765D01*
X45475227Y-72826804D01*
X45499495Y-72823204D01*
X45523999Y-72822000D01*
X46424001Y-72822000D01*
X46448505Y-72823204D01*
G37*
G04 #@! TD.AperFunction*
D14*
X79375000Y-93425000D03*
X79375000Y-98425000D03*
D12*
X68072000Y-61468000D03*
X68072000Y-64008000D03*
X68072000Y-66548000D03*
X68072000Y-69088000D03*
X68072000Y-71628000D03*
D24*
X68072000Y-74168000D03*
G04 #@! TA.AperFunction,SMDPad,CuDef*
D11*
G36*
X61156504Y-75130204D02*
G01*
X61180773Y-75133804D01*
X61204571Y-75139765D01*
X61227671Y-75148030D01*
X61249849Y-75158520D01*
X61270893Y-75171133D01*
X61290598Y-75185747D01*
X61308777Y-75202223D01*
X61325253Y-75220402D01*
X61339867Y-75240107D01*
X61352480Y-75261151D01*
X61362970Y-75283329D01*
X61371235Y-75306429D01*
X61377196Y-75330227D01*
X61380796Y-75354496D01*
X61382000Y-75379000D01*
X61382000Y-77529000D01*
X61380796Y-77553504D01*
X61377196Y-77577773D01*
X61371235Y-77601571D01*
X61362970Y-77624671D01*
X61352480Y-77646849D01*
X61339867Y-77667893D01*
X61325253Y-77687598D01*
X61308777Y-77705777D01*
X61290598Y-77722253D01*
X61270893Y-77736867D01*
X61249849Y-77749480D01*
X61227671Y-77759970D01*
X61204571Y-77768235D01*
X61180773Y-77774196D01*
X61156504Y-77777796D01*
X61132000Y-77779000D01*
X60207000Y-77779000D01*
X60182496Y-77777796D01*
X60158227Y-77774196D01*
X60134429Y-77768235D01*
X60111329Y-77759970D01*
X60089151Y-77749480D01*
X60068107Y-77736867D01*
X60048402Y-77722253D01*
X60030223Y-77705777D01*
X60013747Y-77687598D01*
X59999133Y-77667893D01*
X59986520Y-77646849D01*
X59976030Y-77624671D01*
X59967765Y-77601571D01*
X59961804Y-77577773D01*
X59958204Y-77553504D01*
X59957000Y-77529000D01*
X59957000Y-75379000D01*
X59958204Y-75354496D01*
X59961804Y-75330227D01*
X59967765Y-75306429D01*
X59976030Y-75283329D01*
X59986520Y-75261151D01*
X59999133Y-75240107D01*
X60013747Y-75220402D01*
X60030223Y-75202223D01*
X60048402Y-75185747D01*
X60068107Y-75171133D01*
X60089151Y-75158520D01*
X60111329Y-75148030D01*
X60134429Y-75139765D01*
X60158227Y-75133804D01*
X60182496Y-75130204D01*
X60207000Y-75129000D01*
X61132000Y-75129000D01*
X61156504Y-75130204D01*
G37*
G04 #@! TD.AperFunction*
G04 #@! TA.AperFunction,SMDPad,CuDef*
G36*
X58181504Y-75130204D02*
G01*
X58205773Y-75133804D01*
X58229571Y-75139765D01*
X58252671Y-75148030D01*
X58274849Y-75158520D01*
X58295893Y-75171133D01*
X58315598Y-75185747D01*
X58333777Y-75202223D01*
X58350253Y-75220402D01*
X58364867Y-75240107D01*
X58377480Y-75261151D01*
X58387970Y-75283329D01*
X58396235Y-75306429D01*
X58402196Y-75330227D01*
X58405796Y-75354496D01*
X58407000Y-75379000D01*
X58407000Y-77529000D01*
X58405796Y-77553504D01*
X58402196Y-77577773D01*
X58396235Y-77601571D01*
X58387970Y-77624671D01*
X58377480Y-77646849D01*
X58364867Y-77667893D01*
X58350253Y-77687598D01*
X58333777Y-77705777D01*
X58315598Y-77722253D01*
X58295893Y-77736867D01*
X58274849Y-77749480D01*
X58252671Y-77759970D01*
X58229571Y-77768235D01*
X58205773Y-77774196D01*
X58181504Y-77777796D01*
X58157000Y-77779000D01*
X57232000Y-77779000D01*
X57207496Y-77777796D01*
X57183227Y-77774196D01*
X57159429Y-77768235D01*
X57136329Y-77759970D01*
X57114151Y-77749480D01*
X57093107Y-77736867D01*
X57073402Y-77722253D01*
X57055223Y-77705777D01*
X57038747Y-77687598D01*
X57024133Y-77667893D01*
X57011520Y-77646849D01*
X57001030Y-77624671D01*
X56992765Y-77601571D01*
X56986804Y-77577773D01*
X56983204Y-77553504D01*
X56982000Y-77529000D01*
X56982000Y-75379000D01*
X56983204Y-75354496D01*
X56986804Y-75330227D01*
X56992765Y-75306429D01*
X57001030Y-75283329D01*
X57011520Y-75261151D01*
X57024133Y-75240107D01*
X57038747Y-75220402D01*
X57055223Y-75202223D01*
X57073402Y-75185747D01*
X57093107Y-75171133D01*
X57114151Y-75158520D01*
X57136329Y-75148030D01*
X57159429Y-75139765D01*
X57183227Y-75133804D01*
X57207496Y-75130204D01*
X57232000Y-75129000D01*
X58157000Y-75129000D01*
X58181504Y-75130204D01*
G37*
G04 #@! TD.AperFunction*
D25*
X44069000Y-132461000D03*
X44831000Y-132461000D03*
X45593000Y-132461000D03*
X45593000Y-131699000D03*
X44831000Y-131699000D03*
X44069000Y-131699000D03*
X44069000Y-130937000D03*
X44831000Y-130937000D03*
X45593000Y-130937000D03*
X38989000Y-132461000D03*
X39878000Y-132461000D03*
X40640000Y-132461000D03*
X40640000Y-131699000D03*
X39878000Y-131699000D03*
X38989000Y-131699000D03*
X38989000Y-130937000D03*
X39878000Y-130937000D03*
X40640000Y-130937000D03*
X38989000Y-130175000D03*
X39878000Y-130175000D03*
X40640000Y-130175000D03*
X44831000Y-130175000D03*
X44069000Y-130175000D03*
X45593000Y-130175000D03*
D26*
X64516000Y-82804000D03*
X70564500Y-83010500D03*
X65913000Y-76581000D03*
X82042000Y-79629000D03*
X49276000Y-83820000D03*
X37465000Y-59944000D03*
X74549000Y-61468000D03*
X61593391Y-120521391D03*
X61849000Y-111252000D03*
X83693000Y-124714000D03*
X83312000Y-114173000D03*
X44450000Y-89789000D03*
X75311000Y-83058000D03*
X65024000Y-90170000D03*
X60960000Y-90170000D03*
X65985000Y-88900000D03*
X68485000Y-104489000D03*
X68485000Y-102965000D03*
X68485000Y-101441000D03*
X47244000Y-88646000D03*
X65267000Y-83809000D03*
X60345000Y-79355000D03*
X40132000Y-60452000D03*
X48768000Y-82296000D03*
X48260000Y-112776000D03*
X61615000Y-79355000D03*
X72517000Y-74803000D03*
X48006000Y-73406000D03*
X44056000Y-111900000D03*
X65024000Y-92710000D03*
X60960000Y-92710000D03*
X67564000Y-93218000D03*
X69723000Y-93218000D03*
X45974000Y-60452000D03*
X54102000Y-61976000D03*
X65024000Y-91440000D03*
X60960000Y-91440000D03*
X67564000Y-91440000D03*
X44196000Y-67056000D03*
X46125000Y-66699000D03*
X46736000Y-76962000D03*
X63500000Y-82042000D03*
X65486000Y-81326000D03*
X46125000Y-81891000D03*
X62992000Y-75946000D03*
X56896000Y-73152000D03*
X56896000Y-70612000D03*
X56896000Y-68580000D03*
X51816000Y-76708000D03*
X50800000Y-82804000D03*
X62738000Y-83058000D03*
X50038000Y-68834000D03*
X60579000Y-83185000D03*
X48006000Y-69088000D03*
X82550000Y-84709000D03*
X82550000Y-75438000D03*
D27*
X54864000Y-131445000D02*
X54864000Y-126906000D01*
X52559999Y-124601999D02*
X54864000Y-126906000D01*
X52559999Y-123989999D02*
X52559999Y-124601999D01*
X51760000Y-123190000D02*
X52559999Y-123989999D01*
X58274999Y-115734999D02*
X61759999Y-115734999D01*
X57475000Y-114935000D02*
X58274999Y-115734999D01*
X54864000Y-126906000D02*
X61593391Y-120521391D01*
X61759999Y-115734999D02*
X64135000Y-118110000D01*
X64135000Y-118110000D02*
X72390000Y-109380000D01*
D28*
X70358000Y-82804000D02*
X70564500Y-83010500D01*
X64516000Y-82804000D02*
X70358000Y-82804000D01*
D29*
X61382000Y-77166500D02*
X65327500Y-77166500D01*
X60669500Y-76454000D02*
X61382000Y-77166500D01*
X65327500Y-77166500D02*
X65913000Y-76581000D01*
X65913000Y-76581000D02*
X66040000Y-76454000D01*
D27*
X61593391Y-120521391D02*
X64135000Y-118110000D01*
D29*
X49276000Y-83820000D02*
X44450000Y-88646000D01*
X44450000Y-88646000D02*
X44450000Y-89789000D01*
X44450000Y-89789000D02*
X44450000Y-89789000D01*
X82607685Y-79629000D02*
X82042000Y-79629000D01*
X83515000Y-79629000D02*
X82607685Y-79629000D01*
X84074000Y-79070000D02*
X83515000Y-79629000D01*
X84074000Y-78495000D02*
X84074000Y-79070000D01*
X84074000Y-80315000D02*
X84074000Y-80890000D01*
X83388000Y-79629000D02*
X84074000Y-80315000D01*
X82042000Y-79629000D02*
X83388000Y-79629000D01*
D30*
X65024000Y-90170000D02*
X60960000Y-90170000D01*
D31*
X65985000Y-89153990D02*
X65024000Y-90114990D01*
X65985000Y-88900000D02*
X65985000Y-89153990D01*
D27*
X68580000Y-99314000D02*
X68580000Y-104394000D01*
X71923010Y-92306727D02*
X71923010Y-95970990D01*
X68516283Y-88900000D02*
X71923010Y-92306727D01*
X71923010Y-95970990D02*
X68580000Y-99314000D01*
X65985000Y-88900000D02*
X68516283Y-88900000D01*
D31*
X77787500Y-133695000D02*
X77787500Y-131445000D01*
X76354500Y-135128000D02*
X77787500Y-133695000D01*
X53340000Y-135128000D02*
X76354500Y-135128000D01*
X48260000Y-123190000D02*
X48260000Y-125240000D01*
X41910000Y-122852500D02*
X41910000Y-120650000D01*
X44297500Y-125240000D02*
X41910000Y-122852500D01*
X48260000Y-125240000D02*
X44297500Y-125240000D01*
X48260000Y-130048000D02*
X53340000Y-135128000D01*
X48260000Y-125240000D02*
X48260000Y-130048000D01*
D28*
X47244000Y-88646000D02*
X55118000Y-88646000D01*
X55118000Y-88646000D02*
X58674000Y-85090000D01*
X63986000Y-85090000D02*
X65267000Y-83809000D01*
X58674000Y-85090000D02*
X63986000Y-85090000D01*
X43660000Y-115570000D02*
X41910000Y-115570000D01*
X47244000Y-112014000D02*
X43688000Y-115570000D01*
X43688000Y-115570000D02*
X43660000Y-115570000D01*
X44323000Y-114935000D02*
X43688000Y-115570000D01*
X53975000Y-114935000D02*
X44323000Y-114935000D01*
X47244000Y-98224484D02*
X47244000Y-112014000D01*
X55118000Y-90350484D02*
X47244000Y-98224484D01*
X55118000Y-88646000D02*
X55118000Y-90350484D01*
D29*
X45974000Y-73397000D02*
X46674000Y-73397000D01*
D28*
X59817000Y-86995000D02*
X79375000Y-86995000D01*
X48260000Y-112776000D02*
X48260000Y-98552000D01*
X48260000Y-98552000D02*
X59817000Y-86995000D01*
X60345000Y-79355000D02*
X58273000Y-79355000D01*
X60345000Y-79355000D02*
X61615000Y-79355000D01*
X67965000Y-79355000D02*
X72517000Y-74803000D01*
X73152000Y-74168000D02*
X84836000Y-74168000D01*
X84836000Y-74168000D02*
X86868000Y-76200000D01*
X86868000Y-76200000D02*
X86868000Y-83566000D01*
X83439000Y-86995000D02*
X79375000Y-86995000D01*
X86868000Y-83566000D02*
X83439000Y-86995000D01*
X57694500Y-78776500D02*
X57694500Y-76454000D01*
X58273000Y-79355000D02*
X57694500Y-78776500D01*
X61615000Y-79355000D02*
X67965000Y-79355000D01*
X72517000Y-74803000D02*
X73152000Y-74168000D01*
D29*
X40132000Y-61214000D02*
X40894000Y-61976000D01*
X40132000Y-60452000D02*
X40132000Y-61214000D01*
X40894000Y-61976000D02*
X42926000Y-61976000D01*
X42926000Y-61976000D02*
X43434000Y-62484000D01*
X48006000Y-81534000D02*
X48768000Y-82296000D01*
X48006000Y-73406000D02*
X48006000Y-81534000D01*
X45983000Y-73406000D02*
X45974000Y-73397000D01*
X48006000Y-73406000D02*
X45983000Y-73406000D01*
X45274000Y-73397000D02*
X45974000Y-73397000D01*
X43434000Y-71557000D02*
X45274000Y-73397000D01*
X43434000Y-62484000D02*
X43434000Y-71557000D01*
X44056000Y-111334315D02*
X38354000Y-105632315D01*
X44056000Y-111900000D02*
X44056000Y-111334315D01*
X38354000Y-89954998D02*
X42710998Y-85598000D01*
X38354000Y-105632315D02*
X38354000Y-89954998D01*
X42710998Y-85598000D02*
X46482000Y-85598000D01*
X46482000Y-85598000D02*
X48260000Y-83820000D01*
X48260000Y-82804000D02*
X48768000Y-82296000D01*
X48260000Y-83820000D02*
X48260000Y-82804000D01*
D30*
X65024000Y-92710000D02*
X60960000Y-92710000D01*
D27*
X67564000Y-93218000D02*
X69723000Y-93218000D01*
D30*
X67056000Y-92710000D02*
X67564000Y-93218000D01*
X65024000Y-92710000D02*
X67056000Y-92710000D01*
D27*
X69723000Y-93218000D02*
X69723000Y-93218000D01*
D29*
X46373999Y-60851999D02*
X52977999Y-60851999D01*
X45974000Y-60452000D02*
X46373999Y-60851999D01*
X52977999Y-60851999D02*
X54102000Y-61976000D01*
X54102000Y-61976000D02*
X54102000Y-61976000D01*
D30*
X60960000Y-91440000D02*
X65024000Y-91440000D01*
D29*
X44196000Y-67056000D02*
X45466000Y-65786000D01*
X66294000Y-65786000D02*
X68072000Y-64008000D01*
X45466000Y-65786000D02*
X66294000Y-65786000D01*
X67921000Y-66699000D02*
X68072000Y-66548000D01*
X46125000Y-66699000D02*
X67921000Y-66699000D01*
X45974000Y-75447000D02*
X45974000Y-76200000D01*
X45974000Y-76200000D02*
X46736000Y-76962000D01*
X46736000Y-76962000D02*
X46736000Y-76962000D01*
X79422000Y-82042000D02*
X79375000Y-81995000D01*
X77465812Y-81995000D02*
X79375000Y-81995000D01*
X64074686Y-82051001D02*
X77409811Y-82051001D01*
X64065685Y-82042000D02*
X64074686Y-82051001D01*
X77409811Y-82051001D02*
X77465812Y-81995000D01*
X63500000Y-82042000D02*
X64065685Y-82042000D01*
X75044000Y-81326000D02*
X79375000Y-76995000D01*
X65486000Y-81326000D02*
X75044000Y-81326000D01*
X46125000Y-83717000D02*
X46228000Y-83820000D01*
X46125000Y-81891000D02*
X46125000Y-83717000D01*
X62992000Y-75946000D02*
X62992000Y-73660000D01*
X54356000Y-73152000D02*
X53848000Y-73660000D01*
X56896000Y-73152000D02*
X54356000Y-73152000D01*
X51816000Y-70612000D02*
X51562000Y-70358000D01*
X56896000Y-70612000D02*
X51816000Y-70612000D01*
X54864000Y-68580000D02*
X54356000Y-69088000D01*
X56896000Y-68580000D02*
X54864000Y-68580000D01*
X50800000Y-76708000D02*
X49276000Y-75184000D01*
X51816000Y-76708000D02*
X50800000Y-76708000D01*
X50800000Y-83312000D02*
X51308000Y-83820000D01*
X50800000Y-82804000D02*
X50800000Y-83312000D01*
X62139999Y-82459999D02*
X61123999Y-82459999D01*
X62738000Y-83058000D02*
X62139999Y-82459999D01*
X61123999Y-82459999D02*
X60107999Y-82459999D01*
X60107999Y-82459999D02*
X50038000Y-72390000D01*
X50038000Y-72390000D02*
X50038000Y-68834000D01*
X50038000Y-68834000D02*
X50038000Y-68580000D01*
X60013315Y-83185000D02*
X54356000Y-77527685D01*
X60579000Y-83185000D02*
X60013315Y-83185000D01*
X54356000Y-77527685D02*
X54356000Y-77470000D01*
X48006000Y-71120000D02*
X48006000Y-69088000D01*
X54356000Y-77470000D02*
X48006000Y-71120000D01*
X48006000Y-69088000D02*
X48006000Y-69088000D01*
X83374000Y-82940000D02*
X82550000Y-83764000D01*
X84074000Y-82940000D02*
X83374000Y-82940000D01*
X82550000Y-83764000D02*
X82550000Y-84709000D01*
X82550000Y-84709000D02*
X82550000Y-84709000D01*
X83374000Y-76445000D02*
X82550000Y-75621000D01*
X84074000Y-76445000D02*
X83374000Y-76445000D01*
X82550000Y-75621000D02*
X82550000Y-75438000D01*
X82550000Y-75438000D02*
X82550000Y-75438000D01*
D32*
G36*
X90145001Y-74262581D02*
G01*
X90145000Y-137135000D01*
X35585000Y-137135000D01*
X35585000Y-130840119D01*
X37743000Y-130840119D01*
X37743000Y-132049882D01*
X37773892Y-132363533D01*
X37895974Y-132765982D01*
X38094224Y-133136881D01*
X38361024Y-133461977D01*
X38686120Y-133728777D01*
X39057019Y-133927026D01*
X39459468Y-134049108D01*
X39878000Y-134090330D01*
X40296533Y-134049108D01*
X40698982Y-133927026D01*
X41069881Y-133728777D01*
X41394977Y-133461977D01*
X41661777Y-133136881D01*
X41860026Y-132765981D01*
X41982108Y-132363532D01*
X42013000Y-132049881D01*
X42013000Y-130840119D01*
X42823000Y-130840119D01*
X42823000Y-132049882D01*
X42853892Y-132363533D01*
X42975974Y-132765982D01*
X43174224Y-133136881D01*
X43441024Y-133461977D01*
X43766120Y-133728777D01*
X44137019Y-133927026D01*
X44539468Y-134049108D01*
X44958000Y-134090330D01*
X45376533Y-134049108D01*
X45778982Y-133927026D01*
X46149881Y-133728777D01*
X46474977Y-133461977D01*
X46741777Y-133136881D01*
X46940026Y-132765981D01*
X47062108Y-132363532D01*
X47093000Y-132049881D01*
X47093000Y-130840118D01*
X47062108Y-130526467D01*
X46940026Y-130124018D01*
X46741777Y-129753119D01*
X46474977Y-129428023D01*
X46149881Y-129161223D01*
X45778981Y-128962974D01*
X45376532Y-128840892D01*
X44958000Y-128799670D01*
X44539467Y-128840892D01*
X44137018Y-128962974D01*
X43766119Y-129161223D01*
X43441023Y-129428023D01*
X43174223Y-129753119D01*
X42975974Y-130124019D01*
X42853892Y-130526468D01*
X42823000Y-130840119D01*
X42013000Y-130840119D01*
X42013000Y-130840118D01*
X41982108Y-130526467D01*
X41860026Y-130124018D01*
X41661777Y-129753119D01*
X41394977Y-129428023D01*
X41069881Y-129161223D01*
X40698981Y-128962974D01*
X40296532Y-128840892D01*
X39878000Y-128799670D01*
X39459467Y-128840892D01*
X39057018Y-128962974D01*
X38686119Y-129161223D01*
X38361023Y-129428023D01*
X38094223Y-129753119D01*
X37895974Y-130124019D01*
X37773892Y-130526468D01*
X37743000Y-130840119D01*
X35585000Y-130840119D01*
X35585000Y-119697500D01*
X40271928Y-119697500D01*
X40271928Y-121602500D01*
X40284188Y-121726982D01*
X40320498Y-121846680D01*
X40379463Y-121956994D01*
X40458815Y-122053685D01*
X40555506Y-122133037D01*
X40650000Y-122183546D01*
X40650000Y-122790617D01*
X40643905Y-122852500D01*
X40650000Y-122914383D01*
X40650000Y-122914392D01*
X40668232Y-123099502D01*
X40717074Y-123260512D01*
X40740280Y-123337013D01*
X40857280Y-123555905D01*
X40923603Y-123636720D01*
X41014735Y-123747765D01*
X41062816Y-123787224D01*
X43362781Y-126087190D01*
X43402235Y-126135265D01*
X43594095Y-126292720D01*
X43812986Y-126409720D01*
X44050497Y-126481768D01*
X44235607Y-126500000D01*
X44235617Y-126500000D01*
X44297500Y-126506095D01*
X44359383Y-126500000D01*
X47000000Y-126500000D01*
X47000001Y-129986107D01*
X46993905Y-130048000D01*
X47018233Y-130295003D01*
X47090280Y-130532513D01*
X47207280Y-130751405D01*
X47308360Y-130874571D01*
X47364736Y-130943265D01*
X47412811Y-130982719D01*
X52405281Y-135975190D01*
X52444735Y-136023265D01*
X52492810Y-136062719D01*
X52636594Y-136180720D01*
X52855486Y-136297720D01*
X53092997Y-136369768D01*
X53278107Y-136388000D01*
X53278117Y-136388000D01*
X53340000Y-136394095D01*
X53401883Y-136388000D01*
X76292617Y-136388000D01*
X76354500Y-136394095D01*
X76416383Y-136388000D01*
X76416393Y-136388000D01*
X76601503Y-136369768D01*
X76839014Y-136297720D01*
X77057905Y-136180720D01*
X77249765Y-136023265D01*
X77289223Y-135975185D01*
X78634691Y-134629718D01*
X78682765Y-134590265D01*
X78725629Y-134538035D01*
X78840220Y-134398406D01*
X78957220Y-134179514D01*
X78957220Y-134179513D01*
X79029268Y-133942003D01*
X79047500Y-133756893D01*
X79047500Y-133756884D01*
X79053595Y-133695001D01*
X79047500Y-133633118D01*
X79047500Y-133026046D01*
X79141994Y-132975537D01*
X79238685Y-132896185D01*
X79318037Y-132799494D01*
X79377002Y-132689180D01*
X79413312Y-132569482D01*
X79425572Y-132445000D01*
X79425572Y-130445000D01*
X79413312Y-130320518D01*
X79377002Y-130200820D01*
X79318037Y-130090506D01*
X79238685Y-129993815D01*
X79141994Y-129914463D01*
X79031680Y-129855498D01*
X78911982Y-129819188D01*
X78787500Y-129806928D01*
X76787500Y-129806928D01*
X76663018Y-129819188D01*
X76543320Y-129855498D01*
X76433006Y-129914463D01*
X76336315Y-129993815D01*
X76256963Y-130090506D01*
X76197998Y-130200820D01*
X76161688Y-130320518D01*
X76149428Y-130445000D01*
X76149428Y-132445000D01*
X76161688Y-132569482D01*
X76197998Y-132689180D01*
X76256963Y-132799494D01*
X76336315Y-132896185D01*
X76433006Y-132975537D01*
X76527500Y-133026046D01*
X76527500Y-133173091D01*
X75832592Y-133868000D01*
X53861909Y-133868000D01*
X52574322Y-132580413D01*
X53908192Y-132580413D01*
X54003956Y-132844814D01*
X54293571Y-132985704D01*
X54605108Y-133067384D01*
X54926595Y-133086718D01*
X55245675Y-133042961D01*
X55550088Y-132937795D01*
X55724044Y-132844814D01*
X55819808Y-132580413D01*
X54864000Y-131624605D01*
X53908192Y-132580413D01*
X52574322Y-132580413D01*
X51501504Y-131507595D01*
X53222282Y-131507595D01*
X53266039Y-131826675D01*
X53371205Y-132131088D01*
X53464186Y-132305044D01*
X53728587Y-132400808D01*
X54684395Y-131445000D01*
X55043605Y-131445000D01*
X55999413Y-132400808D01*
X56263814Y-132305044D01*
X56404704Y-132015429D01*
X56486384Y-131703892D01*
X56505718Y-131382405D01*
X56492219Y-131283967D01*
X61152500Y-131283967D01*
X61152500Y-131606033D01*
X61215332Y-131921912D01*
X61338582Y-132219463D01*
X61517513Y-132487252D01*
X61745248Y-132714987D01*
X62013037Y-132893918D01*
X62310588Y-133017168D01*
X62626467Y-133080000D01*
X62948533Y-133080000D01*
X63264412Y-133017168D01*
X63561963Y-132893918D01*
X63829752Y-132714987D01*
X64057487Y-132487252D01*
X64236418Y-132219463D01*
X64359668Y-131921912D01*
X64422500Y-131606033D01*
X64422500Y-131283967D01*
X68659500Y-131283967D01*
X68659500Y-131606033D01*
X68722332Y-131921912D01*
X68845582Y-132219463D01*
X69024513Y-132487252D01*
X69252248Y-132714987D01*
X69520037Y-132893918D01*
X69817588Y-133017168D01*
X70133467Y-133080000D01*
X70455533Y-133080000D01*
X70771412Y-133017168D01*
X71068963Y-132893918D01*
X71336752Y-132714987D01*
X71564487Y-132487252D01*
X71743418Y-132219463D01*
X71866668Y-131921912D01*
X71929500Y-131606033D01*
X71929500Y-131283967D01*
X71866668Y-130968088D01*
X71743418Y-130670537D01*
X71564487Y-130402748D01*
X71336752Y-130175013D01*
X71068963Y-129996082D01*
X70771412Y-129872832D01*
X70455533Y-129810000D01*
X70133467Y-129810000D01*
X69817588Y-129872832D01*
X69520037Y-129996082D01*
X69252248Y-130175013D01*
X69024513Y-130402748D01*
X68845582Y-130670537D01*
X68722332Y-130968088D01*
X68659500Y-131283967D01*
X64422500Y-131283967D01*
X64359668Y-130968088D01*
X64236418Y-130670537D01*
X64057487Y-130402748D01*
X63829752Y-130175013D01*
X63561963Y-129996082D01*
X63264412Y-129872832D01*
X62948533Y-129810000D01*
X62626467Y-129810000D01*
X62310588Y-129872832D01*
X62013037Y-129996082D01*
X61745248Y-130175013D01*
X61517513Y-130402748D01*
X61338582Y-130670537D01*
X61215332Y-130968088D01*
X61152500Y-131283967D01*
X56492219Y-131283967D01*
X56461961Y-131063325D01*
X56356795Y-130758912D01*
X56263814Y-130584956D01*
X55999413Y-130489192D01*
X55043605Y-131445000D01*
X54684395Y-131445000D01*
X53728587Y-130489192D01*
X53464186Y-130584956D01*
X53323296Y-130874571D01*
X53241616Y-131186108D01*
X53222282Y-131507595D01*
X51501504Y-131507595D01*
X50303496Y-130309587D01*
X53908192Y-130309587D01*
X54864000Y-131265395D01*
X55819808Y-130309587D01*
X55724044Y-130045186D01*
X55434429Y-129904296D01*
X55122892Y-129822616D01*
X54801405Y-129803282D01*
X54482325Y-129847039D01*
X54177912Y-129952205D01*
X54003956Y-130045186D01*
X53908192Y-130309587D01*
X50303496Y-130309587D01*
X49520000Y-129526092D01*
X49520000Y-125301893D01*
X49526096Y-125240000D01*
X49520000Y-125178107D01*
X49520000Y-124430444D01*
X49590537Y-124344494D01*
X49649502Y-124234180D01*
X49665117Y-124182702D01*
X50946903Y-124182702D01*
X51018486Y-124426671D01*
X51273996Y-124547571D01*
X51548184Y-124616300D01*
X51830512Y-124630217D01*
X52110130Y-124588787D01*
X52376292Y-124493603D01*
X52501514Y-124426671D01*
X52573097Y-124182702D01*
X51760000Y-123369605D01*
X50946903Y-124182702D01*
X49665117Y-124182702D01*
X49685812Y-124114482D01*
X49698072Y-123990000D01*
X49698072Y-123260512D01*
X50319783Y-123260512D01*
X50361213Y-123540130D01*
X50456397Y-123806292D01*
X50523329Y-123931514D01*
X50767298Y-124003097D01*
X51580395Y-123190000D01*
X51939605Y-123190000D01*
X52752702Y-124003097D01*
X52996671Y-123931514D01*
X53117571Y-123676004D01*
X53186300Y-123401816D01*
X53200217Y-123119488D01*
X53158787Y-122839870D01*
X53063603Y-122573708D01*
X52996671Y-122448486D01*
X52752702Y-122376903D01*
X51939605Y-123190000D01*
X51580395Y-123190000D01*
X50767298Y-122376903D01*
X50523329Y-122448486D01*
X50402429Y-122703996D01*
X50333700Y-122978184D01*
X50319783Y-123260512D01*
X49698072Y-123260512D01*
X49698072Y-122390000D01*
X49685812Y-122265518D01*
X49665118Y-122197298D01*
X50946903Y-122197298D01*
X51760000Y-123010395D01*
X52573097Y-122197298D01*
X52501514Y-121953329D01*
X52246004Y-121832429D01*
X51971816Y-121763700D01*
X51689488Y-121749783D01*
X51409870Y-121791213D01*
X51143708Y-121886397D01*
X51018486Y-121953329D01*
X50946903Y-122197298D01*
X49665118Y-122197298D01*
X49649502Y-122145820D01*
X49590537Y-122035506D01*
X49511185Y-121938815D01*
X49414494Y-121859463D01*
X49304180Y-121800498D01*
X49184482Y-121764188D01*
X49060000Y-121751928D01*
X47460000Y-121751928D01*
X47335518Y-121764188D01*
X47215820Y-121800498D01*
X47105506Y-121859463D01*
X47008815Y-121938815D01*
X46929463Y-122035506D01*
X46870498Y-122145820D01*
X46834188Y-122265518D01*
X46821928Y-122390000D01*
X46821928Y-123980000D01*
X44819409Y-123980000D01*
X43170000Y-122330592D01*
X43170000Y-122183546D01*
X43264494Y-122133037D01*
X43361185Y-122053685D01*
X43440537Y-121956994D01*
X43499502Y-121846680D01*
X43535812Y-121726982D01*
X43548072Y-121602500D01*
X43548072Y-119697500D01*
X43535812Y-119573018D01*
X43499502Y-119453320D01*
X43440537Y-119343006D01*
X43361185Y-119246315D01*
X43264494Y-119166963D01*
X43172781Y-119117941D01*
X43285969Y-118976923D01*
X43429571Y-118701094D01*
X43500563Y-118482980D01*
X43380594Y-118237000D01*
X42037000Y-118237000D01*
X42037000Y-118257000D01*
X41783000Y-118257000D01*
X41783000Y-118237000D01*
X40439406Y-118237000D01*
X40319437Y-118482980D01*
X40390429Y-118701094D01*
X40534031Y-118976923D01*
X40647219Y-119117941D01*
X40555506Y-119166963D01*
X40458815Y-119246315D01*
X40379463Y-119343006D01*
X40320498Y-119453320D01*
X40284188Y-119573018D01*
X40271928Y-119697500D01*
X35585000Y-119697500D01*
X35585000Y-81305000D01*
X42512581Y-81305000D01*
X42545000Y-81308193D01*
X42577419Y-81305000D01*
X42674383Y-81295450D01*
X42798793Y-81257710D01*
X42913450Y-81196425D01*
X43013948Y-81113948D01*
X43096425Y-81013450D01*
X43157710Y-80898793D01*
X43195450Y-80774383D01*
X43208193Y-80645000D01*
X43205000Y-80612581D01*
X43205000Y-72402801D01*
X44648135Y-73845936D01*
X44652992Y-73895255D01*
X44703528Y-74061851D01*
X44785595Y-74215387D01*
X44896038Y-74349962D01*
X44983816Y-74422000D01*
X44896038Y-74494038D01*
X44785595Y-74628613D01*
X44703528Y-74782149D01*
X44652992Y-74948745D01*
X44635928Y-75121999D01*
X44635928Y-75772001D01*
X44652992Y-75945255D01*
X44703528Y-76111851D01*
X44785595Y-76265387D01*
X44896038Y-76399962D01*
X45030613Y-76510405D01*
X45184149Y-76592472D01*
X45350745Y-76643008D01*
X45354720Y-76643400D01*
X45407737Y-76708000D01*
X45434000Y-76740001D01*
X45462998Y-76763799D01*
X45701000Y-77001801D01*
X45701000Y-77063939D01*
X45740774Y-77263898D01*
X45818795Y-77452256D01*
X45932063Y-77621774D01*
X46076226Y-77765937D01*
X46245744Y-77879205D01*
X46434102Y-77957226D01*
X46634061Y-77997000D01*
X46837939Y-77997000D01*
X47037898Y-77957226D01*
X47226256Y-77879205D01*
X47246001Y-77866012D01*
X47246001Y-81496668D01*
X47242324Y-81534000D01*
X47246001Y-81571333D01*
X47256998Y-81682986D01*
X47264944Y-81709180D01*
X47300454Y-81826246D01*
X47371026Y-81958276D01*
X47439737Y-82042000D01*
X47466000Y-82074001D01*
X47494998Y-82097799D01*
X47693495Y-82296296D01*
X47625026Y-82379724D01*
X47554454Y-82511754D01*
X47524180Y-82611558D01*
X47510998Y-82655014D01*
X47501421Y-82752246D01*
X47496324Y-82804000D01*
X47500001Y-82841332D01*
X47500001Y-83271702D01*
X47455371Y-83163957D01*
X47303799Y-82937114D01*
X47110886Y-82744201D01*
X46885865Y-82593846D01*
X46928937Y-82550774D01*
X47042205Y-82381256D01*
X47120226Y-82192898D01*
X47160000Y-81992939D01*
X47160000Y-81789061D01*
X47120226Y-81589102D01*
X47042205Y-81400744D01*
X46928937Y-81231226D01*
X46784774Y-81087063D01*
X46615256Y-80973795D01*
X46426898Y-80895774D01*
X46226939Y-80856000D01*
X46023061Y-80856000D01*
X45823102Y-80895774D01*
X45634744Y-80973795D01*
X45465226Y-81087063D01*
X45321063Y-81231226D01*
X45207795Y-81400744D01*
X45129774Y-81589102D01*
X45090000Y-81789061D01*
X45090000Y-81992939D01*
X45129774Y-82192898D01*
X45207795Y-82381256D01*
X45321063Y-82550774D01*
X45365000Y-82594711D01*
X45365000Y-82730913D01*
X45345114Y-82744201D01*
X45152201Y-82937114D01*
X45000629Y-83163957D01*
X44896225Y-83416011D01*
X44843000Y-83683589D01*
X44843000Y-83956411D01*
X44896225Y-84223989D01*
X45000629Y-84476043D01*
X45152201Y-84702886D01*
X45287315Y-84838000D01*
X42748323Y-84838000D01*
X42710998Y-84834324D01*
X42673673Y-84838000D01*
X42673665Y-84838000D01*
X42562012Y-84848997D01*
X42418751Y-84892454D01*
X42286722Y-84963026D01*
X42170997Y-85057999D01*
X42147199Y-85086997D01*
X37842998Y-89391199D01*
X37814000Y-89414997D01*
X37790202Y-89443995D01*
X37790201Y-89443996D01*
X37719026Y-89530722D01*
X37648454Y-89662752D01*
X37604998Y-89806013D01*
X37590324Y-89954998D01*
X37594001Y-89992331D01*
X37594000Y-105594993D01*
X37590324Y-105632315D01*
X37594000Y-105669637D01*
X37594000Y-105669647D01*
X37604997Y-105781300D01*
X37644599Y-105911852D01*
X37648454Y-105924561D01*
X37719026Y-106056591D01*
X37758871Y-106105141D01*
X37813999Y-106172316D01*
X37843003Y-106196119D01*
X43114728Y-111467845D01*
X43060774Y-111598102D01*
X43021000Y-111798061D01*
X43021000Y-112001939D01*
X43060774Y-112201898D01*
X43138795Y-112390256D01*
X43252063Y-112559774D01*
X43396226Y-112703937D01*
X43565744Y-112817205D01*
X43754102Y-112895226D01*
X43954061Y-112935000D01*
X44157939Y-112935000D01*
X44357898Y-112895226D01*
X44546256Y-112817205D01*
X44715774Y-112703937D01*
X44859937Y-112559774D01*
X44973205Y-112390256D01*
X45051226Y-112201898D01*
X45091000Y-112001939D01*
X45091000Y-111798061D01*
X45051226Y-111598102D01*
X44973205Y-111409744D01*
X44859937Y-111240226D01*
X44804987Y-111185276D01*
X44761546Y-111042068D01*
X44690974Y-110910039D01*
X44596001Y-110794314D01*
X44567003Y-110770516D01*
X39114000Y-105317514D01*
X39114000Y-90269799D01*
X43025800Y-86358000D01*
X46444678Y-86358000D01*
X46482000Y-86361676D01*
X46519322Y-86358000D01*
X46519333Y-86358000D01*
X46630986Y-86347003D01*
X46774247Y-86303546D01*
X46906276Y-86232974D01*
X47022001Y-86138001D01*
X47045804Y-86108997D01*
X48771004Y-84383798D01*
X48800001Y-84360001D01*
X48894974Y-84244276D01*
X48965546Y-84112247D01*
X49009003Y-83968986D01*
X49020000Y-83857333D01*
X49020000Y-83857325D01*
X49023676Y-83820000D01*
X49020000Y-83782675D01*
X49020000Y-83301151D01*
X49069898Y-83291226D01*
X49258256Y-83213205D01*
X49427774Y-83099937D01*
X49571937Y-82955774D01*
X49685205Y-82786256D01*
X49720079Y-82702061D01*
X49765000Y-82702061D01*
X49765000Y-82905939D01*
X49804774Y-83105898D01*
X49882795Y-83294256D01*
X49973455Y-83429938D01*
X49923000Y-83683589D01*
X49923000Y-83956411D01*
X49976225Y-84223989D01*
X50080629Y-84476043D01*
X50232201Y-84702886D01*
X50425114Y-84895799D01*
X50651957Y-85047371D01*
X50904011Y-85151775D01*
X51171589Y-85205000D01*
X51444411Y-85205000D01*
X51711989Y-85151775D01*
X51964043Y-85047371D01*
X52190886Y-84895799D01*
X52383799Y-84702886D01*
X52535371Y-84476043D01*
X52639775Y-84223989D01*
X52693000Y-83956411D01*
X52693000Y-83683589D01*
X52639775Y-83416011D01*
X52535371Y-83163957D01*
X52383799Y-82937114D01*
X52190886Y-82744201D01*
X51964043Y-82592629D01*
X51799692Y-82524553D01*
X51795226Y-82502102D01*
X51717205Y-82313744D01*
X51603937Y-82144226D01*
X51459774Y-82000063D01*
X51290256Y-81886795D01*
X51101898Y-81808774D01*
X50901939Y-81769000D01*
X50698061Y-81769000D01*
X50498102Y-81808774D01*
X50309744Y-81886795D01*
X50140226Y-82000063D01*
X49996063Y-82144226D01*
X49882795Y-82313744D01*
X49804774Y-82502102D01*
X49765000Y-82702061D01*
X49720079Y-82702061D01*
X49763226Y-82597898D01*
X49803000Y-82397939D01*
X49803000Y-82194061D01*
X49763226Y-81994102D01*
X49685205Y-81805744D01*
X49571937Y-81636226D01*
X49427774Y-81492063D01*
X49258256Y-81378795D01*
X49069898Y-81300774D01*
X48869939Y-81261000D01*
X48807801Y-81261000D01*
X48766000Y-81219199D01*
X48766000Y-76471864D01*
X48872011Y-76515775D01*
X49139589Y-76569000D01*
X49412411Y-76569000D01*
X49557365Y-76540167D01*
X50236205Y-77219008D01*
X50259999Y-77248001D01*
X50288992Y-77271795D01*
X50288996Y-77271799D01*
X50348964Y-77321013D01*
X50375724Y-77342974D01*
X50507753Y-77413546D01*
X50651014Y-77457003D01*
X50762667Y-77468000D01*
X50762676Y-77468000D01*
X50799999Y-77471676D01*
X50837322Y-77468000D01*
X51112289Y-77468000D01*
X51156226Y-77511937D01*
X51325744Y-77625205D01*
X51514102Y-77703226D01*
X51714061Y-77743000D01*
X51917939Y-77743000D01*
X52117898Y-77703226D01*
X52306256Y-77625205D01*
X52475774Y-77511937D01*
X52619937Y-77367774D01*
X52733205Y-77198256D01*
X52811226Y-77009898D01*
X52812864Y-77001665D01*
X53672645Y-77861447D01*
X53721026Y-77951961D01*
X53757989Y-77997000D01*
X53815999Y-78067686D01*
X53845003Y-78091489D01*
X59449516Y-83696003D01*
X59473314Y-83725001D01*
X59502312Y-83748799D01*
X59589039Y-83819974D01*
X59721068Y-83890546D01*
X59864276Y-83933987D01*
X59919226Y-83988937D01*
X60055512Y-84080000D01*
X58723604Y-84080000D01*
X58673999Y-84075114D01*
X58624394Y-84080000D01*
X58624392Y-84080000D01*
X58476006Y-84094615D01*
X58285620Y-84152368D01*
X58110160Y-84246153D01*
X57956367Y-84372367D01*
X57924739Y-84410906D01*
X54699645Y-87636000D01*
X47471623Y-87636000D01*
X47345939Y-87611000D01*
X47142061Y-87611000D01*
X46942102Y-87650774D01*
X46753744Y-87728795D01*
X46584226Y-87842063D01*
X46440063Y-87986226D01*
X46326795Y-88155744D01*
X46248774Y-88344102D01*
X46209000Y-88544061D01*
X46209000Y-88747939D01*
X46248774Y-88947898D01*
X46326795Y-89136256D01*
X46440063Y-89305774D01*
X46584226Y-89449937D01*
X46753744Y-89563205D01*
X46942102Y-89641226D01*
X47142061Y-89681000D01*
X47345939Y-89681000D01*
X47471623Y-89656000D01*
X54108001Y-89656000D01*
X54108001Y-89932127D01*
X46564906Y-97475223D01*
X46526367Y-97506851D01*
X46400153Y-97660644D01*
X46327725Y-97796148D01*
X46306368Y-97836105D01*
X46248615Y-98026490D01*
X46229114Y-98224484D01*
X46234000Y-98274092D01*
X46234001Y-111595644D01*
X43643906Y-114185739D01*
X43605367Y-114217367D01*
X43573739Y-114255906D01*
X43269645Y-114560000D01*
X43182273Y-114560000D01*
X43085463Y-114442037D01*
X42843735Y-114243655D01*
X42567949Y-114096245D01*
X42268704Y-114005470D01*
X42035486Y-113982500D01*
X41784514Y-113982500D01*
X41551296Y-114005470D01*
X41252051Y-114096245D01*
X40976265Y-114243655D01*
X40734537Y-114442037D01*
X40536155Y-114683765D01*
X40388745Y-114959551D01*
X40297970Y-115258796D01*
X40267319Y-115570000D01*
X40297970Y-115881204D01*
X40388745Y-116180449D01*
X40536155Y-116456235D01*
X40734537Y-116697963D01*
X40913899Y-116845163D01*
X40728685Y-117000563D01*
X40534031Y-117243077D01*
X40390429Y-117518906D01*
X40319437Y-117737020D01*
X40439406Y-117983000D01*
X41783000Y-117983000D01*
X41783000Y-117963000D01*
X42037000Y-117963000D01*
X42037000Y-117983000D01*
X43380594Y-117983000D01*
X43500563Y-117737020D01*
X43429571Y-117518906D01*
X43357254Y-117380000D01*
X69751928Y-117380000D01*
X69751928Y-121380000D01*
X69764188Y-121504482D01*
X69800498Y-121624180D01*
X69859463Y-121734494D01*
X69938815Y-121831185D01*
X70035506Y-121910537D01*
X70145820Y-121969502D01*
X70265518Y-122005812D01*
X70390000Y-122018072D01*
X74390000Y-122018072D01*
X74514482Y-122005812D01*
X74634180Y-121969502D01*
X74744494Y-121910537D01*
X74841185Y-121831185D01*
X74920537Y-121734494D01*
X74979502Y-121624180D01*
X75015812Y-121504482D01*
X75028072Y-121380000D01*
X75028072Y-117380000D01*
X75015812Y-117255518D01*
X74979502Y-117135820D01*
X74920537Y-117025506D01*
X74841185Y-116928815D01*
X74744494Y-116849463D01*
X74634180Y-116790498D01*
X74514482Y-116754188D01*
X74390000Y-116741928D01*
X70390000Y-116741928D01*
X70265518Y-116754188D01*
X70145820Y-116790498D01*
X70035506Y-116849463D01*
X69938815Y-116928815D01*
X69859463Y-117025506D01*
X69800498Y-117135820D01*
X69764188Y-117255518D01*
X69751928Y-117380000D01*
X43357254Y-117380000D01*
X43285969Y-117243077D01*
X43091315Y-117000563D01*
X42906101Y-116845163D01*
X43085463Y-116697963D01*
X43182273Y-116580000D01*
X43638392Y-116580000D01*
X43688000Y-116584886D01*
X43885994Y-116565385D01*
X43911585Y-116557622D01*
X44076380Y-116507632D01*
X44251840Y-116413847D01*
X44405633Y-116287633D01*
X44437261Y-116249094D01*
X44741355Y-115945000D01*
X52575130Y-115945000D01*
X52585498Y-115979180D01*
X52644463Y-116089494D01*
X52723815Y-116186185D01*
X52820506Y-116265537D01*
X52930820Y-116324502D01*
X53050518Y-116360812D01*
X53175000Y-116373072D01*
X54775000Y-116373072D01*
X54899482Y-116360812D01*
X55019180Y-116324502D01*
X55129494Y-116265537D01*
X55226185Y-116186185D01*
X55305537Y-116089494D01*
X55364502Y-115979180D01*
X55380117Y-115927702D01*
X56661903Y-115927702D01*
X56733486Y-116171671D01*
X56988996Y-116292571D01*
X57263184Y-116361300D01*
X57545512Y-116375217D01*
X57825130Y-116333787D01*
X58091292Y-116238603D01*
X58216514Y-116171671D01*
X58288097Y-115927702D01*
X57475000Y-115114605D01*
X56661903Y-115927702D01*
X55380117Y-115927702D01*
X55400812Y-115859482D01*
X55413072Y-115735000D01*
X55413072Y-115005512D01*
X56034783Y-115005512D01*
X56076213Y-115285130D01*
X56171397Y-115551292D01*
X56238329Y-115676514D01*
X56482298Y-115748097D01*
X57295395Y-114935000D01*
X57654605Y-114935000D01*
X58467702Y-115748097D01*
X58711671Y-115676514D01*
X58832571Y-115421004D01*
X58901300Y-115146816D01*
X58915217Y-114864488D01*
X58873787Y-114584870D01*
X58778603Y-114318708D01*
X58711671Y-114193486D01*
X58467702Y-114121903D01*
X57654605Y-114935000D01*
X57295395Y-114935000D01*
X56482298Y-114121903D01*
X56238329Y-114193486D01*
X56117429Y-114448996D01*
X56048700Y-114723184D01*
X56034783Y-115005512D01*
X55413072Y-115005512D01*
X55413072Y-114135000D01*
X55400812Y-114010518D01*
X55380118Y-113942298D01*
X56661903Y-113942298D01*
X57475000Y-114755395D01*
X58288097Y-113942298D01*
X58216514Y-113698329D01*
X57961004Y-113577429D01*
X57686816Y-113508700D01*
X57404488Y-113494783D01*
X57124870Y-113536213D01*
X56858708Y-113631397D01*
X56733486Y-113698329D01*
X56661903Y-113942298D01*
X55380118Y-113942298D01*
X55364502Y-113890820D01*
X55305537Y-113780506D01*
X55226185Y-113683815D01*
X55129494Y-113604463D01*
X55019180Y-113545498D01*
X54899482Y-113509188D01*
X54775000Y-113496928D01*
X53175000Y-113496928D01*
X53050518Y-113509188D01*
X52930820Y-113545498D01*
X52820506Y-113604463D01*
X52723815Y-113683815D01*
X52644463Y-113780506D01*
X52585498Y-113890820D01*
X52575130Y-113925000D01*
X46761355Y-113925000D01*
X47373759Y-113312596D01*
X47456063Y-113435774D01*
X47600226Y-113579937D01*
X47769744Y-113693205D01*
X47958102Y-113771226D01*
X48158061Y-113811000D01*
X48361939Y-113811000D01*
X48561898Y-113771226D01*
X48750256Y-113693205D01*
X48919774Y-113579937D01*
X49063937Y-113435774D01*
X49177205Y-113266256D01*
X49255226Y-113077898D01*
X49295000Y-112877939D01*
X49295000Y-112674061D01*
X49270000Y-112548377D01*
X49270000Y-111227499D01*
X70722106Y-111227499D01*
X70938228Y-111594258D01*
X71398105Y-111834938D01*
X71896098Y-111981275D01*
X72413071Y-112027648D01*
X72929159Y-111972273D01*
X73424526Y-111817279D01*
X73841772Y-111594258D01*
X74057894Y-111227499D01*
X72390000Y-109559605D01*
X70722106Y-111227499D01*
X49270000Y-111227499D01*
X49270000Y-109403071D01*
X69742352Y-109403071D01*
X69797727Y-109919159D01*
X69952721Y-110414526D01*
X70175742Y-110831772D01*
X70542501Y-111047894D01*
X72210395Y-109380000D01*
X72569605Y-109380000D01*
X74237499Y-111047894D01*
X74604258Y-110831772D01*
X74844938Y-110371895D01*
X74991275Y-109873902D01*
X75037648Y-109356929D01*
X74982273Y-108840841D01*
X74827279Y-108345474D01*
X74604258Y-107928228D01*
X74237499Y-107712106D01*
X72569605Y-109380000D01*
X72210395Y-109380000D01*
X70542501Y-107712106D01*
X70175742Y-107928228D01*
X69935062Y-108388105D01*
X69788725Y-108886098D01*
X69742352Y-109403071D01*
X49270000Y-109403071D01*
X49270000Y-107532501D01*
X70722106Y-107532501D01*
X72390000Y-109200395D01*
X74057894Y-107532501D01*
X73841772Y-107165742D01*
X73381895Y-106925062D01*
X72883902Y-106778725D01*
X72366929Y-106732352D01*
X71850841Y-106787727D01*
X71355474Y-106942721D01*
X70938228Y-107165742D01*
X70722106Y-107532501D01*
X49270000Y-107532501D01*
X49270000Y-98970355D01*
X60235355Y-88005000D01*
X64609480Y-88005000D01*
X64467148Y-88271285D01*
X64373657Y-88579484D01*
X64342089Y-88900000D01*
X64352399Y-89004682D01*
X64322082Y-89035000D01*
X60904248Y-89035000D01*
X60737501Y-89051423D01*
X60523553Y-89116324D01*
X60326377Y-89221716D01*
X60153551Y-89363551D01*
X60011716Y-89536377D01*
X59906324Y-89733553D01*
X59841423Y-89947501D01*
X59819509Y-90170000D01*
X59841423Y-90392499D01*
X59906324Y-90606447D01*
X60011716Y-90803623D01*
X60012846Y-90805000D01*
X60011716Y-90806377D01*
X59906324Y-91003553D01*
X59841423Y-91217501D01*
X59819509Y-91440000D01*
X59841423Y-91662499D01*
X59906324Y-91876447D01*
X60011716Y-92073623D01*
X60012846Y-92075000D01*
X60011716Y-92076377D01*
X59906324Y-92273553D01*
X59841423Y-92487501D01*
X59819509Y-92710000D01*
X59841423Y-92932499D01*
X59906324Y-93146447D01*
X60011716Y-93343623D01*
X60153551Y-93516449D01*
X60326377Y-93658284D01*
X60523553Y-93763676D01*
X60737501Y-93828577D01*
X60904248Y-93845000D01*
X66045628Y-93845000D01*
X66046148Y-93846715D01*
X66197969Y-94130752D01*
X66402286Y-94379714D01*
X66651248Y-94584031D01*
X66935285Y-94735852D01*
X67243484Y-94829343D01*
X67483678Y-94853000D01*
X69803322Y-94853000D01*
X70043516Y-94829343D01*
X70288011Y-94755176D01*
X70288011Y-95293750D01*
X67480687Y-98101075D01*
X67418286Y-98152286D01*
X67213969Y-98401249D01*
X67062148Y-98685286D01*
X66968657Y-98993485D01*
X66946360Y-99219869D01*
X66937089Y-99314000D01*
X66945000Y-99394320D01*
X66945001Y-104474322D01*
X66968658Y-104714516D01*
X67062149Y-105022715D01*
X67213970Y-105306752D01*
X67418287Y-105555714D01*
X67667249Y-105760031D01*
X67951286Y-105911852D01*
X68259485Y-106005343D01*
X68580000Y-106036911D01*
X68900516Y-106005343D01*
X69208715Y-105911852D01*
X69492752Y-105760031D01*
X69741714Y-105555714D01*
X69946031Y-105306752D01*
X70097852Y-105022715D01*
X70191343Y-104714516D01*
X70215000Y-104474322D01*
X70215000Y-99991238D01*
X71976743Y-98229495D01*
X77390000Y-98229495D01*
X77390000Y-98620505D01*
X77466282Y-99004003D01*
X77615915Y-99365250D01*
X77833149Y-99690364D01*
X78109636Y-99966851D01*
X78434750Y-100184085D01*
X78795997Y-100333718D01*
X79179495Y-100410000D01*
X79570505Y-100410000D01*
X79954003Y-100333718D01*
X80315250Y-100184085D01*
X80640364Y-99966851D01*
X80916851Y-99690364D01*
X81134085Y-99365250D01*
X81283718Y-99004003D01*
X81360000Y-98620505D01*
X81360000Y-98229495D01*
X81283718Y-97845997D01*
X81134085Y-97484750D01*
X80916851Y-97159636D01*
X80640364Y-96883149D01*
X80315250Y-96665915D01*
X79954003Y-96516282D01*
X79570505Y-96440000D01*
X79179495Y-96440000D01*
X78795997Y-96516282D01*
X78434750Y-96665915D01*
X78109636Y-96883149D01*
X77833149Y-97159636D01*
X77615915Y-97484750D01*
X77466282Y-97845997D01*
X77390000Y-98229495D01*
X71976743Y-98229495D01*
X73022329Y-97183910D01*
X73084724Y-97132704D01*
X73289041Y-96883742D01*
X73440862Y-96599705D01*
X73534353Y-96291506D01*
X73558010Y-96051312D01*
X73558010Y-96051310D01*
X73565921Y-95970991D01*
X73558010Y-95890671D01*
X73558010Y-93229495D01*
X77390000Y-93229495D01*
X77390000Y-93620505D01*
X77466282Y-94004003D01*
X77615915Y-94365250D01*
X77833149Y-94690364D01*
X78109636Y-94966851D01*
X78434750Y-95184085D01*
X78795997Y-95333718D01*
X79179495Y-95410000D01*
X79570505Y-95410000D01*
X79954003Y-95333718D01*
X80315250Y-95184085D01*
X80640364Y-94966851D01*
X80916851Y-94690364D01*
X81134085Y-94365250D01*
X81283718Y-94004003D01*
X81360000Y-93620505D01*
X81360000Y-93229495D01*
X81283718Y-92845997D01*
X81134085Y-92484750D01*
X80916851Y-92159636D01*
X80640364Y-91883149D01*
X80315250Y-91665915D01*
X79954003Y-91516282D01*
X79570505Y-91440000D01*
X79179495Y-91440000D01*
X78795997Y-91516282D01*
X78434750Y-91665915D01*
X78109636Y-91883149D01*
X77833149Y-92159636D01*
X77615915Y-92484750D01*
X77466282Y-92845997D01*
X77390000Y-93229495D01*
X73558010Y-93229495D01*
X73558010Y-92387057D01*
X73565922Y-92306727D01*
X73534353Y-91986210D01*
X73440862Y-91678012D01*
X73432570Y-91662499D01*
X73289041Y-91393975D01*
X73084724Y-91145013D01*
X73022335Y-91093812D01*
X69933521Y-88005000D01*
X77662520Y-88005000D01*
X77833149Y-88260364D01*
X78109636Y-88536851D01*
X78434750Y-88754085D01*
X78795997Y-88903718D01*
X79179495Y-88980000D01*
X79570505Y-88980000D01*
X79954003Y-88903718D01*
X80315250Y-88754085D01*
X80640364Y-88536851D01*
X80916851Y-88260364D01*
X81087480Y-88005000D01*
X83389392Y-88005000D01*
X83439000Y-88009886D01*
X83491299Y-88004735D01*
X83636994Y-87990385D01*
X83827380Y-87932632D01*
X84002840Y-87838847D01*
X84156633Y-87712633D01*
X84188261Y-87674094D01*
X87547094Y-84315261D01*
X87585633Y-84283633D01*
X87711847Y-84129840D01*
X87805632Y-83954380D01*
X87863385Y-83763994D01*
X87878000Y-83615608D01*
X87878000Y-83615606D01*
X87882886Y-83566001D01*
X87878000Y-83516396D01*
X87878000Y-76249608D01*
X87882886Y-76200000D01*
X87863385Y-76002005D01*
X87805632Y-75811620D01*
X87767296Y-75739898D01*
X87711847Y-75636160D01*
X87585633Y-75482367D01*
X87547100Y-75450744D01*
X85585261Y-73488906D01*
X85553633Y-73450367D01*
X85399840Y-73324153D01*
X85224380Y-73230368D01*
X85033994Y-73172615D01*
X84885608Y-73158000D01*
X84836000Y-73153114D01*
X84786392Y-73158000D01*
X73201608Y-73158000D01*
X73152000Y-73153114D01*
X72954005Y-73172615D01*
X72763620Y-73230368D01*
X72588160Y-73324153D01*
X72434367Y-73450367D01*
X72402739Y-73488906D01*
X71963777Y-73927868D01*
X71857226Y-73999063D01*
X71713063Y-74143226D01*
X71641868Y-74249777D01*
X67546645Y-78345000D01*
X61842623Y-78345000D01*
X61716939Y-78320000D01*
X61716919Y-78320000D01*
X61736494Y-78309537D01*
X61833185Y-78230185D01*
X61912537Y-78133494D01*
X61971502Y-78023180D01*
X62007812Y-77903482D01*
X62020072Y-77779000D01*
X62017000Y-76739750D01*
X61858250Y-76581000D01*
X60796500Y-76581000D01*
X60796500Y-76601000D01*
X60542500Y-76601000D01*
X60542500Y-76581000D01*
X59480750Y-76581000D01*
X59322000Y-76739750D01*
X59318928Y-77779000D01*
X59331188Y-77903482D01*
X59367498Y-78023180D01*
X59426463Y-78133494D01*
X59505815Y-78230185D01*
X59602506Y-78309537D01*
X59668852Y-78345000D01*
X58704500Y-78345000D01*
X58704500Y-78222995D01*
X58784962Y-78156962D01*
X58895405Y-78022386D01*
X58977472Y-77868850D01*
X59028008Y-77702254D01*
X59045072Y-77529000D01*
X59045072Y-75379000D01*
X59028008Y-75205746D01*
X59004728Y-75129000D01*
X59318928Y-75129000D01*
X59322000Y-76168250D01*
X59480750Y-76327000D01*
X60542500Y-76327000D01*
X60542500Y-74652750D01*
X60796500Y-74652750D01*
X60796500Y-76327000D01*
X61858250Y-76327000D01*
X61986915Y-76198335D01*
X61996774Y-76247898D01*
X62074795Y-76436256D01*
X62188063Y-76605774D01*
X62332226Y-76749937D01*
X62501744Y-76863205D01*
X62690102Y-76941226D01*
X62890061Y-76981000D01*
X63093939Y-76981000D01*
X63293898Y-76941226D01*
X63482256Y-76863205D01*
X63651774Y-76749937D01*
X63795937Y-76605774D01*
X63909205Y-76436256D01*
X63987226Y-76247898D01*
X64027000Y-76047939D01*
X64027000Y-75844061D01*
X63987226Y-75644102D01*
X63909205Y-75455744D01*
X63795937Y-75286226D01*
X63752000Y-75242289D01*
X63752000Y-75018000D01*
X66583928Y-75018000D01*
X66596188Y-75142482D01*
X66632498Y-75262180D01*
X66691463Y-75372494D01*
X66770815Y-75469185D01*
X66867506Y-75548537D01*
X66977820Y-75607502D01*
X67097518Y-75643812D01*
X67222000Y-75656072D01*
X67786250Y-75653000D01*
X67945000Y-75494250D01*
X67945000Y-74295000D01*
X68199000Y-74295000D01*
X68199000Y-75494250D01*
X68357750Y-75653000D01*
X68922000Y-75656072D01*
X69046482Y-75643812D01*
X69166180Y-75607502D01*
X69276494Y-75548537D01*
X69373185Y-75469185D01*
X69452537Y-75372494D01*
X69511502Y-75262180D01*
X69547812Y-75142482D01*
X69560072Y-75018000D01*
X69557000Y-74453750D01*
X69398250Y-74295000D01*
X68199000Y-74295000D01*
X67945000Y-74295000D01*
X66745750Y-74295000D01*
X66587000Y-74453750D01*
X66583928Y-75018000D01*
X63752000Y-75018000D01*
X63752000Y-74817909D01*
X63874886Y-74735799D01*
X64067799Y-74542886D01*
X64219371Y-74316043D01*
X64323775Y-74063989D01*
X64377000Y-73796411D01*
X64377000Y-73523589D01*
X64336106Y-73318000D01*
X66583928Y-73318000D01*
X66587000Y-73882250D01*
X66745750Y-74041000D01*
X67945000Y-74041000D01*
X67945000Y-71755000D01*
X68199000Y-71755000D01*
X68199000Y-74041000D01*
X69398250Y-74041000D01*
X69557000Y-73882250D01*
X69560072Y-73318000D01*
X69547812Y-73193518D01*
X69511502Y-73073820D01*
X69452537Y-72963506D01*
X69373185Y-72866815D01*
X69276494Y-72787463D01*
X69166180Y-72728498D01*
X69085534Y-72704034D01*
X69169588Y-72628269D01*
X69343641Y-72394920D01*
X69468825Y-72132099D01*
X69513476Y-71984890D01*
X69392155Y-71755000D01*
X68199000Y-71755000D01*
X67945000Y-71755000D01*
X66751845Y-71755000D01*
X66630524Y-71984890D01*
X66675175Y-72132099D01*
X66800359Y-72394920D01*
X66974412Y-72628269D01*
X67058466Y-72704034D01*
X66977820Y-72728498D01*
X66867506Y-72787463D01*
X66770815Y-72866815D01*
X66691463Y-72963506D01*
X66632498Y-73073820D01*
X66596188Y-73193518D01*
X66583928Y-73318000D01*
X64336106Y-73318000D01*
X64323775Y-73256011D01*
X64219371Y-73003957D01*
X64067799Y-72777114D01*
X63874886Y-72584201D01*
X63648043Y-72432629D01*
X63395989Y-72328225D01*
X63128411Y-72275000D01*
X62855589Y-72275000D01*
X62588011Y-72328225D01*
X62335957Y-72432629D01*
X62109114Y-72584201D01*
X61916201Y-72777114D01*
X61764629Y-73003957D01*
X61660225Y-73256011D01*
X61607000Y-73523589D01*
X61607000Y-73796411D01*
X61660225Y-74063989D01*
X61764629Y-74316043D01*
X61916201Y-74542886D01*
X62109114Y-74735799D01*
X62232000Y-74817909D01*
X62232000Y-75242289D01*
X62188063Y-75286226D01*
X62074795Y-75455744D01*
X62018706Y-75591154D01*
X62020072Y-75129000D01*
X62007812Y-75004518D01*
X61971502Y-74884820D01*
X61912537Y-74774506D01*
X61833185Y-74677815D01*
X61736494Y-74598463D01*
X61626180Y-74539498D01*
X61506482Y-74503188D01*
X61382000Y-74490928D01*
X60955250Y-74494000D01*
X60796500Y-74652750D01*
X60542500Y-74652750D01*
X60383750Y-74494000D01*
X59957000Y-74490928D01*
X59832518Y-74503188D01*
X59712820Y-74539498D01*
X59602506Y-74598463D01*
X59505815Y-74677815D01*
X59426463Y-74774506D01*
X59367498Y-74884820D01*
X59331188Y-75004518D01*
X59318928Y-75129000D01*
X59004728Y-75129000D01*
X58977472Y-75039150D01*
X58895405Y-74885614D01*
X58784962Y-74751038D01*
X58650386Y-74640595D01*
X58496850Y-74558528D01*
X58330254Y-74507992D01*
X58157000Y-74490928D01*
X57232000Y-74490928D01*
X57058746Y-74507992D01*
X56892150Y-74558528D01*
X56738614Y-74640595D01*
X56604038Y-74751038D01*
X56493595Y-74885614D01*
X56411528Y-75039150D01*
X56360992Y-75205746D01*
X56343928Y-75379000D01*
X56343928Y-77529000D01*
X56353993Y-77631191D01*
X53767801Y-75045000D01*
X53984411Y-75045000D01*
X54251989Y-74991775D01*
X54504043Y-74887371D01*
X54730886Y-74735799D01*
X54923799Y-74542886D01*
X55075371Y-74316043D01*
X55179775Y-74063989D01*
X55210008Y-73912000D01*
X56192289Y-73912000D01*
X56236226Y-73955937D01*
X56405744Y-74069205D01*
X56594102Y-74147226D01*
X56794061Y-74187000D01*
X56997939Y-74187000D01*
X57197898Y-74147226D01*
X57386256Y-74069205D01*
X57555774Y-73955937D01*
X57699937Y-73811774D01*
X57813205Y-73642256D01*
X57891226Y-73453898D01*
X57931000Y-73253939D01*
X57931000Y-73050061D01*
X57891226Y-72850102D01*
X57813205Y-72661744D01*
X57699937Y-72492226D01*
X57555774Y-72348063D01*
X57386256Y-72234795D01*
X57197898Y-72156774D01*
X56997939Y-72117000D01*
X56794061Y-72117000D01*
X56594102Y-72156774D01*
X56405744Y-72234795D01*
X56236226Y-72348063D01*
X56192289Y-72392000D01*
X54405956Y-72392000D01*
X54251989Y-72328225D01*
X53984411Y-72275000D01*
X53711589Y-72275000D01*
X53444011Y-72328225D01*
X53191957Y-72432629D01*
X52965114Y-72584201D01*
X52772201Y-72777114D01*
X52620629Y-73003957D01*
X52516225Y-73256011D01*
X52463000Y-73523589D01*
X52463000Y-73740199D01*
X50798000Y-72075199D01*
X50798000Y-71513236D01*
X50905957Y-71585371D01*
X51158011Y-71689775D01*
X51425589Y-71743000D01*
X51698411Y-71743000D01*
X51965989Y-71689775D01*
X52218043Y-71585371D01*
X52444886Y-71433799D01*
X52506685Y-71372000D01*
X56192289Y-71372000D01*
X56236226Y-71415937D01*
X56405744Y-71529205D01*
X56594102Y-71607226D01*
X56794061Y-71647000D01*
X56997939Y-71647000D01*
X57197898Y-71607226D01*
X57386256Y-71529205D01*
X57555774Y-71415937D01*
X57699937Y-71271774D01*
X57813205Y-71102256D01*
X57891226Y-70913898D01*
X57931000Y-70713939D01*
X57931000Y-70510061D01*
X57891226Y-70310102D01*
X57813205Y-70121744D01*
X57699937Y-69952226D01*
X57555774Y-69808063D01*
X57386256Y-69694795D01*
X57197898Y-69616774D01*
X57093459Y-69596000D01*
X57197898Y-69575226D01*
X57386256Y-69497205D01*
X57555774Y-69383937D01*
X57699937Y-69239774D01*
X57813205Y-69070256D01*
X57891226Y-68881898D01*
X57931000Y-68681939D01*
X57931000Y-68478061D01*
X57891226Y-68278102D01*
X57813205Y-68089744D01*
X57699937Y-67920226D01*
X57555774Y-67776063D01*
X57386256Y-67662795D01*
X57197898Y-67584774D01*
X56997939Y-67545000D01*
X56794061Y-67545000D01*
X56594102Y-67584774D01*
X56405744Y-67662795D01*
X56236226Y-67776063D01*
X56192289Y-67820000D01*
X54913956Y-67820000D01*
X54759989Y-67756225D01*
X54492411Y-67703000D01*
X54219589Y-67703000D01*
X53952011Y-67756225D01*
X53699957Y-67860629D01*
X53473114Y-68012201D01*
X53280201Y-68205114D01*
X53128629Y-68431957D01*
X53024225Y-68684011D01*
X52971000Y-68951589D01*
X52971000Y-69224411D01*
X53024225Y-69491989D01*
X53128629Y-69744043D01*
X53200764Y-69852000D01*
X52851521Y-69852000D01*
X52789371Y-69701957D01*
X52637799Y-69475114D01*
X52444886Y-69282201D01*
X52218043Y-69130629D01*
X51965989Y-69026225D01*
X51698411Y-68973000D01*
X51425589Y-68973000D01*
X51158011Y-69026225D01*
X51045796Y-69072706D01*
X51073000Y-68935939D01*
X51073000Y-68732061D01*
X51033226Y-68532102D01*
X50955205Y-68343744D01*
X50841937Y-68174226D01*
X50697774Y-68030063D01*
X50528256Y-67916795D01*
X50339898Y-67838774D01*
X50139939Y-67799000D01*
X49936061Y-67799000D01*
X49736102Y-67838774D01*
X49547744Y-67916795D01*
X49378226Y-68030063D01*
X49234063Y-68174226D01*
X49120795Y-68343744D01*
X49042774Y-68532102D01*
X49003000Y-68732061D01*
X49003000Y-68795021D01*
X49001226Y-68786102D01*
X48923205Y-68597744D01*
X48809937Y-68428226D01*
X48665774Y-68284063D01*
X48496256Y-68170795D01*
X48307898Y-68092774D01*
X48107939Y-68053000D01*
X47904061Y-68053000D01*
X47704102Y-68092774D01*
X47515744Y-68170795D01*
X47346226Y-68284063D01*
X47202063Y-68428226D01*
X47088795Y-68597744D01*
X47010774Y-68786102D01*
X46971000Y-68986061D01*
X46971000Y-69189939D01*
X47010774Y-69389898D01*
X47088795Y-69578256D01*
X47202063Y-69747774D01*
X47246001Y-69791712D01*
X47246000Y-71082677D01*
X47242324Y-71120000D01*
X47246000Y-71157322D01*
X47246000Y-71157332D01*
X47256997Y-71268985D01*
X47271728Y-71317546D01*
X47300454Y-71412246D01*
X47371026Y-71544276D01*
X47404752Y-71585371D01*
X47465999Y-71660001D01*
X47495003Y-71683804D01*
X48200638Y-72389439D01*
X48107939Y-72371000D01*
X47904061Y-72371000D01*
X47704102Y-72410774D01*
X47515744Y-72488795D01*
X47346226Y-72602063D01*
X47302289Y-72646000D01*
X47198424Y-72646000D01*
X47162405Y-72578613D01*
X47051962Y-72444038D01*
X46917387Y-72333595D01*
X46763851Y-72251528D01*
X46597255Y-72200992D01*
X46424001Y-72183928D01*
X45523999Y-72183928D01*
X45350745Y-72200992D01*
X45198865Y-72247064D01*
X44194000Y-71242199D01*
X44194000Y-68091000D01*
X44297939Y-68091000D01*
X44497898Y-68051226D01*
X44686256Y-67973205D01*
X44855774Y-67859937D01*
X44999937Y-67715774D01*
X45113205Y-67546256D01*
X45191226Y-67357898D01*
X45220876Y-67208834D01*
X45321063Y-67358774D01*
X45465226Y-67502937D01*
X45634744Y-67616205D01*
X45823102Y-67694226D01*
X46023061Y-67734000D01*
X46226939Y-67734000D01*
X46426898Y-67694226D01*
X46615256Y-67616205D01*
X46784774Y-67502937D01*
X46828711Y-67459000D01*
X66894716Y-67459000D01*
X66918525Y-67494632D01*
X67125368Y-67701475D01*
X67299760Y-67818000D01*
X67125368Y-67934525D01*
X66918525Y-68141368D01*
X66756010Y-68384589D01*
X66644068Y-68654842D01*
X66587000Y-68941740D01*
X66587000Y-69234260D01*
X66644068Y-69521158D01*
X66756010Y-69791411D01*
X66918525Y-70034632D01*
X67125368Y-70241475D01*
X67307534Y-70363195D01*
X67190645Y-70432822D01*
X66974412Y-70627731D01*
X66800359Y-70861080D01*
X66675175Y-71123901D01*
X66630524Y-71271110D01*
X66751845Y-71501000D01*
X67945000Y-71501000D01*
X67945000Y-71481000D01*
X68199000Y-71481000D01*
X68199000Y-71501000D01*
X69392155Y-71501000D01*
X69513476Y-71271110D01*
X69468825Y-71123901D01*
X69343641Y-70861080D01*
X69169588Y-70627731D01*
X68953355Y-70432822D01*
X68836466Y-70363195D01*
X69018632Y-70241475D01*
X69225475Y-70034632D01*
X69387990Y-69791411D01*
X69499932Y-69521158D01*
X69557000Y-69234260D01*
X69557000Y-68941740D01*
X69499932Y-68654842D01*
X69387990Y-68384589D01*
X69225475Y-68141368D01*
X69018632Y-67934525D01*
X68844240Y-67818000D01*
X69018632Y-67701475D01*
X69225475Y-67494632D01*
X69387990Y-67251411D01*
X69499932Y-66981158D01*
X69557000Y-66694260D01*
X69557000Y-66401740D01*
X69499932Y-66114842D01*
X69387990Y-65844589D01*
X69225475Y-65601368D01*
X69018632Y-65394525D01*
X68844240Y-65278000D01*
X69018632Y-65161475D01*
X69225475Y-64954632D01*
X69387990Y-64711411D01*
X69499932Y-64441158D01*
X69557000Y-64154260D01*
X69557000Y-63861740D01*
X69499932Y-63574842D01*
X69387990Y-63304589D01*
X69225475Y-63061368D01*
X69018632Y-62854525D01*
X68844240Y-62738000D01*
X69018632Y-62621475D01*
X69225475Y-62414632D01*
X69387990Y-62171411D01*
X69499932Y-61901158D01*
X69557000Y-61614260D01*
X69557000Y-61321740D01*
X69499932Y-61034842D01*
X69387990Y-60764589D01*
X69225475Y-60521368D01*
X69018632Y-60314525D01*
X68775411Y-60152010D01*
X68505158Y-60040068D01*
X68218260Y-59983000D01*
X67925740Y-59983000D01*
X67638842Y-60040068D01*
X67368589Y-60152010D01*
X67125368Y-60314525D01*
X66918525Y-60521368D01*
X66756010Y-60764589D01*
X66644068Y-61034842D01*
X66587000Y-61321740D01*
X66587000Y-61614260D01*
X66644068Y-61901158D01*
X66756010Y-62171411D01*
X66918525Y-62414632D01*
X67125368Y-62621475D01*
X67299760Y-62738000D01*
X67125368Y-62854525D01*
X66918525Y-63061368D01*
X66756010Y-63304589D01*
X66644068Y-63574842D01*
X66587000Y-63861740D01*
X66587000Y-64154260D01*
X66630790Y-64374408D01*
X65979199Y-65026000D01*
X64069917Y-65026000D01*
X64089588Y-65008269D01*
X64263641Y-64774920D01*
X64388825Y-64512099D01*
X64433476Y-64364890D01*
X64312155Y-64135000D01*
X63119000Y-64135000D01*
X63119000Y-64155000D01*
X62865000Y-64155000D01*
X62865000Y-64135000D01*
X61671845Y-64135000D01*
X61550524Y-64364890D01*
X61595175Y-64512099D01*
X61720359Y-64774920D01*
X61894412Y-65008269D01*
X61914083Y-65026000D01*
X45503322Y-65026000D01*
X45465999Y-65022324D01*
X45428676Y-65026000D01*
X45428667Y-65026000D01*
X45317014Y-65036997D01*
X45173753Y-65080454D01*
X45041724Y-65151026D01*
X44925999Y-65245999D01*
X44902201Y-65274997D01*
X44194000Y-65983199D01*
X44194000Y-62521322D01*
X44197676Y-62483999D01*
X44194000Y-62446676D01*
X44194000Y-62446667D01*
X44183003Y-62335014D01*
X44139546Y-62191753D01*
X44068974Y-62059724D01*
X43974001Y-61943999D01*
X43945003Y-61920202D01*
X43489803Y-61465002D01*
X43466001Y-61435999D01*
X43350276Y-61341026D01*
X43218247Y-61270454D01*
X43074986Y-61226997D01*
X42963333Y-61216000D01*
X42963322Y-61216000D01*
X42926000Y-61212324D01*
X42888678Y-61216000D01*
X41208802Y-61216000D01*
X41003484Y-61010683D01*
X41049205Y-60942256D01*
X41127226Y-60753898D01*
X41167000Y-60553939D01*
X41167000Y-60350061D01*
X44939000Y-60350061D01*
X44939000Y-60553939D01*
X44978774Y-60753898D01*
X45056795Y-60942256D01*
X45170063Y-61111774D01*
X45314226Y-61255937D01*
X45483744Y-61369205D01*
X45672102Y-61447226D01*
X45872061Y-61487000D01*
X45949774Y-61487000D01*
X46081752Y-61557545D01*
X46225013Y-61601002D01*
X46336666Y-61611999D01*
X46336676Y-61611999D01*
X46373998Y-61615675D01*
X46411321Y-61611999D01*
X52663198Y-61611999D01*
X53067000Y-62015802D01*
X53067000Y-62077939D01*
X53106774Y-62277898D01*
X53184795Y-62466256D01*
X53298063Y-62635774D01*
X53442226Y-62779937D01*
X53611744Y-62893205D01*
X53800102Y-62971226D01*
X54000061Y-63011000D01*
X54203939Y-63011000D01*
X54403898Y-62971226D01*
X54592256Y-62893205D01*
X54761774Y-62779937D01*
X54905937Y-62635774D01*
X55019205Y-62466256D01*
X55097226Y-62277898D01*
X55137000Y-62077939D01*
X55137000Y-61874061D01*
X55097226Y-61674102D01*
X55019205Y-61485744D01*
X54909622Y-61321740D01*
X61507000Y-61321740D01*
X61507000Y-61614260D01*
X61564068Y-61901158D01*
X61676010Y-62171411D01*
X61838525Y-62414632D01*
X62045368Y-62621475D01*
X62227534Y-62743195D01*
X62110645Y-62812822D01*
X61894412Y-63007731D01*
X61720359Y-63241080D01*
X61595175Y-63503901D01*
X61550524Y-63651110D01*
X61671845Y-63881000D01*
X62865000Y-63881000D01*
X62865000Y-63861000D01*
X63119000Y-63861000D01*
X63119000Y-63881000D01*
X64312155Y-63881000D01*
X64433476Y-63651110D01*
X64388825Y-63503901D01*
X64263641Y-63241080D01*
X64089588Y-63007731D01*
X63873355Y-62812822D01*
X63756466Y-62743195D01*
X63938632Y-62621475D01*
X64145475Y-62414632D01*
X64307990Y-62171411D01*
X64419932Y-61901158D01*
X64477000Y-61614260D01*
X64477000Y-61321740D01*
X64419932Y-61034842D01*
X64307990Y-60764589D01*
X64145475Y-60521368D01*
X63938632Y-60314525D01*
X63695411Y-60152010D01*
X63425158Y-60040068D01*
X63138260Y-59983000D01*
X62845740Y-59983000D01*
X62558842Y-60040068D01*
X62288589Y-60152010D01*
X62045368Y-60314525D01*
X61838525Y-60521368D01*
X61676010Y-60764589D01*
X61564068Y-61034842D01*
X61507000Y-61321740D01*
X54909622Y-61321740D01*
X54905937Y-61316226D01*
X54761774Y-61172063D01*
X54592256Y-61058795D01*
X54403898Y-60980774D01*
X54203939Y-60941000D01*
X54141802Y-60941000D01*
X53541802Y-60341001D01*
X53518000Y-60311998D01*
X53402275Y-60217025D01*
X53270246Y-60146453D01*
X53126985Y-60102996D01*
X53015332Y-60091999D01*
X53015321Y-60091999D01*
X52977999Y-60088323D01*
X52940677Y-60091999D01*
X46945159Y-60091999D01*
X46891205Y-59961744D01*
X46777937Y-59792226D01*
X46633774Y-59648063D01*
X46464256Y-59534795D01*
X46275898Y-59456774D01*
X46075939Y-59417000D01*
X45872061Y-59417000D01*
X45672102Y-59456774D01*
X45483744Y-59534795D01*
X45314226Y-59648063D01*
X45170063Y-59792226D01*
X45056795Y-59961744D01*
X44978774Y-60150102D01*
X44939000Y-60350061D01*
X41167000Y-60350061D01*
X41127226Y-60150102D01*
X41049205Y-59961744D01*
X40935937Y-59792226D01*
X40791774Y-59648063D01*
X40622256Y-59534795D01*
X40433898Y-59456774D01*
X40233939Y-59417000D01*
X40030061Y-59417000D01*
X39830102Y-59456774D01*
X39641744Y-59534795D01*
X39472226Y-59648063D01*
X39328063Y-59792226D01*
X39214795Y-59961744D01*
X39136774Y-60150102D01*
X39097000Y-60350061D01*
X39097000Y-60553939D01*
X39136774Y-60753898D01*
X39214795Y-60942256D01*
X39328063Y-61111774D01*
X39372000Y-61155711D01*
X39372000Y-61176678D01*
X39368324Y-61214000D01*
X39372000Y-61251322D01*
X39372000Y-61251333D01*
X39382997Y-61362986D01*
X39408551Y-61447226D01*
X39426454Y-61506246D01*
X39497026Y-61638276D01*
X39564361Y-61720323D01*
X39592000Y-61754001D01*
X39620998Y-61777799D01*
X40048198Y-62205000D01*
X35585000Y-62205000D01*
X35585000Y-57556000D01*
X90145000Y-57556000D01*
X90145001Y-74262581D01*
G37*
X90145001Y-74262581D02*
X90145000Y-137135000D01*
X35585000Y-137135000D01*
X35585000Y-130840119D01*
X37743000Y-130840119D01*
X37743000Y-132049882D01*
X37773892Y-132363533D01*
X37895974Y-132765982D01*
X38094224Y-133136881D01*
X38361024Y-133461977D01*
X38686120Y-133728777D01*
X39057019Y-133927026D01*
X39459468Y-134049108D01*
X39878000Y-134090330D01*
X40296533Y-134049108D01*
X40698982Y-133927026D01*
X41069881Y-133728777D01*
X41394977Y-133461977D01*
X41661777Y-133136881D01*
X41860026Y-132765981D01*
X41982108Y-132363532D01*
X42013000Y-132049881D01*
X42013000Y-130840119D01*
X42823000Y-130840119D01*
X42823000Y-132049882D01*
X42853892Y-132363533D01*
X42975974Y-132765982D01*
X43174224Y-133136881D01*
X43441024Y-133461977D01*
X43766120Y-133728777D01*
X44137019Y-133927026D01*
X44539468Y-134049108D01*
X44958000Y-134090330D01*
X45376533Y-134049108D01*
X45778982Y-133927026D01*
X46149881Y-133728777D01*
X46474977Y-133461977D01*
X46741777Y-133136881D01*
X46940026Y-132765981D01*
X47062108Y-132363532D01*
X47093000Y-132049881D01*
X47093000Y-130840118D01*
X47062108Y-130526467D01*
X46940026Y-130124018D01*
X46741777Y-129753119D01*
X46474977Y-129428023D01*
X46149881Y-129161223D01*
X45778981Y-128962974D01*
X45376532Y-128840892D01*
X44958000Y-128799670D01*
X44539467Y-128840892D01*
X44137018Y-128962974D01*
X43766119Y-129161223D01*
X43441023Y-129428023D01*
X43174223Y-129753119D01*
X42975974Y-130124019D01*
X42853892Y-130526468D01*
X42823000Y-130840119D01*
X42013000Y-130840119D01*
X42013000Y-130840118D01*
X41982108Y-130526467D01*
X41860026Y-130124018D01*
X41661777Y-129753119D01*
X41394977Y-129428023D01*
X41069881Y-129161223D01*
X40698981Y-128962974D01*
X40296532Y-128840892D01*
X39878000Y-128799670D01*
X39459467Y-128840892D01*
X39057018Y-128962974D01*
X38686119Y-129161223D01*
X38361023Y-129428023D01*
X38094223Y-129753119D01*
X37895974Y-130124019D01*
X37773892Y-130526468D01*
X37743000Y-130840119D01*
X35585000Y-130840119D01*
X35585000Y-119697500D01*
X40271928Y-119697500D01*
X40271928Y-121602500D01*
X40284188Y-121726982D01*
X40320498Y-121846680D01*
X40379463Y-121956994D01*
X40458815Y-122053685D01*
X40555506Y-122133037D01*
X40650000Y-122183546D01*
X40650000Y-122790617D01*
X40643905Y-122852500D01*
X40650000Y-122914383D01*
X40650000Y-122914392D01*
X40668232Y-123099502D01*
X40717074Y-123260512D01*
X40740280Y-123337013D01*
X40857280Y-123555905D01*
X40923603Y-123636720D01*
X41014735Y-123747765D01*
X41062816Y-123787224D01*
X43362781Y-126087190D01*
X43402235Y-126135265D01*
X43594095Y-126292720D01*
X43812986Y-126409720D01*
X44050497Y-126481768D01*
X44235607Y-126500000D01*
X44235617Y-126500000D01*
X44297500Y-126506095D01*
X44359383Y-126500000D01*
X47000000Y-126500000D01*
X47000001Y-129986107D01*
X46993905Y-130048000D01*
X47018233Y-130295003D01*
X47090280Y-130532513D01*
X47207280Y-130751405D01*
X47308360Y-130874571D01*
X47364736Y-130943265D01*
X47412811Y-130982719D01*
X52405281Y-135975190D01*
X52444735Y-136023265D01*
X52492810Y-136062719D01*
X52636594Y-136180720D01*
X52855486Y-136297720D01*
X53092997Y-136369768D01*
X53278107Y-136388000D01*
X53278117Y-136388000D01*
X53340000Y-136394095D01*
X53401883Y-136388000D01*
X76292617Y-136388000D01*
X76354500Y-136394095D01*
X76416383Y-136388000D01*
X76416393Y-136388000D01*
X76601503Y-136369768D01*
X76839014Y-136297720D01*
X77057905Y-136180720D01*
X77249765Y-136023265D01*
X77289223Y-135975185D01*
X78634691Y-134629718D01*
X78682765Y-134590265D01*
X78725629Y-134538035D01*
X78840220Y-134398406D01*
X78957220Y-134179514D01*
X78957220Y-134179513D01*
X79029268Y-133942003D01*
X79047500Y-133756893D01*
X79047500Y-133756884D01*
X79053595Y-133695001D01*
X79047500Y-133633118D01*
X79047500Y-133026046D01*
X79141994Y-132975537D01*
X79238685Y-132896185D01*
X79318037Y-132799494D01*
X79377002Y-132689180D01*
X79413312Y-132569482D01*
X79425572Y-132445000D01*
X79425572Y-130445000D01*
X79413312Y-130320518D01*
X79377002Y-130200820D01*
X79318037Y-130090506D01*
X79238685Y-129993815D01*
X79141994Y-129914463D01*
X79031680Y-129855498D01*
X78911982Y-129819188D01*
X78787500Y-129806928D01*
X76787500Y-129806928D01*
X76663018Y-129819188D01*
X76543320Y-129855498D01*
X76433006Y-129914463D01*
X76336315Y-129993815D01*
X76256963Y-130090506D01*
X76197998Y-130200820D01*
X76161688Y-130320518D01*
X76149428Y-130445000D01*
X76149428Y-132445000D01*
X76161688Y-132569482D01*
X76197998Y-132689180D01*
X76256963Y-132799494D01*
X76336315Y-132896185D01*
X76433006Y-132975537D01*
X76527500Y-133026046D01*
X76527500Y-133173091D01*
X75832592Y-133868000D01*
X53861909Y-133868000D01*
X52574322Y-132580413D01*
X53908192Y-132580413D01*
X54003956Y-132844814D01*
X54293571Y-132985704D01*
X54605108Y-133067384D01*
X54926595Y-133086718D01*
X55245675Y-133042961D01*
X55550088Y-132937795D01*
X55724044Y-132844814D01*
X55819808Y-132580413D01*
X54864000Y-131624605D01*
X53908192Y-132580413D01*
X52574322Y-132580413D01*
X51501504Y-131507595D01*
X53222282Y-131507595D01*
X53266039Y-131826675D01*
X53371205Y-132131088D01*
X53464186Y-132305044D01*
X53728587Y-132400808D01*
X54684395Y-131445000D01*
X55043605Y-131445000D01*
X55999413Y-132400808D01*
X56263814Y-132305044D01*
X56404704Y-132015429D01*
X56486384Y-131703892D01*
X56505718Y-131382405D01*
X56492219Y-131283967D01*
X61152500Y-131283967D01*
X61152500Y-131606033D01*
X61215332Y-131921912D01*
X61338582Y-132219463D01*
X61517513Y-132487252D01*
X61745248Y-132714987D01*
X62013037Y-132893918D01*
X62310588Y-133017168D01*
X62626467Y-133080000D01*
X62948533Y-133080000D01*
X63264412Y-133017168D01*
X63561963Y-132893918D01*
X63829752Y-132714987D01*
X64057487Y-132487252D01*
X64236418Y-132219463D01*
X64359668Y-131921912D01*
X64422500Y-131606033D01*
X64422500Y-131283967D01*
X68659500Y-131283967D01*
X68659500Y-131606033D01*
X68722332Y-131921912D01*
X68845582Y-132219463D01*
X69024513Y-132487252D01*
X69252248Y-132714987D01*
X69520037Y-132893918D01*
X69817588Y-133017168D01*
X70133467Y-133080000D01*
X70455533Y-133080000D01*
X70771412Y-133017168D01*
X71068963Y-132893918D01*
X71336752Y-132714987D01*
X71564487Y-132487252D01*
X71743418Y-132219463D01*
X71866668Y-131921912D01*
X71929500Y-131606033D01*
X71929500Y-131283967D01*
X71866668Y-130968088D01*
X71743418Y-130670537D01*
X71564487Y-130402748D01*
X71336752Y-130175013D01*
X71068963Y-129996082D01*
X70771412Y-129872832D01*
X70455533Y-129810000D01*
X70133467Y-129810000D01*
X69817588Y-129872832D01*
X69520037Y-129996082D01*
X69252248Y-130175013D01*
X69024513Y-130402748D01*
X68845582Y-130670537D01*
X68722332Y-130968088D01*
X68659500Y-131283967D01*
X64422500Y-131283967D01*
X64359668Y-130968088D01*
X64236418Y-130670537D01*
X64057487Y-130402748D01*
X63829752Y-130175013D01*
X63561963Y-129996082D01*
X63264412Y-129872832D01*
X62948533Y-129810000D01*
X62626467Y-129810000D01*
X62310588Y-129872832D01*
X62013037Y-129996082D01*
X61745248Y-130175013D01*
X61517513Y-130402748D01*
X61338582Y-130670537D01*
X61215332Y-130968088D01*
X61152500Y-131283967D01*
X56492219Y-131283967D01*
X56461961Y-131063325D01*
X56356795Y-130758912D01*
X56263814Y-130584956D01*
X55999413Y-130489192D01*
X55043605Y-131445000D01*
X54684395Y-131445000D01*
X53728587Y-130489192D01*
X53464186Y-130584956D01*
X53323296Y-130874571D01*
X53241616Y-131186108D01*
X53222282Y-131507595D01*
X51501504Y-131507595D01*
X50303496Y-130309587D01*
X53908192Y-130309587D01*
X54864000Y-131265395D01*
X55819808Y-130309587D01*
X55724044Y-130045186D01*
X55434429Y-129904296D01*
X55122892Y-129822616D01*
X54801405Y-129803282D01*
X54482325Y-129847039D01*
X54177912Y-129952205D01*
X54003956Y-130045186D01*
X53908192Y-130309587D01*
X50303496Y-130309587D01*
X49520000Y-129526092D01*
X49520000Y-125301893D01*
X49526096Y-125240000D01*
X49520000Y-125178107D01*
X49520000Y-124430444D01*
X49590537Y-124344494D01*
X49649502Y-124234180D01*
X49665117Y-124182702D01*
X50946903Y-124182702D01*
X51018486Y-124426671D01*
X51273996Y-124547571D01*
X51548184Y-124616300D01*
X51830512Y-124630217D01*
X52110130Y-124588787D01*
X52376292Y-124493603D01*
X52501514Y-124426671D01*
X52573097Y-124182702D01*
X51760000Y-123369605D01*
X50946903Y-124182702D01*
X49665117Y-124182702D01*
X49685812Y-124114482D01*
X49698072Y-123990000D01*
X49698072Y-123260512D01*
X50319783Y-123260512D01*
X50361213Y-123540130D01*
X50456397Y-123806292D01*
X50523329Y-123931514D01*
X50767298Y-124003097D01*
X51580395Y-123190000D01*
X51939605Y-123190000D01*
X52752702Y-124003097D01*
X52996671Y-123931514D01*
X53117571Y-123676004D01*
X53186300Y-123401816D01*
X53200217Y-123119488D01*
X53158787Y-122839870D01*
X53063603Y-122573708D01*
X52996671Y-122448486D01*
X52752702Y-122376903D01*
X51939605Y-123190000D01*
X51580395Y-123190000D01*
X50767298Y-122376903D01*
X50523329Y-122448486D01*
X50402429Y-122703996D01*
X50333700Y-122978184D01*
X50319783Y-123260512D01*
X49698072Y-123260512D01*
X49698072Y-122390000D01*
X49685812Y-122265518D01*
X49665118Y-122197298D01*
X50946903Y-122197298D01*
X51760000Y-123010395D01*
X52573097Y-122197298D01*
X52501514Y-121953329D01*
X52246004Y-121832429D01*
X51971816Y-121763700D01*
X51689488Y-121749783D01*
X51409870Y-121791213D01*
X51143708Y-121886397D01*
X51018486Y-121953329D01*
X50946903Y-122197298D01*
X49665118Y-122197298D01*
X49649502Y-122145820D01*
X49590537Y-122035506D01*
X49511185Y-121938815D01*
X49414494Y-121859463D01*
X49304180Y-121800498D01*
X49184482Y-121764188D01*
X49060000Y-121751928D01*
X47460000Y-121751928D01*
X47335518Y-121764188D01*
X47215820Y-121800498D01*
X47105506Y-121859463D01*
X47008815Y-121938815D01*
X46929463Y-122035506D01*
X46870498Y-122145820D01*
X46834188Y-122265518D01*
X46821928Y-122390000D01*
X46821928Y-123980000D01*
X44819409Y-123980000D01*
X43170000Y-122330592D01*
X43170000Y-122183546D01*
X43264494Y-122133037D01*
X43361185Y-122053685D01*
X43440537Y-121956994D01*
X43499502Y-121846680D01*
X43535812Y-121726982D01*
X43548072Y-121602500D01*
X43548072Y-119697500D01*
X43535812Y-119573018D01*
X43499502Y-119453320D01*
X43440537Y-119343006D01*
X43361185Y-119246315D01*
X43264494Y-119166963D01*
X43172781Y-119117941D01*
X43285969Y-118976923D01*
X43429571Y-118701094D01*
X43500563Y-118482980D01*
X43380594Y-118237000D01*
X42037000Y-118237000D01*
X42037000Y-118257000D01*
X41783000Y-118257000D01*
X41783000Y-118237000D01*
X40439406Y-118237000D01*
X40319437Y-118482980D01*
X40390429Y-118701094D01*
X40534031Y-118976923D01*
X40647219Y-119117941D01*
X40555506Y-119166963D01*
X40458815Y-119246315D01*
X40379463Y-119343006D01*
X40320498Y-119453320D01*
X40284188Y-119573018D01*
X40271928Y-119697500D01*
X35585000Y-119697500D01*
X35585000Y-81305000D01*
X42512581Y-81305000D01*
X42545000Y-81308193D01*
X42577419Y-81305000D01*
X42674383Y-81295450D01*
X42798793Y-81257710D01*
X42913450Y-81196425D01*
X43013948Y-81113948D01*
X43096425Y-81013450D01*
X43157710Y-80898793D01*
X43195450Y-80774383D01*
X43208193Y-80645000D01*
X43205000Y-80612581D01*
X43205000Y-72402801D01*
X44648135Y-73845936D01*
X44652992Y-73895255D01*
X44703528Y-74061851D01*
X44785595Y-74215387D01*
X44896038Y-74349962D01*
X44983816Y-74422000D01*
X44896038Y-74494038D01*
X44785595Y-74628613D01*
X44703528Y-74782149D01*
X44652992Y-74948745D01*
X44635928Y-75121999D01*
X44635928Y-75772001D01*
X44652992Y-75945255D01*
X44703528Y-76111851D01*
X44785595Y-76265387D01*
X44896038Y-76399962D01*
X45030613Y-76510405D01*
X45184149Y-76592472D01*
X45350745Y-76643008D01*
X45354720Y-76643400D01*
X45407737Y-76708000D01*
X45434000Y-76740001D01*
X45462998Y-76763799D01*
X45701000Y-77001801D01*
X45701000Y-77063939D01*
X45740774Y-77263898D01*
X45818795Y-77452256D01*
X45932063Y-77621774D01*
X46076226Y-77765937D01*
X46245744Y-77879205D01*
X46434102Y-77957226D01*
X46634061Y-77997000D01*
X46837939Y-77997000D01*
X47037898Y-77957226D01*
X47226256Y-77879205D01*
X47246001Y-77866012D01*
X47246001Y-81496668D01*
X47242324Y-81534000D01*
X47246001Y-81571333D01*
X47256998Y-81682986D01*
X47264944Y-81709180D01*
X47300454Y-81826246D01*
X47371026Y-81958276D01*
X47439737Y-82042000D01*
X47466000Y-82074001D01*
X47494998Y-82097799D01*
X47693495Y-82296296D01*
X47625026Y-82379724D01*
X47554454Y-82511754D01*
X47524180Y-82611558D01*
X47510998Y-82655014D01*
X47501421Y-82752246D01*
X47496324Y-82804000D01*
X47500001Y-82841332D01*
X47500001Y-83271702D01*
X47455371Y-83163957D01*
X47303799Y-82937114D01*
X47110886Y-82744201D01*
X46885865Y-82593846D01*
X46928937Y-82550774D01*
X47042205Y-82381256D01*
X47120226Y-82192898D01*
X47160000Y-81992939D01*
X47160000Y-81789061D01*
X47120226Y-81589102D01*
X47042205Y-81400744D01*
X46928937Y-81231226D01*
X46784774Y-81087063D01*
X46615256Y-80973795D01*
X46426898Y-80895774D01*
X46226939Y-80856000D01*
X46023061Y-80856000D01*
X45823102Y-80895774D01*
X45634744Y-80973795D01*
X45465226Y-81087063D01*
X45321063Y-81231226D01*
X45207795Y-81400744D01*
X45129774Y-81589102D01*
X45090000Y-81789061D01*
X45090000Y-81992939D01*
X45129774Y-82192898D01*
X45207795Y-82381256D01*
X45321063Y-82550774D01*
X45365000Y-82594711D01*
X45365000Y-82730913D01*
X45345114Y-82744201D01*
X45152201Y-82937114D01*
X45000629Y-83163957D01*
X44896225Y-83416011D01*
X44843000Y-83683589D01*
X44843000Y-83956411D01*
X44896225Y-84223989D01*
X45000629Y-84476043D01*
X45152201Y-84702886D01*
X45287315Y-84838000D01*
X42748323Y-84838000D01*
X42710998Y-84834324D01*
X42673673Y-84838000D01*
X42673665Y-84838000D01*
X42562012Y-84848997D01*
X42418751Y-84892454D01*
X42286722Y-84963026D01*
X42170997Y-85057999D01*
X42147199Y-85086997D01*
X37842998Y-89391199D01*
X37814000Y-89414997D01*
X37790202Y-89443995D01*
X37790201Y-89443996D01*
X37719026Y-89530722D01*
X37648454Y-89662752D01*
X37604998Y-89806013D01*
X37590324Y-89954998D01*
X37594001Y-89992331D01*
X37594000Y-105594993D01*
X37590324Y-105632315D01*
X37594000Y-105669637D01*
X37594000Y-105669647D01*
X37604997Y-105781300D01*
X37644599Y-105911852D01*
X37648454Y-105924561D01*
X37719026Y-106056591D01*
X37758871Y-106105141D01*
X37813999Y-106172316D01*
X37843003Y-106196119D01*
X43114728Y-111467845D01*
X43060774Y-111598102D01*
X43021000Y-111798061D01*
X43021000Y-112001939D01*
X43060774Y-112201898D01*
X43138795Y-112390256D01*
X43252063Y-112559774D01*
X43396226Y-112703937D01*
X43565744Y-112817205D01*
X43754102Y-112895226D01*
X43954061Y-112935000D01*
X44157939Y-112935000D01*
X44357898Y-112895226D01*
X44546256Y-112817205D01*
X44715774Y-112703937D01*
X44859937Y-112559774D01*
X44973205Y-112390256D01*
X45051226Y-112201898D01*
X45091000Y-112001939D01*
X45091000Y-111798061D01*
X45051226Y-111598102D01*
X44973205Y-111409744D01*
X44859937Y-111240226D01*
X44804987Y-111185276D01*
X44761546Y-111042068D01*
X44690974Y-110910039D01*
X44596001Y-110794314D01*
X44567003Y-110770516D01*
X39114000Y-105317514D01*
X39114000Y-90269799D01*
X43025800Y-86358000D01*
X46444678Y-86358000D01*
X46482000Y-86361676D01*
X46519322Y-86358000D01*
X46519333Y-86358000D01*
X46630986Y-86347003D01*
X46774247Y-86303546D01*
X46906276Y-86232974D01*
X47022001Y-86138001D01*
X47045804Y-86108997D01*
X48771004Y-84383798D01*
X48800001Y-84360001D01*
X48894974Y-84244276D01*
X48965546Y-84112247D01*
X49009003Y-83968986D01*
X49020000Y-83857333D01*
X49020000Y-83857325D01*
X49023676Y-83820000D01*
X49020000Y-83782675D01*
X49020000Y-83301151D01*
X49069898Y-83291226D01*
X49258256Y-83213205D01*
X49427774Y-83099937D01*
X49571937Y-82955774D01*
X49685205Y-82786256D01*
X49720079Y-82702061D01*
X49765000Y-82702061D01*
X49765000Y-82905939D01*
X49804774Y-83105898D01*
X49882795Y-83294256D01*
X49973455Y-83429938D01*
X49923000Y-83683589D01*
X49923000Y-83956411D01*
X49976225Y-84223989D01*
X50080629Y-84476043D01*
X50232201Y-84702886D01*
X50425114Y-84895799D01*
X50651957Y-85047371D01*
X50904011Y-85151775D01*
X51171589Y-85205000D01*
X51444411Y-85205000D01*
X51711989Y-85151775D01*
X51964043Y-85047371D01*
X52190886Y-84895799D01*
X52383799Y-84702886D01*
X52535371Y-84476043D01*
X52639775Y-84223989D01*
X52693000Y-83956411D01*
X52693000Y-83683589D01*
X52639775Y-83416011D01*
X52535371Y-83163957D01*
X52383799Y-82937114D01*
X52190886Y-82744201D01*
X51964043Y-82592629D01*
X51799692Y-82524553D01*
X51795226Y-82502102D01*
X51717205Y-82313744D01*
X51603937Y-82144226D01*
X51459774Y-82000063D01*
X51290256Y-81886795D01*
X51101898Y-81808774D01*
X50901939Y-81769000D01*
X50698061Y-81769000D01*
X50498102Y-81808774D01*
X50309744Y-81886795D01*
X50140226Y-82000063D01*
X49996063Y-82144226D01*
X49882795Y-82313744D01*
X49804774Y-82502102D01*
X49765000Y-82702061D01*
X49720079Y-82702061D01*
X49763226Y-82597898D01*
X49803000Y-82397939D01*
X49803000Y-82194061D01*
X49763226Y-81994102D01*
X49685205Y-81805744D01*
X49571937Y-81636226D01*
X49427774Y-81492063D01*
X49258256Y-81378795D01*
X49069898Y-81300774D01*
X48869939Y-81261000D01*
X48807801Y-81261000D01*
X48766000Y-81219199D01*
X48766000Y-76471864D01*
X48872011Y-76515775D01*
X49139589Y-76569000D01*
X49412411Y-76569000D01*
X49557365Y-76540167D01*
X50236205Y-77219008D01*
X50259999Y-77248001D01*
X50288992Y-77271795D01*
X50288996Y-77271799D01*
X50348964Y-77321013D01*
X50375724Y-77342974D01*
X50507753Y-77413546D01*
X50651014Y-77457003D01*
X50762667Y-77468000D01*
X50762676Y-77468000D01*
X50799999Y-77471676D01*
X50837322Y-77468000D01*
X51112289Y-77468000D01*
X51156226Y-77511937D01*
X51325744Y-77625205D01*
X51514102Y-77703226D01*
X51714061Y-77743000D01*
X51917939Y-77743000D01*
X52117898Y-77703226D01*
X52306256Y-77625205D01*
X52475774Y-77511937D01*
X52619937Y-77367774D01*
X52733205Y-77198256D01*
X52811226Y-77009898D01*
X52812864Y-77001665D01*
X53672645Y-77861447D01*
X53721026Y-77951961D01*
X53757989Y-77997000D01*
X53815999Y-78067686D01*
X53845003Y-78091489D01*
X59449516Y-83696003D01*
X59473314Y-83725001D01*
X59502312Y-83748799D01*
X59589039Y-83819974D01*
X59721068Y-83890546D01*
X59864276Y-83933987D01*
X59919226Y-83988937D01*
X60055512Y-84080000D01*
X58723604Y-84080000D01*
X58673999Y-84075114D01*
X58624394Y-84080000D01*
X58624392Y-84080000D01*
X58476006Y-84094615D01*
X58285620Y-84152368D01*
X58110160Y-84246153D01*
X57956367Y-84372367D01*
X57924739Y-84410906D01*
X54699645Y-87636000D01*
X47471623Y-87636000D01*
X47345939Y-87611000D01*
X47142061Y-87611000D01*
X46942102Y-87650774D01*
X46753744Y-87728795D01*
X46584226Y-87842063D01*
X46440063Y-87986226D01*
X46326795Y-88155744D01*
X46248774Y-88344102D01*
X46209000Y-88544061D01*
X46209000Y-88747939D01*
X46248774Y-88947898D01*
X46326795Y-89136256D01*
X46440063Y-89305774D01*
X46584226Y-89449937D01*
X46753744Y-89563205D01*
X46942102Y-89641226D01*
X47142061Y-89681000D01*
X47345939Y-89681000D01*
X47471623Y-89656000D01*
X54108001Y-89656000D01*
X54108001Y-89932127D01*
X46564906Y-97475223D01*
X46526367Y-97506851D01*
X46400153Y-97660644D01*
X46327725Y-97796148D01*
X46306368Y-97836105D01*
X46248615Y-98026490D01*
X46229114Y-98224484D01*
X46234000Y-98274092D01*
X46234001Y-111595644D01*
X43643906Y-114185739D01*
X43605367Y-114217367D01*
X43573739Y-114255906D01*
X43269645Y-114560000D01*
X43182273Y-114560000D01*
X43085463Y-114442037D01*
X42843735Y-114243655D01*
X42567949Y-114096245D01*
X42268704Y-114005470D01*
X42035486Y-113982500D01*
X41784514Y-113982500D01*
X41551296Y-114005470D01*
X41252051Y-114096245D01*
X40976265Y-114243655D01*
X40734537Y-114442037D01*
X40536155Y-114683765D01*
X40388745Y-114959551D01*
X40297970Y-115258796D01*
X40267319Y-115570000D01*
X40297970Y-115881204D01*
X40388745Y-116180449D01*
X40536155Y-116456235D01*
X40734537Y-116697963D01*
X40913899Y-116845163D01*
X40728685Y-117000563D01*
X40534031Y-117243077D01*
X40390429Y-117518906D01*
X40319437Y-117737020D01*
X40439406Y-117983000D01*
X41783000Y-117983000D01*
X41783000Y-117963000D01*
X42037000Y-117963000D01*
X42037000Y-117983000D01*
X43380594Y-117983000D01*
X43500563Y-117737020D01*
X43429571Y-117518906D01*
X43357254Y-117380000D01*
X69751928Y-117380000D01*
X69751928Y-121380000D01*
X69764188Y-121504482D01*
X69800498Y-121624180D01*
X69859463Y-121734494D01*
X69938815Y-121831185D01*
X70035506Y-121910537D01*
X70145820Y-121969502D01*
X70265518Y-122005812D01*
X70390000Y-122018072D01*
X74390000Y-122018072D01*
X74514482Y-122005812D01*
X74634180Y-121969502D01*
X74744494Y-121910537D01*
X74841185Y-121831185D01*
X74920537Y-121734494D01*
X74979502Y-121624180D01*
X75015812Y-121504482D01*
X75028072Y-121380000D01*
X75028072Y-117380000D01*
X75015812Y-117255518D01*
X74979502Y-117135820D01*
X74920537Y-117025506D01*
X74841185Y-116928815D01*
X74744494Y-116849463D01*
X74634180Y-116790498D01*
X74514482Y-116754188D01*
X74390000Y-116741928D01*
X70390000Y-116741928D01*
X70265518Y-116754188D01*
X70145820Y-116790498D01*
X70035506Y-116849463D01*
X69938815Y-116928815D01*
X69859463Y-117025506D01*
X69800498Y-117135820D01*
X69764188Y-117255518D01*
X69751928Y-117380000D01*
X43357254Y-117380000D01*
X43285969Y-117243077D01*
X43091315Y-117000563D01*
X42906101Y-116845163D01*
X43085463Y-116697963D01*
X43182273Y-116580000D01*
X43638392Y-116580000D01*
X43688000Y-116584886D01*
X43885994Y-116565385D01*
X43911585Y-116557622D01*
X44076380Y-116507632D01*
X44251840Y-116413847D01*
X44405633Y-116287633D01*
X44437261Y-116249094D01*
X44741355Y-115945000D01*
X52575130Y-115945000D01*
X52585498Y-115979180D01*
X52644463Y-116089494D01*
X52723815Y-116186185D01*
X52820506Y-116265537D01*
X52930820Y-116324502D01*
X53050518Y-116360812D01*
X53175000Y-116373072D01*
X54775000Y-116373072D01*
X54899482Y-116360812D01*
X55019180Y-116324502D01*
X55129494Y-116265537D01*
X55226185Y-116186185D01*
X55305537Y-116089494D01*
X55364502Y-115979180D01*
X55380117Y-115927702D01*
X56661903Y-115927702D01*
X56733486Y-116171671D01*
X56988996Y-116292571D01*
X57263184Y-116361300D01*
X57545512Y-116375217D01*
X57825130Y-116333787D01*
X58091292Y-116238603D01*
X58216514Y-116171671D01*
X58288097Y-115927702D01*
X57475000Y-115114605D01*
X56661903Y-115927702D01*
X55380117Y-115927702D01*
X55400812Y-115859482D01*
X55413072Y-115735000D01*
X55413072Y-115005512D01*
X56034783Y-115005512D01*
X56076213Y-115285130D01*
X56171397Y-115551292D01*
X56238329Y-115676514D01*
X56482298Y-115748097D01*
X57295395Y-114935000D01*
X57654605Y-114935000D01*
X58467702Y-115748097D01*
X58711671Y-115676514D01*
X58832571Y-115421004D01*
X58901300Y-115146816D01*
X58915217Y-114864488D01*
X58873787Y-114584870D01*
X58778603Y-114318708D01*
X58711671Y-114193486D01*
X58467702Y-114121903D01*
X57654605Y-114935000D01*
X57295395Y-114935000D01*
X56482298Y-114121903D01*
X56238329Y-114193486D01*
X56117429Y-114448996D01*
X56048700Y-114723184D01*
X56034783Y-115005512D01*
X55413072Y-115005512D01*
X55413072Y-114135000D01*
X55400812Y-114010518D01*
X55380118Y-113942298D01*
X56661903Y-113942298D01*
X57475000Y-114755395D01*
X58288097Y-113942298D01*
X58216514Y-113698329D01*
X57961004Y-113577429D01*
X57686816Y-113508700D01*
X57404488Y-113494783D01*
X57124870Y-113536213D01*
X56858708Y-113631397D01*
X56733486Y-113698329D01*
X56661903Y-113942298D01*
X55380118Y-113942298D01*
X55364502Y-113890820D01*
X55305537Y-113780506D01*
X55226185Y-113683815D01*
X55129494Y-113604463D01*
X55019180Y-113545498D01*
X54899482Y-113509188D01*
X54775000Y-113496928D01*
X53175000Y-113496928D01*
X53050518Y-113509188D01*
X52930820Y-113545498D01*
X52820506Y-113604463D01*
X52723815Y-113683815D01*
X52644463Y-113780506D01*
X52585498Y-113890820D01*
X52575130Y-113925000D01*
X46761355Y-113925000D01*
X47373759Y-113312596D01*
X47456063Y-113435774D01*
X47600226Y-113579937D01*
X47769744Y-113693205D01*
X47958102Y-113771226D01*
X48158061Y-113811000D01*
X48361939Y-113811000D01*
X48561898Y-113771226D01*
X48750256Y-113693205D01*
X48919774Y-113579937D01*
X49063937Y-113435774D01*
X49177205Y-113266256D01*
X49255226Y-113077898D01*
X49295000Y-112877939D01*
X49295000Y-112674061D01*
X49270000Y-112548377D01*
X49270000Y-111227499D01*
X70722106Y-111227499D01*
X70938228Y-111594258D01*
X71398105Y-111834938D01*
X71896098Y-111981275D01*
X72413071Y-112027648D01*
X72929159Y-111972273D01*
X73424526Y-111817279D01*
X73841772Y-111594258D01*
X74057894Y-111227499D01*
X72390000Y-109559605D01*
X70722106Y-111227499D01*
X49270000Y-111227499D01*
X49270000Y-109403071D01*
X69742352Y-109403071D01*
X69797727Y-109919159D01*
X69952721Y-110414526D01*
X70175742Y-110831772D01*
X70542501Y-111047894D01*
X72210395Y-109380000D01*
X72569605Y-109380000D01*
X74237499Y-111047894D01*
X74604258Y-110831772D01*
X74844938Y-110371895D01*
X74991275Y-109873902D01*
X75037648Y-109356929D01*
X74982273Y-108840841D01*
X74827279Y-108345474D01*
X74604258Y-107928228D01*
X74237499Y-107712106D01*
X72569605Y-109380000D01*
X72210395Y-109380000D01*
X70542501Y-107712106D01*
X70175742Y-107928228D01*
X69935062Y-108388105D01*
X69788725Y-108886098D01*
X69742352Y-109403071D01*
X49270000Y-109403071D01*
X49270000Y-107532501D01*
X70722106Y-107532501D01*
X72390000Y-109200395D01*
X74057894Y-107532501D01*
X73841772Y-107165742D01*
X73381895Y-106925062D01*
X72883902Y-106778725D01*
X72366929Y-106732352D01*
X71850841Y-106787727D01*
X71355474Y-106942721D01*
X70938228Y-107165742D01*
X70722106Y-107532501D01*
X49270000Y-107532501D01*
X49270000Y-98970355D01*
X60235355Y-88005000D01*
X64609480Y-88005000D01*
X64467148Y-88271285D01*
X64373657Y-88579484D01*
X64342089Y-88900000D01*
X64352399Y-89004682D01*
X64322082Y-89035000D01*
X60904248Y-89035000D01*
X60737501Y-89051423D01*
X60523553Y-89116324D01*
X60326377Y-89221716D01*
X60153551Y-89363551D01*
X60011716Y-89536377D01*
X59906324Y-89733553D01*
X59841423Y-89947501D01*
X59819509Y-90170000D01*
X59841423Y-90392499D01*
X59906324Y-90606447D01*
X60011716Y-90803623D01*
X60012846Y-90805000D01*
X60011716Y-90806377D01*
X59906324Y-91003553D01*
X59841423Y-91217501D01*
X59819509Y-91440000D01*
X59841423Y-91662499D01*
X59906324Y-91876447D01*
X60011716Y-92073623D01*
X60012846Y-92075000D01*
X60011716Y-92076377D01*
X59906324Y-92273553D01*
X59841423Y-92487501D01*
X59819509Y-92710000D01*
X59841423Y-92932499D01*
X59906324Y-93146447D01*
X60011716Y-93343623D01*
X60153551Y-93516449D01*
X60326377Y-93658284D01*
X60523553Y-93763676D01*
X60737501Y-93828577D01*
X60904248Y-93845000D01*
X66045628Y-93845000D01*
X66046148Y-93846715D01*
X66197969Y-94130752D01*
X66402286Y-94379714D01*
X66651248Y-94584031D01*
X66935285Y-94735852D01*
X67243484Y-94829343D01*
X67483678Y-94853000D01*
X69803322Y-94853000D01*
X70043516Y-94829343D01*
X70288011Y-94755176D01*
X70288011Y-95293750D01*
X67480687Y-98101075D01*
X67418286Y-98152286D01*
X67213969Y-98401249D01*
X67062148Y-98685286D01*
X66968657Y-98993485D01*
X66946360Y-99219869D01*
X66937089Y-99314000D01*
X66945000Y-99394320D01*
X66945001Y-104474322D01*
X66968658Y-104714516D01*
X67062149Y-105022715D01*
X67213970Y-105306752D01*
X67418287Y-105555714D01*
X67667249Y-105760031D01*
X67951286Y-105911852D01*
X68259485Y-106005343D01*
X68580000Y-106036911D01*
X68900516Y-106005343D01*
X69208715Y-105911852D01*
X69492752Y-105760031D01*
X69741714Y-105555714D01*
X69946031Y-105306752D01*
X70097852Y-105022715D01*
X70191343Y-104714516D01*
X70215000Y-104474322D01*
X70215000Y-99991238D01*
X71976743Y-98229495D01*
X77390000Y-98229495D01*
X77390000Y-98620505D01*
X77466282Y-99004003D01*
X77615915Y-99365250D01*
X77833149Y-99690364D01*
X78109636Y-99966851D01*
X78434750Y-100184085D01*
X78795997Y-100333718D01*
X79179495Y-100410000D01*
X79570505Y-100410000D01*
X79954003Y-100333718D01*
X80315250Y-100184085D01*
X80640364Y-99966851D01*
X80916851Y-99690364D01*
X81134085Y-99365250D01*
X81283718Y-99004003D01*
X81360000Y-98620505D01*
X81360000Y-98229495D01*
X81283718Y-97845997D01*
X81134085Y-97484750D01*
X80916851Y-97159636D01*
X80640364Y-96883149D01*
X80315250Y-96665915D01*
X79954003Y-96516282D01*
X79570505Y-96440000D01*
X79179495Y-96440000D01*
X78795997Y-96516282D01*
X78434750Y-96665915D01*
X78109636Y-96883149D01*
X77833149Y-97159636D01*
X77615915Y-97484750D01*
X77466282Y-97845997D01*
X77390000Y-98229495D01*
X71976743Y-98229495D01*
X73022329Y-97183910D01*
X73084724Y-97132704D01*
X73289041Y-96883742D01*
X73440862Y-96599705D01*
X73534353Y-96291506D01*
X73558010Y-96051312D01*
X73558010Y-96051310D01*
X73565921Y-95970991D01*
X73558010Y-95890671D01*
X73558010Y-93229495D01*
X77390000Y-93229495D01*
X77390000Y-93620505D01*
X77466282Y-94004003D01*
X77615915Y-94365250D01*
X77833149Y-94690364D01*
X78109636Y-94966851D01*
X78434750Y-95184085D01*
X78795997Y-95333718D01*
X79179495Y-95410000D01*
X79570505Y-95410000D01*
X79954003Y-95333718D01*
X80315250Y-95184085D01*
X80640364Y-94966851D01*
X80916851Y-94690364D01*
X81134085Y-94365250D01*
X81283718Y-94004003D01*
X81360000Y-93620505D01*
X81360000Y-93229495D01*
X81283718Y-92845997D01*
X81134085Y-92484750D01*
X80916851Y-92159636D01*
X80640364Y-91883149D01*
X80315250Y-91665915D01*
X79954003Y-91516282D01*
X79570505Y-91440000D01*
X79179495Y-91440000D01*
X78795997Y-91516282D01*
X78434750Y-91665915D01*
X78109636Y-91883149D01*
X77833149Y-92159636D01*
X77615915Y-92484750D01*
X77466282Y-92845997D01*
X77390000Y-93229495D01*
X73558010Y-93229495D01*
X73558010Y-92387057D01*
X73565922Y-92306727D01*
X73534353Y-91986210D01*
X73440862Y-91678012D01*
X73432570Y-91662499D01*
X73289041Y-91393975D01*
X73084724Y-91145013D01*
X73022335Y-91093812D01*
X69933521Y-88005000D01*
X77662520Y-88005000D01*
X77833149Y-88260364D01*
X78109636Y-88536851D01*
X78434750Y-88754085D01*
X78795997Y-88903718D01*
X79179495Y-88980000D01*
X79570505Y-88980000D01*
X79954003Y-88903718D01*
X80315250Y-88754085D01*
X80640364Y-88536851D01*
X80916851Y-88260364D01*
X81087480Y-88005000D01*
X83389392Y-88005000D01*
X83439000Y-88009886D01*
X83491299Y-88004735D01*
X83636994Y-87990385D01*
X83827380Y-87932632D01*
X84002840Y-87838847D01*
X84156633Y-87712633D01*
X84188261Y-87674094D01*
X87547094Y-84315261D01*
X87585633Y-84283633D01*
X87711847Y-84129840D01*
X87805632Y-83954380D01*
X87863385Y-83763994D01*
X87878000Y-83615608D01*
X87878000Y-83615606D01*
X87882886Y-83566001D01*
X87878000Y-83516396D01*
X87878000Y-76249608D01*
X87882886Y-76200000D01*
X87863385Y-76002005D01*
X87805632Y-75811620D01*
X87767296Y-75739898D01*
X87711847Y-75636160D01*
X87585633Y-75482367D01*
X87547100Y-75450744D01*
X85585261Y-73488906D01*
X85553633Y-73450367D01*
X85399840Y-73324153D01*
X85224380Y-73230368D01*
X85033994Y-73172615D01*
X84885608Y-73158000D01*
X84836000Y-73153114D01*
X84786392Y-73158000D01*
X73201608Y-73158000D01*
X73152000Y-73153114D01*
X72954005Y-73172615D01*
X72763620Y-73230368D01*
X72588160Y-73324153D01*
X72434367Y-73450367D01*
X72402739Y-73488906D01*
X71963777Y-73927868D01*
X71857226Y-73999063D01*
X71713063Y-74143226D01*
X71641868Y-74249777D01*
X67546645Y-78345000D01*
X61842623Y-78345000D01*
X61716939Y-78320000D01*
X61716919Y-78320000D01*
X61736494Y-78309537D01*
X61833185Y-78230185D01*
X61912537Y-78133494D01*
X61971502Y-78023180D01*
X62007812Y-77903482D01*
X62020072Y-77779000D01*
X62017000Y-76739750D01*
X61858250Y-76581000D01*
X60796500Y-76581000D01*
X60796500Y-76601000D01*
X60542500Y-76601000D01*
X60542500Y-76581000D01*
X59480750Y-76581000D01*
X59322000Y-76739750D01*
X59318928Y-77779000D01*
X59331188Y-77903482D01*
X59367498Y-78023180D01*
X59426463Y-78133494D01*
X59505815Y-78230185D01*
X59602506Y-78309537D01*
X59668852Y-78345000D01*
X58704500Y-78345000D01*
X58704500Y-78222995D01*
X58784962Y-78156962D01*
X58895405Y-78022386D01*
X58977472Y-77868850D01*
X59028008Y-77702254D01*
X59045072Y-77529000D01*
X59045072Y-75379000D01*
X59028008Y-75205746D01*
X59004728Y-75129000D01*
X59318928Y-75129000D01*
X59322000Y-76168250D01*
X59480750Y-76327000D01*
X60542500Y-76327000D01*
X60542500Y-74652750D01*
X60796500Y-74652750D01*
X60796500Y-76327000D01*
X61858250Y-76327000D01*
X61986915Y-76198335D01*
X61996774Y-76247898D01*
X62074795Y-76436256D01*
X62188063Y-76605774D01*
X62332226Y-76749937D01*
X62501744Y-76863205D01*
X62690102Y-76941226D01*
X62890061Y-76981000D01*
X63093939Y-76981000D01*
X63293898Y-76941226D01*
X63482256Y-76863205D01*
X63651774Y-76749937D01*
X63795937Y-76605774D01*
X63909205Y-76436256D01*
X63987226Y-76247898D01*
X64027000Y-76047939D01*
X64027000Y-75844061D01*
X63987226Y-75644102D01*
X63909205Y-75455744D01*
X63795937Y-75286226D01*
X63752000Y-75242289D01*
X63752000Y-75018000D01*
X66583928Y-75018000D01*
X66596188Y-75142482D01*
X66632498Y-75262180D01*
X66691463Y-75372494D01*
X66770815Y-75469185D01*
X66867506Y-75548537D01*
X66977820Y-75607502D01*
X67097518Y-75643812D01*
X67222000Y-75656072D01*
X67786250Y-75653000D01*
X67945000Y-75494250D01*
X67945000Y-74295000D01*
X68199000Y-74295000D01*
X68199000Y-75494250D01*
X68357750Y-75653000D01*
X68922000Y-75656072D01*
X69046482Y-75643812D01*
X69166180Y-75607502D01*
X69276494Y-75548537D01*
X69373185Y-75469185D01*
X69452537Y-75372494D01*
X69511502Y-75262180D01*
X69547812Y-75142482D01*
X69560072Y-75018000D01*
X69557000Y-74453750D01*
X69398250Y-74295000D01*
X68199000Y-74295000D01*
X67945000Y-74295000D01*
X66745750Y-74295000D01*
X66587000Y-74453750D01*
X66583928Y-75018000D01*
X63752000Y-75018000D01*
X63752000Y-74817909D01*
X63874886Y-74735799D01*
X64067799Y-74542886D01*
X64219371Y-74316043D01*
X64323775Y-74063989D01*
X64377000Y-73796411D01*
X64377000Y-73523589D01*
X64336106Y-73318000D01*
X66583928Y-73318000D01*
X66587000Y-73882250D01*
X66745750Y-74041000D01*
X67945000Y-74041000D01*
X67945000Y-71755000D01*
X68199000Y-71755000D01*
X68199000Y-74041000D01*
X69398250Y-74041000D01*
X69557000Y-73882250D01*
X69560072Y-73318000D01*
X69547812Y-73193518D01*
X69511502Y-73073820D01*
X69452537Y-72963506D01*
X69373185Y-72866815D01*
X69276494Y-72787463D01*
X69166180Y-72728498D01*
X69085534Y-72704034D01*
X69169588Y-72628269D01*
X69343641Y-72394920D01*
X69468825Y-72132099D01*
X69513476Y-71984890D01*
X69392155Y-71755000D01*
X68199000Y-71755000D01*
X67945000Y-71755000D01*
X66751845Y-71755000D01*
X66630524Y-71984890D01*
X66675175Y-72132099D01*
X66800359Y-72394920D01*
X66974412Y-72628269D01*
X67058466Y-72704034D01*
X66977820Y-72728498D01*
X66867506Y-72787463D01*
X66770815Y-72866815D01*
X66691463Y-72963506D01*
X66632498Y-73073820D01*
X66596188Y-73193518D01*
X66583928Y-73318000D01*
X64336106Y-73318000D01*
X64323775Y-73256011D01*
X64219371Y-73003957D01*
X64067799Y-72777114D01*
X63874886Y-72584201D01*
X63648043Y-72432629D01*
X63395989Y-72328225D01*
X63128411Y-72275000D01*
X62855589Y-72275000D01*
X62588011Y-72328225D01*
X62335957Y-72432629D01*
X62109114Y-72584201D01*
X61916201Y-72777114D01*
X61764629Y-73003957D01*
X61660225Y-73256011D01*
X61607000Y-73523589D01*
X61607000Y-73796411D01*
X61660225Y-74063989D01*
X61764629Y-74316043D01*
X61916201Y-74542886D01*
X62109114Y-74735799D01*
X62232000Y-74817909D01*
X62232000Y-75242289D01*
X62188063Y-75286226D01*
X62074795Y-75455744D01*
X62018706Y-75591154D01*
X62020072Y-75129000D01*
X62007812Y-75004518D01*
X61971502Y-74884820D01*
X61912537Y-74774506D01*
X61833185Y-74677815D01*
X61736494Y-74598463D01*
X61626180Y-74539498D01*
X61506482Y-74503188D01*
X61382000Y-74490928D01*
X60955250Y-74494000D01*
X60796500Y-74652750D01*
X60542500Y-74652750D01*
X60383750Y-74494000D01*
X59957000Y-74490928D01*
X59832518Y-74503188D01*
X59712820Y-74539498D01*
X59602506Y-74598463D01*
X59505815Y-74677815D01*
X59426463Y-74774506D01*
X59367498Y-74884820D01*
X59331188Y-75004518D01*
X59318928Y-75129000D01*
X59004728Y-75129000D01*
X58977472Y-75039150D01*
X58895405Y-74885614D01*
X58784962Y-74751038D01*
X58650386Y-74640595D01*
X58496850Y-74558528D01*
X58330254Y-74507992D01*
X58157000Y-74490928D01*
X57232000Y-74490928D01*
X57058746Y-74507992D01*
X56892150Y-74558528D01*
X56738614Y-74640595D01*
X56604038Y-74751038D01*
X56493595Y-74885614D01*
X56411528Y-75039150D01*
X56360992Y-75205746D01*
X56343928Y-75379000D01*
X56343928Y-77529000D01*
X56353993Y-77631191D01*
X53767801Y-75045000D01*
X53984411Y-75045000D01*
X54251989Y-74991775D01*
X54504043Y-74887371D01*
X54730886Y-74735799D01*
X54923799Y-74542886D01*
X55075371Y-74316043D01*
X55179775Y-74063989D01*
X55210008Y-73912000D01*
X56192289Y-73912000D01*
X56236226Y-73955937D01*
X56405744Y-74069205D01*
X56594102Y-74147226D01*
X56794061Y-74187000D01*
X56997939Y-74187000D01*
X57197898Y-74147226D01*
X57386256Y-74069205D01*
X57555774Y-73955937D01*
X57699937Y-73811774D01*
X57813205Y-73642256D01*
X57891226Y-73453898D01*
X57931000Y-73253939D01*
X57931000Y-73050061D01*
X57891226Y-72850102D01*
X57813205Y-72661744D01*
X57699937Y-72492226D01*
X57555774Y-72348063D01*
X57386256Y-72234795D01*
X57197898Y-72156774D01*
X56997939Y-72117000D01*
X56794061Y-72117000D01*
X56594102Y-72156774D01*
X56405744Y-72234795D01*
X56236226Y-72348063D01*
X56192289Y-72392000D01*
X54405956Y-72392000D01*
X54251989Y-72328225D01*
X53984411Y-72275000D01*
X53711589Y-72275000D01*
X53444011Y-72328225D01*
X53191957Y-72432629D01*
X52965114Y-72584201D01*
X52772201Y-72777114D01*
X52620629Y-73003957D01*
X52516225Y-73256011D01*
X52463000Y-73523589D01*
X52463000Y-73740199D01*
X50798000Y-72075199D01*
X50798000Y-71513236D01*
X50905957Y-71585371D01*
X51158011Y-71689775D01*
X51425589Y-71743000D01*
X51698411Y-71743000D01*
X51965989Y-71689775D01*
X52218043Y-71585371D01*
X52444886Y-71433799D01*
X52506685Y-71372000D01*
X56192289Y-71372000D01*
X56236226Y-71415937D01*
X56405744Y-71529205D01*
X56594102Y-71607226D01*
X56794061Y-71647000D01*
X56997939Y-71647000D01*
X57197898Y-71607226D01*
X57386256Y-71529205D01*
X57555774Y-71415937D01*
X57699937Y-71271774D01*
X57813205Y-71102256D01*
X57891226Y-70913898D01*
X57931000Y-70713939D01*
X57931000Y-70510061D01*
X57891226Y-70310102D01*
X57813205Y-70121744D01*
X57699937Y-69952226D01*
X57555774Y-69808063D01*
X57386256Y-69694795D01*
X57197898Y-69616774D01*
X57093459Y-69596000D01*
X57197898Y-69575226D01*
X57386256Y-69497205D01*
X57555774Y-69383937D01*
X57699937Y-69239774D01*
X57813205Y-69070256D01*
X57891226Y-68881898D01*
X57931000Y-68681939D01*
X57931000Y-68478061D01*
X57891226Y-68278102D01*
X57813205Y-68089744D01*
X57699937Y-67920226D01*
X57555774Y-67776063D01*
X57386256Y-67662795D01*
X57197898Y-67584774D01*
X56997939Y-67545000D01*
X56794061Y-67545000D01*
X56594102Y-67584774D01*
X56405744Y-67662795D01*
X56236226Y-67776063D01*
X56192289Y-67820000D01*
X54913956Y-67820000D01*
X54759989Y-67756225D01*
X54492411Y-67703000D01*
X54219589Y-67703000D01*
X53952011Y-67756225D01*
X53699957Y-67860629D01*
X53473114Y-68012201D01*
X53280201Y-68205114D01*
X53128629Y-68431957D01*
X53024225Y-68684011D01*
X52971000Y-68951589D01*
X52971000Y-69224411D01*
X53024225Y-69491989D01*
X53128629Y-69744043D01*
X53200764Y-69852000D01*
X52851521Y-69852000D01*
X52789371Y-69701957D01*
X52637799Y-69475114D01*
X52444886Y-69282201D01*
X52218043Y-69130629D01*
X51965989Y-69026225D01*
X51698411Y-68973000D01*
X51425589Y-68973000D01*
X51158011Y-69026225D01*
X51045796Y-69072706D01*
X51073000Y-68935939D01*
X51073000Y-68732061D01*
X51033226Y-68532102D01*
X50955205Y-68343744D01*
X50841937Y-68174226D01*
X50697774Y-68030063D01*
X50528256Y-67916795D01*
X50339898Y-67838774D01*
X50139939Y-67799000D01*
X49936061Y-67799000D01*
X49736102Y-67838774D01*
X49547744Y-67916795D01*
X49378226Y-68030063D01*
X49234063Y-68174226D01*
X49120795Y-68343744D01*
X49042774Y-68532102D01*
X49003000Y-68732061D01*
X49003000Y-68795021D01*
X49001226Y-68786102D01*
X48923205Y-68597744D01*
X48809937Y-68428226D01*
X48665774Y-68284063D01*
X48496256Y-68170795D01*
X48307898Y-68092774D01*
X48107939Y-68053000D01*
X47904061Y-68053000D01*
X47704102Y-68092774D01*
X47515744Y-68170795D01*
X47346226Y-68284063D01*
X47202063Y-68428226D01*
X47088795Y-68597744D01*
X47010774Y-68786102D01*
X46971000Y-68986061D01*
X46971000Y-69189939D01*
X47010774Y-69389898D01*
X47088795Y-69578256D01*
X47202063Y-69747774D01*
X47246001Y-69791712D01*
X47246000Y-71082677D01*
X47242324Y-71120000D01*
X47246000Y-71157322D01*
X47246000Y-71157332D01*
X47256997Y-71268985D01*
X47271728Y-71317546D01*
X47300454Y-71412246D01*
X47371026Y-71544276D01*
X47404752Y-71585371D01*
X47465999Y-71660001D01*
X47495003Y-71683804D01*
X48200638Y-72389439D01*
X48107939Y-72371000D01*
X47904061Y-72371000D01*
X47704102Y-72410774D01*
X47515744Y-72488795D01*
X47346226Y-72602063D01*
X47302289Y-72646000D01*
X47198424Y-72646000D01*
X47162405Y-72578613D01*
X47051962Y-72444038D01*
X46917387Y-72333595D01*
X46763851Y-72251528D01*
X46597255Y-72200992D01*
X46424001Y-72183928D01*
X45523999Y-72183928D01*
X45350745Y-72200992D01*
X45198865Y-72247064D01*
X44194000Y-71242199D01*
X44194000Y-68091000D01*
X44297939Y-68091000D01*
X44497898Y-68051226D01*
X44686256Y-67973205D01*
X44855774Y-67859937D01*
X44999937Y-67715774D01*
X45113205Y-67546256D01*
X45191226Y-67357898D01*
X45220876Y-67208834D01*
X45321063Y-67358774D01*
X45465226Y-67502937D01*
X45634744Y-67616205D01*
X45823102Y-67694226D01*
X46023061Y-67734000D01*
X46226939Y-67734000D01*
X46426898Y-67694226D01*
X46615256Y-67616205D01*
X46784774Y-67502937D01*
X46828711Y-67459000D01*
X66894716Y-67459000D01*
X66918525Y-67494632D01*
X67125368Y-67701475D01*
X67299760Y-67818000D01*
X67125368Y-67934525D01*
X66918525Y-68141368D01*
X66756010Y-68384589D01*
X66644068Y-68654842D01*
X66587000Y-68941740D01*
X66587000Y-69234260D01*
X66644068Y-69521158D01*
X66756010Y-69791411D01*
X66918525Y-70034632D01*
X67125368Y-70241475D01*
X67307534Y-70363195D01*
X67190645Y-70432822D01*
X66974412Y-70627731D01*
X66800359Y-70861080D01*
X66675175Y-71123901D01*
X66630524Y-71271110D01*
X66751845Y-71501000D01*
X67945000Y-71501000D01*
X67945000Y-71481000D01*
X68199000Y-71481000D01*
X68199000Y-71501000D01*
X69392155Y-71501000D01*
X69513476Y-71271110D01*
X69468825Y-71123901D01*
X69343641Y-70861080D01*
X69169588Y-70627731D01*
X68953355Y-70432822D01*
X68836466Y-70363195D01*
X69018632Y-70241475D01*
X69225475Y-70034632D01*
X69387990Y-69791411D01*
X69499932Y-69521158D01*
X69557000Y-69234260D01*
X69557000Y-68941740D01*
X69499932Y-68654842D01*
X69387990Y-68384589D01*
X69225475Y-68141368D01*
X69018632Y-67934525D01*
X68844240Y-67818000D01*
X69018632Y-67701475D01*
X69225475Y-67494632D01*
X69387990Y-67251411D01*
X69499932Y-66981158D01*
X69557000Y-66694260D01*
X69557000Y-66401740D01*
X69499932Y-66114842D01*
X69387990Y-65844589D01*
X69225475Y-65601368D01*
X69018632Y-65394525D01*
X68844240Y-65278000D01*
X69018632Y-65161475D01*
X69225475Y-64954632D01*
X69387990Y-64711411D01*
X69499932Y-64441158D01*
X69557000Y-64154260D01*
X69557000Y-63861740D01*
X69499932Y-63574842D01*
X69387990Y-63304589D01*
X69225475Y-63061368D01*
X69018632Y-62854525D01*
X68844240Y-62738000D01*
X69018632Y-62621475D01*
X69225475Y-62414632D01*
X69387990Y-62171411D01*
X69499932Y-61901158D01*
X69557000Y-61614260D01*
X69557000Y-61321740D01*
X69499932Y-61034842D01*
X69387990Y-60764589D01*
X69225475Y-60521368D01*
X69018632Y-60314525D01*
X68775411Y-60152010D01*
X68505158Y-60040068D01*
X68218260Y-59983000D01*
X67925740Y-59983000D01*
X67638842Y-60040068D01*
X67368589Y-60152010D01*
X67125368Y-60314525D01*
X66918525Y-60521368D01*
X66756010Y-60764589D01*
X66644068Y-61034842D01*
X66587000Y-61321740D01*
X66587000Y-61614260D01*
X66644068Y-61901158D01*
X66756010Y-62171411D01*
X66918525Y-62414632D01*
X67125368Y-62621475D01*
X67299760Y-62738000D01*
X67125368Y-62854525D01*
X66918525Y-63061368D01*
X66756010Y-63304589D01*
X66644068Y-63574842D01*
X66587000Y-63861740D01*
X66587000Y-64154260D01*
X66630790Y-64374408D01*
X65979199Y-65026000D01*
X64069917Y-65026000D01*
X64089588Y-65008269D01*
X64263641Y-64774920D01*
X64388825Y-64512099D01*
X64433476Y-64364890D01*
X64312155Y-64135000D01*
X63119000Y-64135000D01*
X63119000Y-64155000D01*
X62865000Y-64155000D01*
X62865000Y-64135000D01*
X61671845Y-64135000D01*
X61550524Y-64364890D01*
X61595175Y-64512099D01*
X61720359Y-64774920D01*
X61894412Y-65008269D01*
X61914083Y-65026000D01*
X45503322Y-65026000D01*
X45465999Y-65022324D01*
X45428676Y-65026000D01*
X45428667Y-65026000D01*
X45317014Y-65036997D01*
X45173753Y-65080454D01*
X45041724Y-65151026D01*
X44925999Y-65245999D01*
X44902201Y-65274997D01*
X44194000Y-65983199D01*
X44194000Y-62521322D01*
X44197676Y-62483999D01*
X44194000Y-62446676D01*
X44194000Y-62446667D01*
X44183003Y-62335014D01*
X44139546Y-62191753D01*
X44068974Y-62059724D01*
X43974001Y-61943999D01*
X43945003Y-61920202D01*
X43489803Y-61465002D01*
X43466001Y-61435999D01*
X43350276Y-61341026D01*
X43218247Y-61270454D01*
X43074986Y-61226997D01*
X42963333Y-61216000D01*
X42963322Y-61216000D01*
X42926000Y-61212324D01*
X42888678Y-61216000D01*
X41208802Y-61216000D01*
X41003484Y-61010683D01*
X41049205Y-60942256D01*
X41127226Y-60753898D01*
X41167000Y-60553939D01*
X41167000Y-60350061D01*
X44939000Y-60350061D01*
X44939000Y-60553939D01*
X44978774Y-60753898D01*
X45056795Y-60942256D01*
X45170063Y-61111774D01*
X45314226Y-61255937D01*
X45483744Y-61369205D01*
X45672102Y-61447226D01*
X45872061Y-61487000D01*
X45949774Y-61487000D01*
X46081752Y-61557545D01*
X46225013Y-61601002D01*
X46336666Y-61611999D01*
X46336676Y-61611999D01*
X46373998Y-61615675D01*
X46411321Y-61611999D01*
X52663198Y-61611999D01*
X53067000Y-62015802D01*
X53067000Y-62077939D01*
X53106774Y-62277898D01*
X53184795Y-62466256D01*
X53298063Y-62635774D01*
X53442226Y-62779937D01*
X53611744Y-62893205D01*
X53800102Y-62971226D01*
X54000061Y-63011000D01*
X54203939Y-63011000D01*
X54403898Y-62971226D01*
X54592256Y-62893205D01*
X54761774Y-62779937D01*
X54905937Y-62635774D01*
X55019205Y-62466256D01*
X55097226Y-62277898D01*
X55137000Y-62077939D01*
X55137000Y-61874061D01*
X55097226Y-61674102D01*
X55019205Y-61485744D01*
X54909622Y-61321740D01*
X61507000Y-61321740D01*
X61507000Y-61614260D01*
X61564068Y-61901158D01*
X61676010Y-62171411D01*
X61838525Y-62414632D01*
X62045368Y-62621475D01*
X62227534Y-62743195D01*
X62110645Y-62812822D01*
X61894412Y-63007731D01*
X61720359Y-63241080D01*
X61595175Y-63503901D01*
X61550524Y-63651110D01*
X61671845Y-63881000D01*
X62865000Y-63881000D01*
X62865000Y-63861000D01*
X63119000Y-63861000D01*
X63119000Y-63881000D01*
X64312155Y-63881000D01*
X64433476Y-63651110D01*
X64388825Y-63503901D01*
X64263641Y-63241080D01*
X64089588Y-63007731D01*
X63873355Y-62812822D01*
X63756466Y-62743195D01*
X63938632Y-62621475D01*
X64145475Y-62414632D01*
X64307990Y-62171411D01*
X64419932Y-61901158D01*
X64477000Y-61614260D01*
X64477000Y-61321740D01*
X64419932Y-61034842D01*
X64307990Y-60764589D01*
X64145475Y-60521368D01*
X63938632Y-60314525D01*
X63695411Y-60152010D01*
X63425158Y-60040068D01*
X63138260Y-59983000D01*
X62845740Y-59983000D01*
X62558842Y-60040068D01*
X62288589Y-60152010D01*
X62045368Y-60314525D01*
X61838525Y-60521368D01*
X61676010Y-60764589D01*
X61564068Y-61034842D01*
X61507000Y-61321740D01*
X54909622Y-61321740D01*
X54905937Y-61316226D01*
X54761774Y-61172063D01*
X54592256Y-61058795D01*
X54403898Y-60980774D01*
X54203939Y-60941000D01*
X54141802Y-60941000D01*
X53541802Y-60341001D01*
X53518000Y-60311998D01*
X53402275Y-60217025D01*
X53270246Y-60146453D01*
X53126985Y-60102996D01*
X53015332Y-60091999D01*
X53015321Y-60091999D01*
X52977999Y-60088323D01*
X52940677Y-60091999D01*
X46945159Y-60091999D01*
X46891205Y-59961744D01*
X46777937Y-59792226D01*
X46633774Y-59648063D01*
X46464256Y-59534795D01*
X46275898Y-59456774D01*
X46075939Y-59417000D01*
X45872061Y-59417000D01*
X45672102Y-59456774D01*
X45483744Y-59534795D01*
X45314226Y-59648063D01*
X45170063Y-59792226D01*
X45056795Y-59961744D01*
X44978774Y-60150102D01*
X44939000Y-60350061D01*
X41167000Y-60350061D01*
X41127226Y-60150102D01*
X41049205Y-59961744D01*
X40935937Y-59792226D01*
X40791774Y-59648063D01*
X40622256Y-59534795D01*
X40433898Y-59456774D01*
X40233939Y-59417000D01*
X40030061Y-59417000D01*
X39830102Y-59456774D01*
X39641744Y-59534795D01*
X39472226Y-59648063D01*
X39328063Y-59792226D01*
X39214795Y-59961744D01*
X39136774Y-60150102D01*
X39097000Y-60350061D01*
X39097000Y-60553939D01*
X39136774Y-60753898D01*
X39214795Y-60942256D01*
X39328063Y-61111774D01*
X39372000Y-61155711D01*
X39372000Y-61176678D01*
X39368324Y-61214000D01*
X39372000Y-61251322D01*
X39372000Y-61251333D01*
X39382997Y-61362986D01*
X39408551Y-61447226D01*
X39426454Y-61506246D01*
X39497026Y-61638276D01*
X39564361Y-61720323D01*
X39592000Y-61754001D01*
X39620998Y-61777799D01*
X40048198Y-62205000D01*
X35585000Y-62205000D01*
X35585000Y-57556000D01*
X90145000Y-57556000D01*
X90145001Y-74262581D01*
G36*
X81515000Y-75336061D02*
G01*
X81515000Y-75539939D01*
X81554774Y-75739898D01*
X81632795Y-75928256D01*
X81746063Y-76097774D01*
X81890226Y-76241937D01*
X82059744Y-76355205D01*
X82248102Y-76433226D01*
X82297188Y-76442990D01*
X82748135Y-76893936D01*
X82752992Y-76943255D01*
X82803528Y-77109851D01*
X82885595Y-77263387D01*
X82996038Y-77397962D01*
X83002594Y-77403342D01*
X82922815Y-77468815D01*
X82843463Y-77565506D01*
X82784498Y-77675820D01*
X82748188Y-77795518D01*
X82735928Y-77920000D01*
X82739000Y-78209250D01*
X82897750Y-78368000D01*
X83947000Y-78368000D01*
X83947000Y-78348000D01*
X84201000Y-78348000D01*
X84201000Y-78368000D01*
X85250250Y-78368000D01*
X85409000Y-78209250D01*
X85412072Y-77920000D01*
X85399812Y-77795518D01*
X85363502Y-77675820D01*
X85304537Y-77565506D01*
X85225185Y-77468815D01*
X85145406Y-77403342D01*
X85151962Y-77397962D01*
X85262405Y-77263387D01*
X85344472Y-77109851D01*
X85395008Y-76943255D01*
X85412072Y-76770001D01*
X85412072Y-76172428D01*
X85858000Y-76618356D01*
X85858001Y-83147644D01*
X85279798Y-83725847D01*
X85344472Y-83604851D01*
X85395008Y-83438255D01*
X85412072Y-83265001D01*
X85412072Y-82614999D01*
X85395008Y-82441745D01*
X85344472Y-82275149D01*
X85262405Y-82121613D01*
X85151962Y-81987038D01*
X85145406Y-81981658D01*
X85225185Y-81916185D01*
X85304537Y-81819494D01*
X85363502Y-81709180D01*
X85399812Y-81589482D01*
X85412072Y-81465000D01*
X85409000Y-81175750D01*
X85250250Y-81017000D01*
X84201000Y-81017000D01*
X84201000Y-81037000D01*
X83947000Y-81037000D01*
X83947000Y-81017000D01*
X82897750Y-81017000D01*
X82739000Y-81175750D01*
X82735928Y-81465000D01*
X82748188Y-81589482D01*
X82784498Y-81709180D01*
X82843463Y-81819494D01*
X82922815Y-81916185D01*
X83002594Y-81981658D01*
X82996038Y-81987038D01*
X82885595Y-82121613D01*
X82803528Y-82275149D01*
X82752992Y-82441745D01*
X82748135Y-82491064D01*
X82039002Y-83200197D01*
X82009999Y-83223999D01*
X81958346Y-83286939D01*
X81915026Y-83339724D01*
X81855546Y-83451003D01*
X81844454Y-83471754D01*
X81800997Y-83615015D01*
X81790000Y-83726668D01*
X81790000Y-83726678D01*
X81786324Y-83764000D01*
X81790000Y-83801323D01*
X81790000Y-84005289D01*
X81746063Y-84049226D01*
X81632795Y-84218744D01*
X81554774Y-84407102D01*
X81515000Y-84607061D01*
X81515000Y-84810939D01*
X81554774Y-85010898D01*
X81632795Y-85199256D01*
X81746063Y-85368774D01*
X81890226Y-85512937D01*
X82059744Y-85626205D01*
X82248102Y-85704226D01*
X82448061Y-85744000D01*
X82651939Y-85744000D01*
X82851898Y-85704226D01*
X83040256Y-85626205D01*
X83209774Y-85512937D01*
X83353937Y-85368774D01*
X83467205Y-85199256D01*
X83545226Y-85010898D01*
X83585000Y-84810939D01*
X83585000Y-84607061D01*
X83545226Y-84407102D01*
X83467205Y-84218744D01*
X83402054Y-84121238D01*
X83450745Y-84136008D01*
X83623999Y-84153072D01*
X84524001Y-84153072D01*
X84697255Y-84136008D01*
X84863851Y-84085472D01*
X84984847Y-84020798D01*
X83020645Y-85985000D01*
X81087480Y-85985000D01*
X80916851Y-85729636D01*
X80640364Y-85453149D01*
X80315250Y-85235915D01*
X79954003Y-85086282D01*
X79570505Y-85010000D01*
X79179495Y-85010000D01*
X78795997Y-85086282D01*
X78434750Y-85235915D01*
X78109636Y-85453149D01*
X77833149Y-85729636D01*
X77662520Y-85985000D01*
X64454139Y-85985000D01*
X64549840Y-85933847D01*
X64703633Y-85807633D01*
X64735261Y-85769094D01*
X65820226Y-84684130D01*
X65926774Y-84612937D01*
X66070937Y-84468774D01*
X66184205Y-84299256D01*
X66262226Y-84110898D01*
X66302000Y-83910939D01*
X66302000Y-83707061D01*
X66262226Y-83507102D01*
X66184205Y-83318744D01*
X66070937Y-83149226D01*
X65926774Y-83005063D01*
X65757256Y-82891795D01*
X65568898Y-82813774D01*
X65554957Y-82811001D01*
X77372489Y-82811001D01*
X77409811Y-82814677D01*
X77447133Y-82811001D01*
X77447144Y-82811001D01*
X77558797Y-82800004D01*
X77559772Y-82799708D01*
X77615915Y-82935250D01*
X77833149Y-83260364D01*
X78109636Y-83536851D01*
X78434750Y-83754085D01*
X78795997Y-83903718D01*
X79179495Y-83980000D01*
X79570505Y-83980000D01*
X79954003Y-83903718D01*
X80315250Y-83754085D01*
X80640364Y-83536851D01*
X80916851Y-83260364D01*
X81134085Y-82935250D01*
X81283718Y-82574003D01*
X81360000Y-82190505D01*
X81360000Y-81799495D01*
X81283718Y-81415997D01*
X81134085Y-81054750D01*
X80916851Y-80729636D01*
X80640364Y-80453149D01*
X80315250Y-80235915D01*
X79954003Y-80086282D01*
X79570505Y-80010000D01*
X79179495Y-80010000D01*
X78795997Y-80086282D01*
X78434750Y-80235915D01*
X78109636Y-80453149D01*
X77833149Y-80729636D01*
X77615915Y-81054750D01*
X77541253Y-81235000D01*
X77503134Y-81235000D01*
X77465811Y-81231324D01*
X77428489Y-81235000D01*
X77428479Y-81235000D01*
X77316826Y-81245997D01*
X77173565Y-81289454D01*
X77170671Y-81291001D01*
X76153800Y-81291001D01*
X78374801Y-79070000D01*
X82735928Y-79070000D01*
X82748188Y-79194482D01*
X82784498Y-79314180D01*
X82843463Y-79424494D01*
X82922815Y-79521185D01*
X83019506Y-79600537D01*
X83129820Y-79659502D01*
X83238600Y-79692500D01*
X83129820Y-79725498D01*
X83019506Y-79784463D01*
X82922815Y-79863815D01*
X82843463Y-79960506D01*
X82784498Y-80070820D01*
X82748188Y-80190518D01*
X82735928Y-80315000D01*
X82739000Y-80604250D01*
X82897750Y-80763000D01*
X83947000Y-80763000D01*
X83947000Y-79838750D01*
X83800750Y-79692500D01*
X83947000Y-79546250D01*
X83947000Y-78622000D01*
X84201000Y-78622000D01*
X84201000Y-79546250D01*
X84347250Y-79692500D01*
X84201000Y-79838750D01*
X84201000Y-80763000D01*
X85250250Y-80763000D01*
X85409000Y-80604250D01*
X85412072Y-80315000D01*
X85399812Y-80190518D01*
X85363502Y-80070820D01*
X85304537Y-79960506D01*
X85225185Y-79863815D01*
X85128494Y-79784463D01*
X85018180Y-79725498D01*
X84909400Y-79692500D01*
X85018180Y-79659502D01*
X85128494Y-79600537D01*
X85225185Y-79521185D01*
X85304537Y-79424494D01*
X85363502Y-79314180D01*
X85399812Y-79194482D01*
X85412072Y-79070000D01*
X85409000Y-78780750D01*
X85250250Y-78622000D01*
X84201000Y-78622000D01*
X83947000Y-78622000D01*
X82897750Y-78622000D01*
X82739000Y-78780750D01*
X82735928Y-79070000D01*
X78374801Y-79070000D01*
X78615746Y-78829056D01*
X78795997Y-78903718D01*
X79179495Y-78980000D01*
X79570505Y-78980000D01*
X79954003Y-78903718D01*
X80315250Y-78754085D01*
X80640364Y-78536851D01*
X80916851Y-78260364D01*
X81134085Y-77935250D01*
X81283718Y-77574003D01*
X81360000Y-77190505D01*
X81360000Y-76799495D01*
X81283718Y-76415997D01*
X81134085Y-76054750D01*
X80916851Y-75729636D01*
X80640364Y-75453149D01*
X80315250Y-75235915D01*
X80175430Y-75178000D01*
X81546440Y-75178000D01*
X81515000Y-75336061D01*
G37*
X81515000Y-75336061D02*
X81515000Y-75539939D01*
X81554774Y-75739898D01*
X81632795Y-75928256D01*
X81746063Y-76097774D01*
X81890226Y-76241937D01*
X82059744Y-76355205D01*
X82248102Y-76433226D01*
X82297188Y-76442990D01*
X82748135Y-76893936D01*
X82752992Y-76943255D01*
X82803528Y-77109851D01*
X82885595Y-77263387D01*
X82996038Y-77397962D01*
X83002594Y-77403342D01*
X82922815Y-77468815D01*
X82843463Y-77565506D01*
X82784498Y-77675820D01*
X82748188Y-77795518D01*
X82735928Y-77920000D01*
X82739000Y-78209250D01*
X82897750Y-78368000D01*
X83947000Y-78368000D01*
X83947000Y-78348000D01*
X84201000Y-78348000D01*
X84201000Y-78368000D01*
X85250250Y-78368000D01*
X85409000Y-78209250D01*
X85412072Y-77920000D01*
X85399812Y-77795518D01*
X85363502Y-77675820D01*
X85304537Y-77565506D01*
X85225185Y-77468815D01*
X85145406Y-77403342D01*
X85151962Y-77397962D01*
X85262405Y-77263387D01*
X85344472Y-77109851D01*
X85395008Y-76943255D01*
X85412072Y-76770001D01*
X85412072Y-76172428D01*
X85858000Y-76618356D01*
X85858001Y-83147644D01*
X85279798Y-83725847D01*
X85344472Y-83604851D01*
X85395008Y-83438255D01*
X85412072Y-83265001D01*
X85412072Y-82614999D01*
X85395008Y-82441745D01*
X85344472Y-82275149D01*
X85262405Y-82121613D01*
X85151962Y-81987038D01*
X85145406Y-81981658D01*
X85225185Y-81916185D01*
X85304537Y-81819494D01*
X85363502Y-81709180D01*
X85399812Y-81589482D01*
X85412072Y-81465000D01*
X85409000Y-81175750D01*
X85250250Y-81017000D01*
X84201000Y-81017000D01*
X84201000Y-81037000D01*
X83947000Y-81037000D01*
X83947000Y-81017000D01*
X82897750Y-81017000D01*
X82739000Y-81175750D01*
X82735928Y-81465000D01*
X82748188Y-81589482D01*
X82784498Y-81709180D01*
X82843463Y-81819494D01*
X82922815Y-81916185D01*
X83002594Y-81981658D01*
X82996038Y-81987038D01*
X82885595Y-82121613D01*
X82803528Y-82275149D01*
X82752992Y-82441745D01*
X82748135Y-82491064D01*
X82039002Y-83200197D01*
X82009999Y-83223999D01*
X81958346Y-83286939D01*
X81915026Y-83339724D01*
X81855546Y-83451003D01*
X81844454Y-83471754D01*
X81800997Y-83615015D01*
X81790000Y-83726668D01*
X81790000Y-83726678D01*
X81786324Y-83764000D01*
X81790000Y-83801323D01*
X81790000Y-84005289D01*
X81746063Y-84049226D01*
X81632795Y-84218744D01*
X81554774Y-84407102D01*
X81515000Y-84607061D01*
X81515000Y-84810939D01*
X81554774Y-85010898D01*
X81632795Y-85199256D01*
X81746063Y-85368774D01*
X81890226Y-85512937D01*
X82059744Y-85626205D01*
X82248102Y-85704226D01*
X82448061Y-85744000D01*
X82651939Y-85744000D01*
X82851898Y-85704226D01*
X83040256Y-85626205D01*
X83209774Y-85512937D01*
X83353937Y-85368774D01*
X83467205Y-85199256D01*
X83545226Y-85010898D01*
X83585000Y-84810939D01*
X83585000Y-84607061D01*
X83545226Y-84407102D01*
X83467205Y-84218744D01*
X83402054Y-84121238D01*
X83450745Y-84136008D01*
X83623999Y-84153072D01*
X84524001Y-84153072D01*
X84697255Y-84136008D01*
X84863851Y-84085472D01*
X84984847Y-84020798D01*
X83020645Y-85985000D01*
X81087480Y-85985000D01*
X80916851Y-85729636D01*
X80640364Y-85453149D01*
X80315250Y-85235915D01*
X79954003Y-85086282D01*
X79570505Y-85010000D01*
X79179495Y-85010000D01*
X78795997Y-85086282D01*
X78434750Y-85235915D01*
X78109636Y-85453149D01*
X77833149Y-85729636D01*
X77662520Y-85985000D01*
X64454139Y-85985000D01*
X64549840Y-85933847D01*
X64703633Y-85807633D01*
X64735261Y-85769094D01*
X65820226Y-84684130D01*
X65926774Y-84612937D01*
X66070937Y-84468774D01*
X66184205Y-84299256D01*
X66262226Y-84110898D01*
X66302000Y-83910939D01*
X66302000Y-83707061D01*
X66262226Y-83507102D01*
X66184205Y-83318744D01*
X66070937Y-83149226D01*
X65926774Y-83005063D01*
X65757256Y-82891795D01*
X65568898Y-82813774D01*
X65554957Y-82811001D01*
X77372489Y-82811001D01*
X77409811Y-82814677D01*
X77447133Y-82811001D01*
X77447144Y-82811001D01*
X77558797Y-82800004D01*
X77559772Y-82799708D01*
X77615915Y-82935250D01*
X77833149Y-83260364D01*
X78109636Y-83536851D01*
X78434750Y-83754085D01*
X78795997Y-83903718D01*
X79179495Y-83980000D01*
X79570505Y-83980000D01*
X79954003Y-83903718D01*
X80315250Y-83754085D01*
X80640364Y-83536851D01*
X80916851Y-83260364D01*
X81134085Y-82935250D01*
X81283718Y-82574003D01*
X81360000Y-82190505D01*
X81360000Y-81799495D01*
X81283718Y-81415997D01*
X81134085Y-81054750D01*
X80916851Y-80729636D01*
X80640364Y-80453149D01*
X80315250Y-80235915D01*
X79954003Y-80086282D01*
X79570505Y-80010000D01*
X79179495Y-80010000D01*
X78795997Y-80086282D01*
X78434750Y-80235915D01*
X78109636Y-80453149D01*
X77833149Y-80729636D01*
X77615915Y-81054750D01*
X77541253Y-81235000D01*
X77503134Y-81235000D01*
X77465811Y-81231324D01*
X77428489Y-81235000D01*
X77428479Y-81235000D01*
X77316826Y-81245997D01*
X77173565Y-81289454D01*
X77170671Y-81291001D01*
X76153800Y-81291001D01*
X78374801Y-79070000D01*
X82735928Y-79070000D01*
X82748188Y-79194482D01*
X82784498Y-79314180D01*
X82843463Y-79424494D01*
X82922815Y-79521185D01*
X83019506Y-79600537D01*
X83129820Y-79659502D01*
X83238600Y-79692500D01*
X83129820Y-79725498D01*
X83019506Y-79784463D01*
X82922815Y-79863815D01*
X82843463Y-79960506D01*
X82784498Y-80070820D01*
X82748188Y-80190518D01*
X82735928Y-80315000D01*
X82739000Y-80604250D01*
X82897750Y-80763000D01*
X83947000Y-80763000D01*
X83947000Y-79838750D01*
X83800750Y-79692500D01*
X83947000Y-79546250D01*
X83947000Y-78622000D01*
X84201000Y-78622000D01*
X84201000Y-79546250D01*
X84347250Y-79692500D01*
X84201000Y-79838750D01*
X84201000Y-80763000D01*
X85250250Y-80763000D01*
X85409000Y-80604250D01*
X85412072Y-80315000D01*
X85399812Y-80190518D01*
X85363502Y-80070820D01*
X85304537Y-79960506D01*
X85225185Y-79863815D01*
X85128494Y-79784463D01*
X85018180Y-79725498D01*
X84909400Y-79692500D01*
X85018180Y-79659502D01*
X85128494Y-79600537D01*
X85225185Y-79521185D01*
X85304537Y-79424494D01*
X85363502Y-79314180D01*
X85399812Y-79194482D01*
X85412072Y-79070000D01*
X85409000Y-78780750D01*
X85250250Y-78622000D01*
X84201000Y-78622000D01*
X83947000Y-78622000D01*
X82897750Y-78622000D01*
X82739000Y-78780750D01*
X82735928Y-79070000D01*
X78374801Y-79070000D01*
X78615746Y-78829056D01*
X78795997Y-78903718D01*
X79179495Y-78980000D01*
X79570505Y-78980000D01*
X79954003Y-78903718D01*
X80315250Y-78754085D01*
X80640364Y-78536851D01*
X80916851Y-78260364D01*
X81134085Y-77935250D01*
X81283718Y-77574003D01*
X81360000Y-77190505D01*
X81360000Y-76799495D01*
X81283718Y-76415997D01*
X81134085Y-76054750D01*
X80916851Y-75729636D01*
X80640364Y-75453149D01*
X80315250Y-75235915D01*
X80175430Y-75178000D01*
X81546440Y-75178000D01*
X81515000Y-75336061D01*
M02*
