G04 #@! TF.GenerationSoftware,KiCad,Pcbnew,(5.1.5)-3*
G04 #@! TF.CreationDate,2021-02-28T20:58:20+01:00*
G04 #@! TF.ProjectId,ATtimer,41547469-6d65-4722-9e6b-696361645f70,rev?*
G04 #@! TF.SameCoordinates,Original*
G04 #@! TF.FileFunction,Soldermask,Bot*
G04 #@! TF.FilePolarity,Negative*
%FSLAX46Y46*%
G04 Gerber Fmt 4.6, Leading zero omitted, Abs format (unit mm)*
G04 Created by KiCad (PCBNEW (5.1.5)-3) date 2021-02-28 20:58:20*
%MOMM*%
%LPD*%
G04 APERTURE LIST*
%ADD10C,0.100000*%
G04 APERTURE END LIST*
D10*
G36*
X40182048Y-129416442D02*
G01*
X40474413Y-129505130D01*
X40474415Y-129505131D01*
X40743856Y-129649150D01*
X40743858Y-129649151D01*
X40743857Y-129649151D01*
X40980029Y-129842971D01*
X41067395Y-129949426D01*
X41173850Y-130079142D01*
X41317869Y-130348584D01*
X41317870Y-130348586D01*
X41406558Y-130640951D01*
X41429000Y-130868810D01*
X41429000Y-132021190D01*
X41406558Y-132249049D01*
X41367931Y-132376384D01*
X41317869Y-132541416D01*
X41173850Y-132810858D01*
X40980029Y-133047029D01*
X40743858Y-133240850D01*
X40474416Y-133384869D01*
X40474414Y-133384870D01*
X40182049Y-133473558D01*
X39878000Y-133503504D01*
X39573952Y-133473558D01*
X39281587Y-133384870D01*
X39281585Y-133384869D01*
X39012143Y-133240850D01*
X38775972Y-133047029D01*
X38582151Y-132810858D01*
X38438130Y-132541414D01*
X38349442Y-132249049D01*
X38327000Y-132021190D01*
X38327000Y-130868811D01*
X38349442Y-130640952D01*
X38438130Y-130348587D01*
X38582151Y-130079143D01*
X38775971Y-129842971D01*
X38882426Y-129755605D01*
X39012142Y-129649150D01*
X39281584Y-129505131D01*
X39281586Y-129505130D01*
X39573951Y-129416442D01*
X39878000Y-129386496D01*
X40182048Y-129416442D01*
G37*
G36*
X45262048Y-129416442D02*
G01*
X45554413Y-129505130D01*
X45554415Y-129505131D01*
X45823856Y-129649150D01*
X45823858Y-129649151D01*
X45823857Y-129649151D01*
X46060029Y-129842971D01*
X46147395Y-129949426D01*
X46253850Y-130079142D01*
X46397869Y-130348584D01*
X46397870Y-130348586D01*
X46486558Y-130640951D01*
X46509000Y-130868810D01*
X46509000Y-132021190D01*
X46486558Y-132249049D01*
X46447931Y-132376384D01*
X46397869Y-132541416D01*
X46253850Y-132810858D01*
X46060029Y-133047029D01*
X45823858Y-133240850D01*
X45554416Y-133384869D01*
X45554414Y-133384870D01*
X45262049Y-133473558D01*
X44958000Y-133503504D01*
X44653952Y-133473558D01*
X44361587Y-133384870D01*
X44361585Y-133384869D01*
X44092143Y-133240850D01*
X43855972Y-133047029D01*
X43662151Y-132810858D01*
X43518130Y-132541414D01*
X43429442Y-132249049D01*
X43407000Y-132021190D01*
X43407000Y-130868811D01*
X43429442Y-130640952D01*
X43518130Y-130348587D01*
X43662151Y-130079143D01*
X43855971Y-129842971D01*
X43962426Y-129755605D01*
X44092142Y-129649150D01*
X44361584Y-129505131D01*
X44361586Y-129505130D01*
X44653951Y-129416442D01*
X44958000Y-129386496D01*
X45262048Y-129416442D01*
G37*
G36*
X55170564Y-130434389D02*
G01*
X55361833Y-130513615D01*
X55361835Y-130513616D01*
X55533973Y-130628635D01*
X55680365Y-130775027D01*
X55743030Y-130868811D01*
X55795385Y-130947167D01*
X55874611Y-131138436D01*
X55915000Y-131341484D01*
X55915000Y-131548516D01*
X55874611Y-131751564D01*
X55795385Y-131942833D01*
X55795384Y-131942835D01*
X55680365Y-132114973D01*
X55533973Y-132261365D01*
X55361835Y-132376384D01*
X55361834Y-132376385D01*
X55361833Y-132376385D01*
X55170564Y-132455611D01*
X54967516Y-132496000D01*
X54760484Y-132496000D01*
X54557436Y-132455611D01*
X54366167Y-132376385D01*
X54366166Y-132376385D01*
X54366165Y-132376384D01*
X54194027Y-132261365D01*
X54047635Y-132114973D01*
X53932616Y-131942835D01*
X53932615Y-131942833D01*
X53853389Y-131751564D01*
X53813000Y-131548516D01*
X53813000Y-131341484D01*
X53853389Y-131138436D01*
X53932615Y-130947167D01*
X53984971Y-130868811D01*
X54047635Y-130775027D01*
X54194027Y-130628635D01*
X54366165Y-130513616D01*
X54366167Y-130513615D01*
X54557436Y-130434389D01*
X54760484Y-130394000D01*
X54967516Y-130394000D01*
X55170564Y-130434389D01*
G37*
G36*
X70601064Y-130434389D02*
G01*
X70792333Y-130513615D01*
X70792335Y-130513616D01*
X70964473Y-130628635D01*
X71110865Y-130775027D01*
X71173530Y-130868811D01*
X71225885Y-130947167D01*
X71305111Y-131138436D01*
X71345500Y-131341484D01*
X71345500Y-131548516D01*
X71305111Y-131751564D01*
X71225885Y-131942833D01*
X71225884Y-131942835D01*
X71110865Y-132114973D01*
X70964473Y-132261365D01*
X70792335Y-132376384D01*
X70792334Y-132376385D01*
X70792333Y-132376385D01*
X70601064Y-132455611D01*
X70398016Y-132496000D01*
X70190984Y-132496000D01*
X69987936Y-132455611D01*
X69796667Y-132376385D01*
X69796666Y-132376385D01*
X69796665Y-132376384D01*
X69624527Y-132261365D01*
X69478135Y-132114973D01*
X69363116Y-131942835D01*
X69363115Y-131942833D01*
X69283889Y-131751564D01*
X69243500Y-131548516D01*
X69243500Y-131341484D01*
X69283889Y-131138436D01*
X69363115Y-130947167D01*
X69415471Y-130868811D01*
X69478135Y-130775027D01*
X69624527Y-130628635D01*
X69796665Y-130513616D01*
X69796667Y-130513615D01*
X69987936Y-130434389D01*
X70190984Y-130394000D01*
X70398016Y-130394000D01*
X70601064Y-130434389D01*
G37*
G36*
X78838500Y-132496000D02*
G01*
X76736500Y-132496000D01*
X76736500Y-130394000D01*
X78838500Y-130394000D01*
X78838500Y-132496000D01*
G37*
G36*
X63094064Y-130434389D02*
G01*
X63285333Y-130513615D01*
X63285335Y-130513616D01*
X63457473Y-130628635D01*
X63603865Y-130775027D01*
X63666530Y-130868811D01*
X63718885Y-130947167D01*
X63798111Y-131138436D01*
X63838500Y-131341484D01*
X63838500Y-131548516D01*
X63798111Y-131751564D01*
X63718885Y-131942833D01*
X63718884Y-131942835D01*
X63603865Y-132114973D01*
X63457473Y-132261365D01*
X63285335Y-132376384D01*
X63285334Y-132376385D01*
X63285333Y-132376385D01*
X63094064Y-132455611D01*
X62891016Y-132496000D01*
X62683984Y-132496000D01*
X62480936Y-132455611D01*
X62289667Y-132376385D01*
X62289666Y-132376385D01*
X62289665Y-132376384D01*
X62117527Y-132261365D01*
X61971135Y-132114973D01*
X61856116Y-131942835D01*
X61856115Y-131942833D01*
X61776889Y-131751564D01*
X61736500Y-131548516D01*
X61736500Y-131341484D01*
X61776889Y-131138436D01*
X61856115Y-130947167D01*
X61908471Y-130868811D01*
X61971135Y-130775027D01*
X62117527Y-130628635D01*
X62289665Y-130513616D01*
X62289667Y-130513615D01*
X62480936Y-130434389D01*
X62683984Y-130394000D01*
X62891016Y-130394000D01*
X63094064Y-130434389D01*
G37*
G36*
X52008228Y-122371703D02*
G01*
X52163100Y-122435853D01*
X52302481Y-122528985D01*
X52421015Y-122647519D01*
X52514147Y-122786900D01*
X52578297Y-122941772D01*
X52611000Y-123106184D01*
X52611000Y-123273816D01*
X52578297Y-123438228D01*
X52514147Y-123593100D01*
X52421015Y-123732481D01*
X52302481Y-123851015D01*
X52163100Y-123944147D01*
X52008228Y-124008297D01*
X51843816Y-124041000D01*
X51676184Y-124041000D01*
X51511772Y-124008297D01*
X51356900Y-123944147D01*
X51217519Y-123851015D01*
X51098985Y-123732481D01*
X51005853Y-123593100D01*
X50941703Y-123438228D01*
X50909000Y-123273816D01*
X50909000Y-123106184D01*
X50941703Y-122941772D01*
X51005853Y-122786900D01*
X51098985Y-122647519D01*
X51217519Y-122528985D01*
X51356900Y-122435853D01*
X51511772Y-122371703D01*
X51676184Y-122339000D01*
X51843816Y-122339000D01*
X52008228Y-122371703D01*
G37*
G36*
X49111000Y-124041000D02*
G01*
X47409000Y-124041000D01*
X47409000Y-122339000D01*
X49111000Y-122339000D01*
X49111000Y-124041000D01*
G37*
G36*
X42961000Y-121653500D02*
G01*
X40859000Y-121653500D01*
X40859000Y-119646500D01*
X42961000Y-119646500D01*
X42961000Y-121653500D01*
G37*
G36*
X74441000Y-121431000D02*
G01*
X70339000Y-121431000D01*
X70339000Y-117329000D01*
X74441000Y-117329000D01*
X74441000Y-121431000D01*
G37*
G36*
X42055936Y-117111340D02*
G01*
X42154220Y-117121020D01*
X42343381Y-117178401D01*
X42517712Y-117271583D01*
X42670515Y-117396985D01*
X42795917Y-117549788D01*
X42889099Y-117724119D01*
X42946480Y-117913280D01*
X42965855Y-118110000D01*
X42946480Y-118306720D01*
X42889099Y-118495881D01*
X42795917Y-118670212D01*
X42670515Y-118823015D01*
X42517712Y-118948417D01*
X42343381Y-119041599D01*
X42154220Y-119098980D01*
X42055936Y-119108660D01*
X42006795Y-119113500D01*
X41813205Y-119113500D01*
X41764064Y-119108660D01*
X41665780Y-119098980D01*
X41476619Y-119041599D01*
X41302288Y-118948417D01*
X41149485Y-118823015D01*
X41024083Y-118670212D01*
X40930901Y-118495881D01*
X40873520Y-118306720D01*
X40854145Y-118110000D01*
X40873520Y-117913280D01*
X40930901Y-117724119D01*
X41024083Y-117549788D01*
X41149485Y-117396985D01*
X41302288Y-117271583D01*
X41476619Y-117178401D01*
X41665780Y-117121020D01*
X41764064Y-117111340D01*
X41813205Y-117106500D01*
X42006795Y-117106500D01*
X42055936Y-117111340D01*
G37*
G36*
X42055936Y-114571340D02*
G01*
X42154220Y-114581020D01*
X42343381Y-114638401D01*
X42517712Y-114731583D01*
X42670515Y-114856985D01*
X42795917Y-115009788D01*
X42889099Y-115184119D01*
X42946480Y-115373280D01*
X42965855Y-115570000D01*
X42946480Y-115766720D01*
X42889099Y-115955881D01*
X42795917Y-116130212D01*
X42670515Y-116283015D01*
X42517712Y-116408417D01*
X42343381Y-116501599D01*
X42154220Y-116558980D01*
X42055936Y-116568660D01*
X42006795Y-116573500D01*
X41813205Y-116573500D01*
X41764064Y-116568660D01*
X41665780Y-116558980D01*
X41476619Y-116501599D01*
X41302288Y-116408417D01*
X41149485Y-116283015D01*
X41024083Y-116130212D01*
X40930901Y-115955881D01*
X40873520Y-115766720D01*
X40854145Y-115570000D01*
X40873520Y-115373280D01*
X40930901Y-115184119D01*
X41024083Y-115009788D01*
X41149485Y-114856985D01*
X41302288Y-114731583D01*
X41476619Y-114638401D01*
X41665780Y-114581020D01*
X41764064Y-114571340D01*
X41813205Y-114566500D01*
X42006795Y-114566500D01*
X42055936Y-114571340D01*
G37*
G36*
X57723228Y-114116703D02*
G01*
X57878100Y-114180853D01*
X58017481Y-114273985D01*
X58136015Y-114392519D01*
X58229147Y-114531900D01*
X58293297Y-114686772D01*
X58326000Y-114851184D01*
X58326000Y-115018816D01*
X58293297Y-115183228D01*
X58229147Y-115338100D01*
X58136015Y-115477481D01*
X58017481Y-115596015D01*
X57878100Y-115689147D01*
X57723228Y-115753297D01*
X57558816Y-115786000D01*
X57391184Y-115786000D01*
X57226772Y-115753297D01*
X57071900Y-115689147D01*
X56932519Y-115596015D01*
X56813985Y-115477481D01*
X56720853Y-115338100D01*
X56656703Y-115183228D01*
X56624000Y-115018816D01*
X56624000Y-114851184D01*
X56656703Y-114686772D01*
X56720853Y-114531900D01*
X56813985Y-114392519D01*
X56932519Y-114273985D01*
X57071900Y-114180853D01*
X57226772Y-114116703D01*
X57391184Y-114084000D01*
X57558816Y-114084000D01*
X57723228Y-114116703D01*
G37*
G36*
X54826000Y-115786000D02*
G01*
X53124000Y-115786000D01*
X53124000Y-114084000D01*
X54826000Y-114084000D01*
X54826000Y-115786000D01*
G37*
G36*
X72988254Y-107407818D02*
G01*
X73361511Y-107562426D01*
X73361513Y-107562427D01*
X73697436Y-107786884D01*
X73983116Y-108072564D01*
X74207574Y-108408489D01*
X74362182Y-108781746D01*
X74441000Y-109177993D01*
X74441000Y-109582007D01*
X74362182Y-109978254D01*
X74207574Y-110351511D01*
X74207573Y-110351513D01*
X73983116Y-110687436D01*
X73697436Y-110973116D01*
X73361513Y-111197573D01*
X73361512Y-111197574D01*
X73361511Y-111197574D01*
X72988254Y-111352182D01*
X72592007Y-111431000D01*
X72187993Y-111431000D01*
X71791746Y-111352182D01*
X71418489Y-111197574D01*
X71418488Y-111197574D01*
X71418487Y-111197573D01*
X71082564Y-110973116D01*
X70796884Y-110687436D01*
X70572427Y-110351513D01*
X70572426Y-110351511D01*
X70417818Y-109978254D01*
X70339000Y-109582007D01*
X70339000Y-109177993D01*
X70417818Y-108781746D01*
X70572426Y-108408489D01*
X70796884Y-108072564D01*
X71082564Y-107786884D01*
X71418487Y-107562427D01*
X71418489Y-107562426D01*
X71791746Y-107407818D01*
X72187993Y-107329000D01*
X72592007Y-107329000D01*
X72988254Y-107407818D01*
G37*
G36*
X79693433Y-97059893D02*
G01*
X79783657Y-97077839D01*
X79889267Y-97121585D01*
X80038621Y-97183449D01*
X80038622Y-97183450D01*
X80268086Y-97336772D01*
X80463228Y-97531914D01*
X80565675Y-97685237D01*
X80616551Y-97761379D01*
X80722161Y-98016344D01*
X80776000Y-98287012D01*
X80776000Y-98562988D01*
X80722161Y-98833656D01*
X80616551Y-99088621D01*
X80616550Y-99088622D01*
X80463228Y-99318086D01*
X80268086Y-99513228D01*
X80114763Y-99615675D01*
X80038621Y-99666551D01*
X79889267Y-99728415D01*
X79783657Y-99772161D01*
X79693433Y-99790107D01*
X79512988Y-99826000D01*
X79237012Y-99826000D01*
X79056567Y-99790107D01*
X78966343Y-99772161D01*
X78860733Y-99728415D01*
X78711379Y-99666551D01*
X78635237Y-99615675D01*
X78481914Y-99513228D01*
X78286772Y-99318086D01*
X78133450Y-99088622D01*
X78133449Y-99088621D01*
X78027839Y-98833656D01*
X77974000Y-98562988D01*
X77974000Y-98287012D01*
X78027839Y-98016344D01*
X78133449Y-97761379D01*
X78184325Y-97685237D01*
X78286772Y-97531914D01*
X78481914Y-97336772D01*
X78711378Y-97183450D01*
X78711379Y-97183449D01*
X78860733Y-97121585D01*
X78966343Y-97077839D01*
X79056567Y-97059893D01*
X79237012Y-97024000D01*
X79512988Y-97024000D01*
X79693433Y-97059893D01*
G37*
G36*
X79693433Y-92059893D02*
G01*
X79783657Y-92077839D01*
X79889267Y-92121585D01*
X80038621Y-92183449D01*
X80038622Y-92183450D01*
X80268086Y-92336772D01*
X80463228Y-92531914D01*
X80565675Y-92685237D01*
X80616551Y-92761379D01*
X80722161Y-93016344D01*
X80776000Y-93287012D01*
X80776000Y-93562988D01*
X80722161Y-93833656D01*
X80616551Y-94088621D01*
X80616550Y-94088622D01*
X80463228Y-94318086D01*
X80268086Y-94513228D01*
X80114763Y-94615675D01*
X80038621Y-94666551D01*
X79889267Y-94728415D01*
X79783657Y-94772161D01*
X79693433Y-94790107D01*
X79512988Y-94826000D01*
X79237012Y-94826000D01*
X79056567Y-94790107D01*
X78966343Y-94772161D01*
X78860733Y-94728415D01*
X78711379Y-94666551D01*
X78635237Y-94615675D01*
X78481914Y-94513228D01*
X78286772Y-94318086D01*
X78133450Y-94088622D01*
X78133449Y-94088621D01*
X78027839Y-93833656D01*
X77974000Y-93562988D01*
X77974000Y-93287012D01*
X78027839Y-93016344D01*
X78133449Y-92761379D01*
X78184325Y-92685237D01*
X78286772Y-92531914D01*
X78481914Y-92336772D01*
X78711378Y-92183450D01*
X78711379Y-92183449D01*
X78860733Y-92121585D01*
X78966343Y-92077839D01*
X79056567Y-92059893D01*
X79237012Y-92024000D01*
X79512988Y-92024000D01*
X79693433Y-92059893D01*
G37*
G36*
X79693433Y-85629893D02*
G01*
X79783657Y-85647839D01*
X79889267Y-85691585D01*
X80038621Y-85753449D01*
X80038622Y-85753450D01*
X80268086Y-85906772D01*
X80463228Y-86101914D01*
X80565675Y-86255237D01*
X80616551Y-86331379D01*
X80722161Y-86586344D01*
X80776000Y-86857012D01*
X80776000Y-87132988D01*
X80722161Y-87403656D01*
X80616551Y-87658621D01*
X80616550Y-87658622D01*
X80463228Y-87888086D01*
X80268086Y-88083228D01*
X80114763Y-88185675D01*
X80038621Y-88236551D01*
X79889267Y-88298415D01*
X79783657Y-88342161D01*
X79693433Y-88360107D01*
X79512988Y-88396000D01*
X79237012Y-88396000D01*
X79056567Y-88360107D01*
X78966343Y-88342161D01*
X78860733Y-88298415D01*
X78711379Y-88236551D01*
X78635237Y-88185675D01*
X78481914Y-88083228D01*
X78286772Y-87888086D01*
X78133450Y-87658622D01*
X78133449Y-87658621D01*
X78027839Y-87403656D01*
X77974000Y-87132988D01*
X77974000Y-86857012D01*
X78027839Y-86586344D01*
X78133449Y-86331379D01*
X78184325Y-86255237D01*
X78286772Y-86101914D01*
X78481914Y-85906772D01*
X78711378Y-85753450D01*
X78711379Y-85753449D01*
X78860733Y-85691585D01*
X78966343Y-85647839D01*
X79056567Y-85629893D01*
X79237012Y-85594000D01*
X79512988Y-85594000D01*
X79693433Y-85629893D01*
G37*
G36*
X51541642Y-83049781D02*
G01*
X51687414Y-83110162D01*
X51687416Y-83110163D01*
X51818608Y-83197822D01*
X51930178Y-83309392D01*
X52017837Y-83440584D01*
X52017838Y-83440586D01*
X52078219Y-83586358D01*
X52109000Y-83741107D01*
X52109000Y-83898893D01*
X52078219Y-84053642D01*
X52017838Y-84199414D01*
X52017837Y-84199416D01*
X51930178Y-84330608D01*
X51818608Y-84442178D01*
X51687416Y-84529837D01*
X51687415Y-84529838D01*
X51687414Y-84529838D01*
X51541642Y-84590219D01*
X51386893Y-84621000D01*
X51229107Y-84621000D01*
X51074358Y-84590219D01*
X50928586Y-84529838D01*
X50928585Y-84529838D01*
X50928584Y-84529837D01*
X50797392Y-84442178D01*
X50685822Y-84330608D01*
X50598163Y-84199416D01*
X50598162Y-84199414D01*
X50537781Y-84053642D01*
X50507000Y-83898893D01*
X50507000Y-83741107D01*
X50537781Y-83586358D01*
X50598162Y-83440586D01*
X50598163Y-83440584D01*
X50685822Y-83309392D01*
X50797392Y-83197822D01*
X50928584Y-83110163D01*
X50928586Y-83110162D01*
X51074358Y-83049781D01*
X51229107Y-83019000D01*
X51386893Y-83019000D01*
X51541642Y-83049781D01*
G37*
G36*
X46461642Y-83049781D02*
G01*
X46607414Y-83110162D01*
X46607416Y-83110163D01*
X46738608Y-83197822D01*
X46850178Y-83309392D01*
X46937837Y-83440584D01*
X46937838Y-83440586D01*
X46998219Y-83586358D01*
X47029000Y-83741107D01*
X47029000Y-83898893D01*
X46998219Y-84053642D01*
X46937838Y-84199414D01*
X46937837Y-84199416D01*
X46850178Y-84330608D01*
X46738608Y-84442178D01*
X46607416Y-84529837D01*
X46607415Y-84529838D01*
X46607414Y-84529838D01*
X46461642Y-84590219D01*
X46306893Y-84621000D01*
X46149107Y-84621000D01*
X45994358Y-84590219D01*
X45848586Y-84529838D01*
X45848585Y-84529838D01*
X45848584Y-84529837D01*
X45717392Y-84442178D01*
X45605822Y-84330608D01*
X45518163Y-84199416D01*
X45518162Y-84199414D01*
X45457781Y-84053642D01*
X45427000Y-83898893D01*
X45427000Y-83741107D01*
X45457781Y-83586358D01*
X45518162Y-83440586D01*
X45518163Y-83440584D01*
X45605822Y-83309392D01*
X45717392Y-83197822D01*
X45848584Y-83110163D01*
X45848586Y-83110162D01*
X45994358Y-83049781D01*
X46149107Y-83019000D01*
X46306893Y-83019000D01*
X46461642Y-83049781D01*
G37*
G36*
X84662674Y-82318465D02*
G01*
X84700367Y-82329899D01*
X84735103Y-82348466D01*
X84765548Y-82373452D01*
X84790534Y-82403897D01*
X84809101Y-82438633D01*
X84820535Y-82476326D01*
X84825000Y-82521661D01*
X84825000Y-83358339D01*
X84820535Y-83403674D01*
X84809101Y-83441367D01*
X84790534Y-83476103D01*
X84765548Y-83506548D01*
X84735103Y-83531534D01*
X84700367Y-83550101D01*
X84662674Y-83561535D01*
X84617339Y-83566000D01*
X83530661Y-83566000D01*
X83485326Y-83561535D01*
X83447633Y-83550101D01*
X83412897Y-83531534D01*
X83382452Y-83506548D01*
X83357466Y-83476103D01*
X83338899Y-83441367D01*
X83327465Y-83403674D01*
X83323000Y-83358339D01*
X83323000Y-82521661D01*
X83327465Y-82476326D01*
X83338899Y-82438633D01*
X83357466Y-82403897D01*
X83382452Y-82373452D01*
X83412897Y-82348466D01*
X83447633Y-82329899D01*
X83485326Y-82318465D01*
X83530661Y-82314000D01*
X84617339Y-82314000D01*
X84662674Y-82318465D01*
G37*
G36*
X79693433Y-80629893D02*
G01*
X79783657Y-80647839D01*
X79889267Y-80691585D01*
X80038621Y-80753449D01*
X80038622Y-80753450D01*
X80268086Y-80906772D01*
X80463228Y-81101914D01*
X80558051Y-81243827D01*
X80616551Y-81331379D01*
X80641399Y-81391367D01*
X80722161Y-81586343D01*
X80776000Y-81857014D01*
X80776000Y-82132986D01*
X80722161Y-82403657D01*
X80709194Y-82434962D01*
X80616551Y-82658621D01*
X80616550Y-82658622D01*
X80463228Y-82888086D01*
X80268086Y-83083228D01*
X80114763Y-83185675D01*
X80038621Y-83236551D01*
X79889267Y-83298415D01*
X79783657Y-83342161D01*
X79759706Y-83346925D01*
X79512988Y-83396000D01*
X79237012Y-83396000D01*
X78990294Y-83346925D01*
X78966343Y-83342161D01*
X78860733Y-83298415D01*
X78711379Y-83236551D01*
X78635237Y-83185675D01*
X78481914Y-83083228D01*
X78286772Y-82888086D01*
X78133450Y-82658622D01*
X78133449Y-82658621D01*
X78040806Y-82434962D01*
X78027839Y-82403657D01*
X77974000Y-82132986D01*
X77974000Y-81857014D01*
X78027839Y-81586343D01*
X78108601Y-81391367D01*
X78133449Y-81331379D01*
X78191949Y-81243827D01*
X78286772Y-81101914D01*
X78481914Y-80906772D01*
X78711378Y-80753450D01*
X78711379Y-80753449D01*
X78860733Y-80691585D01*
X78966343Y-80647839D01*
X79056567Y-80629893D01*
X79237012Y-80594000D01*
X79512988Y-80594000D01*
X79693433Y-80629893D01*
G37*
G36*
X84662674Y-80268465D02*
G01*
X84700367Y-80279899D01*
X84735103Y-80298466D01*
X84765548Y-80323452D01*
X84790534Y-80353897D01*
X84809101Y-80388633D01*
X84820535Y-80426326D01*
X84825000Y-80471661D01*
X84825000Y-81308339D01*
X84820535Y-81353674D01*
X84809101Y-81391367D01*
X84790534Y-81426103D01*
X84765548Y-81456548D01*
X84735103Y-81481534D01*
X84700367Y-81500101D01*
X84662674Y-81511535D01*
X84617339Y-81516000D01*
X83530661Y-81516000D01*
X83485326Y-81511535D01*
X83447633Y-81500101D01*
X83412897Y-81481534D01*
X83382452Y-81456548D01*
X83357466Y-81426103D01*
X83338899Y-81391367D01*
X83327465Y-81353674D01*
X83323000Y-81308339D01*
X83323000Y-80471661D01*
X83327465Y-80426326D01*
X83338899Y-80388633D01*
X83357466Y-80353897D01*
X83382452Y-80323452D01*
X83412897Y-80298466D01*
X83447633Y-80279899D01*
X83485326Y-80268465D01*
X83530661Y-80264000D01*
X84617339Y-80264000D01*
X84662674Y-80268465D01*
G37*
G36*
X84662674Y-77873465D02*
G01*
X84700367Y-77884899D01*
X84735103Y-77903466D01*
X84765548Y-77928452D01*
X84790534Y-77958897D01*
X84809101Y-77993633D01*
X84820535Y-78031326D01*
X84825000Y-78076661D01*
X84825000Y-78913339D01*
X84820535Y-78958674D01*
X84809101Y-78996367D01*
X84790534Y-79031103D01*
X84765548Y-79061548D01*
X84735103Y-79086534D01*
X84700367Y-79105101D01*
X84662674Y-79116535D01*
X84617339Y-79121000D01*
X83530661Y-79121000D01*
X83485326Y-79116535D01*
X83447633Y-79105101D01*
X83412897Y-79086534D01*
X83382452Y-79061548D01*
X83357466Y-79031103D01*
X83338899Y-78996367D01*
X83327465Y-78958674D01*
X83323000Y-78913339D01*
X83323000Y-78076661D01*
X83327465Y-78031326D01*
X83338899Y-77993633D01*
X83357466Y-77958897D01*
X83382452Y-77928452D01*
X83412897Y-77903466D01*
X83447633Y-77884899D01*
X83485326Y-77873465D01*
X83530661Y-77869000D01*
X84617339Y-77869000D01*
X84662674Y-77873465D01*
G37*
G36*
X79693433Y-75629893D02*
G01*
X79783657Y-75647839D01*
X79889267Y-75691585D01*
X80038621Y-75753449D01*
X80038622Y-75753450D01*
X80268086Y-75906772D01*
X80463228Y-76101914D01*
X80565675Y-76255237D01*
X80616551Y-76331379D01*
X80722161Y-76586344D01*
X80776000Y-76857012D01*
X80776000Y-77132988D01*
X80722161Y-77403656D01*
X80616551Y-77658621D01*
X80565675Y-77734763D01*
X80463228Y-77888086D01*
X80268086Y-78083228D01*
X80114763Y-78185675D01*
X80038621Y-78236551D01*
X79889267Y-78298415D01*
X79783657Y-78342161D01*
X79693433Y-78360107D01*
X79512988Y-78396000D01*
X79237012Y-78396000D01*
X79056567Y-78360107D01*
X78966343Y-78342161D01*
X78860733Y-78298415D01*
X78711379Y-78236551D01*
X78635237Y-78185675D01*
X78481914Y-78083228D01*
X78286772Y-77888086D01*
X78184325Y-77734763D01*
X78133449Y-77658621D01*
X78027839Y-77403656D01*
X77974000Y-77132988D01*
X77974000Y-76857012D01*
X78027839Y-76586344D01*
X78133449Y-76331379D01*
X78184325Y-76255237D01*
X78286772Y-76101914D01*
X78481914Y-75906772D01*
X78711378Y-75753450D01*
X78711379Y-75753449D01*
X78860733Y-75691585D01*
X78966343Y-75647839D01*
X79056567Y-75629893D01*
X79237012Y-75594000D01*
X79512988Y-75594000D01*
X79693433Y-75629893D01*
G37*
G36*
X58307562Y-75082181D02*
G01*
X58342481Y-75092774D01*
X58374663Y-75109976D01*
X58402873Y-75133127D01*
X58426024Y-75161337D01*
X58443226Y-75193519D01*
X58453819Y-75228438D01*
X58458000Y-75270895D01*
X58458000Y-77637105D01*
X58453819Y-77679562D01*
X58443226Y-77714481D01*
X58426024Y-77746663D01*
X58402873Y-77774873D01*
X58374663Y-77798024D01*
X58342481Y-77815226D01*
X58307562Y-77825819D01*
X58265105Y-77830000D01*
X57123895Y-77830000D01*
X57081438Y-77825819D01*
X57046519Y-77815226D01*
X57014337Y-77798024D01*
X56986127Y-77774873D01*
X56962976Y-77746663D01*
X56945774Y-77714481D01*
X56935181Y-77679562D01*
X56931000Y-77637105D01*
X56931000Y-75270895D01*
X56935181Y-75228438D01*
X56945774Y-75193519D01*
X56962976Y-75161337D01*
X56986127Y-75133127D01*
X57014337Y-75109976D01*
X57046519Y-75092774D01*
X57081438Y-75082181D01*
X57123895Y-75078000D01*
X58265105Y-75078000D01*
X58307562Y-75082181D01*
G37*
G36*
X61282562Y-75082181D02*
G01*
X61317481Y-75092774D01*
X61349663Y-75109976D01*
X61377873Y-75133127D01*
X61401024Y-75161337D01*
X61418226Y-75193519D01*
X61428819Y-75228438D01*
X61433000Y-75270895D01*
X61433000Y-77637105D01*
X61428819Y-77679562D01*
X61418226Y-77714481D01*
X61401024Y-77746663D01*
X61377873Y-77774873D01*
X61349663Y-77798024D01*
X61317481Y-77815226D01*
X61282562Y-77825819D01*
X61240105Y-77830000D01*
X60098895Y-77830000D01*
X60056438Y-77825819D01*
X60021519Y-77815226D01*
X59989337Y-77798024D01*
X59961127Y-77774873D01*
X59937976Y-77746663D01*
X59920774Y-77714481D01*
X59910181Y-77679562D01*
X59906000Y-77637105D01*
X59906000Y-75270895D01*
X59910181Y-75228438D01*
X59920774Y-75193519D01*
X59937976Y-75161337D01*
X59961127Y-75133127D01*
X59989337Y-75109976D01*
X60021519Y-75092774D01*
X60056438Y-75082181D01*
X60098895Y-75078000D01*
X61240105Y-75078000D01*
X61282562Y-75082181D01*
G37*
G36*
X84662674Y-75823465D02*
G01*
X84700367Y-75834899D01*
X84735103Y-75853466D01*
X84765548Y-75878452D01*
X84790534Y-75908897D01*
X84809101Y-75943633D01*
X84820535Y-75981326D01*
X84825000Y-76026661D01*
X84825000Y-76863339D01*
X84820535Y-76908674D01*
X84809101Y-76946367D01*
X84790534Y-76981103D01*
X84765548Y-77011548D01*
X84735103Y-77036534D01*
X84700367Y-77055101D01*
X84662674Y-77066535D01*
X84617339Y-77071000D01*
X83530661Y-77071000D01*
X83485326Y-77066535D01*
X83447633Y-77055101D01*
X83412897Y-77036534D01*
X83382452Y-77011548D01*
X83357466Y-76981103D01*
X83338899Y-76946367D01*
X83327465Y-76908674D01*
X83323000Y-76863339D01*
X83323000Y-76026661D01*
X83327465Y-75981326D01*
X83338899Y-75943633D01*
X83357466Y-75908897D01*
X83382452Y-75878452D01*
X83412897Y-75853466D01*
X83447633Y-75834899D01*
X83485326Y-75823465D01*
X83530661Y-75819000D01*
X84617339Y-75819000D01*
X84662674Y-75823465D01*
G37*
G36*
X46562674Y-74825465D02*
G01*
X46600367Y-74836899D01*
X46635103Y-74855466D01*
X46665548Y-74880452D01*
X46690534Y-74910897D01*
X46709101Y-74945633D01*
X46720535Y-74983326D01*
X46725000Y-75028661D01*
X46725000Y-75865339D01*
X46720535Y-75910674D01*
X46709101Y-75948367D01*
X46690534Y-75983103D01*
X46665548Y-76013548D01*
X46635103Y-76038534D01*
X46600367Y-76057101D01*
X46562674Y-76068535D01*
X46517339Y-76073000D01*
X45430661Y-76073000D01*
X45385326Y-76068535D01*
X45347633Y-76057101D01*
X45312897Y-76038534D01*
X45282452Y-76013548D01*
X45257466Y-75983103D01*
X45238899Y-75948367D01*
X45227465Y-75910674D01*
X45223000Y-75865339D01*
X45223000Y-75028661D01*
X45227465Y-74983326D01*
X45238899Y-74945633D01*
X45257466Y-74910897D01*
X45282452Y-74880452D01*
X45312897Y-74855466D01*
X45347633Y-74836899D01*
X45385326Y-74825465D01*
X45430661Y-74821000D01*
X46517339Y-74821000D01*
X46562674Y-74825465D01*
G37*
G36*
X49509642Y-74413781D02*
G01*
X49623638Y-74461000D01*
X49655416Y-74474163D01*
X49786608Y-74561822D01*
X49898178Y-74673392D01*
X49985837Y-74804584D01*
X49985838Y-74804586D01*
X50046219Y-74950358D01*
X50077000Y-75105107D01*
X50077000Y-75262893D01*
X50046219Y-75417642D01*
X49985838Y-75563414D01*
X49985837Y-75563416D01*
X49898178Y-75694608D01*
X49786608Y-75806178D01*
X49655416Y-75893837D01*
X49655415Y-75893838D01*
X49655414Y-75893838D01*
X49509642Y-75954219D01*
X49354893Y-75985000D01*
X49197107Y-75985000D01*
X49042358Y-75954219D01*
X48896586Y-75893838D01*
X48896585Y-75893838D01*
X48896584Y-75893837D01*
X48765392Y-75806178D01*
X48653822Y-75694608D01*
X48566163Y-75563416D01*
X48566162Y-75563414D01*
X48505781Y-75417642D01*
X48475000Y-75262893D01*
X48475000Y-75105107D01*
X48505781Y-74950358D01*
X48566162Y-74804586D01*
X48566163Y-74804584D01*
X48653822Y-74673392D01*
X48765392Y-74561822D01*
X48896584Y-74474163D01*
X48928362Y-74461000D01*
X49042358Y-74413781D01*
X49197107Y-74383000D01*
X49354893Y-74383000D01*
X49509642Y-74413781D01*
G37*
G36*
X68973000Y-75069000D02*
G01*
X67171000Y-75069000D01*
X67171000Y-73267000D01*
X68973000Y-73267000D01*
X68973000Y-75069000D01*
G37*
G36*
X63225642Y-72889781D02*
G01*
X63371414Y-72950162D01*
X63371416Y-72950163D01*
X63502608Y-73037822D01*
X63614178Y-73149392D01*
X63701837Y-73280584D01*
X63701838Y-73280586D01*
X63762219Y-73426358D01*
X63793000Y-73581107D01*
X63793000Y-73738893D01*
X63762219Y-73893642D01*
X63710803Y-74017770D01*
X63701837Y-74039416D01*
X63614178Y-74170608D01*
X63502608Y-74282178D01*
X63371416Y-74369837D01*
X63371415Y-74369838D01*
X63371414Y-74369838D01*
X63225642Y-74430219D01*
X63070893Y-74461000D01*
X62913107Y-74461000D01*
X62758358Y-74430219D01*
X62612586Y-74369838D01*
X62612585Y-74369838D01*
X62612584Y-74369837D01*
X62481392Y-74282178D01*
X62369822Y-74170608D01*
X62282163Y-74039416D01*
X62273197Y-74017770D01*
X62221781Y-73893642D01*
X62191000Y-73738893D01*
X62191000Y-73581107D01*
X62221781Y-73426358D01*
X62282162Y-73280586D01*
X62282163Y-73280584D01*
X62369822Y-73149392D01*
X62481392Y-73037822D01*
X62612584Y-72950163D01*
X62612586Y-72950162D01*
X62758358Y-72889781D01*
X62913107Y-72859000D01*
X63070893Y-72859000D01*
X63225642Y-72889781D01*
G37*
G36*
X54081642Y-72889781D02*
G01*
X54227414Y-72950162D01*
X54227416Y-72950163D01*
X54358608Y-73037822D01*
X54470178Y-73149392D01*
X54557837Y-73280584D01*
X54557838Y-73280586D01*
X54618219Y-73426358D01*
X54649000Y-73581107D01*
X54649000Y-73738893D01*
X54618219Y-73893642D01*
X54566803Y-74017770D01*
X54557837Y-74039416D01*
X54470178Y-74170608D01*
X54358608Y-74282178D01*
X54227416Y-74369837D01*
X54227415Y-74369838D01*
X54227414Y-74369838D01*
X54081642Y-74430219D01*
X53926893Y-74461000D01*
X53769107Y-74461000D01*
X53614358Y-74430219D01*
X53468586Y-74369838D01*
X53468585Y-74369838D01*
X53468584Y-74369837D01*
X53337392Y-74282178D01*
X53225822Y-74170608D01*
X53138163Y-74039416D01*
X53129197Y-74017770D01*
X53077781Y-73893642D01*
X53047000Y-73738893D01*
X53047000Y-73581107D01*
X53077781Y-73426358D01*
X53138162Y-73280586D01*
X53138163Y-73280584D01*
X53225822Y-73149392D01*
X53337392Y-73037822D01*
X53468584Y-72950163D01*
X53468586Y-72950162D01*
X53614358Y-72889781D01*
X53769107Y-72859000D01*
X53926893Y-72859000D01*
X54081642Y-72889781D01*
G37*
G36*
X46562674Y-72775465D02*
G01*
X46600367Y-72786899D01*
X46635103Y-72805466D01*
X46665548Y-72830452D01*
X46690534Y-72860897D01*
X46709101Y-72895633D01*
X46720535Y-72933326D01*
X46725000Y-72978661D01*
X46725000Y-73815339D01*
X46720535Y-73860674D01*
X46709101Y-73898367D01*
X46690534Y-73933103D01*
X46665548Y-73963548D01*
X46635103Y-73988534D01*
X46600367Y-74007101D01*
X46562674Y-74018535D01*
X46517339Y-74023000D01*
X45430661Y-74023000D01*
X45385326Y-74018535D01*
X45347633Y-74007101D01*
X45312897Y-73988534D01*
X45282452Y-73963548D01*
X45257466Y-73933103D01*
X45238899Y-73898367D01*
X45227465Y-73860674D01*
X45223000Y-73815339D01*
X45223000Y-72978661D01*
X45227465Y-72933326D01*
X45238899Y-72895633D01*
X45257466Y-72860897D01*
X45282452Y-72830452D01*
X45312897Y-72805466D01*
X45347633Y-72786899D01*
X45385326Y-72775465D01*
X45430661Y-72771000D01*
X46517339Y-72771000D01*
X46562674Y-72775465D01*
G37*
G36*
X68185512Y-70731927D02*
G01*
X68334812Y-70761624D01*
X68498784Y-70829544D01*
X68646354Y-70928147D01*
X68771853Y-71053646D01*
X68870456Y-71201216D01*
X68938376Y-71365188D01*
X68973000Y-71539259D01*
X68973000Y-71716741D01*
X68938376Y-71890812D01*
X68870456Y-72054784D01*
X68771853Y-72202354D01*
X68646354Y-72327853D01*
X68498784Y-72426456D01*
X68334812Y-72494376D01*
X68185512Y-72524073D01*
X68160742Y-72529000D01*
X67983258Y-72529000D01*
X67958488Y-72524073D01*
X67809188Y-72494376D01*
X67645216Y-72426456D01*
X67497646Y-72327853D01*
X67372147Y-72202354D01*
X67273544Y-72054784D01*
X67205624Y-71890812D01*
X67171000Y-71716741D01*
X67171000Y-71539259D01*
X67205624Y-71365188D01*
X67273544Y-71201216D01*
X67372147Y-71053646D01*
X67497646Y-70928147D01*
X67645216Y-70829544D01*
X67809188Y-70761624D01*
X67958488Y-70731927D01*
X67983258Y-70727000D01*
X68160742Y-70727000D01*
X68185512Y-70731927D01*
G37*
G36*
X51795642Y-69587781D02*
G01*
X51941414Y-69648162D01*
X51941416Y-69648163D01*
X52072608Y-69735822D01*
X52184178Y-69847392D01*
X52271837Y-69978584D01*
X52271838Y-69978586D01*
X52332219Y-70124358D01*
X52363000Y-70279107D01*
X52363000Y-70436893D01*
X52332219Y-70591642D01*
X52271838Y-70737414D01*
X52271837Y-70737416D01*
X52184178Y-70868608D01*
X52072608Y-70980178D01*
X51941416Y-71067837D01*
X51941415Y-71067838D01*
X51941414Y-71067838D01*
X51795642Y-71128219D01*
X51640893Y-71159000D01*
X51483107Y-71159000D01*
X51328358Y-71128219D01*
X51182586Y-71067838D01*
X51182585Y-71067838D01*
X51182584Y-71067837D01*
X51051392Y-70980178D01*
X50939822Y-70868608D01*
X50852163Y-70737416D01*
X50852162Y-70737414D01*
X50791781Y-70591642D01*
X50761000Y-70436893D01*
X50761000Y-70279107D01*
X50791781Y-70124358D01*
X50852162Y-69978586D01*
X50852163Y-69978584D01*
X50939822Y-69847392D01*
X51051392Y-69735822D01*
X51182584Y-69648163D01*
X51182586Y-69648162D01*
X51328358Y-69587781D01*
X51483107Y-69557000D01*
X51640893Y-69557000D01*
X51795642Y-69587781D01*
G37*
G36*
X68185512Y-68191927D02*
G01*
X68334812Y-68221624D01*
X68498784Y-68289544D01*
X68646354Y-68388147D01*
X68771853Y-68513646D01*
X68870456Y-68661216D01*
X68938376Y-68825188D01*
X68973000Y-68999259D01*
X68973000Y-69176741D01*
X68938376Y-69350812D01*
X68870456Y-69514784D01*
X68771853Y-69662354D01*
X68646354Y-69787853D01*
X68498784Y-69886456D01*
X68334812Y-69954376D01*
X68185512Y-69984073D01*
X68160742Y-69989000D01*
X67983258Y-69989000D01*
X67958488Y-69984073D01*
X67809188Y-69954376D01*
X67645216Y-69886456D01*
X67497646Y-69787853D01*
X67372147Y-69662354D01*
X67273544Y-69514784D01*
X67205624Y-69350812D01*
X67171000Y-69176741D01*
X67171000Y-68999259D01*
X67205624Y-68825188D01*
X67273544Y-68661216D01*
X67372147Y-68513646D01*
X67497646Y-68388147D01*
X67645216Y-68289544D01*
X67809188Y-68221624D01*
X67958488Y-68191927D01*
X67983258Y-68187000D01*
X68160742Y-68187000D01*
X68185512Y-68191927D01*
G37*
G36*
X54589642Y-68317781D02*
G01*
X54735414Y-68378162D01*
X54735416Y-68378163D01*
X54866608Y-68465822D01*
X54978178Y-68577392D01*
X55034187Y-68661216D01*
X55065838Y-68708586D01*
X55126219Y-68854358D01*
X55157000Y-69009107D01*
X55157000Y-69166893D01*
X55126219Y-69321642D01*
X55114136Y-69350812D01*
X55065837Y-69467416D01*
X54978178Y-69598608D01*
X54866608Y-69710178D01*
X54735416Y-69797837D01*
X54735415Y-69797838D01*
X54735414Y-69797838D01*
X54589642Y-69858219D01*
X54434893Y-69889000D01*
X54277107Y-69889000D01*
X54122358Y-69858219D01*
X53976586Y-69797838D01*
X53976585Y-69797838D01*
X53976584Y-69797837D01*
X53845392Y-69710178D01*
X53733822Y-69598608D01*
X53646163Y-69467416D01*
X53597864Y-69350812D01*
X53585781Y-69321642D01*
X53555000Y-69166893D01*
X53555000Y-69009107D01*
X53585781Y-68854358D01*
X53646162Y-68708586D01*
X53677813Y-68661216D01*
X53733822Y-68577392D01*
X53845392Y-68465822D01*
X53976584Y-68378163D01*
X53976586Y-68378162D01*
X54122358Y-68317781D01*
X54277107Y-68287000D01*
X54434893Y-68287000D01*
X54589642Y-68317781D01*
G37*
G36*
X68185512Y-65651927D02*
G01*
X68334812Y-65681624D01*
X68498784Y-65749544D01*
X68646354Y-65848147D01*
X68771853Y-65973646D01*
X68870456Y-66121216D01*
X68938376Y-66285188D01*
X68973000Y-66459259D01*
X68973000Y-66636741D01*
X68938376Y-66810812D01*
X68870456Y-66974784D01*
X68771853Y-67122354D01*
X68646354Y-67247853D01*
X68498784Y-67346456D01*
X68334812Y-67414376D01*
X68185512Y-67444073D01*
X68160742Y-67449000D01*
X67983258Y-67449000D01*
X67958488Y-67444073D01*
X67809188Y-67414376D01*
X67645216Y-67346456D01*
X67497646Y-67247853D01*
X67372147Y-67122354D01*
X67273544Y-66974784D01*
X67205624Y-66810812D01*
X67171000Y-66636741D01*
X67171000Y-66459259D01*
X67205624Y-66285188D01*
X67273544Y-66121216D01*
X67372147Y-65973646D01*
X67497646Y-65848147D01*
X67645216Y-65749544D01*
X67809188Y-65681624D01*
X67958488Y-65651927D01*
X67983258Y-65647000D01*
X68160742Y-65647000D01*
X68185512Y-65651927D01*
G37*
G36*
X63105512Y-63111927D02*
G01*
X63254812Y-63141624D01*
X63418784Y-63209544D01*
X63566354Y-63308147D01*
X63691853Y-63433646D01*
X63790456Y-63581216D01*
X63858376Y-63745188D01*
X63893000Y-63919259D01*
X63893000Y-64096741D01*
X63858376Y-64270812D01*
X63790456Y-64434784D01*
X63691853Y-64582354D01*
X63566354Y-64707853D01*
X63418784Y-64806456D01*
X63254812Y-64874376D01*
X63105512Y-64904073D01*
X63080742Y-64909000D01*
X62903258Y-64909000D01*
X62878488Y-64904073D01*
X62729188Y-64874376D01*
X62565216Y-64806456D01*
X62417646Y-64707853D01*
X62292147Y-64582354D01*
X62193544Y-64434784D01*
X62125624Y-64270812D01*
X62091000Y-64096741D01*
X62091000Y-63919259D01*
X62125624Y-63745188D01*
X62193544Y-63581216D01*
X62292147Y-63433646D01*
X62417646Y-63308147D01*
X62565216Y-63209544D01*
X62729188Y-63141624D01*
X62878488Y-63111927D01*
X62903258Y-63107000D01*
X63080742Y-63107000D01*
X63105512Y-63111927D01*
G37*
G36*
X68185512Y-63111927D02*
G01*
X68334812Y-63141624D01*
X68498784Y-63209544D01*
X68646354Y-63308147D01*
X68771853Y-63433646D01*
X68870456Y-63581216D01*
X68938376Y-63745188D01*
X68973000Y-63919259D01*
X68973000Y-64096741D01*
X68938376Y-64270812D01*
X68870456Y-64434784D01*
X68771853Y-64582354D01*
X68646354Y-64707853D01*
X68498784Y-64806456D01*
X68334812Y-64874376D01*
X68185512Y-64904073D01*
X68160742Y-64909000D01*
X67983258Y-64909000D01*
X67958488Y-64904073D01*
X67809188Y-64874376D01*
X67645216Y-64806456D01*
X67497646Y-64707853D01*
X67372147Y-64582354D01*
X67273544Y-64434784D01*
X67205624Y-64270812D01*
X67171000Y-64096741D01*
X67171000Y-63919259D01*
X67205624Y-63745188D01*
X67273544Y-63581216D01*
X67372147Y-63433646D01*
X67497646Y-63308147D01*
X67645216Y-63209544D01*
X67809188Y-63141624D01*
X67958488Y-63111927D01*
X67983258Y-63107000D01*
X68160742Y-63107000D01*
X68185512Y-63111927D01*
G37*
G36*
X63105512Y-60571927D02*
G01*
X63254812Y-60601624D01*
X63418784Y-60669544D01*
X63566354Y-60768147D01*
X63691853Y-60893646D01*
X63790456Y-61041216D01*
X63858376Y-61205188D01*
X63893000Y-61379259D01*
X63893000Y-61556741D01*
X63858376Y-61730812D01*
X63790456Y-61894784D01*
X63691853Y-62042354D01*
X63566354Y-62167853D01*
X63418784Y-62266456D01*
X63254812Y-62334376D01*
X63105512Y-62364073D01*
X63080742Y-62369000D01*
X62903258Y-62369000D01*
X62878488Y-62364073D01*
X62729188Y-62334376D01*
X62565216Y-62266456D01*
X62417646Y-62167853D01*
X62292147Y-62042354D01*
X62193544Y-61894784D01*
X62125624Y-61730812D01*
X62091000Y-61556741D01*
X62091000Y-61379259D01*
X62125624Y-61205188D01*
X62193544Y-61041216D01*
X62292147Y-60893646D01*
X62417646Y-60768147D01*
X62565216Y-60669544D01*
X62729188Y-60601624D01*
X62878488Y-60571927D01*
X62903258Y-60567000D01*
X63080742Y-60567000D01*
X63105512Y-60571927D01*
G37*
G36*
X68185512Y-60571927D02*
G01*
X68334812Y-60601624D01*
X68498784Y-60669544D01*
X68646354Y-60768147D01*
X68771853Y-60893646D01*
X68870456Y-61041216D01*
X68938376Y-61205188D01*
X68973000Y-61379259D01*
X68973000Y-61556741D01*
X68938376Y-61730812D01*
X68870456Y-61894784D01*
X68771853Y-62042354D01*
X68646354Y-62167853D01*
X68498784Y-62266456D01*
X68334812Y-62334376D01*
X68185512Y-62364073D01*
X68160742Y-62369000D01*
X67983258Y-62369000D01*
X67958488Y-62364073D01*
X67809188Y-62334376D01*
X67645216Y-62266456D01*
X67497646Y-62167853D01*
X67372147Y-62042354D01*
X67273544Y-61894784D01*
X67205624Y-61730812D01*
X67171000Y-61556741D01*
X67171000Y-61379259D01*
X67205624Y-61205188D01*
X67273544Y-61041216D01*
X67372147Y-60893646D01*
X67497646Y-60768147D01*
X67645216Y-60669544D01*
X67809188Y-60601624D01*
X67958488Y-60571927D01*
X67983258Y-60567000D01*
X68160742Y-60567000D01*
X68185512Y-60571927D01*
G37*
M02*
