M48
; DRILL file {KiCad (5.1.5)-3} date 28/02/2021 20:58:16
; FORMAT={-:-/ absolute / inch / decimal}
; #@! TF.CreationDate,2021-02-28T20:58:16+01:00
; #@! TF.GenerationSoftware,Kicad,Pcbnew,(5.1.5)-3
; #@! TF.FileFunction,Plated,1,2,PTH
FMAT,2
INCH
T1C0.0118
T2C0.0157
T3C0.0315
T4C0.0394
T5C0.0433
T6C0.0669
T7C0.0787
%
G90
G05
T1
X1.535Y-5.125
X1.535Y-5.155
X1.535Y-5.185
X1.535Y-5.215
X1.57Y-5.125
X1.57Y-5.155
X1.57Y-5.185
X1.57Y-5.215
X1.6Y-5.125
X1.6Y-5.155
X1.6Y-5.185
X1.6Y-5.215
X1.735Y-5.125
X1.735Y-5.155
X1.735Y-5.185
X1.735Y-5.215
X1.765Y-5.125
X1.765Y-5.155
X1.765Y-5.185
X1.765Y-5.215
X1.795Y-5.125
X1.795Y-5.155
X1.795Y-5.185
X1.795Y-5.215
T2
X1.475Y-2.36
X1.58Y-2.38
X1.7345Y-4.4055
X1.74Y-2.64
X1.75Y-3.535
X1.81Y-2.38
X1.8159Y-2.6259
X1.8159Y-3.2241
X1.84Y-3.03
X1.86Y-3.49
X1.89Y-2.72
X1.89Y-2.89
X1.9Y-4.44
X1.92Y-3.24
X1.94Y-3.3
X1.97Y-2.71
X2.0Y-3.26
X2.04Y-3.02
X2.13Y-2.44
X2.24Y-2.7
X2.24Y-2.78
X2.24Y-2.88
X2.3758Y-3.1242
X2.385Y-3.275
X2.4Y-3.55
X2.4Y-3.6
X2.4Y-3.65
X2.4249Y-4.7449
X2.4258Y-3.1242
X2.435Y-4.38
X2.47Y-3.27
X2.48Y-2.99
X2.5Y-3.23
X2.54Y-3.26
X2.56Y-3.55
X2.56Y-3.6
X2.56Y-3.65
X2.5696Y-3.2996
X2.5782Y-3.2018
X2.595Y-3.015
X2.5978Y-3.5
X2.66Y-3.6
X2.66Y-3.67
X2.6963Y-3.9937
X2.6963Y-4.0537
X2.6963Y-4.1137
X2.745Y-3.67
X2.7781Y-3.2681
X2.855Y-2.945
X2.935Y-2.42
X2.965Y-3.27
X3.23Y-3.135
X3.25Y-2.97
X3.25Y-3.335
X3.28Y-4.495
X3.295Y-4.91
T3
X2.125Y-4.525
X2.2628Y-4.525
X1.9Y-4.85
X2.0378Y-4.85
T4
X2.48Y-2.42
X2.48Y-2.52
X2.16Y-5.175
X2.4719Y-5.175
X2.7675Y-5.175
X3.0625Y-5.175
X2.68Y-2.42
X2.68Y-2.52
X2.68Y-2.62
X2.68Y-2.72
X2.68Y-2.82
X2.68Y-2.92
T5
X1.65Y-4.55
X1.65Y-4.65
X1.65Y-4.75
T6
X3.125Y-3.0313
X3.125Y-3.2281
X3.125Y-3.425
X3.125Y-3.6781
X3.125Y-3.875
T7
X2.85Y-4.3063
X2.85Y-4.7
T0
M30
