M48
; DRILL file {KiCad (5.1.5)-3} date 07/06/2021 18:41:22
; FORMAT={-:-/ absolute / inch / decimal}
; #@! TF.CreationDate,2021-06-07T18:41:22+02:00
; #@! TF.GenerationSoftware,Kicad,Pcbnew,(5.1.5)-3
; #@! TF.FileFunction,Plated,1,2,PTH
FMAT,2
INCH
T1C0.0118
T2C0.0157
T3C0.0197
T4C0.0315
T5C0.0394
T6C0.0433
T7C0.0669
T8C0.1260
%
G90
G05
T1
X2.575Y-5.165
X2.575Y-5.195
X2.575Y-5.225
X2.575Y-5.255
X2.61Y-5.165
X2.61Y-5.195
X2.61Y-5.225
X2.61Y-5.255
X2.64Y-5.165
X2.64Y-5.195
X2.64Y-5.225
X2.64Y-5.255
X2.775Y-5.165
X2.775Y-5.195
X2.775Y-5.225
X2.775Y-5.255
X2.805Y-5.165
X2.805Y-5.195
X2.805Y-5.225
X2.805Y-5.255
X2.835Y-5.165
X2.835Y-5.195
X2.835Y-5.225
X2.835Y-5.255
T2
X1.475Y-2.36
X1.48Y-3.86
X1.58Y-2.38
X1.74Y-2.64
X1.81Y-2.38
X1.8159Y-2.6259
X1.8159Y-3.2241
X1.84Y-3.03
X1.86Y-3.7
X1.89Y-2.72
X1.89Y-2.89
X1.9Y-4.44
X1.92Y-3.24
X1.94Y-3.3
X1.96Y-4.38
X1.97Y-2.71
X1.97Y-3.4
X2.0Y-3.26
X2.03Y-3.4
X2.04Y-3.02
X2.0796Y-3.9404
X2.13Y-2.44
X2.22Y-4.04
X2.24Y-2.7
X2.24Y-2.78
X2.24Y-2.88
X2.3758Y-3.1242
X2.385Y-3.275
X2.4Y-3.55
X2.4Y-3.6
X2.4Y-3.65
X2.4249Y-4.7449
X2.4258Y-3.1242
X2.435Y-4.38
X2.47Y-3.27
X2.48Y-2.99
X2.5Y-3.23
X2.54Y-3.26
X2.56Y-3.55
X2.56Y-3.6
X2.56Y-3.65
X2.5696Y-3.2996
X2.5696Y-3.3704
X2.5782Y-3.2018
X2.595Y-3.015
X2.5978Y-3.5
X2.66Y-3.6
X2.66Y-3.67
X2.68Y-4.26
X2.6963Y-3.9937
X2.6963Y-4.0537
X2.6963Y-4.1137
X2.7Y-4.56
X2.745Y-3.67
X2.7781Y-3.2681
X2.8974Y-2.926
X2.935Y-2.42
X2.965Y-3.27
X3.0Y-3.76
X3.23Y-3.135
X3.25Y-2.97
X3.25Y-3.335
X3.26Y-3.88
T3
X3.1855Y-2.46
X3.2132Y-2.3932
X3.2132Y-2.5268
X3.28Y-2.3655
X3.28Y-2.5545
X3.3468Y-2.3932
X3.3468Y-2.5268
X3.3745Y-2.46
X1.6055Y-3.84
X1.6332Y-3.7732
X1.6332Y-3.9068
X1.7Y-3.7455
X1.7Y-3.9345
X1.7668Y-3.7732
X1.7668Y-3.9068
X1.7945Y-3.84
X1.6055Y-5.22
X1.6332Y-5.1532
X1.6332Y-5.2868
X1.7Y-5.1255
X1.7Y-5.3145
X1.7668Y-5.1532
X1.7668Y-5.2868
X1.7945Y-5.22
X3.1855Y-5.22
X3.2132Y-5.1532
X3.2132Y-5.2868
X3.28Y-5.1255
X3.28Y-5.3145
X3.3468Y-5.1532
X3.3468Y-5.2868
X3.3745Y-5.22
T4
X2.125Y-4.525
X2.2628Y-4.525
X2.9216Y-4.46
X3.02Y-4.46
X1.9Y-4.85
X2.0378Y-4.85
T5
X2.4Y-4.88
X2.7119Y-4.88
X3.0075Y-4.88
X3.3025Y-4.88
X2.68Y-2.42
X2.68Y-2.52
X2.68Y-2.62
X2.68Y-2.72
X2.68Y-2.82
X2.68Y-2.92
X2.48Y-2.42
X2.48Y-2.52
T6
X1.65Y-4.64
X1.65Y-4.74
X1.65Y-4.84
T7
X3.125Y-3.0313
X3.125Y-3.2281
X3.125Y-3.425
X3.125Y-3.6781
X3.125Y-3.875
T8
X3.28Y-2.46
X1.7Y-3.84
X1.7Y-5.22
X3.28Y-5.22
T0
M30
