G04 #@! TF.GenerationSoftware,KiCad,Pcbnew,(5.1.5)-3*
G04 #@! TF.CreationDate,2021-06-07T18:41:19+02:00*
G04 #@! TF.ProjectId,IotHenHouse,496f7448-656e-4486-9f75-73652e6b6963,rev?*
G04 #@! TF.SameCoordinates,Original*
G04 #@! TF.FileFunction,Copper,L2,Bot*
G04 #@! TF.FilePolarity,Positive*
%FSLAX46Y46*%
G04 Gerber Fmt 4.6, Leading zero omitted, Abs format (unit mm)*
G04 Created by KiCad (PCBNEW (5.1.5)-3) date 2021-06-07 18:41:19*
%MOMM*%
%LPD*%
G04 APERTURE LIST*
%ADD10O,3.000000X4.000000*%
%ADD11C,0.800000*%
%ADD12C,6.400000*%
%ADD13C,1.600000*%
%ADD14R,1.600000X1.600000*%
%ADD15C,0.100000*%
%ADD16O,1.700000X1.700000*%
%ADD17C,1.700000*%
%ADD18C,2.700000*%
%ADD19O,2.000000X1.905000*%
%ADD20R,2.000000X1.905000*%
%ADD21R,2.000000X2.000000*%
%ADD22C,2.000000*%
%ADD23C,1.500000*%
%ADD24R,1.700000X1.700000*%
%ADD25C,0.500000*%
%ADD26C,0.750000*%
%ADD27C,0.250000*%
%ADD28C,0.500000*%
%ADD29C,1.000000*%
%ADD30C,1.250000*%
%ADD31C,2.000000*%
%ADD32C,0.254000*%
G04 APERTURE END LIST*
D10*
X66294000Y-132461000D03*
X71374000Y-132461000D03*
D11*
X44877056Y-95838944D03*
X43180000Y-95136000D03*
X41482944Y-95838944D03*
X40780000Y-97536000D03*
X41482944Y-99233056D03*
X43180000Y-99936000D03*
X44877056Y-99233056D03*
X45580000Y-97536000D03*
D12*
X43180000Y-97536000D03*
D13*
X74208000Y-113284000D03*
D14*
X76708000Y-113284000D03*
D11*
X85009056Y-130890944D03*
X83312000Y-130188000D03*
X81614944Y-130890944D03*
X80912000Y-132588000D03*
X81614944Y-134285056D03*
X83312000Y-134988000D03*
X85009056Y-134285056D03*
X85712000Y-132588000D03*
D12*
X83312000Y-132588000D03*
D11*
X85009056Y-60786944D03*
X83312000Y-60084000D03*
X81614944Y-60786944D03*
X80912000Y-62484000D03*
X81614944Y-64181056D03*
X83312000Y-64884000D03*
X85009056Y-64181056D03*
X85712000Y-62484000D03*
D12*
X83312000Y-62484000D03*
D11*
X44877056Y-130890944D03*
X43180000Y-130188000D03*
X41482944Y-130890944D03*
X40780000Y-132588000D03*
X41482944Y-134285056D03*
X43180000Y-134988000D03*
X44877056Y-134285056D03*
X45580000Y-132588000D03*
D12*
X43180000Y-132588000D03*
G04 #@! TA.AperFunction,SMDPad,CuDef*
D15*
G36*
X84548505Y-77921204D02*
G01*
X84572773Y-77924804D01*
X84596572Y-77930765D01*
X84619671Y-77939030D01*
X84641850Y-77949520D01*
X84662893Y-77962132D01*
X84682599Y-77976747D01*
X84700777Y-77993223D01*
X84717253Y-78011401D01*
X84731868Y-78031107D01*
X84744480Y-78052150D01*
X84754970Y-78074329D01*
X84763235Y-78097428D01*
X84769196Y-78121227D01*
X84772796Y-78145495D01*
X84774000Y-78169999D01*
X84774000Y-78820001D01*
X84772796Y-78844505D01*
X84769196Y-78868773D01*
X84763235Y-78892572D01*
X84754970Y-78915671D01*
X84744480Y-78937850D01*
X84731868Y-78958893D01*
X84717253Y-78978599D01*
X84700777Y-78996777D01*
X84682599Y-79013253D01*
X84662893Y-79027868D01*
X84641850Y-79040480D01*
X84619671Y-79050970D01*
X84596572Y-79059235D01*
X84572773Y-79065196D01*
X84548505Y-79068796D01*
X84524001Y-79070000D01*
X83623999Y-79070000D01*
X83599495Y-79068796D01*
X83575227Y-79065196D01*
X83551428Y-79059235D01*
X83528329Y-79050970D01*
X83506150Y-79040480D01*
X83485107Y-79027868D01*
X83465401Y-79013253D01*
X83447223Y-78996777D01*
X83430747Y-78978599D01*
X83416132Y-78958893D01*
X83403520Y-78937850D01*
X83393030Y-78915671D01*
X83384765Y-78892572D01*
X83378804Y-78868773D01*
X83375204Y-78844505D01*
X83374000Y-78820001D01*
X83374000Y-78169999D01*
X83375204Y-78145495D01*
X83378804Y-78121227D01*
X83384765Y-78097428D01*
X83393030Y-78074329D01*
X83403520Y-78052150D01*
X83416132Y-78031107D01*
X83430747Y-78011401D01*
X83447223Y-77993223D01*
X83465401Y-77976747D01*
X83485107Y-77962132D01*
X83506150Y-77949520D01*
X83528329Y-77939030D01*
X83551428Y-77930765D01*
X83575227Y-77924804D01*
X83599495Y-77921204D01*
X83623999Y-77920000D01*
X84524001Y-77920000D01*
X84548505Y-77921204D01*
G37*
G04 #@! TD.AperFunction*
G04 #@! TA.AperFunction,SMDPad,CuDef*
G36*
X84548505Y-75871204D02*
G01*
X84572773Y-75874804D01*
X84596572Y-75880765D01*
X84619671Y-75889030D01*
X84641850Y-75899520D01*
X84662893Y-75912132D01*
X84682599Y-75926747D01*
X84700777Y-75943223D01*
X84717253Y-75961401D01*
X84731868Y-75981107D01*
X84744480Y-76002150D01*
X84754970Y-76024329D01*
X84763235Y-76047428D01*
X84769196Y-76071227D01*
X84772796Y-76095495D01*
X84774000Y-76119999D01*
X84774000Y-76770001D01*
X84772796Y-76794505D01*
X84769196Y-76818773D01*
X84763235Y-76842572D01*
X84754970Y-76865671D01*
X84744480Y-76887850D01*
X84731868Y-76908893D01*
X84717253Y-76928599D01*
X84700777Y-76946777D01*
X84682599Y-76963253D01*
X84662893Y-76977868D01*
X84641850Y-76990480D01*
X84619671Y-77000970D01*
X84596572Y-77009235D01*
X84572773Y-77015196D01*
X84548505Y-77018796D01*
X84524001Y-77020000D01*
X83623999Y-77020000D01*
X83599495Y-77018796D01*
X83575227Y-77015196D01*
X83551428Y-77009235D01*
X83528329Y-77000970D01*
X83506150Y-76990480D01*
X83485107Y-76977868D01*
X83465401Y-76963253D01*
X83447223Y-76946777D01*
X83430747Y-76928599D01*
X83416132Y-76908893D01*
X83403520Y-76887850D01*
X83393030Y-76865671D01*
X83384765Y-76842572D01*
X83378804Y-76818773D01*
X83375204Y-76794505D01*
X83374000Y-76770001D01*
X83374000Y-76119999D01*
X83375204Y-76095495D01*
X83378804Y-76071227D01*
X83384765Y-76047428D01*
X83393030Y-76024329D01*
X83403520Y-76002150D01*
X83416132Y-75981107D01*
X83430747Y-75961401D01*
X83447223Y-75943223D01*
X83465401Y-75926747D01*
X83485107Y-75912132D01*
X83506150Y-75899520D01*
X83528329Y-75889030D01*
X83551428Y-75880765D01*
X83575227Y-75874804D01*
X83599495Y-75871204D01*
X83623999Y-75870000D01*
X84524001Y-75870000D01*
X84548505Y-75871204D01*
G37*
G04 #@! TD.AperFunction*
G04 #@! TA.AperFunction,SMDPad,CuDef*
G36*
X84548505Y-80316204D02*
G01*
X84572773Y-80319804D01*
X84596572Y-80325765D01*
X84619671Y-80334030D01*
X84641850Y-80344520D01*
X84662893Y-80357132D01*
X84682599Y-80371747D01*
X84700777Y-80388223D01*
X84717253Y-80406401D01*
X84731868Y-80426107D01*
X84744480Y-80447150D01*
X84754970Y-80469329D01*
X84763235Y-80492428D01*
X84769196Y-80516227D01*
X84772796Y-80540495D01*
X84774000Y-80564999D01*
X84774000Y-81215001D01*
X84772796Y-81239505D01*
X84769196Y-81263773D01*
X84763235Y-81287572D01*
X84754970Y-81310671D01*
X84744480Y-81332850D01*
X84731868Y-81353893D01*
X84717253Y-81373599D01*
X84700777Y-81391777D01*
X84682599Y-81408253D01*
X84662893Y-81422868D01*
X84641850Y-81435480D01*
X84619671Y-81445970D01*
X84596572Y-81454235D01*
X84572773Y-81460196D01*
X84548505Y-81463796D01*
X84524001Y-81465000D01*
X83623999Y-81465000D01*
X83599495Y-81463796D01*
X83575227Y-81460196D01*
X83551428Y-81454235D01*
X83528329Y-81445970D01*
X83506150Y-81435480D01*
X83485107Y-81422868D01*
X83465401Y-81408253D01*
X83447223Y-81391777D01*
X83430747Y-81373599D01*
X83416132Y-81353893D01*
X83403520Y-81332850D01*
X83393030Y-81310671D01*
X83384765Y-81287572D01*
X83378804Y-81263773D01*
X83375204Y-81239505D01*
X83374000Y-81215001D01*
X83374000Y-80564999D01*
X83375204Y-80540495D01*
X83378804Y-80516227D01*
X83384765Y-80492428D01*
X83393030Y-80469329D01*
X83403520Y-80447150D01*
X83416132Y-80426107D01*
X83430747Y-80406401D01*
X83447223Y-80388223D01*
X83465401Y-80371747D01*
X83485107Y-80357132D01*
X83506150Y-80344520D01*
X83528329Y-80334030D01*
X83551428Y-80325765D01*
X83575227Y-80319804D01*
X83599495Y-80316204D01*
X83623999Y-80315000D01*
X84524001Y-80315000D01*
X84548505Y-80316204D01*
G37*
G04 #@! TD.AperFunction*
G04 #@! TA.AperFunction,SMDPad,CuDef*
G36*
X84548505Y-82366204D02*
G01*
X84572773Y-82369804D01*
X84596572Y-82375765D01*
X84619671Y-82384030D01*
X84641850Y-82394520D01*
X84662893Y-82407132D01*
X84682599Y-82421747D01*
X84700777Y-82438223D01*
X84717253Y-82456401D01*
X84731868Y-82476107D01*
X84744480Y-82497150D01*
X84754970Y-82519329D01*
X84763235Y-82542428D01*
X84769196Y-82566227D01*
X84772796Y-82590495D01*
X84774000Y-82614999D01*
X84774000Y-83265001D01*
X84772796Y-83289505D01*
X84769196Y-83313773D01*
X84763235Y-83337572D01*
X84754970Y-83360671D01*
X84744480Y-83382850D01*
X84731868Y-83403893D01*
X84717253Y-83423599D01*
X84700777Y-83441777D01*
X84682599Y-83458253D01*
X84662893Y-83472868D01*
X84641850Y-83485480D01*
X84619671Y-83495970D01*
X84596572Y-83504235D01*
X84572773Y-83510196D01*
X84548505Y-83513796D01*
X84524001Y-83515000D01*
X83623999Y-83515000D01*
X83599495Y-83513796D01*
X83575227Y-83510196D01*
X83551428Y-83504235D01*
X83528329Y-83495970D01*
X83506150Y-83485480D01*
X83485107Y-83472868D01*
X83465401Y-83458253D01*
X83447223Y-83441777D01*
X83430747Y-83423599D01*
X83416132Y-83403893D01*
X83403520Y-83382850D01*
X83393030Y-83360671D01*
X83384765Y-83337572D01*
X83378804Y-83313773D01*
X83375204Y-83289505D01*
X83374000Y-83265001D01*
X83374000Y-82614999D01*
X83375204Y-82590495D01*
X83378804Y-82566227D01*
X83384765Y-82542428D01*
X83393030Y-82519329D01*
X83403520Y-82497150D01*
X83416132Y-82476107D01*
X83430747Y-82456401D01*
X83447223Y-82438223D01*
X83465401Y-82421747D01*
X83485107Y-82407132D01*
X83506150Y-82394520D01*
X83528329Y-82384030D01*
X83551428Y-82375765D01*
X83575227Y-82369804D01*
X83599495Y-82366204D01*
X83623999Y-82365000D01*
X84524001Y-82365000D01*
X84548505Y-82366204D01*
G37*
G04 #@! TD.AperFunction*
D16*
X62992000Y-64008000D03*
D17*
X62992000Y-61468000D03*
D18*
X79375000Y-76995000D03*
X79375000Y-81995000D03*
X79375000Y-86995000D03*
D13*
X51760000Y-123190000D03*
D14*
X48260000Y-123190000D03*
D13*
X57475000Y-114935000D03*
D14*
X53975000Y-114935000D03*
D19*
X41910000Y-117856000D03*
X41910000Y-120396000D03*
D20*
X41910000Y-122936000D03*
D21*
X83883500Y-123952000D03*
D22*
X68883500Y-123952000D03*
X76390500Y-123952000D03*
X60960000Y-123952000D03*
D23*
X51308000Y-83820000D03*
X49276000Y-75184000D03*
X54356000Y-69088000D03*
X51562000Y-70358000D03*
X53848000Y-73660000D03*
X62992000Y-73660000D03*
X46228000Y-83820000D03*
G04 #@! TA.AperFunction,SMDPad,CuDef*
D15*
G36*
X46448505Y-74873204D02*
G01*
X46472773Y-74876804D01*
X46496572Y-74882765D01*
X46519671Y-74891030D01*
X46541850Y-74901520D01*
X46562893Y-74914132D01*
X46582599Y-74928747D01*
X46600777Y-74945223D01*
X46617253Y-74963401D01*
X46631868Y-74983107D01*
X46644480Y-75004150D01*
X46654970Y-75026329D01*
X46663235Y-75049428D01*
X46669196Y-75073227D01*
X46672796Y-75097495D01*
X46674000Y-75121999D01*
X46674000Y-75772001D01*
X46672796Y-75796505D01*
X46669196Y-75820773D01*
X46663235Y-75844572D01*
X46654970Y-75867671D01*
X46644480Y-75889850D01*
X46631868Y-75910893D01*
X46617253Y-75930599D01*
X46600777Y-75948777D01*
X46582599Y-75965253D01*
X46562893Y-75979868D01*
X46541850Y-75992480D01*
X46519671Y-76002970D01*
X46496572Y-76011235D01*
X46472773Y-76017196D01*
X46448505Y-76020796D01*
X46424001Y-76022000D01*
X45523999Y-76022000D01*
X45499495Y-76020796D01*
X45475227Y-76017196D01*
X45451428Y-76011235D01*
X45428329Y-76002970D01*
X45406150Y-75992480D01*
X45385107Y-75979868D01*
X45365401Y-75965253D01*
X45347223Y-75948777D01*
X45330747Y-75930599D01*
X45316132Y-75910893D01*
X45303520Y-75889850D01*
X45293030Y-75867671D01*
X45284765Y-75844572D01*
X45278804Y-75820773D01*
X45275204Y-75796505D01*
X45274000Y-75772001D01*
X45274000Y-75121999D01*
X45275204Y-75097495D01*
X45278804Y-75073227D01*
X45284765Y-75049428D01*
X45293030Y-75026329D01*
X45303520Y-75004150D01*
X45316132Y-74983107D01*
X45330747Y-74963401D01*
X45347223Y-74945223D01*
X45365401Y-74928747D01*
X45385107Y-74914132D01*
X45406150Y-74901520D01*
X45428329Y-74891030D01*
X45451428Y-74882765D01*
X45475227Y-74876804D01*
X45499495Y-74873204D01*
X45523999Y-74872000D01*
X46424001Y-74872000D01*
X46448505Y-74873204D01*
G37*
G04 #@! TD.AperFunction*
G04 #@! TA.AperFunction,SMDPad,CuDef*
G36*
X46448505Y-72823204D02*
G01*
X46472773Y-72826804D01*
X46496572Y-72832765D01*
X46519671Y-72841030D01*
X46541850Y-72851520D01*
X46562893Y-72864132D01*
X46582599Y-72878747D01*
X46600777Y-72895223D01*
X46617253Y-72913401D01*
X46631868Y-72933107D01*
X46644480Y-72954150D01*
X46654970Y-72976329D01*
X46663235Y-72999428D01*
X46669196Y-73023227D01*
X46672796Y-73047495D01*
X46674000Y-73071999D01*
X46674000Y-73722001D01*
X46672796Y-73746505D01*
X46669196Y-73770773D01*
X46663235Y-73794572D01*
X46654970Y-73817671D01*
X46644480Y-73839850D01*
X46631868Y-73860893D01*
X46617253Y-73880599D01*
X46600777Y-73898777D01*
X46582599Y-73915253D01*
X46562893Y-73929868D01*
X46541850Y-73942480D01*
X46519671Y-73952970D01*
X46496572Y-73961235D01*
X46472773Y-73967196D01*
X46448505Y-73970796D01*
X46424001Y-73972000D01*
X45523999Y-73972000D01*
X45499495Y-73970796D01*
X45475227Y-73967196D01*
X45451428Y-73961235D01*
X45428329Y-73952970D01*
X45406150Y-73942480D01*
X45385107Y-73929868D01*
X45365401Y-73915253D01*
X45347223Y-73898777D01*
X45330747Y-73880599D01*
X45316132Y-73860893D01*
X45303520Y-73839850D01*
X45293030Y-73817671D01*
X45284765Y-73794572D01*
X45278804Y-73770773D01*
X45275204Y-73746505D01*
X45274000Y-73722001D01*
X45274000Y-73071999D01*
X45275204Y-73047495D01*
X45278804Y-73023227D01*
X45284765Y-72999428D01*
X45293030Y-72976329D01*
X45303520Y-72954150D01*
X45316132Y-72933107D01*
X45330747Y-72913401D01*
X45347223Y-72895223D01*
X45365401Y-72878747D01*
X45385107Y-72864132D01*
X45406150Y-72851520D01*
X45428329Y-72841030D01*
X45451428Y-72832765D01*
X45475227Y-72826804D01*
X45499495Y-72823204D01*
X45523999Y-72822000D01*
X46424001Y-72822000D01*
X46448505Y-72823204D01*
G37*
G04 #@! TD.AperFunction*
D18*
X79375000Y-93425000D03*
X79375000Y-98425000D03*
D16*
X68072000Y-61468000D03*
X68072000Y-64008000D03*
X68072000Y-66548000D03*
X68072000Y-69088000D03*
X68072000Y-71628000D03*
D24*
X68072000Y-74168000D03*
G04 #@! TA.AperFunction,SMDPad,CuDef*
D15*
G36*
X61156504Y-75130204D02*
G01*
X61180773Y-75133804D01*
X61204571Y-75139765D01*
X61227671Y-75148030D01*
X61249849Y-75158520D01*
X61270893Y-75171133D01*
X61290598Y-75185747D01*
X61308777Y-75202223D01*
X61325253Y-75220402D01*
X61339867Y-75240107D01*
X61352480Y-75261151D01*
X61362970Y-75283329D01*
X61371235Y-75306429D01*
X61377196Y-75330227D01*
X61380796Y-75354496D01*
X61382000Y-75379000D01*
X61382000Y-77529000D01*
X61380796Y-77553504D01*
X61377196Y-77577773D01*
X61371235Y-77601571D01*
X61362970Y-77624671D01*
X61352480Y-77646849D01*
X61339867Y-77667893D01*
X61325253Y-77687598D01*
X61308777Y-77705777D01*
X61290598Y-77722253D01*
X61270893Y-77736867D01*
X61249849Y-77749480D01*
X61227671Y-77759970D01*
X61204571Y-77768235D01*
X61180773Y-77774196D01*
X61156504Y-77777796D01*
X61132000Y-77779000D01*
X60207000Y-77779000D01*
X60182496Y-77777796D01*
X60158227Y-77774196D01*
X60134429Y-77768235D01*
X60111329Y-77759970D01*
X60089151Y-77749480D01*
X60068107Y-77736867D01*
X60048402Y-77722253D01*
X60030223Y-77705777D01*
X60013747Y-77687598D01*
X59999133Y-77667893D01*
X59986520Y-77646849D01*
X59976030Y-77624671D01*
X59967765Y-77601571D01*
X59961804Y-77577773D01*
X59958204Y-77553504D01*
X59957000Y-77529000D01*
X59957000Y-75379000D01*
X59958204Y-75354496D01*
X59961804Y-75330227D01*
X59967765Y-75306429D01*
X59976030Y-75283329D01*
X59986520Y-75261151D01*
X59999133Y-75240107D01*
X60013747Y-75220402D01*
X60030223Y-75202223D01*
X60048402Y-75185747D01*
X60068107Y-75171133D01*
X60089151Y-75158520D01*
X60111329Y-75148030D01*
X60134429Y-75139765D01*
X60158227Y-75133804D01*
X60182496Y-75130204D01*
X60207000Y-75129000D01*
X61132000Y-75129000D01*
X61156504Y-75130204D01*
G37*
G04 #@! TD.AperFunction*
G04 #@! TA.AperFunction,SMDPad,CuDef*
G36*
X58181504Y-75130204D02*
G01*
X58205773Y-75133804D01*
X58229571Y-75139765D01*
X58252671Y-75148030D01*
X58274849Y-75158520D01*
X58295893Y-75171133D01*
X58315598Y-75185747D01*
X58333777Y-75202223D01*
X58350253Y-75220402D01*
X58364867Y-75240107D01*
X58377480Y-75261151D01*
X58387970Y-75283329D01*
X58396235Y-75306429D01*
X58402196Y-75330227D01*
X58405796Y-75354496D01*
X58407000Y-75379000D01*
X58407000Y-77529000D01*
X58405796Y-77553504D01*
X58402196Y-77577773D01*
X58396235Y-77601571D01*
X58387970Y-77624671D01*
X58377480Y-77646849D01*
X58364867Y-77667893D01*
X58350253Y-77687598D01*
X58333777Y-77705777D01*
X58315598Y-77722253D01*
X58295893Y-77736867D01*
X58274849Y-77749480D01*
X58252671Y-77759970D01*
X58229571Y-77768235D01*
X58205773Y-77774196D01*
X58181504Y-77777796D01*
X58157000Y-77779000D01*
X57232000Y-77779000D01*
X57207496Y-77777796D01*
X57183227Y-77774196D01*
X57159429Y-77768235D01*
X57136329Y-77759970D01*
X57114151Y-77749480D01*
X57093107Y-77736867D01*
X57073402Y-77722253D01*
X57055223Y-77705777D01*
X57038747Y-77687598D01*
X57024133Y-77667893D01*
X57011520Y-77646849D01*
X57001030Y-77624671D01*
X56992765Y-77601571D01*
X56986804Y-77577773D01*
X56983204Y-77553504D01*
X56982000Y-77529000D01*
X56982000Y-75379000D01*
X56983204Y-75354496D01*
X56986804Y-75330227D01*
X56992765Y-75306429D01*
X57001030Y-75283329D01*
X57011520Y-75261151D01*
X57024133Y-75240107D01*
X57038747Y-75220402D01*
X57055223Y-75202223D01*
X57073402Y-75185747D01*
X57093107Y-75171133D01*
X57114151Y-75158520D01*
X57136329Y-75148030D01*
X57159429Y-75139765D01*
X57183227Y-75133804D01*
X57207496Y-75130204D01*
X57232000Y-75129000D01*
X58157000Y-75129000D01*
X58181504Y-75130204D01*
G37*
G04 #@! TD.AperFunction*
D11*
X64516000Y-82804000D03*
X70564500Y-83010500D03*
X65913000Y-76581000D03*
X82042000Y-79629000D03*
X49276000Y-83820000D03*
X37465000Y-59944000D03*
X74549000Y-61468000D03*
X61593391Y-120521391D03*
X61849000Y-111252000D03*
X68580000Y-115824000D03*
X68072000Y-108204000D03*
X75311000Y-83058000D03*
X47244000Y-93980000D03*
X56388000Y-102616000D03*
X52821750Y-100086250D03*
X82804000Y-98552000D03*
X76200000Y-95504000D03*
X65024000Y-90170000D03*
X60960000Y-90170000D03*
X65985000Y-88900000D03*
X68485000Y-104489000D03*
X68485000Y-102965000D03*
X68485000Y-101441000D03*
X65267000Y-83809000D03*
X65267000Y-85609000D03*
X50038000Y-86360000D03*
X51562000Y-86360000D03*
X60345000Y-79355000D03*
X40132000Y-60452000D03*
X48768000Y-82296000D03*
X48260000Y-112776000D03*
X61615000Y-79355000D03*
X73593960Y-74320400D03*
X48006000Y-73406000D03*
X37592000Y-98044000D03*
X49784000Y-111252000D03*
D25*
X65405000Y-133477000D03*
X66294000Y-133477000D03*
X67056000Y-133477000D03*
X67056000Y-132715000D03*
X66294000Y-132715000D03*
X65405000Y-132715000D03*
X65405000Y-131953000D03*
X66294000Y-131953000D03*
X67056000Y-131953000D03*
X65405000Y-131191000D03*
X66294000Y-131191000D03*
X67056000Y-131191000D03*
X70485000Y-133477000D03*
X71247000Y-133477000D03*
X72009000Y-133477000D03*
X72009000Y-132715000D03*
X71247000Y-132715000D03*
X70485000Y-132715000D03*
X70485000Y-131953000D03*
X71247000Y-131953000D03*
X72009000Y-131953000D03*
X71247000Y-131191000D03*
X70485000Y-131191000D03*
X72009000Y-131191000D03*
D11*
X65024000Y-92710000D03*
X60960000Y-92710000D03*
X67564000Y-93218000D03*
X69723000Y-93218000D03*
X45974000Y-60452000D03*
X54102000Y-61976000D03*
X65024000Y-91440000D03*
X60960000Y-91440000D03*
X67564000Y-91440000D03*
X44196000Y-67056000D03*
X46125000Y-66699000D03*
X46736000Y-76962000D03*
X63500000Y-82042000D03*
X65486000Y-81326000D03*
X46125000Y-81891000D03*
X62992000Y-75946000D03*
X56896000Y-73152000D03*
X56896000Y-70612000D03*
X56896000Y-68580000D03*
X51816000Y-76708000D03*
X50800000Y-82804000D03*
X62738000Y-83058000D03*
X50038000Y-68834000D03*
X60579000Y-83185000D03*
X48006000Y-69088000D03*
X82550000Y-84709000D03*
X82550000Y-75438000D03*
D26*
X70358000Y-82804000D02*
X70564500Y-83010500D01*
X64516000Y-82804000D02*
X70358000Y-82804000D01*
D27*
X61382000Y-77166500D02*
X65327500Y-77166500D01*
X60669500Y-76454000D02*
X61382000Y-77166500D01*
X65327500Y-77166500D02*
X65913000Y-76581000D01*
X65913000Y-76581000D02*
X66040000Y-76454000D01*
X82607685Y-79629000D02*
X82042000Y-79629000D01*
X83515000Y-79629000D02*
X82607685Y-79629000D01*
X84074000Y-79070000D02*
X83515000Y-79629000D01*
X84074000Y-78495000D02*
X84074000Y-79070000D01*
X84074000Y-80315000D02*
X84074000Y-80890000D01*
X83388000Y-79629000D02*
X84074000Y-80315000D01*
X82042000Y-79629000D02*
X83388000Y-79629000D01*
D26*
X74208000Y-113284000D02*
X68072000Y-113284000D01*
X60960000Y-120396000D02*
X60960000Y-123952000D01*
X68072000Y-113284000D02*
X60960000Y-120396000D01*
X57475000Y-120467000D02*
X60960000Y-123952000D01*
X57475000Y-114935000D02*
X57475000Y-120467000D01*
X68580000Y-113792000D02*
X68072000Y-113284000D01*
X68580000Y-115824000D02*
X68580000Y-113792000D01*
X68072000Y-108204000D02*
X68072000Y-113284000D01*
X61158000Y-111252000D02*
X57475000Y-114935000D01*
X61849000Y-111252000D02*
X61158000Y-111252000D01*
D28*
X49276000Y-85355998D02*
X45720000Y-88911998D01*
X49276000Y-83820000D02*
X49276000Y-85355998D01*
X45720000Y-88911998D02*
X45720000Y-92456000D01*
X45720000Y-92456000D02*
X47244000Y-93980000D01*
X47244000Y-93980000D02*
X47244000Y-93980000D01*
D29*
X60960000Y-120453685D02*
X60960000Y-120396000D01*
X61027706Y-120521391D02*
X60960000Y-120453685D01*
X61593391Y-120521391D02*
X61027706Y-120521391D01*
X65024000Y-90170000D02*
X60960000Y-90170000D01*
D30*
X65985000Y-89153990D02*
X65024000Y-90114990D01*
X65985000Y-88900000D02*
X65985000Y-89153990D01*
D31*
X68580000Y-99314000D02*
X68580000Y-104394000D01*
X71923010Y-92306727D02*
X71923010Y-95970990D01*
X68516283Y-88900000D02*
X71923010Y-92306727D01*
X71923010Y-95970990D02*
X68580000Y-99314000D01*
X65985000Y-88900000D02*
X68516283Y-88900000D01*
X42164000Y-123190000D02*
X41910000Y-122936000D01*
X48260000Y-123190000D02*
X42164000Y-123190000D01*
D26*
X41910000Y-116153500D02*
X41910000Y-117856000D01*
X43128500Y-114935000D02*
X41910000Y-116153500D01*
X53975000Y-114935000D02*
X43128500Y-114935000D01*
D29*
X50038000Y-86360000D02*
X58674000Y-86360000D01*
X59425000Y-85609000D02*
X65267000Y-85609000D01*
X58674000Y-86360000D02*
X59425000Y-85609000D01*
X65666999Y-84208999D02*
X65337010Y-83879010D01*
X65337010Y-83879010D02*
X65267000Y-83879010D01*
X65267000Y-85609000D02*
X65666999Y-85209001D01*
X65666999Y-85209001D02*
X65666999Y-84208999D01*
D27*
X45974000Y-73397000D02*
X46674000Y-73397000D01*
D26*
X60345000Y-79355000D02*
X61615000Y-79355000D01*
X83439000Y-86995000D02*
X79375000Y-86995000D01*
D27*
X40132000Y-61214000D02*
X40894000Y-61976000D01*
X40132000Y-60452000D02*
X40132000Y-61214000D01*
X40894000Y-61976000D02*
X42926000Y-61976000D01*
X42926000Y-61976000D02*
X43434000Y-62484000D01*
X45983000Y-73406000D02*
X45974000Y-73397000D01*
X48006000Y-73406000D02*
X45983000Y-73406000D01*
X45274000Y-73397000D02*
X45974000Y-73397000D01*
X43434000Y-71557000D02*
X45274000Y-73397000D01*
X43434000Y-62484000D02*
X43434000Y-71557000D01*
D28*
X48368001Y-82695999D02*
X48368001Y-84727999D01*
X48768000Y-82296000D02*
X48368001Y-82695999D01*
X48368001Y-84727999D02*
X37592000Y-95504000D01*
X37592000Y-98044000D02*
X37592000Y-98044000D01*
X37592000Y-95504000D02*
X37592000Y-98044000D01*
D29*
X57694500Y-76704500D02*
X60345000Y-79355000D01*
X57694500Y-76454000D02*
X57694500Y-76704500D01*
X60345000Y-79355000D02*
X67965000Y-79355000D01*
D26*
X61615000Y-79355000D02*
X68072000Y-79248000D01*
D29*
X68530685Y-79355000D02*
X67965000Y-79355000D01*
X72517000Y-75368685D02*
X68530685Y-79355000D01*
X85005999Y-74337999D02*
X86868000Y-76200000D01*
X73547686Y-74337999D02*
X85005999Y-74337999D01*
X86868000Y-83566000D02*
X83439000Y-86995000D01*
X86868000Y-76200000D02*
X86868000Y-83566000D01*
X83439000Y-86995000D02*
X60325000Y-86995000D01*
X51721749Y-109314251D02*
X49784000Y-111252000D01*
X48659999Y-112376001D02*
X48260000Y-112776000D01*
X51721749Y-95598251D02*
X51721749Y-109314251D01*
X60325000Y-86995000D02*
X51721749Y-95598251D01*
X49784000Y-111252000D02*
X48659999Y-112376001D01*
X72545675Y-75368685D02*
X72517000Y-75368685D01*
X73593960Y-74320400D02*
X72545675Y-75368685D01*
X65024000Y-92710000D02*
X60960000Y-92710000D01*
D31*
X67564000Y-93218000D02*
X69723000Y-93218000D01*
D29*
X67056000Y-92710000D02*
X67564000Y-93218000D01*
X65024000Y-92710000D02*
X67056000Y-92710000D01*
D31*
X69723000Y-93218000D02*
X69723000Y-93218000D01*
D27*
X46373999Y-60851999D02*
X52977999Y-60851999D01*
X45974000Y-60452000D02*
X46373999Y-60851999D01*
X52977999Y-60851999D02*
X54102000Y-61976000D01*
X54102000Y-61976000D02*
X54102000Y-61976000D01*
D29*
X60960000Y-91440000D02*
X65024000Y-91440000D01*
D27*
X44196000Y-67056000D02*
X45466000Y-65786000D01*
X66294000Y-65786000D02*
X68072000Y-64008000D01*
X45466000Y-65786000D02*
X66294000Y-65786000D01*
X67921000Y-66699000D02*
X68072000Y-66548000D01*
X46125000Y-66699000D02*
X67921000Y-66699000D01*
X45974000Y-75447000D02*
X45974000Y-76200000D01*
X45974000Y-76200000D02*
X46736000Y-76962000D01*
X46736000Y-76962000D02*
X46736000Y-76962000D01*
X79422000Y-82042000D02*
X79375000Y-81995000D01*
X77465812Y-81995000D02*
X79375000Y-81995000D01*
X64074686Y-82051001D02*
X77409811Y-82051001D01*
X64065685Y-82042000D02*
X64074686Y-82051001D01*
X77409811Y-82051001D02*
X77465812Y-81995000D01*
X63500000Y-82042000D02*
X64065685Y-82042000D01*
X75044000Y-81326000D02*
X79375000Y-76995000D01*
X65486000Y-81326000D02*
X75044000Y-81326000D01*
X46125000Y-83717000D02*
X46228000Y-83820000D01*
X46125000Y-81891000D02*
X46125000Y-83717000D01*
X62992000Y-75946000D02*
X62992000Y-73660000D01*
X54356000Y-73152000D02*
X53848000Y-73660000D01*
X56896000Y-73152000D02*
X54356000Y-73152000D01*
X51816000Y-70612000D02*
X51562000Y-70358000D01*
X56896000Y-70612000D02*
X51816000Y-70612000D01*
X54864000Y-68580000D02*
X54356000Y-69088000D01*
X56896000Y-68580000D02*
X54864000Y-68580000D01*
X50800000Y-76708000D02*
X49276000Y-75184000D01*
X51816000Y-76708000D02*
X50800000Y-76708000D01*
X50800000Y-83312000D02*
X51308000Y-83820000D01*
X50800000Y-82804000D02*
X50800000Y-83312000D01*
X62139999Y-82459999D02*
X61123999Y-82459999D01*
X62738000Y-83058000D02*
X62139999Y-82459999D01*
X61123999Y-82459999D02*
X60107999Y-82459999D01*
X60107999Y-82459999D02*
X50038000Y-72390000D01*
X50038000Y-72390000D02*
X50038000Y-68834000D01*
X50038000Y-68834000D02*
X50038000Y-68580000D01*
X60013315Y-83185000D02*
X54356000Y-77527685D01*
X60579000Y-83185000D02*
X60013315Y-83185000D01*
X54356000Y-77527685D02*
X54356000Y-77470000D01*
X48006000Y-71120000D02*
X48006000Y-69088000D01*
X54356000Y-77470000D02*
X48006000Y-71120000D01*
X48006000Y-69088000D02*
X48006000Y-69088000D01*
X83374000Y-82940000D02*
X82550000Y-83764000D01*
X84074000Y-82940000D02*
X83374000Y-82940000D01*
X82550000Y-83764000D02*
X82550000Y-84709000D01*
X82550000Y-84709000D02*
X82550000Y-84709000D01*
X83374000Y-76445000D02*
X82550000Y-75621000D01*
X84074000Y-76445000D02*
X83374000Y-76445000D01*
X82550000Y-75621000D02*
X82550000Y-75438000D01*
X82550000Y-75438000D02*
X82550000Y-75438000D01*
D32*
G36*
X90145001Y-74262581D02*
G01*
X90145000Y-137135000D01*
X35585000Y-137135000D01*
X35585000Y-132210285D01*
X39345000Y-132210285D01*
X39345000Y-132965715D01*
X39492377Y-133706628D01*
X39781467Y-134404554D01*
X40201161Y-135032670D01*
X40735330Y-135566839D01*
X41363446Y-135986533D01*
X42061372Y-136275623D01*
X42802285Y-136423000D01*
X43557715Y-136423000D01*
X44298628Y-136275623D01*
X44996554Y-135986533D01*
X45624670Y-135566839D01*
X46158839Y-135032670D01*
X46578533Y-134404554D01*
X46867623Y-133706628D01*
X47015000Y-132965715D01*
X47015000Y-132210285D01*
X46944552Y-131856119D01*
X64159000Y-131856119D01*
X64159000Y-133065882D01*
X64189892Y-133379533D01*
X64311974Y-133781982D01*
X64510224Y-134152881D01*
X64777024Y-134477977D01*
X65102120Y-134744777D01*
X65473019Y-134943026D01*
X65875468Y-135065108D01*
X66294000Y-135106330D01*
X66712533Y-135065108D01*
X67114982Y-134943026D01*
X67485881Y-134744777D01*
X67810977Y-134477977D01*
X68077777Y-134152881D01*
X68276026Y-133781981D01*
X68398108Y-133379532D01*
X68429000Y-133065881D01*
X68429000Y-131856119D01*
X69239000Y-131856119D01*
X69239000Y-133065882D01*
X69269892Y-133379533D01*
X69391974Y-133781982D01*
X69590224Y-134152881D01*
X69857024Y-134477977D01*
X70182120Y-134744777D01*
X70553019Y-134943026D01*
X70955468Y-135065108D01*
X71374000Y-135106330D01*
X71792533Y-135065108D01*
X72194982Y-134943026D01*
X72565881Y-134744777D01*
X72890977Y-134477977D01*
X73157777Y-134152881D01*
X73356026Y-133781981D01*
X73478108Y-133379532D01*
X73509000Y-133065881D01*
X73509000Y-132210285D01*
X79477000Y-132210285D01*
X79477000Y-132965715D01*
X79624377Y-133706628D01*
X79913467Y-134404554D01*
X80333161Y-135032670D01*
X80867330Y-135566839D01*
X81495446Y-135986533D01*
X82193372Y-136275623D01*
X82934285Y-136423000D01*
X83689715Y-136423000D01*
X84430628Y-136275623D01*
X85128554Y-135986533D01*
X85756670Y-135566839D01*
X86290839Y-135032670D01*
X86710533Y-134404554D01*
X86999623Y-133706628D01*
X87147000Y-132965715D01*
X87147000Y-132210285D01*
X86999623Y-131469372D01*
X86710533Y-130771446D01*
X86290839Y-130143330D01*
X85756670Y-129609161D01*
X85128554Y-129189467D01*
X84430628Y-128900377D01*
X83689715Y-128753000D01*
X82934285Y-128753000D01*
X82193372Y-128900377D01*
X81495446Y-129189467D01*
X80867330Y-129609161D01*
X80333161Y-130143330D01*
X79913467Y-130771446D01*
X79624377Y-131469372D01*
X79477000Y-132210285D01*
X73509000Y-132210285D01*
X73509000Y-131856118D01*
X73478108Y-131542467D01*
X73356026Y-131140018D01*
X73157777Y-130769119D01*
X72890977Y-130444023D01*
X72565881Y-130177223D01*
X72194981Y-129978974D01*
X71792532Y-129856892D01*
X71374000Y-129815670D01*
X70955467Y-129856892D01*
X70553018Y-129978974D01*
X70182119Y-130177223D01*
X69857023Y-130444023D01*
X69590223Y-130769119D01*
X69391974Y-131140019D01*
X69269892Y-131542468D01*
X69239000Y-131856119D01*
X68429000Y-131856119D01*
X68429000Y-131856118D01*
X68398108Y-131542467D01*
X68276026Y-131140018D01*
X68077777Y-130769119D01*
X67810977Y-130444023D01*
X67485881Y-130177223D01*
X67114981Y-129978974D01*
X66712532Y-129856892D01*
X66294000Y-129815670D01*
X65875467Y-129856892D01*
X65473018Y-129978974D01*
X65102119Y-130177223D01*
X64777023Y-130444023D01*
X64510223Y-130769119D01*
X64311974Y-131140019D01*
X64189892Y-131542468D01*
X64159000Y-131856119D01*
X46944552Y-131856119D01*
X46867623Y-131469372D01*
X46578533Y-130771446D01*
X46158839Y-130143330D01*
X45624670Y-129609161D01*
X44996554Y-129189467D01*
X44298628Y-128900377D01*
X43557715Y-128753000D01*
X42802285Y-128753000D01*
X42061372Y-128900377D01*
X41363446Y-129189467D01*
X40735330Y-129609161D01*
X40201161Y-130143330D01*
X39781467Y-130771446D01*
X39492377Y-131469372D01*
X39345000Y-132210285D01*
X35585000Y-132210285D01*
X35585000Y-125087413D01*
X60004192Y-125087413D01*
X60099956Y-125351814D01*
X60389571Y-125492704D01*
X60701108Y-125574384D01*
X61022595Y-125593718D01*
X61341675Y-125549961D01*
X61646088Y-125444795D01*
X61820044Y-125351814D01*
X61915808Y-125087413D01*
X60960000Y-124131605D01*
X60004192Y-125087413D01*
X35585000Y-125087413D01*
X35585000Y-122936000D01*
X40267089Y-122936000D01*
X40271928Y-122985130D01*
X40271928Y-123888500D01*
X40284188Y-124012982D01*
X40320498Y-124132680D01*
X40379463Y-124242994D01*
X40458815Y-124339685D01*
X40555506Y-124419037D01*
X40665820Y-124478002D01*
X40785518Y-124514312D01*
X40910000Y-124526572D01*
X41215352Y-124526572D01*
X41251248Y-124556031D01*
X41535285Y-124707852D01*
X41843484Y-124801343D01*
X42083678Y-124825000D01*
X42083680Y-124825000D01*
X42163999Y-124832911D01*
X42244319Y-124825000D01*
X48340322Y-124825000D01*
X48580516Y-124801343D01*
X48888715Y-124707852D01*
X49037973Y-124628072D01*
X49060000Y-124628072D01*
X49184482Y-124615812D01*
X49304180Y-124579502D01*
X49414494Y-124520537D01*
X49511185Y-124441185D01*
X49590537Y-124344494D01*
X49649502Y-124234180D01*
X49665117Y-124182702D01*
X50946903Y-124182702D01*
X51018486Y-124426671D01*
X51273996Y-124547571D01*
X51548184Y-124616300D01*
X51830512Y-124630217D01*
X52110130Y-124588787D01*
X52376292Y-124493603D01*
X52501514Y-124426671D01*
X52573097Y-124182702D01*
X52404990Y-124014595D01*
X59318282Y-124014595D01*
X59362039Y-124333675D01*
X59467205Y-124638088D01*
X59560186Y-124812044D01*
X59824587Y-124907808D01*
X60780395Y-123952000D01*
X61139605Y-123952000D01*
X62095413Y-124907808D01*
X62359814Y-124812044D01*
X62500704Y-124522429D01*
X62582384Y-124210892D01*
X62601718Y-123889405D01*
X62588219Y-123790967D01*
X67248500Y-123790967D01*
X67248500Y-124113033D01*
X67311332Y-124428912D01*
X67434582Y-124726463D01*
X67613513Y-124994252D01*
X67841248Y-125221987D01*
X68109037Y-125400918D01*
X68406588Y-125524168D01*
X68722467Y-125587000D01*
X69044533Y-125587000D01*
X69360412Y-125524168D01*
X69657963Y-125400918D01*
X69925752Y-125221987D01*
X70153487Y-124994252D01*
X70332418Y-124726463D01*
X70455668Y-124428912D01*
X70518500Y-124113033D01*
X70518500Y-123790967D01*
X74755500Y-123790967D01*
X74755500Y-124113033D01*
X74818332Y-124428912D01*
X74941582Y-124726463D01*
X75120513Y-124994252D01*
X75348248Y-125221987D01*
X75616037Y-125400918D01*
X75913588Y-125524168D01*
X76229467Y-125587000D01*
X76551533Y-125587000D01*
X76867412Y-125524168D01*
X77164963Y-125400918D01*
X77432752Y-125221987D01*
X77660487Y-124994252D01*
X77839418Y-124726463D01*
X77962668Y-124428912D01*
X78025500Y-124113033D01*
X78025500Y-123790967D01*
X77962668Y-123475088D01*
X77839418Y-123177537D01*
X77688719Y-122952000D01*
X82245428Y-122952000D01*
X82245428Y-124952000D01*
X82257688Y-125076482D01*
X82293998Y-125196180D01*
X82352963Y-125306494D01*
X82432315Y-125403185D01*
X82529006Y-125482537D01*
X82639320Y-125541502D01*
X82759018Y-125577812D01*
X82883500Y-125590072D01*
X84883500Y-125590072D01*
X85007982Y-125577812D01*
X85127680Y-125541502D01*
X85237994Y-125482537D01*
X85334685Y-125403185D01*
X85414037Y-125306494D01*
X85473002Y-125196180D01*
X85509312Y-125076482D01*
X85521572Y-124952000D01*
X85521572Y-122952000D01*
X85509312Y-122827518D01*
X85473002Y-122707820D01*
X85414037Y-122597506D01*
X85334685Y-122500815D01*
X85237994Y-122421463D01*
X85127680Y-122362498D01*
X85007982Y-122326188D01*
X84883500Y-122313928D01*
X82883500Y-122313928D01*
X82759018Y-122326188D01*
X82639320Y-122362498D01*
X82529006Y-122421463D01*
X82432315Y-122500815D01*
X82352963Y-122597506D01*
X82293998Y-122707820D01*
X82257688Y-122827518D01*
X82245428Y-122952000D01*
X77688719Y-122952000D01*
X77660487Y-122909748D01*
X77432752Y-122682013D01*
X77164963Y-122503082D01*
X76867412Y-122379832D01*
X76551533Y-122317000D01*
X76229467Y-122317000D01*
X75913588Y-122379832D01*
X75616037Y-122503082D01*
X75348248Y-122682013D01*
X75120513Y-122909748D01*
X74941582Y-123177537D01*
X74818332Y-123475088D01*
X74755500Y-123790967D01*
X70518500Y-123790967D01*
X70455668Y-123475088D01*
X70332418Y-123177537D01*
X70153487Y-122909748D01*
X69925752Y-122682013D01*
X69657963Y-122503082D01*
X69360412Y-122379832D01*
X69044533Y-122317000D01*
X68722467Y-122317000D01*
X68406588Y-122379832D01*
X68109037Y-122503082D01*
X67841248Y-122682013D01*
X67613513Y-122909748D01*
X67434582Y-123177537D01*
X67311332Y-123475088D01*
X67248500Y-123790967D01*
X62588219Y-123790967D01*
X62557961Y-123570325D01*
X62452795Y-123265912D01*
X62359814Y-123091956D01*
X62095413Y-122996192D01*
X61139605Y-123952000D01*
X60780395Y-123952000D01*
X59824587Y-122996192D01*
X59560186Y-123091956D01*
X59419296Y-123381571D01*
X59337616Y-123693108D01*
X59318282Y-124014595D01*
X52404990Y-124014595D01*
X51760000Y-123369605D01*
X50946903Y-124182702D01*
X49665117Y-124182702D01*
X49685812Y-124114482D01*
X49698072Y-123990000D01*
X49698072Y-123967973D01*
X49777852Y-123818715D01*
X49871343Y-123510516D01*
X49895966Y-123260512D01*
X50319783Y-123260512D01*
X50361213Y-123540130D01*
X50456397Y-123806292D01*
X50523329Y-123931514D01*
X50767298Y-124003097D01*
X51580395Y-123190000D01*
X51939605Y-123190000D01*
X52752702Y-124003097D01*
X52996671Y-123931514D01*
X53117571Y-123676004D01*
X53186300Y-123401816D01*
X53200217Y-123119488D01*
X53158787Y-122839870D01*
X53150461Y-122816587D01*
X60004192Y-122816587D01*
X60960000Y-123772395D01*
X61915808Y-122816587D01*
X61820044Y-122552186D01*
X61530429Y-122411296D01*
X61218892Y-122329616D01*
X60897405Y-122310282D01*
X60578325Y-122354039D01*
X60273912Y-122459205D01*
X60099956Y-122552186D01*
X60004192Y-122816587D01*
X53150461Y-122816587D01*
X53063603Y-122573708D01*
X52996671Y-122448486D01*
X52752702Y-122376903D01*
X51939605Y-123190000D01*
X51580395Y-123190000D01*
X50767298Y-122376903D01*
X50523329Y-122448486D01*
X50402429Y-122703996D01*
X50333700Y-122978184D01*
X50319783Y-123260512D01*
X49895966Y-123260512D01*
X49902911Y-123190000D01*
X49871343Y-122869484D01*
X49777852Y-122561285D01*
X49698072Y-122412027D01*
X49698072Y-122390000D01*
X49685812Y-122265518D01*
X49665118Y-122197298D01*
X50946903Y-122197298D01*
X51760000Y-123010395D01*
X52573097Y-122197298D01*
X52501514Y-121953329D01*
X52246004Y-121832429D01*
X51971816Y-121763700D01*
X51689488Y-121749783D01*
X51409870Y-121791213D01*
X51143708Y-121886397D01*
X51018486Y-121953329D01*
X50946903Y-122197298D01*
X49665118Y-122197298D01*
X49649502Y-122145820D01*
X49590537Y-122035506D01*
X49511185Y-121938815D01*
X49414494Y-121859463D01*
X49304180Y-121800498D01*
X49184482Y-121764188D01*
X49060000Y-121751928D01*
X49037973Y-121751928D01*
X48888715Y-121672148D01*
X48580516Y-121578657D01*
X48340322Y-121555000D01*
X43379802Y-121555000D01*
X43361185Y-121532315D01*
X43264494Y-121452963D01*
X43172781Y-121403941D01*
X43285969Y-121262923D01*
X43429571Y-120987094D01*
X43500563Y-120768980D01*
X43380594Y-120523000D01*
X42037000Y-120523000D01*
X42037000Y-120543000D01*
X41783000Y-120543000D01*
X41783000Y-120523000D01*
X40439406Y-120523000D01*
X40319437Y-120768980D01*
X40390429Y-120987094D01*
X40534031Y-121262923D01*
X40647219Y-121403941D01*
X40555506Y-121452963D01*
X40458815Y-121532315D01*
X40379463Y-121629006D01*
X40320498Y-121739320D01*
X40284188Y-121859018D01*
X40271928Y-121983500D01*
X40271928Y-122886870D01*
X40267089Y-122936000D01*
X35585000Y-122936000D01*
X35585000Y-117856000D01*
X40267319Y-117856000D01*
X40297970Y-118167204D01*
X40388745Y-118466449D01*
X40536155Y-118742235D01*
X40734537Y-118983963D01*
X40913899Y-119131163D01*
X40728685Y-119286563D01*
X40534031Y-119529077D01*
X40390429Y-119804906D01*
X40319437Y-120023020D01*
X40439406Y-120269000D01*
X41783000Y-120269000D01*
X41783000Y-120249000D01*
X42037000Y-120249000D01*
X42037000Y-120269000D01*
X43380594Y-120269000D01*
X43500563Y-120023020D01*
X43429571Y-119804906D01*
X43285969Y-119529077D01*
X43091315Y-119286563D01*
X42906101Y-119131163D01*
X43085463Y-118983963D01*
X43283845Y-118742235D01*
X43431255Y-118466449D01*
X43522030Y-118167204D01*
X43552681Y-117856000D01*
X43522030Y-117544796D01*
X43431255Y-117245551D01*
X43283845Y-116969765D01*
X43085463Y-116728037D01*
X42920000Y-116592244D01*
X42920000Y-116571855D01*
X43546855Y-115945000D01*
X52575130Y-115945000D01*
X52585498Y-115979180D01*
X52644463Y-116089494D01*
X52723815Y-116186185D01*
X52820506Y-116265537D01*
X52930820Y-116324502D01*
X53050518Y-116360812D01*
X53175000Y-116373072D01*
X54775000Y-116373072D01*
X54899482Y-116360812D01*
X55019180Y-116324502D01*
X55129494Y-116265537D01*
X55226185Y-116186185D01*
X55305537Y-116089494D01*
X55364502Y-115979180D01*
X55380117Y-115927702D01*
X56661903Y-115927702D01*
X56733486Y-116171671D01*
X56988996Y-116292571D01*
X57263184Y-116361300D01*
X57545512Y-116375217D01*
X57825130Y-116333787D01*
X58091292Y-116238603D01*
X58216514Y-116171671D01*
X58288097Y-115927702D01*
X57475000Y-115114605D01*
X56661903Y-115927702D01*
X55380117Y-115927702D01*
X55400812Y-115859482D01*
X55413072Y-115735000D01*
X55413072Y-115005512D01*
X56034783Y-115005512D01*
X56076213Y-115285130D01*
X56171397Y-115551292D01*
X56238329Y-115676514D01*
X56482298Y-115748097D01*
X57295395Y-114935000D01*
X57654605Y-114935000D01*
X58467702Y-115748097D01*
X58711671Y-115676514D01*
X58832571Y-115421004D01*
X58901300Y-115146816D01*
X58915217Y-114864488D01*
X58873787Y-114584870D01*
X58778603Y-114318708D01*
X58756151Y-114276702D01*
X73394903Y-114276702D01*
X73466486Y-114520671D01*
X73721996Y-114641571D01*
X73996184Y-114710300D01*
X74278512Y-114724217D01*
X74558130Y-114682787D01*
X74824292Y-114587603D01*
X74949514Y-114520671D01*
X75021097Y-114276702D01*
X74208000Y-113463605D01*
X73394903Y-114276702D01*
X58756151Y-114276702D01*
X58711671Y-114193486D01*
X58467702Y-114121903D01*
X57654605Y-114935000D01*
X57295395Y-114935000D01*
X56482298Y-114121903D01*
X56238329Y-114193486D01*
X56117429Y-114448996D01*
X56048700Y-114723184D01*
X56034783Y-115005512D01*
X55413072Y-115005512D01*
X55413072Y-114135000D01*
X55400812Y-114010518D01*
X55380118Y-113942298D01*
X56661903Y-113942298D01*
X57475000Y-114755395D01*
X58288097Y-113942298D01*
X58216514Y-113698329D01*
X57961004Y-113577429D01*
X57686816Y-113508700D01*
X57404488Y-113494783D01*
X57124870Y-113536213D01*
X56858708Y-113631397D01*
X56733486Y-113698329D01*
X56661903Y-113942298D01*
X55380118Y-113942298D01*
X55364502Y-113890820D01*
X55305537Y-113780506D01*
X55226185Y-113683815D01*
X55129494Y-113604463D01*
X55019180Y-113545498D01*
X54899482Y-113509188D01*
X54775000Y-113496928D01*
X53175000Y-113496928D01*
X53050518Y-113509188D01*
X52930820Y-113545498D01*
X52820506Y-113604463D01*
X52723815Y-113683815D01*
X52644463Y-113780506D01*
X52585498Y-113890820D01*
X52575130Y-113925000D01*
X43178104Y-113925000D01*
X43128499Y-113920114D01*
X43078894Y-113925000D01*
X43078892Y-113925000D01*
X42930506Y-113939615D01*
X42740120Y-113997368D01*
X42564660Y-114091153D01*
X42410867Y-114217367D01*
X42379239Y-114255906D01*
X41230906Y-115404239D01*
X41192367Y-115435867D01*
X41066153Y-115589660D01*
X40972369Y-115765120D01*
X40972368Y-115765121D01*
X40914615Y-115955506D01*
X40895114Y-116153500D01*
X40900000Y-116203108D01*
X40900000Y-116592244D01*
X40734537Y-116728037D01*
X40536155Y-116969765D01*
X40388745Y-117245551D01*
X40297970Y-117544796D01*
X40267319Y-117856000D01*
X35585000Y-117856000D01*
X35585000Y-97942061D01*
X36557000Y-97942061D01*
X36557000Y-98145939D01*
X36596774Y-98345898D01*
X36674795Y-98534256D01*
X36788063Y-98703774D01*
X36932226Y-98847937D01*
X37101744Y-98961205D01*
X37290102Y-99039226D01*
X37490061Y-99079000D01*
X37693939Y-99079000D01*
X37893898Y-99039226D01*
X38082256Y-98961205D01*
X38251774Y-98847937D01*
X38395937Y-98703774D01*
X38509205Y-98534256D01*
X38587226Y-98345898D01*
X38627000Y-98145939D01*
X38627000Y-97942061D01*
X38587226Y-97742102D01*
X38509205Y-97553744D01*
X38477000Y-97505546D01*
X38477000Y-97158285D01*
X39345000Y-97158285D01*
X39345000Y-97913715D01*
X39492377Y-98654628D01*
X39781467Y-99352554D01*
X40201161Y-99980670D01*
X40735330Y-100514839D01*
X41363446Y-100934533D01*
X42061372Y-101223623D01*
X42802285Y-101371000D01*
X43557715Y-101371000D01*
X44298628Y-101223623D01*
X44996554Y-100934533D01*
X45624670Y-100514839D01*
X46158839Y-99980670D01*
X46578533Y-99352554D01*
X46867623Y-98654628D01*
X47015000Y-97913715D01*
X47015000Y-97158285D01*
X46867623Y-96417372D01*
X46578533Y-95719446D01*
X46158839Y-95091330D01*
X45624670Y-94557161D01*
X44996554Y-94137467D01*
X44298628Y-93848377D01*
X43557715Y-93701000D01*
X42802285Y-93701000D01*
X42061372Y-93848377D01*
X41363446Y-94137467D01*
X40735330Y-94557161D01*
X40201161Y-95091330D01*
X39781467Y-95719446D01*
X39492377Y-96417372D01*
X39345000Y-97158285D01*
X38477000Y-97158285D01*
X38477000Y-95870578D01*
X48963050Y-85384529D01*
X48996818Y-85356816D01*
X49107412Y-85222058D01*
X49189590Y-85068312D01*
X49240196Y-84901489D01*
X49253001Y-84771476D01*
X49253001Y-84771468D01*
X49257282Y-84727999D01*
X49253001Y-84684530D01*
X49253001Y-83215382D01*
X49258256Y-83213205D01*
X49427774Y-83099937D01*
X49571937Y-82955774D01*
X49685205Y-82786256D01*
X49720079Y-82702061D01*
X49765000Y-82702061D01*
X49765000Y-82905939D01*
X49804774Y-83105898D01*
X49882795Y-83294256D01*
X49973455Y-83429938D01*
X49923000Y-83683589D01*
X49923000Y-83956411D01*
X49976225Y-84223989D01*
X50080629Y-84476043D01*
X50232201Y-84702886D01*
X50425114Y-84895799D01*
X50651957Y-85047371D01*
X50904011Y-85151775D01*
X51171589Y-85205000D01*
X51444411Y-85205000D01*
X51711989Y-85151775D01*
X51964043Y-85047371D01*
X52190886Y-84895799D01*
X52383799Y-84702886D01*
X52535371Y-84476043D01*
X52639775Y-84223989D01*
X52693000Y-83956411D01*
X52693000Y-83683589D01*
X52639775Y-83416011D01*
X52535371Y-83163957D01*
X52383799Y-82937114D01*
X52190886Y-82744201D01*
X51964043Y-82592629D01*
X51799692Y-82524553D01*
X51795226Y-82502102D01*
X51717205Y-82313744D01*
X51603937Y-82144226D01*
X51459774Y-82000063D01*
X51290256Y-81886795D01*
X51101898Y-81808774D01*
X50901939Y-81769000D01*
X50698061Y-81769000D01*
X50498102Y-81808774D01*
X50309744Y-81886795D01*
X50140226Y-82000063D01*
X49996063Y-82144226D01*
X49882795Y-82313744D01*
X49804774Y-82502102D01*
X49765000Y-82702061D01*
X49720079Y-82702061D01*
X49763226Y-82597898D01*
X49803000Y-82397939D01*
X49803000Y-82194061D01*
X49763226Y-81994102D01*
X49685205Y-81805744D01*
X49571937Y-81636226D01*
X49427774Y-81492063D01*
X49258256Y-81378795D01*
X49069898Y-81300774D01*
X48869939Y-81261000D01*
X48666061Y-81261000D01*
X48466102Y-81300774D01*
X48277744Y-81378795D01*
X48108226Y-81492063D01*
X47964063Y-81636226D01*
X47850795Y-81805744D01*
X47772774Y-81994102D01*
X47761955Y-82048494D01*
X47739184Y-82067182D01*
X47628590Y-82201941D01*
X47546412Y-82355687D01*
X47514769Y-82459998D01*
X47495806Y-82522509D01*
X47494846Y-82532256D01*
X47483001Y-82652523D01*
X47483001Y-82652530D01*
X47478720Y-82695999D01*
X47483001Y-82739468D01*
X47483001Y-83230662D01*
X47455371Y-83163957D01*
X47303799Y-82937114D01*
X47110886Y-82744201D01*
X46885865Y-82593846D01*
X46928937Y-82550774D01*
X47042205Y-82381256D01*
X47120226Y-82192898D01*
X47160000Y-81992939D01*
X47160000Y-81789061D01*
X47120226Y-81589102D01*
X47042205Y-81400744D01*
X46928937Y-81231226D01*
X46784774Y-81087063D01*
X46615256Y-80973795D01*
X46426898Y-80895774D01*
X46226939Y-80856000D01*
X46023061Y-80856000D01*
X45823102Y-80895774D01*
X45634744Y-80973795D01*
X45465226Y-81087063D01*
X45321063Y-81231226D01*
X45207795Y-81400744D01*
X45129774Y-81589102D01*
X45090000Y-81789061D01*
X45090000Y-81992939D01*
X45129774Y-82192898D01*
X45207795Y-82381256D01*
X45321063Y-82550774D01*
X45365000Y-82594711D01*
X45365000Y-82730913D01*
X45345114Y-82744201D01*
X45152201Y-82937114D01*
X45000629Y-83163957D01*
X44896225Y-83416011D01*
X44843000Y-83683589D01*
X44843000Y-83956411D01*
X44896225Y-84223989D01*
X45000629Y-84476043D01*
X45152201Y-84702886D01*
X45345114Y-84895799D01*
X45571957Y-85047371D01*
X45824011Y-85151775D01*
X46091589Y-85205000D01*
X46364411Y-85205000D01*
X46631989Y-85151775D01*
X46735537Y-85108884D01*
X36996956Y-94847466D01*
X36963183Y-94875183D01*
X36852589Y-95009942D01*
X36770411Y-95163688D01*
X36719805Y-95330511D01*
X36707000Y-95460524D01*
X36707000Y-95460531D01*
X36702719Y-95504000D01*
X36707000Y-95547469D01*
X36707001Y-97505545D01*
X36674795Y-97553744D01*
X36596774Y-97742102D01*
X36557000Y-97942061D01*
X35585000Y-97942061D01*
X35585000Y-80002000D01*
X43125000Y-80002000D01*
X43149776Y-79999560D01*
X43173601Y-79992333D01*
X43195557Y-79980597D01*
X43214803Y-79964803D01*
X43230597Y-79945557D01*
X43242333Y-79923601D01*
X43249560Y-79899776D01*
X43252000Y-79875000D01*
X43252000Y-72449801D01*
X44648135Y-73845936D01*
X44652992Y-73895255D01*
X44703528Y-74061851D01*
X44785595Y-74215387D01*
X44896038Y-74349962D01*
X44983816Y-74422000D01*
X44896038Y-74494038D01*
X44785595Y-74628613D01*
X44703528Y-74782149D01*
X44652992Y-74948745D01*
X44635928Y-75121999D01*
X44635928Y-75772001D01*
X44652992Y-75945255D01*
X44703528Y-76111851D01*
X44785595Y-76265387D01*
X44896038Y-76399962D01*
X45030613Y-76510405D01*
X45184149Y-76592472D01*
X45350745Y-76643008D01*
X45354720Y-76643400D01*
X45407737Y-76708000D01*
X45434000Y-76740001D01*
X45462998Y-76763799D01*
X45701000Y-77001801D01*
X45701000Y-77063939D01*
X45740774Y-77263898D01*
X45818795Y-77452256D01*
X45932063Y-77621774D01*
X46076226Y-77765937D01*
X46245744Y-77879205D01*
X46434102Y-77957226D01*
X46634061Y-77997000D01*
X46837939Y-77997000D01*
X47037898Y-77957226D01*
X47226256Y-77879205D01*
X47395774Y-77765937D01*
X47539937Y-77621774D01*
X47653205Y-77452256D01*
X47731226Y-77263898D01*
X47771000Y-77063939D01*
X47771000Y-76860061D01*
X47731226Y-76660102D01*
X47653205Y-76471744D01*
X47539937Y-76302226D01*
X47395774Y-76158063D01*
X47258315Y-76066216D01*
X47295008Y-75945255D01*
X47312072Y-75772001D01*
X47312072Y-75121999D01*
X47295008Y-74948745D01*
X47244472Y-74782149D01*
X47162405Y-74628613D01*
X47051962Y-74494038D01*
X46964184Y-74422000D01*
X47051962Y-74349962D01*
X47162405Y-74215387D01*
X47188803Y-74166000D01*
X47302289Y-74166000D01*
X47346226Y-74209937D01*
X47515744Y-74323205D01*
X47704102Y-74401226D01*
X47904061Y-74441000D01*
X48106732Y-74441000D01*
X48048629Y-74527957D01*
X47944225Y-74780011D01*
X47891000Y-75047589D01*
X47891000Y-75320411D01*
X47944225Y-75587989D01*
X48048629Y-75840043D01*
X48200201Y-76066886D01*
X48393114Y-76259799D01*
X48619957Y-76411371D01*
X48872011Y-76515775D01*
X49139589Y-76569000D01*
X49412411Y-76569000D01*
X49557365Y-76540167D01*
X50236205Y-77219008D01*
X50259999Y-77248001D01*
X50288992Y-77271795D01*
X50288996Y-77271799D01*
X50345996Y-77318577D01*
X50375724Y-77342974D01*
X50507753Y-77413546D01*
X50651014Y-77457003D01*
X50762667Y-77468000D01*
X50762676Y-77468000D01*
X50799999Y-77471676D01*
X50837322Y-77468000D01*
X51112289Y-77468000D01*
X51156226Y-77511937D01*
X51325744Y-77625205D01*
X51514102Y-77703226D01*
X51714061Y-77743000D01*
X51917939Y-77743000D01*
X52117898Y-77703226D01*
X52306256Y-77625205D01*
X52475774Y-77511937D01*
X52619937Y-77367774D01*
X52733205Y-77198256D01*
X52811226Y-77009898D01*
X52812864Y-77001665D01*
X53672645Y-77861447D01*
X53721026Y-77951961D01*
X53757989Y-77997000D01*
X53815999Y-78067686D01*
X53845003Y-78091489D01*
X59449516Y-83696003D01*
X59473314Y-83725001D01*
X59502312Y-83748799D01*
X59589039Y-83819974D01*
X59721068Y-83890546D01*
X59864276Y-83933987D01*
X59919226Y-83988937D01*
X60088744Y-84102205D01*
X60277102Y-84180226D01*
X60477061Y-84220000D01*
X60680939Y-84220000D01*
X60880898Y-84180226D01*
X61069256Y-84102205D01*
X61238774Y-83988937D01*
X61382937Y-83844774D01*
X61496205Y-83675256D01*
X61574226Y-83486898D01*
X61614000Y-83286939D01*
X61614000Y-83219999D01*
X61714947Y-83219999D01*
X61742774Y-83359898D01*
X61820795Y-83548256D01*
X61934063Y-83717774D01*
X62078226Y-83861937D01*
X62247744Y-83975205D01*
X62436102Y-84053226D01*
X62636061Y-84093000D01*
X62839939Y-84093000D01*
X63039898Y-84053226D01*
X63228256Y-83975205D01*
X63397774Y-83861937D01*
X63541937Y-83717774D01*
X63655205Y-83548256D01*
X63733226Y-83359898D01*
X63773000Y-83159939D01*
X63773000Y-83042974D01*
X63801898Y-83037226D01*
X63990256Y-82959205D01*
X64159774Y-82845937D01*
X64194710Y-82811001D01*
X64877802Y-82811001D01*
X64830553Y-82825334D01*
X64633377Y-82930726D01*
X64460551Y-83072561D01*
X64318716Y-83245387D01*
X64213324Y-83442563D01*
X64148423Y-83656511D01*
X64126509Y-83879010D01*
X64148423Y-84101509D01*
X64213324Y-84315457D01*
X64298066Y-84474000D01*
X59480741Y-84474000D01*
X59424999Y-84468510D01*
X59369257Y-84474000D01*
X59369248Y-84474000D01*
X59202501Y-84490423D01*
X58988553Y-84555324D01*
X58791377Y-84660716D01*
X58618551Y-84802551D01*
X58583004Y-84845865D01*
X58203869Y-85225000D01*
X49982248Y-85225000D01*
X49815501Y-85241423D01*
X49601553Y-85306324D01*
X49404377Y-85411716D01*
X49231551Y-85553551D01*
X49089716Y-85726377D01*
X48984324Y-85923553D01*
X48919423Y-86137501D01*
X48897509Y-86360000D01*
X48919423Y-86582499D01*
X48984324Y-86796447D01*
X49089716Y-86993623D01*
X49231551Y-87166449D01*
X49404377Y-87308284D01*
X49601553Y-87413676D01*
X49815501Y-87478577D01*
X49982248Y-87495000D01*
X58219868Y-87495000D01*
X50958614Y-94756255D01*
X50915300Y-94791802D01*
X50773465Y-94964628D01*
X50668074Y-95161804D01*
X50668073Y-95161805D01*
X50603172Y-95375753D01*
X50581258Y-95598251D01*
X50586749Y-95654002D01*
X50586750Y-108844118D01*
X49020861Y-110410008D01*
X49020856Y-110410012D01*
X47896856Y-111534013D01*
X47418012Y-112012857D01*
X47311717Y-112142378D01*
X47206324Y-112339554D01*
X47141423Y-112553502D01*
X47119509Y-112776000D01*
X47141423Y-112998498D01*
X47206324Y-113212446D01*
X47311717Y-113409622D01*
X47453552Y-113582448D01*
X47626378Y-113724283D01*
X47823554Y-113829676D01*
X48037502Y-113894577D01*
X48260000Y-113916491D01*
X48482498Y-113894577D01*
X48696446Y-113829676D01*
X48893622Y-113724283D01*
X49023143Y-113617988D01*
X49286619Y-113354512D01*
X72767783Y-113354512D01*
X72809213Y-113634130D01*
X72904397Y-113900292D01*
X72971329Y-114025514D01*
X73215298Y-114097097D01*
X74028395Y-113284000D01*
X74387605Y-113284000D01*
X75200702Y-114097097D01*
X75269928Y-114076785D01*
X75269928Y-114084000D01*
X75282188Y-114208482D01*
X75318498Y-114328180D01*
X75377463Y-114438494D01*
X75456815Y-114535185D01*
X75553506Y-114614537D01*
X75663820Y-114673502D01*
X75783518Y-114709812D01*
X75908000Y-114722072D01*
X77508000Y-114722072D01*
X77632482Y-114709812D01*
X77752180Y-114673502D01*
X77862494Y-114614537D01*
X77959185Y-114535185D01*
X78038537Y-114438494D01*
X78097502Y-114328180D01*
X78133812Y-114208482D01*
X78146072Y-114084000D01*
X78146072Y-112484000D01*
X78133812Y-112359518D01*
X78097502Y-112239820D01*
X78038537Y-112129506D01*
X77959185Y-112032815D01*
X77862494Y-111953463D01*
X77752180Y-111894498D01*
X77632482Y-111858188D01*
X77508000Y-111845928D01*
X75908000Y-111845928D01*
X75783518Y-111858188D01*
X75663820Y-111894498D01*
X75553506Y-111953463D01*
X75456815Y-112032815D01*
X75377463Y-112129506D01*
X75318498Y-112239820D01*
X75282188Y-112359518D01*
X75269928Y-112484000D01*
X75269928Y-112491215D01*
X75200702Y-112470903D01*
X74387605Y-113284000D01*
X74028395Y-113284000D01*
X73215298Y-112470903D01*
X72971329Y-112542486D01*
X72850429Y-112797996D01*
X72781700Y-113072184D01*
X72767783Y-113354512D01*
X49286619Y-113354512D01*
X49501987Y-113139144D01*
X50349833Y-112291298D01*
X73394903Y-112291298D01*
X74208000Y-113104395D01*
X75021097Y-112291298D01*
X74949514Y-112047329D01*
X74694004Y-111926429D01*
X74419816Y-111857700D01*
X74137488Y-111843783D01*
X73857870Y-111885213D01*
X73591708Y-111980397D01*
X73466486Y-112047329D01*
X73394903Y-112291298D01*
X50349833Y-112291298D01*
X50625988Y-112015144D01*
X50625992Y-112015139D01*
X52484890Y-110156242D01*
X52528198Y-110120700D01*
X52670033Y-109947874D01*
X52775425Y-109750698D01*
X52840326Y-109536750D01*
X52856749Y-109370003D01*
X52862240Y-109314251D01*
X52856749Y-109258500D01*
X52856749Y-96068382D01*
X60795132Y-88130000D01*
X64542666Y-88130000D01*
X64467148Y-88271285D01*
X64373657Y-88579484D01*
X64342089Y-88900000D01*
X64352399Y-89004682D01*
X64322082Y-89035000D01*
X60904248Y-89035000D01*
X60737501Y-89051423D01*
X60523553Y-89116324D01*
X60326377Y-89221716D01*
X60153551Y-89363551D01*
X60011716Y-89536377D01*
X59906324Y-89733553D01*
X59841423Y-89947501D01*
X59819509Y-90170000D01*
X59841423Y-90392499D01*
X59906324Y-90606447D01*
X60011716Y-90803623D01*
X60012846Y-90805000D01*
X60011716Y-90806377D01*
X59906324Y-91003553D01*
X59841423Y-91217501D01*
X59819509Y-91440000D01*
X59841423Y-91662499D01*
X59906324Y-91876447D01*
X60011716Y-92073623D01*
X60012846Y-92075000D01*
X60011716Y-92076377D01*
X59906324Y-92273553D01*
X59841423Y-92487501D01*
X59819509Y-92710000D01*
X59841423Y-92932499D01*
X59906324Y-93146447D01*
X60011716Y-93343623D01*
X60153551Y-93516449D01*
X60326377Y-93658284D01*
X60523553Y-93763676D01*
X60737501Y-93828577D01*
X60904248Y-93845000D01*
X66045628Y-93845000D01*
X66046148Y-93846715D01*
X66197969Y-94130752D01*
X66402286Y-94379714D01*
X66651248Y-94584031D01*
X66935285Y-94735852D01*
X67243484Y-94829343D01*
X67483678Y-94853000D01*
X69803322Y-94853000D01*
X70043516Y-94829343D01*
X70288011Y-94755176D01*
X70288011Y-95293750D01*
X67480687Y-98101075D01*
X67418286Y-98152286D01*
X67213969Y-98401249D01*
X67062148Y-98685286D01*
X66968657Y-98993485D01*
X66945000Y-99233678D01*
X66937089Y-99314000D01*
X66945000Y-99394320D01*
X66945001Y-104474322D01*
X66968658Y-104714516D01*
X67062149Y-105022715D01*
X67213970Y-105306752D01*
X67418287Y-105555714D01*
X67667249Y-105760031D01*
X67951286Y-105911852D01*
X68259485Y-106005343D01*
X68580000Y-106036911D01*
X68900516Y-106005343D01*
X69208715Y-105911852D01*
X69492752Y-105760031D01*
X69741714Y-105555714D01*
X69946031Y-105306752D01*
X70097852Y-105022715D01*
X70191343Y-104714516D01*
X70215000Y-104474322D01*
X70215000Y-99991238D01*
X71976743Y-98229495D01*
X77390000Y-98229495D01*
X77390000Y-98620505D01*
X77466282Y-99004003D01*
X77615915Y-99365250D01*
X77833149Y-99690364D01*
X78109636Y-99966851D01*
X78434750Y-100184085D01*
X78795997Y-100333718D01*
X79179495Y-100410000D01*
X79570505Y-100410000D01*
X79954003Y-100333718D01*
X80315250Y-100184085D01*
X80640364Y-99966851D01*
X80916851Y-99690364D01*
X81134085Y-99365250D01*
X81283718Y-99004003D01*
X81360000Y-98620505D01*
X81360000Y-98229495D01*
X81283718Y-97845997D01*
X81134085Y-97484750D01*
X80916851Y-97159636D01*
X80640364Y-96883149D01*
X80315250Y-96665915D01*
X79954003Y-96516282D01*
X79570505Y-96440000D01*
X79179495Y-96440000D01*
X78795997Y-96516282D01*
X78434750Y-96665915D01*
X78109636Y-96883149D01*
X77833149Y-97159636D01*
X77615915Y-97484750D01*
X77466282Y-97845997D01*
X77390000Y-98229495D01*
X71976743Y-98229495D01*
X73022329Y-97183910D01*
X73084724Y-97132704D01*
X73289041Y-96883742D01*
X73440862Y-96599705D01*
X73534353Y-96291506D01*
X73558010Y-96051312D01*
X73558010Y-96051310D01*
X73565921Y-95970991D01*
X73558010Y-95890671D01*
X73558010Y-93229495D01*
X77390000Y-93229495D01*
X77390000Y-93620505D01*
X77466282Y-94004003D01*
X77615915Y-94365250D01*
X77833149Y-94690364D01*
X78109636Y-94966851D01*
X78434750Y-95184085D01*
X78795997Y-95333718D01*
X79179495Y-95410000D01*
X79570505Y-95410000D01*
X79954003Y-95333718D01*
X80315250Y-95184085D01*
X80640364Y-94966851D01*
X80916851Y-94690364D01*
X81134085Y-94365250D01*
X81283718Y-94004003D01*
X81360000Y-93620505D01*
X81360000Y-93229495D01*
X81283718Y-92845997D01*
X81134085Y-92484750D01*
X80916851Y-92159636D01*
X80640364Y-91883149D01*
X80315250Y-91665915D01*
X79954003Y-91516282D01*
X79570505Y-91440000D01*
X79179495Y-91440000D01*
X78795997Y-91516282D01*
X78434750Y-91665915D01*
X78109636Y-91883149D01*
X77833149Y-92159636D01*
X77615915Y-92484750D01*
X77466282Y-92845997D01*
X77390000Y-93229495D01*
X73558010Y-93229495D01*
X73558010Y-92387057D01*
X73565922Y-92306727D01*
X73534353Y-91986210D01*
X73440862Y-91678012D01*
X73432570Y-91662499D01*
X73289041Y-91393975D01*
X73084724Y-91145013D01*
X73022335Y-91093812D01*
X70058521Y-88130000D01*
X77746043Y-88130000D01*
X77833149Y-88260364D01*
X78109636Y-88536851D01*
X78434750Y-88754085D01*
X78795997Y-88903718D01*
X79179495Y-88980000D01*
X79570505Y-88980000D01*
X79954003Y-88903718D01*
X80315250Y-88754085D01*
X80640364Y-88536851D01*
X80916851Y-88260364D01*
X81003957Y-88130000D01*
X83383249Y-88130000D01*
X83439000Y-88135491D01*
X83494751Y-88130000D01*
X83494752Y-88130000D01*
X83661499Y-88113577D01*
X83875447Y-88048676D01*
X84072623Y-87943284D01*
X84245449Y-87801449D01*
X84280996Y-87758135D01*
X87631141Y-84407991D01*
X87674449Y-84372449D01*
X87816284Y-84199623D01*
X87921676Y-84002447D01*
X87986577Y-83788499D01*
X88003000Y-83621752D01*
X88003000Y-83621743D01*
X88008490Y-83566001D01*
X88003000Y-83510259D01*
X88003000Y-76255751D01*
X88008491Y-76199999D01*
X87986577Y-75977501D01*
X87921676Y-75763553D01*
X87894534Y-75712774D01*
X87816284Y-75566377D01*
X87674449Y-75393551D01*
X87631140Y-75358009D01*
X85847995Y-73574864D01*
X85812448Y-73531550D01*
X85639622Y-73389715D01*
X85442446Y-73284323D01*
X85228498Y-73219422D01*
X85061751Y-73202999D01*
X85061750Y-73202999D01*
X85005999Y-73197508D01*
X84950248Y-73202999D01*
X73820336Y-73202999D01*
X73816459Y-73201823D01*
X73593960Y-73179909D01*
X73371461Y-73201823D01*
X73157513Y-73266724D01*
X73142104Y-73274960D01*
X73111239Y-73284323D01*
X72914063Y-73389715D01*
X72741237Y-73531550D01*
X72599402Y-73704376D01*
X72593144Y-73716084D01*
X71895087Y-74414142D01*
X71883377Y-74420401D01*
X71710551Y-74562236D01*
X71675011Y-74605542D01*
X68060554Y-78220000D01*
X61841544Y-78220000D01*
X61912537Y-78133494D01*
X61971502Y-78023180D01*
X62007812Y-77903482D01*
X62020072Y-77779000D01*
X62017000Y-76739750D01*
X61858250Y-76581000D01*
X60796500Y-76581000D01*
X60796500Y-76601000D01*
X60542500Y-76601000D01*
X60542500Y-76581000D01*
X59480750Y-76581000D01*
X59328441Y-76733309D01*
X59045072Y-76449941D01*
X59045072Y-75379000D01*
X59028008Y-75205746D01*
X59004728Y-75129000D01*
X59318928Y-75129000D01*
X59322000Y-76168250D01*
X59480750Y-76327000D01*
X60542500Y-76327000D01*
X60542500Y-74652750D01*
X60796500Y-74652750D01*
X60796500Y-76327000D01*
X61858250Y-76327000D01*
X61986915Y-76198335D01*
X61996774Y-76247898D01*
X62074795Y-76436256D01*
X62188063Y-76605774D01*
X62332226Y-76749937D01*
X62501744Y-76863205D01*
X62690102Y-76941226D01*
X62890061Y-76981000D01*
X63093939Y-76981000D01*
X63293898Y-76941226D01*
X63482256Y-76863205D01*
X63651774Y-76749937D01*
X63795937Y-76605774D01*
X63909205Y-76436256D01*
X63987226Y-76247898D01*
X64027000Y-76047939D01*
X64027000Y-75844061D01*
X63987226Y-75644102D01*
X63909205Y-75455744D01*
X63795937Y-75286226D01*
X63752000Y-75242289D01*
X63752000Y-75018000D01*
X66583928Y-75018000D01*
X66596188Y-75142482D01*
X66632498Y-75262180D01*
X66691463Y-75372494D01*
X66770815Y-75469185D01*
X66867506Y-75548537D01*
X66977820Y-75607502D01*
X67097518Y-75643812D01*
X67222000Y-75656072D01*
X67786250Y-75653000D01*
X67945000Y-75494250D01*
X67945000Y-74295000D01*
X68199000Y-74295000D01*
X68199000Y-75494250D01*
X68357750Y-75653000D01*
X68922000Y-75656072D01*
X69046482Y-75643812D01*
X69166180Y-75607502D01*
X69276494Y-75548537D01*
X69373185Y-75469185D01*
X69452537Y-75372494D01*
X69511502Y-75262180D01*
X69547812Y-75142482D01*
X69560072Y-75018000D01*
X69557000Y-74453750D01*
X69398250Y-74295000D01*
X68199000Y-74295000D01*
X67945000Y-74295000D01*
X66745750Y-74295000D01*
X66587000Y-74453750D01*
X66583928Y-75018000D01*
X63752000Y-75018000D01*
X63752000Y-74817909D01*
X63874886Y-74735799D01*
X64067799Y-74542886D01*
X64219371Y-74316043D01*
X64323775Y-74063989D01*
X64377000Y-73796411D01*
X64377000Y-73523589D01*
X64336106Y-73318000D01*
X66583928Y-73318000D01*
X66587000Y-73882250D01*
X66745750Y-74041000D01*
X67945000Y-74041000D01*
X67945000Y-71755000D01*
X68199000Y-71755000D01*
X68199000Y-74041000D01*
X69398250Y-74041000D01*
X69557000Y-73882250D01*
X69560072Y-73318000D01*
X69547812Y-73193518D01*
X69511502Y-73073820D01*
X69452537Y-72963506D01*
X69373185Y-72866815D01*
X69276494Y-72787463D01*
X69166180Y-72728498D01*
X69085534Y-72704034D01*
X69169588Y-72628269D01*
X69343641Y-72394920D01*
X69468825Y-72132099D01*
X69513476Y-71984890D01*
X69392155Y-71755000D01*
X68199000Y-71755000D01*
X67945000Y-71755000D01*
X66751845Y-71755000D01*
X66630524Y-71984890D01*
X66675175Y-72132099D01*
X66800359Y-72394920D01*
X66974412Y-72628269D01*
X67058466Y-72704034D01*
X66977820Y-72728498D01*
X66867506Y-72787463D01*
X66770815Y-72866815D01*
X66691463Y-72963506D01*
X66632498Y-73073820D01*
X66596188Y-73193518D01*
X66583928Y-73318000D01*
X64336106Y-73318000D01*
X64323775Y-73256011D01*
X64219371Y-73003957D01*
X64067799Y-72777114D01*
X63874886Y-72584201D01*
X63648043Y-72432629D01*
X63395989Y-72328225D01*
X63128411Y-72275000D01*
X62855589Y-72275000D01*
X62588011Y-72328225D01*
X62335957Y-72432629D01*
X62109114Y-72584201D01*
X61916201Y-72777114D01*
X61764629Y-73003957D01*
X61660225Y-73256011D01*
X61607000Y-73523589D01*
X61607000Y-73796411D01*
X61660225Y-74063989D01*
X61764629Y-74316043D01*
X61916201Y-74542886D01*
X62109114Y-74735799D01*
X62232000Y-74817909D01*
X62232000Y-75242289D01*
X62188063Y-75286226D01*
X62074795Y-75455744D01*
X62018706Y-75591154D01*
X62020072Y-75129000D01*
X62007812Y-75004518D01*
X61971502Y-74884820D01*
X61912537Y-74774506D01*
X61833185Y-74677815D01*
X61736494Y-74598463D01*
X61626180Y-74539498D01*
X61506482Y-74503188D01*
X61382000Y-74490928D01*
X60955250Y-74494000D01*
X60796500Y-74652750D01*
X60542500Y-74652750D01*
X60383750Y-74494000D01*
X59957000Y-74490928D01*
X59832518Y-74503188D01*
X59712820Y-74539498D01*
X59602506Y-74598463D01*
X59505815Y-74677815D01*
X59426463Y-74774506D01*
X59367498Y-74884820D01*
X59331188Y-75004518D01*
X59318928Y-75129000D01*
X59004728Y-75129000D01*
X58977472Y-75039150D01*
X58895405Y-74885614D01*
X58784962Y-74751038D01*
X58650386Y-74640595D01*
X58496850Y-74558528D01*
X58330254Y-74507992D01*
X58157000Y-74490928D01*
X57232000Y-74490928D01*
X57058746Y-74507992D01*
X56892150Y-74558528D01*
X56738614Y-74640595D01*
X56604038Y-74751038D01*
X56493595Y-74885614D01*
X56411528Y-75039150D01*
X56360992Y-75205746D01*
X56343928Y-75379000D01*
X56343928Y-77529000D01*
X56353993Y-77631191D01*
X53767801Y-75045000D01*
X53984411Y-75045000D01*
X54251989Y-74991775D01*
X54504043Y-74887371D01*
X54730886Y-74735799D01*
X54923799Y-74542886D01*
X55075371Y-74316043D01*
X55179775Y-74063989D01*
X55210008Y-73912000D01*
X56192289Y-73912000D01*
X56236226Y-73955937D01*
X56405744Y-74069205D01*
X56594102Y-74147226D01*
X56794061Y-74187000D01*
X56997939Y-74187000D01*
X57197898Y-74147226D01*
X57386256Y-74069205D01*
X57555774Y-73955937D01*
X57699937Y-73811774D01*
X57813205Y-73642256D01*
X57891226Y-73453898D01*
X57931000Y-73253939D01*
X57931000Y-73050061D01*
X57891226Y-72850102D01*
X57813205Y-72661744D01*
X57699937Y-72492226D01*
X57555774Y-72348063D01*
X57386256Y-72234795D01*
X57197898Y-72156774D01*
X56997939Y-72117000D01*
X56794061Y-72117000D01*
X56594102Y-72156774D01*
X56405744Y-72234795D01*
X56236226Y-72348063D01*
X56192289Y-72392000D01*
X54405956Y-72392000D01*
X54251989Y-72328225D01*
X53984411Y-72275000D01*
X53711589Y-72275000D01*
X53444011Y-72328225D01*
X53191957Y-72432629D01*
X52965114Y-72584201D01*
X52772201Y-72777114D01*
X52620629Y-73003957D01*
X52516225Y-73256011D01*
X52463000Y-73523589D01*
X52463000Y-73740199D01*
X50798000Y-72075199D01*
X50798000Y-71513236D01*
X50905957Y-71585371D01*
X51158011Y-71689775D01*
X51425589Y-71743000D01*
X51698411Y-71743000D01*
X51965989Y-71689775D01*
X52218043Y-71585371D01*
X52444886Y-71433799D01*
X52506685Y-71372000D01*
X56192289Y-71372000D01*
X56236226Y-71415937D01*
X56405744Y-71529205D01*
X56594102Y-71607226D01*
X56794061Y-71647000D01*
X56997939Y-71647000D01*
X57197898Y-71607226D01*
X57386256Y-71529205D01*
X57555774Y-71415937D01*
X57699937Y-71271774D01*
X57813205Y-71102256D01*
X57891226Y-70913898D01*
X57931000Y-70713939D01*
X57931000Y-70510061D01*
X57891226Y-70310102D01*
X57813205Y-70121744D01*
X57699937Y-69952226D01*
X57555774Y-69808063D01*
X57386256Y-69694795D01*
X57197898Y-69616774D01*
X57093459Y-69596000D01*
X57197898Y-69575226D01*
X57386256Y-69497205D01*
X57555774Y-69383937D01*
X57699937Y-69239774D01*
X57813205Y-69070256D01*
X57891226Y-68881898D01*
X57931000Y-68681939D01*
X57931000Y-68478061D01*
X57891226Y-68278102D01*
X57813205Y-68089744D01*
X57699937Y-67920226D01*
X57555774Y-67776063D01*
X57386256Y-67662795D01*
X57197898Y-67584774D01*
X56997939Y-67545000D01*
X56794061Y-67545000D01*
X56594102Y-67584774D01*
X56405744Y-67662795D01*
X56236226Y-67776063D01*
X56192289Y-67820000D01*
X54913956Y-67820000D01*
X54759989Y-67756225D01*
X54492411Y-67703000D01*
X54219589Y-67703000D01*
X53952011Y-67756225D01*
X53699957Y-67860629D01*
X53473114Y-68012201D01*
X53280201Y-68205114D01*
X53128629Y-68431957D01*
X53024225Y-68684011D01*
X52971000Y-68951589D01*
X52971000Y-69224411D01*
X53024225Y-69491989D01*
X53128629Y-69744043D01*
X53200764Y-69852000D01*
X52851521Y-69852000D01*
X52789371Y-69701957D01*
X52637799Y-69475114D01*
X52444886Y-69282201D01*
X52218043Y-69130629D01*
X51965989Y-69026225D01*
X51698411Y-68973000D01*
X51425589Y-68973000D01*
X51158011Y-69026225D01*
X51045796Y-69072706D01*
X51073000Y-68935939D01*
X51073000Y-68732061D01*
X51033226Y-68532102D01*
X50955205Y-68343744D01*
X50841937Y-68174226D01*
X50697774Y-68030063D01*
X50528256Y-67916795D01*
X50339898Y-67838774D01*
X50139939Y-67799000D01*
X49936061Y-67799000D01*
X49736102Y-67838774D01*
X49547744Y-67916795D01*
X49378226Y-68030063D01*
X49234063Y-68174226D01*
X49120795Y-68343744D01*
X49042774Y-68532102D01*
X49003000Y-68732061D01*
X49003000Y-68795021D01*
X49001226Y-68786102D01*
X48923205Y-68597744D01*
X48809937Y-68428226D01*
X48665774Y-68284063D01*
X48496256Y-68170795D01*
X48307898Y-68092774D01*
X48107939Y-68053000D01*
X47904061Y-68053000D01*
X47704102Y-68092774D01*
X47515744Y-68170795D01*
X47346226Y-68284063D01*
X47202063Y-68428226D01*
X47088795Y-68597744D01*
X47010774Y-68786102D01*
X46971000Y-68986061D01*
X46971000Y-69189939D01*
X47010774Y-69389898D01*
X47088795Y-69578256D01*
X47202063Y-69747774D01*
X47246001Y-69791712D01*
X47246000Y-71082677D01*
X47242324Y-71120000D01*
X47246000Y-71157322D01*
X47246000Y-71157332D01*
X47256997Y-71268985D01*
X47271728Y-71317546D01*
X47300454Y-71412246D01*
X47371026Y-71544276D01*
X47404752Y-71585371D01*
X47465999Y-71660001D01*
X47495003Y-71683804D01*
X48200638Y-72389439D01*
X48107939Y-72371000D01*
X47904061Y-72371000D01*
X47704102Y-72410774D01*
X47515744Y-72488795D01*
X47346226Y-72602063D01*
X47302289Y-72646000D01*
X47198424Y-72646000D01*
X47162405Y-72578613D01*
X47051962Y-72444038D01*
X46917387Y-72333595D01*
X46763851Y-72251528D01*
X46597255Y-72200992D01*
X46424001Y-72183928D01*
X45523999Y-72183928D01*
X45350745Y-72200992D01*
X45198865Y-72247064D01*
X44194000Y-71242199D01*
X44194000Y-68091000D01*
X44297939Y-68091000D01*
X44497898Y-68051226D01*
X44686256Y-67973205D01*
X44855774Y-67859937D01*
X44999937Y-67715774D01*
X45113205Y-67546256D01*
X45191226Y-67357898D01*
X45220876Y-67208834D01*
X45321063Y-67358774D01*
X45465226Y-67502937D01*
X45634744Y-67616205D01*
X45823102Y-67694226D01*
X46023061Y-67734000D01*
X46226939Y-67734000D01*
X46426898Y-67694226D01*
X46615256Y-67616205D01*
X46784774Y-67502937D01*
X46828711Y-67459000D01*
X66894716Y-67459000D01*
X66918525Y-67494632D01*
X67125368Y-67701475D01*
X67299760Y-67818000D01*
X67125368Y-67934525D01*
X66918525Y-68141368D01*
X66756010Y-68384589D01*
X66644068Y-68654842D01*
X66587000Y-68941740D01*
X66587000Y-69234260D01*
X66644068Y-69521158D01*
X66756010Y-69791411D01*
X66918525Y-70034632D01*
X67125368Y-70241475D01*
X67307534Y-70363195D01*
X67190645Y-70432822D01*
X66974412Y-70627731D01*
X66800359Y-70861080D01*
X66675175Y-71123901D01*
X66630524Y-71271110D01*
X66751845Y-71501000D01*
X67945000Y-71501000D01*
X67945000Y-71481000D01*
X68199000Y-71481000D01*
X68199000Y-71501000D01*
X69392155Y-71501000D01*
X69513476Y-71271110D01*
X69468825Y-71123901D01*
X69343641Y-70861080D01*
X69169588Y-70627731D01*
X68953355Y-70432822D01*
X68836466Y-70363195D01*
X69018632Y-70241475D01*
X69225475Y-70034632D01*
X69387990Y-69791411D01*
X69499932Y-69521158D01*
X69557000Y-69234260D01*
X69557000Y-68941740D01*
X69499932Y-68654842D01*
X69387990Y-68384589D01*
X69225475Y-68141368D01*
X69018632Y-67934525D01*
X68844240Y-67818000D01*
X69018632Y-67701475D01*
X69225475Y-67494632D01*
X69387990Y-67251411D01*
X69499932Y-66981158D01*
X69557000Y-66694260D01*
X69557000Y-66401740D01*
X69499932Y-66114842D01*
X69387990Y-65844589D01*
X69225475Y-65601368D01*
X69018632Y-65394525D01*
X68844240Y-65278000D01*
X69018632Y-65161475D01*
X69225475Y-64954632D01*
X69387990Y-64711411D01*
X69499932Y-64441158D01*
X69557000Y-64154260D01*
X69557000Y-63861740D01*
X69499932Y-63574842D01*
X69387990Y-63304589D01*
X69225475Y-63061368D01*
X69018632Y-62854525D01*
X68844240Y-62738000D01*
X69018632Y-62621475D01*
X69225475Y-62414632D01*
X69387990Y-62171411D01*
X69414965Y-62106285D01*
X79477000Y-62106285D01*
X79477000Y-62861715D01*
X79624377Y-63602628D01*
X79913467Y-64300554D01*
X80333161Y-64928670D01*
X80867330Y-65462839D01*
X81495446Y-65882533D01*
X82193372Y-66171623D01*
X82934285Y-66319000D01*
X83689715Y-66319000D01*
X84430628Y-66171623D01*
X85128554Y-65882533D01*
X85756670Y-65462839D01*
X86290839Y-64928670D01*
X86710533Y-64300554D01*
X86999623Y-63602628D01*
X87147000Y-62861715D01*
X87147000Y-62106285D01*
X86999623Y-61365372D01*
X86710533Y-60667446D01*
X86290839Y-60039330D01*
X85756670Y-59505161D01*
X85128554Y-59085467D01*
X84430628Y-58796377D01*
X83689715Y-58649000D01*
X82934285Y-58649000D01*
X82193372Y-58796377D01*
X81495446Y-59085467D01*
X80867330Y-59505161D01*
X80333161Y-60039330D01*
X79913467Y-60667446D01*
X79624377Y-61365372D01*
X79477000Y-62106285D01*
X69414965Y-62106285D01*
X69499932Y-61901158D01*
X69557000Y-61614260D01*
X69557000Y-61321740D01*
X69499932Y-61034842D01*
X69387990Y-60764589D01*
X69225475Y-60521368D01*
X69018632Y-60314525D01*
X68775411Y-60152010D01*
X68505158Y-60040068D01*
X68218260Y-59983000D01*
X67925740Y-59983000D01*
X67638842Y-60040068D01*
X67368589Y-60152010D01*
X67125368Y-60314525D01*
X66918525Y-60521368D01*
X66756010Y-60764589D01*
X66644068Y-61034842D01*
X66587000Y-61321740D01*
X66587000Y-61614260D01*
X66644068Y-61901158D01*
X66756010Y-62171411D01*
X66918525Y-62414632D01*
X67125368Y-62621475D01*
X67299760Y-62738000D01*
X67125368Y-62854525D01*
X66918525Y-63061368D01*
X66756010Y-63304589D01*
X66644068Y-63574842D01*
X66587000Y-63861740D01*
X66587000Y-64154260D01*
X66630790Y-64374408D01*
X65979199Y-65026000D01*
X64069917Y-65026000D01*
X64089588Y-65008269D01*
X64263641Y-64774920D01*
X64388825Y-64512099D01*
X64433476Y-64364890D01*
X64312155Y-64135000D01*
X63119000Y-64135000D01*
X63119000Y-64155000D01*
X62865000Y-64155000D01*
X62865000Y-64135000D01*
X61671845Y-64135000D01*
X61550524Y-64364890D01*
X61595175Y-64512099D01*
X61720359Y-64774920D01*
X61894412Y-65008269D01*
X61914083Y-65026000D01*
X45503322Y-65026000D01*
X45465999Y-65022324D01*
X45428676Y-65026000D01*
X45428667Y-65026000D01*
X45317014Y-65036997D01*
X45173753Y-65080454D01*
X45041724Y-65151026D01*
X44925999Y-65245999D01*
X44902201Y-65274997D01*
X44194000Y-65983199D01*
X44194000Y-62521322D01*
X44197676Y-62483999D01*
X44194000Y-62446676D01*
X44194000Y-62446667D01*
X44183003Y-62335014D01*
X44139546Y-62191753D01*
X44068974Y-62059724D01*
X43974001Y-61943999D01*
X43945003Y-61920202D01*
X43489803Y-61465002D01*
X43466001Y-61435999D01*
X43350276Y-61341026D01*
X43218247Y-61270454D01*
X43074986Y-61226997D01*
X42963333Y-61216000D01*
X42963322Y-61216000D01*
X42926000Y-61212324D01*
X42888678Y-61216000D01*
X41208802Y-61216000D01*
X41003484Y-61010683D01*
X41049205Y-60942256D01*
X41127226Y-60753898D01*
X41167000Y-60553939D01*
X41167000Y-60350061D01*
X44939000Y-60350061D01*
X44939000Y-60553939D01*
X44978774Y-60753898D01*
X45056795Y-60942256D01*
X45170063Y-61111774D01*
X45314226Y-61255937D01*
X45483744Y-61369205D01*
X45672102Y-61447226D01*
X45872061Y-61487000D01*
X45949774Y-61487000D01*
X46081752Y-61557545D01*
X46225013Y-61601002D01*
X46336666Y-61611999D01*
X46336676Y-61611999D01*
X46373998Y-61615675D01*
X46411321Y-61611999D01*
X52663198Y-61611999D01*
X53067000Y-62015802D01*
X53067000Y-62077939D01*
X53106774Y-62277898D01*
X53184795Y-62466256D01*
X53298063Y-62635774D01*
X53442226Y-62779937D01*
X53611744Y-62893205D01*
X53800102Y-62971226D01*
X54000061Y-63011000D01*
X54203939Y-63011000D01*
X54403898Y-62971226D01*
X54592256Y-62893205D01*
X54761774Y-62779937D01*
X54905937Y-62635774D01*
X55019205Y-62466256D01*
X55097226Y-62277898D01*
X55137000Y-62077939D01*
X55137000Y-61874061D01*
X55097226Y-61674102D01*
X55019205Y-61485744D01*
X54909622Y-61321740D01*
X61507000Y-61321740D01*
X61507000Y-61614260D01*
X61564068Y-61901158D01*
X61676010Y-62171411D01*
X61838525Y-62414632D01*
X62045368Y-62621475D01*
X62227534Y-62743195D01*
X62110645Y-62812822D01*
X61894412Y-63007731D01*
X61720359Y-63241080D01*
X61595175Y-63503901D01*
X61550524Y-63651110D01*
X61671845Y-63881000D01*
X62865000Y-63881000D01*
X62865000Y-63861000D01*
X63119000Y-63861000D01*
X63119000Y-63881000D01*
X64312155Y-63881000D01*
X64433476Y-63651110D01*
X64388825Y-63503901D01*
X64263641Y-63241080D01*
X64089588Y-63007731D01*
X63873355Y-62812822D01*
X63756466Y-62743195D01*
X63938632Y-62621475D01*
X64145475Y-62414632D01*
X64307990Y-62171411D01*
X64419932Y-61901158D01*
X64477000Y-61614260D01*
X64477000Y-61321740D01*
X64419932Y-61034842D01*
X64307990Y-60764589D01*
X64145475Y-60521368D01*
X63938632Y-60314525D01*
X63695411Y-60152010D01*
X63425158Y-60040068D01*
X63138260Y-59983000D01*
X62845740Y-59983000D01*
X62558842Y-60040068D01*
X62288589Y-60152010D01*
X62045368Y-60314525D01*
X61838525Y-60521368D01*
X61676010Y-60764589D01*
X61564068Y-61034842D01*
X61507000Y-61321740D01*
X54909622Y-61321740D01*
X54905937Y-61316226D01*
X54761774Y-61172063D01*
X54592256Y-61058795D01*
X54403898Y-60980774D01*
X54203939Y-60941000D01*
X54141802Y-60941000D01*
X53541802Y-60341001D01*
X53518000Y-60311998D01*
X53402275Y-60217025D01*
X53270246Y-60146453D01*
X53126985Y-60102996D01*
X53015332Y-60091999D01*
X53015321Y-60091999D01*
X52977999Y-60088323D01*
X52940677Y-60091999D01*
X46945159Y-60091999D01*
X46891205Y-59961744D01*
X46777937Y-59792226D01*
X46633774Y-59648063D01*
X46464256Y-59534795D01*
X46275898Y-59456774D01*
X46075939Y-59417000D01*
X45872061Y-59417000D01*
X45672102Y-59456774D01*
X45483744Y-59534795D01*
X45314226Y-59648063D01*
X45170063Y-59792226D01*
X45056795Y-59961744D01*
X44978774Y-60150102D01*
X44939000Y-60350061D01*
X41167000Y-60350061D01*
X41127226Y-60150102D01*
X41049205Y-59961744D01*
X40935937Y-59792226D01*
X40791774Y-59648063D01*
X40622256Y-59534795D01*
X40433898Y-59456774D01*
X40233939Y-59417000D01*
X40030061Y-59417000D01*
X39830102Y-59456774D01*
X39641744Y-59534795D01*
X39472226Y-59648063D01*
X39328063Y-59792226D01*
X39214795Y-59961744D01*
X39136774Y-60150102D01*
X39097000Y-60350061D01*
X39097000Y-60553939D01*
X39136774Y-60753898D01*
X39214795Y-60942256D01*
X39328063Y-61111774D01*
X39372000Y-61155711D01*
X39372000Y-61176678D01*
X39368324Y-61214000D01*
X39372000Y-61251322D01*
X39372000Y-61251333D01*
X39382997Y-61362986D01*
X39408397Y-61446718D01*
X39426454Y-61506246D01*
X39497026Y-61638276D01*
X39564361Y-61720323D01*
X39592000Y-61754001D01*
X39620998Y-61777799D01*
X40330201Y-62487002D01*
X40353999Y-62516001D01*
X40469724Y-62610974D01*
X40601753Y-62681546D01*
X40745014Y-62725003D01*
X40856667Y-62736000D01*
X40856675Y-62736000D01*
X40894000Y-62739676D01*
X40931325Y-62736000D01*
X42611199Y-62736000D01*
X42674000Y-62798802D01*
X42674000Y-63508000D01*
X35585000Y-63508000D01*
X35585000Y-57556000D01*
X90145000Y-57556000D01*
X90145001Y-74262581D01*
G37*
X90145001Y-74262581D02*
X90145000Y-137135000D01*
X35585000Y-137135000D01*
X35585000Y-132210285D01*
X39345000Y-132210285D01*
X39345000Y-132965715D01*
X39492377Y-133706628D01*
X39781467Y-134404554D01*
X40201161Y-135032670D01*
X40735330Y-135566839D01*
X41363446Y-135986533D01*
X42061372Y-136275623D01*
X42802285Y-136423000D01*
X43557715Y-136423000D01*
X44298628Y-136275623D01*
X44996554Y-135986533D01*
X45624670Y-135566839D01*
X46158839Y-135032670D01*
X46578533Y-134404554D01*
X46867623Y-133706628D01*
X47015000Y-132965715D01*
X47015000Y-132210285D01*
X46944552Y-131856119D01*
X64159000Y-131856119D01*
X64159000Y-133065882D01*
X64189892Y-133379533D01*
X64311974Y-133781982D01*
X64510224Y-134152881D01*
X64777024Y-134477977D01*
X65102120Y-134744777D01*
X65473019Y-134943026D01*
X65875468Y-135065108D01*
X66294000Y-135106330D01*
X66712533Y-135065108D01*
X67114982Y-134943026D01*
X67485881Y-134744777D01*
X67810977Y-134477977D01*
X68077777Y-134152881D01*
X68276026Y-133781981D01*
X68398108Y-133379532D01*
X68429000Y-133065881D01*
X68429000Y-131856119D01*
X69239000Y-131856119D01*
X69239000Y-133065882D01*
X69269892Y-133379533D01*
X69391974Y-133781982D01*
X69590224Y-134152881D01*
X69857024Y-134477977D01*
X70182120Y-134744777D01*
X70553019Y-134943026D01*
X70955468Y-135065108D01*
X71374000Y-135106330D01*
X71792533Y-135065108D01*
X72194982Y-134943026D01*
X72565881Y-134744777D01*
X72890977Y-134477977D01*
X73157777Y-134152881D01*
X73356026Y-133781981D01*
X73478108Y-133379532D01*
X73509000Y-133065881D01*
X73509000Y-132210285D01*
X79477000Y-132210285D01*
X79477000Y-132965715D01*
X79624377Y-133706628D01*
X79913467Y-134404554D01*
X80333161Y-135032670D01*
X80867330Y-135566839D01*
X81495446Y-135986533D01*
X82193372Y-136275623D01*
X82934285Y-136423000D01*
X83689715Y-136423000D01*
X84430628Y-136275623D01*
X85128554Y-135986533D01*
X85756670Y-135566839D01*
X86290839Y-135032670D01*
X86710533Y-134404554D01*
X86999623Y-133706628D01*
X87147000Y-132965715D01*
X87147000Y-132210285D01*
X86999623Y-131469372D01*
X86710533Y-130771446D01*
X86290839Y-130143330D01*
X85756670Y-129609161D01*
X85128554Y-129189467D01*
X84430628Y-128900377D01*
X83689715Y-128753000D01*
X82934285Y-128753000D01*
X82193372Y-128900377D01*
X81495446Y-129189467D01*
X80867330Y-129609161D01*
X80333161Y-130143330D01*
X79913467Y-130771446D01*
X79624377Y-131469372D01*
X79477000Y-132210285D01*
X73509000Y-132210285D01*
X73509000Y-131856118D01*
X73478108Y-131542467D01*
X73356026Y-131140018D01*
X73157777Y-130769119D01*
X72890977Y-130444023D01*
X72565881Y-130177223D01*
X72194981Y-129978974D01*
X71792532Y-129856892D01*
X71374000Y-129815670D01*
X70955467Y-129856892D01*
X70553018Y-129978974D01*
X70182119Y-130177223D01*
X69857023Y-130444023D01*
X69590223Y-130769119D01*
X69391974Y-131140019D01*
X69269892Y-131542468D01*
X69239000Y-131856119D01*
X68429000Y-131856119D01*
X68429000Y-131856118D01*
X68398108Y-131542467D01*
X68276026Y-131140018D01*
X68077777Y-130769119D01*
X67810977Y-130444023D01*
X67485881Y-130177223D01*
X67114981Y-129978974D01*
X66712532Y-129856892D01*
X66294000Y-129815670D01*
X65875467Y-129856892D01*
X65473018Y-129978974D01*
X65102119Y-130177223D01*
X64777023Y-130444023D01*
X64510223Y-130769119D01*
X64311974Y-131140019D01*
X64189892Y-131542468D01*
X64159000Y-131856119D01*
X46944552Y-131856119D01*
X46867623Y-131469372D01*
X46578533Y-130771446D01*
X46158839Y-130143330D01*
X45624670Y-129609161D01*
X44996554Y-129189467D01*
X44298628Y-128900377D01*
X43557715Y-128753000D01*
X42802285Y-128753000D01*
X42061372Y-128900377D01*
X41363446Y-129189467D01*
X40735330Y-129609161D01*
X40201161Y-130143330D01*
X39781467Y-130771446D01*
X39492377Y-131469372D01*
X39345000Y-132210285D01*
X35585000Y-132210285D01*
X35585000Y-125087413D01*
X60004192Y-125087413D01*
X60099956Y-125351814D01*
X60389571Y-125492704D01*
X60701108Y-125574384D01*
X61022595Y-125593718D01*
X61341675Y-125549961D01*
X61646088Y-125444795D01*
X61820044Y-125351814D01*
X61915808Y-125087413D01*
X60960000Y-124131605D01*
X60004192Y-125087413D01*
X35585000Y-125087413D01*
X35585000Y-122936000D01*
X40267089Y-122936000D01*
X40271928Y-122985130D01*
X40271928Y-123888500D01*
X40284188Y-124012982D01*
X40320498Y-124132680D01*
X40379463Y-124242994D01*
X40458815Y-124339685D01*
X40555506Y-124419037D01*
X40665820Y-124478002D01*
X40785518Y-124514312D01*
X40910000Y-124526572D01*
X41215352Y-124526572D01*
X41251248Y-124556031D01*
X41535285Y-124707852D01*
X41843484Y-124801343D01*
X42083678Y-124825000D01*
X42083680Y-124825000D01*
X42163999Y-124832911D01*
X42244319Y-124825000D01*
X48340322Y-124825000D01*
X48580516Y-124801343D01*
X48888715Y-124707852D01*
X49037973Y-124628072D01*
X49060000Y-124628072D01*
X49184482Y-124615812D01*
X49304180Y-124579502D01*
X49414494Y-124520537D01*
X49511185Y-124441185D01*
X49590537Y-124344494D01*
X49649502Y-124234180D01*
X49665117Y-124182702D01*
X50946903Y-124182702D01*
X51018486Y-124426671D01*
X51273996Y-124547571D01*
X51548184Y-124616300D01*
X51830512Y-124630217D01*
X52110130Y-124588787D01*
X52376292Y-124493603D01*
X52501514Y-124426671D01*
X52573097Y-124182702D01*
X52404990Y-124014595D01*
X59318282Y-124014595D01*
X59362039Y-124333675D01*
X59467205Y-124638088D01*
X59560186Y-124812044D01*
X59824587Y-124907808D01*
X60780395Y-123952000D01*
X61139605Y-123952000D01*
X62095413Y-124907808D01*
X62359814Y-124812044D01*
X62500704Y-124522429D01*
X62582384Y-124210892D01*
X62601718Y-123889405D01*
X62588219Y-123790967D01*
X67248500Y-123790967D01*
X67248500Y-124113033D01*
X67311332Y-124428912D01*
X67434582Y-124726463D01*
X67613513Y-124994252D01*
X67841248Y-125221987D01*
X68109037Y-125400918D01*
X68406588Y-125524168D01*
X68722467Y-125587000D01*
X69044533Y-125587000D01*
X69360412Y-125524168D01*
X69657963Y-125400918D01*
X69925752Y-125221987D01*
X70153487Y-124994252D01*
X70332418Y-124726463D01*
X70455668Y-124428912D01*
X70518500Y-124113033D01*
X70518500Y-123790967D01*
X74755500Y-123790967D01*
X74755500Y-124113033D01*
X74818332Y-124428912D01*
X74941582Y-124726463D01*
X75120513Y-124994252D01*
X75348248Y-125221987D01*
X75616037Y-125400918D01*
X75913588Y-125524168D01*
X76229467Y-125587000D01*
X76551533Y-125587000D01*
X76867412Y-125524168D01*
X77164963Y-125400918D01*
X77432752Y-125221987D01*
X77660487Y-124994252D01*
X77839418Y-124726463D01*
X77962668Y-124428912D01*
X78025500Y-124113033D01*
X78025500Y-123790967D01*
X77962668Y-123475088D01*
X77839418Y-123177537D01*
X77688719Y-122952000D01*
X82245428Y-122952000D01*
X82245428Y-124952000D01*
X82257688Y-125076482D01*
X82293998Y-125196180D01*
X82352963Y-125306494D01*
X82432315Y-125403185D01*
X82529006Y-125482537D01*
X82639320Y-125541502D01*
X82759018Y-125577812D01*
X82883500Y-125590072D01*
X84883500Y-125590072D01*
X85007982Y-125577812D01*
X85127680Y-125541502D01*
X85237994Y-125482537D01*
X85334685Y-125403185D01*
X85414037Y-125306494D01*
X85473002Y-125196180D01*
X85509312Y-125076482D01*
X85521572Y-124952000D01*
X85521572Y-122952000D01*
X85509312Y-122827518D01*
X85473002Y-122707820D01*
X85414037Y-122597506D01*
X85334685Y-122500815D01*
X85237994Y-122421463D01*
X85127680Y-122362498D01*
X85007982Y-122326188D01*
X84883500Y-122313928D01*
X82883500Y-122313928D01*
X82759018Y-122326188D01*
X82639320Y-122362498D01*
X82529006Y-122421463D01*
X82432315Y-122500815D01*
X82352963Y-122597506D01*
X82293998Y-122707820D01*
X82257688Y-122827518D01*
X82245428Y-122952000D01*
X77688719Y-122952000D01*
X77660487Y-122909748D01*
X77432752Y-122682013D01*
X77164963Y-122503082D01*
X76867412Y-122379832D01*
X76551533Y-122317000D01*
X76229467Y-122317000D01*
X75913588Y-122379832D01*
X75616037Y-122503082D01*
X75348248Y-122682013D01*
X75120513Y-122909748D01*
X74941582Y-123177537D01*
X74818332Y-123475088D01*
X74755500Y-123790967D01*
X70518500Y-123790967D01*
X70455668Y-123475088D01*
X70332418Y-123177537D01*
X70153487Y-122909748D01*
X69925752Y-122682013D01*
X69657963Y-122503082D01*
X69360412Y-122379832D01*
X69044533Y-122317000D01*
X68722467Y-122317000D01*
X68406588Y-122379832D01*
X68109037Y-122503082D01*
X67841248Y-122682013D01*
X67613513Y-122909748D01*
X67434582Y-123177537D01*
X67311332Y-123475088D01*
X67248500Y-123790967D01*
X62588219Y-123790967D01*
X62557961Y-123570325D01*
X62452795Y-123265912D01*
X62359814Y-123091956D01*
X62095413Y-122996192D01*
X61139605Y-123952000D01*
X60780395Y-123952000D01*
X59824587Y-122996192D01*
X59560186Y-123091956D01*
X59419296Y-123381571D01*
X59337616Y-123693108D01*
X59318282Y-124014595D01*
X52404990Y-124014595D01*
X51760000Y-123369605D01*
X50946903Y-124182702D01*
X49665117Y-124182702D01*
X49685812Y-124114482D01*
X49698072Y-123990000D01*
X49698072Y-123967973D01*
X49777852Y-123818715D01*
X49871343Y-123510516D01*
X49895966Y-123260512D01*
X50319783Y-123260512D01*
X50361213Y-123540130D01*
X50456397Y-123806292D01*
X50523329Y-123931514D01*
X50767298Y-124003097D01*
X51580395Y-123190000D01*
X51939605Y-123190000D01*
X52752702Y-124003097D01*
X52996671Y-123931514D01*
X53117571Y-123676004D01*
X53186300Y-123401816D01*
X53200217Y-123119488D01*
X53158787Y-122839870D01*
X53150461Y-122816587D01*
X60004192Y-122816587D01*
X60960000Y-123772395D01*
X61915808Y-122816587D01*
X61820044Y-122552186D01*
X61530429Y-122411296D01*
X61218892Y-122329616D01*
X60897405Y-122310282D01*
X60578325Y-122354039D01*
X60273912Y-122459205D01*
X60099956Y-122552186D01*
X60004192Y-122816587D01*
X53150461Y-122816587D01*
X53063603Y-122573708D01*
X52996671Y-122448486D01*
X52752702Y-122376903D01*
X51939605Y-123190000D01*
X51580395Y-123190000D01*
X50767298Y-122376903D01*
X50523329Y-122448486D01*
X50402429Y-122703996D01*
X50333700Y-122978184D01*
X50319783Y-123260512D01*
X49895966Y-123260512D01*
X49902911Y-123190000D01*
X49871343Y-122869484D01*
X49777852Y-122561285D01*
X49698072Y-122412027D01*
X49698072Y-122390000D01*
X49685812Y-122265518D01*
X49665118Y-122197298D01*
X50946903Y-122197298D01*
X51760000Y-123010395D01*
X52573097Y-122197298D01*
X52501514Y-121953329D01*
X52246004Y-121832429D01*
X51971816Y-121763700D01*
X51689488Y-121749783D01*
X51409870Y-121791213D01*
X51143708Y-121886397D01*
X51018486Y-121953329D01*
X50946903Y-122197298D01*
X49665118Y-122197298D01*
X49649502Y-122145820D01*
X49590537Y-122035506D01*
X49511185Y-121938815D01*
X49414494Y-121859463D01*
X49304180Y-121800498D01*
X49184482Y-121764188D01*
X49060000Y-121751928D01*
X49037973Y-121751928D01*
X48888715Y-121672148D01*
X48580516Y-121578657D01*
X48340322Y-121555000D01*
X43379802Y-121555000D01*
X43361185Y-121532315D01*
X43264494Y-121452963D01*
X43172781Y-121403941D01*
X43285969Y-121262923D01*
X43429571Y-120987094D01*
X43500563Y-120768980D01*
X43380594Y-120523000D01*
X42037000Y-120523000D01*
X42037000Y-120543000D01*
X41783000Y-120543000D01*
X41783000Y-120523000D01*
X40439406Y-120523000D01*
X40319437Y-120768980D01*
X40390429Y-120987094D01*
X40534031Y-121262923D01*
X40647219Y-121403941D01*
X40555506Y-121452963D01*
X40458815Y-121532315D01*
X40379463Y-121629006D01*
X40320498Y-121739320D01*
X40284188Y-121859018D01*
X40271928Y-121983500D01*
X40271928Y-122886870D01*
X40267089Y-122936000D01*
X35585000Y-122936000D01*
X35585000Y-117856000D01*
X40267319Y-117856000D01*
X40297970Y-118167204D01*
X40388745Y-118466449D01*
X40536155Y-118742235D01*
X40734537Y-118983963D01*
X40913899Y-119131163D01*
X40728685Y-119286563D01*
X40534031Y-119529077D01*
X40390429Y-119804906D01*
X40319437Y-120023020D01*
X40439406Y-120269000D01*
X41783000Y-120269000D01*
X41783000Y-120249000D01*
X42037000Y-120249000D01*
X42037000Y-120269000D01*
X43380594Y-120269000D01*
X43500563Y-120023020D01*
X43429571Y-119804906D01*
X43285969Y-119529077D01*
X43091315Y-119286563D01*
X42906101Y-119131163D01*
X43085463Y-118983963D01*
X43283845Y-118742235D01*
X43431255Y-118466449D01*
X43522030Y-118167204D01*
X43552681Y-117856000D01*
X43522030Y-117544796D01*
X43431255Y-117245551D01*
X43283845Y-116969765D01*
X43085463Y-116728037D01*
X42920000Y-116592244D01*
X42920000Y-116571855D01*
X43546855Y-115945000D01*
X52575130Y-115945000D01*
X52585498Y-115979180D01*
X52644463Y-116089494D01*
X52723815Y-116186185D01*
X52820506Y-116265537D01*
X52930820Y-116324502D01*
X53050518Y-116360812D01*
X53175000Y-116373072D01*
X54775000Y-116373072D01*
X54899482Y-116360812D01*
X55019180Y-116324502D01*
X55129494Y-116265537D01*
X55226185Y-116186185D01*
X55305537Y-116089494D01*
X55364502Y-115979180D01*
X55380117Y-115927702D01*
X56661903Y-115927702D01*
X56733486Y-116171671D01*
X56988996Y-116292571D01*
X57263184Y-116361300D01*
X57545512Y-116375217D01*
X57825130Y-116333787D01*
X58091292Y-116238603D01*
X58216514Y-116171671D01*
X58288097Y-115927702D01*
X57475000Y-115114605D01*
X56661903Y-115927702D01*
X55380117Y-115927702D01*
X55400812Y-115859482D01*
X55413072Y-115735000D01*
X55413072Y-115005512D01*
X56034783Y-115005512D01*
X56076213Y-115285130D01*
X56171397Y-115551292D01*
X56238329Y-115676514D01*
X56482298Y-115748097D01*
X57295395Y-114935000D01*
X57654605Y-114935000D01*
X58467702Y-115748097D01*
X58711671Y-115676514D01*
X58832571Y-115421004D01*
X58901300Y-115146816D01*
X58915217Y-114864488D01*
X58873787Y-114584870D01*
X58778603Y-114318708D01*
X58756151Y-114276702D01*
X73394903Y-114276702D01*
X73466486Y-114520671D01*
X73721996Y-114641571D01*
X73996184Y-114710300D01*
X74278512Y-114724217D01*
X74558130Y-114682787D01*
X74824292Y-114587603D01*
X74949514Y-114520671D01*
X75021097Y-114276702D01*
X74208000Y-113463605D01*
X73394903Y-114276702D01*
X58756151Y-114276702D01*
X58711671Y-114193486D01*
X58467702Y-114121903D01*
X57654605Y-114935000D01*
X57295395Y-114935000D01*
X56482298Y-114121903D01*
X56238329Y-114193486D01*
X56117429Y-114448996D01*
X56048700Y-114723184D01*
X56034783Y-115005512D01*
X55413072Y-115005512D01*
X55413072Y-114135000D01*
X55400812Y-114010518D01*
X55380118Y-113942298D01*
X56661903Y-113942298D01*
X57475000Y-114755395D01*
X58288097Y-113942298D01*
X58216514Y-113698329D01*
X57961004Y-113577429D01*
X57686816Y-113508700D01*
X57404488Y-113494783D01*
X57124870Y-113536213D01*
X56858708Y-113631397D01*
X56733486Y-113698329D01*
X56661903Y-113942298D01*
X55380118Y-113942298D01*
X55364502Y-113890820D01*
X55305537Y-113780506D01*
X55226185Y-113683815D01*
X55129494Y-113604463D01*
X55019180Y-113545498D01*
X54899482Y-113509188D01*
X54775000Y-113496928D01*
X53175000Y-113496928D01*
X53050518Y-113509188D01*
X52930820Y-113545498D01*
X52820506Y-113604463D01*
X52723815Y-113683815D01*
X52644463Y-113780506D01*
X52585498Y-113890820D01*
X52575130Y-113925000D01*
X43178104Y-113925000D01*
X43128499Y-113920114D01*
X43078894Y-113925000D01*
X43078892Y-113925000D01*
X42930506Y-113939615D01*
X42740120Y-113997368D01*
X42564660Y-114091153D01*
X42410867Y-114217367D01*
X42379239Y-114255906D01*
X41230906Y-115404239D01*
X41192367Y-115435867D01*
X41066153Y-115589660D01*
X40972369Y-115765120D01*
X40972368Y-115765121D01*
X40914615Y-115955506D01*
X40895114Y-116153500D01*
X40900000Y-116203108D01*
X40900000Y-116592244D01*
X40734537Y-116728037D01*
X40536155Y-116969765D01*
X40388745Y-117245551D01*
X40297970Y-117544796D01*
X40267319Y-117856000D01*
X35585000Y-117856000D01*
X35585000Y-97942061D01*
X36557000Y-97942061D01*
X36557000Y-98145939D01*
X36596774Y-98345898D01*
X36674795Y-98534256D01*
X36788063Y-98703774D01*
X36932226Y-98847937D01*
X37101744Y-98961205D01*
X37290102Y-99039226D01*
X37490061Y-99079000D01*
X37693939Y-99079000D01*
X37893898Y-99039226D01*
X38082256Y-98961205D01*
X38251774Y-98847937D01*
X38395937Y-98703774D01*
X38509205Y-98534256D01*
X38587226Y-98345898D01*
X38627000Y-98145939D01*
X38627000Y-97942061D01*
X38587226Y-97742102D01*
X38509205Y-97553744D01*
X38477000Y-97505546D01*
X38477000Y-97158285D01*
X39345000Y-97158285D01*
X39345000Y-97913715D01*
X39492377Y-98654628D01*
X39781467Y-99352554D01*
X40201161Y-99980670D01*
X40735330Y-100514839D01*
X41363446Y-100934533D01*
X42061372Y-101223623D01*
X42802285Y-101371000D01*
X43557715Y-101371000D01*
X44298628Y-101223623D01*
X44996554Y-100934533D01*
X45624670Y-100514839D01*
X46158839Y-99980670D01*
X46578533Y-99352554D01*
X46867623Y-98654628D01*
X47015000Y-97913715D01*
X47015000Y-97158285D01*
X46867623Y-96417372D01*
X46578533Y-95719446D01*
X46158839Y-95091330D01*
X45624670Y-94557161D01*
X44996554Y-94137467D01*
X44298628Y-93848377D01*
X43557715Y-93701000D01*
X42802285Y-93701000D01*
X42061372Y-93848377D01*
X41363446Y-94137467D01*
X40735330Y-94557161D01*
X40201161Y-95091330D01*
X39781467Y-95719446D01*
X39492377Y-96417372D01*
X39345000Y-97158285D01*
X38477000Y-97158285D01*
X38477000Y-95870578D01*
X48963050Y-85384529D01*
X48996818Y-85356816D01*
X49107412Y-85222058D01*
X49189590Y-85068312D01*
X49240196Y-84901489D01*
X49253001Y-84771476D01*
X49253001Y-84771468D01*
X49257282Y-84727999D01*
X49253001Y-84684530D01*
X49253001Y-83215382D01*
X49258256Y-83213205D01*
X49427774Y-83099937D01*
X49571937Y-82955774D01*
X49685205Y-82786256D01*
X49720079Y-82702061D01*
X49765000Y-82702061D01*
X49765000Y-82905939D01*
X49804774Y-83105898D01*
X49882795Y-83294256D01*
X49973455Y-83429938D01*
X49923000Y-83683589D01*
X49923000Y-83956411D01*
X49976225Y-84223989D01*
X50080629Y-84476043D01*
X50232201Y-84702886D01*
X50425114Y-84895799D01*
X50651957Y-85047371D01*
X50904011Y-85151775D01*
X51171589Y-85205000D01*
X51444411Y-85205000D01*
X51711989Y-85151775D01*
X51964043Y-85047371D01*
X52190886Y-84895799D01*
X52383799Y-84702886D01*
X52535371Y-84476043D01*
X52639775Y-84223989D01*
X52693000Y-83956411D01*
X52693000Y-83683589D01*
X52639775Y-83416011D01*
X52535371Y-83163957D01*
X52383799Y-82937114D01*
X52190886Y-82744201D01*
X51964043Y-82592629D01*
X51799692Y-82524553D01*
X51795226Y-82502102D01*
X51717205Y-82313744D01*
X51603937Y-82144226D01*
X51459774Y-82000063D01*
X51290256Y-81886795D01*
X51101898Y-81808774D01*
X50901939Y-81769000D01*
X50698061Y-81769000D01*
X50498102Y-81808774D01*
X50309744Y-81886795D01*
X50140226Y-82000063D01*
X49996063Y-82144226D01*
X49882795Y-82313744D01*
X49804774Y-82502102D01*
X49765000Y-82702061D01*
X49720079Y-82702061D01*
X49763226Y-82597898D01*
X49803000Y-82397939D01*
X49803000Y-82194061D01*
X49763226Y-81994102D01*
X49685205Y-81805744D01*
X49571937Y-81636226D01*
X49427774Y-81492063D01*
X49258256Y-81378795D01*
X49069898Y-81300774D01*
X48869939Y-81261000D01*
X48666061Y-81261000D01*
X48466102Y-81300774D01*
X48277744Y-81378795D01*
X48108226Y-81492063D01*
X47964063Y-81636226D01*
X47850795Y-81805744D01*
X47772774Y-81994102D01*
X47761955Y-82048494D01*
X47739184Y-82067182D01*
X47628590Y-82201941D01*
X47546412Y-82355687D01*
X47514769Y-82459998D01*
X47495806Y-82522509D01*
X47494846Y-82532256D01*
X47483001Y-82652523D01*
X47483001Y-82652530D01*
X47478720Y-82695999D01*
X47483001Y-82739468D01*
X47483001Y-83230662D01*
X47455371Y-83163957D01*
X47303799Y-82937114D01*
X47110886Y-82744201D01*
X46885865Y-82593846D01*
X46928937Y-82550774D01*
X47042205Y-82381256D01*
X47120226Y-82192898D01*
X47160000Y-81992939D01*
X47160000Y-81789061D01*
X47120226Y-81589102D01*
X47042205Y-81400744D01*
X46928937Y-81231226D01*
X46784774Y-81087063D01*
X46615256Y-80973795D01*
X46426898Y-80895774D01*
X46226939Y-80856000D01*
X46023061Y-80856000D01*
X45823102Y-80895774D01*
X45634744Y-80973795D01*
X45465226Y-81087063D01*
X45321063Y-81231226D01*
X45207795Y-81400744D01*
X45129774Y-81589102D01*
X45090000Y-81789061D01*
X45090000Y-81992939D01*
X45129774Y-82192898D01*
X45207795Y-82381256D01*
X45321063Y-82550774D01*
X45365000Y-82594711D01*
X45365000Y-82730913D01*
X45345114Y-82744201D01*
X45152201Y-82937114D01*
X45000629Y-83163957D01*
X44896225Y-83416011D01*
X44843000Y-83683589D01*
X44843000Y-83956411D01*
X44896225Y-84223989D01*
X45000629Y-84476043D01*
X45152201Y-84702886D01*
X45345114Y-84895799D01*
X45571957Y-85047371D01*
X45824011Y-85151775D01*
X46091589Y-85205000D01*
X46364411Y-85205000D01*
X46631989Y-85151775D01*
X46735537Y-85108884D01*
X36996956Y-94847466D01*
X36963183Y-94875183D01*
X36852589Y-95009942D01*
X36770411Y-95163688D01*
X36719805Y-95330511D01*
X36707000Y-95460524D01*
X36707000Y-95460531D01*
X36702719Y-95504000D01*
X36707000Y-95547469D01*
X36707001Y-97505545D01*
X36674795Y-97553744D01*
X36596774Y-97742102D01*
X36557000Y-97942061D01*
X35585000Y-97942061D01*
X35585000Y-80002000D01*
X43125000Y-80002000D01*
X43149776Y-79999560D01*
X43173601Y-79992333D01*
X43195557Y-79980597D01*
X43214803Y-79964803D01*
X43230597Y-79945557D01*
X43242333Y-79923601D01*
X43249560Y-79899776D01*
X43252000Y-79875000D01*
X43252000Y-72449801D01*
X44648135Y-73845936D01*
X44652992Y-73895255D01*
X44703528Y-74061851D01*
X44785595Y-74215387D01*
X44896038Y-74349962D01*
X44983816Y-74422000D01*
X44896038Y-74494038D01*
X44785595Y-74628613D01*
X44703528Y-74782149D01*
X44652992Y-74948745D01*
X44635928Y-75121999D01*
X44635928Y-75772001D01*
X44652992Y-75945255D01*
X44703528Y-76111851D01*
X44785595Y-76265387D01*
X44896038Y-76399962D01*
X45030613Y-76510405D01*
X45184149Y-76592472D01*
X45350745Y-76643008D01*
X45354720Y-76643400D01*
X45407737Y-76708000D01*
X45434000Y-76740001D01*
X45462998Y-76763799D01*
X45701000Y-77001801D01*
X45701000Y-77063939D01*
X45740774Y-77263898D01*
X45818795Y-77452256D01*
X45932063Y-77621774D01*
X46076226Y-77765937D01*
X46245744Y-77879205D01*
X46434102Y-77957226D01*
X46634061Y-77997000D01*
X46837939Y-77997000D01*
X47037898Y-77957226D01*
X47226256Y-77879205D01*
X47395774Y-77765937D01*
X47539937Y-77621774D01*
X47653205Y-77452256D01*
X47731226Y-77263898D01*
X47771000Y-77063939D01*
X47771000Y-76860061D01*
X47731226Y-76660102D01*
X47653205Y-76471744D01*
X47539937Y-76302226D01*
X47395774Y-76158063D01*
X47258315Y-76066216D01*
X47295008Y-75945255D01*
X47312072Y-75772001D01*
X47312072Y-75121999D01*
X47295008Y-74948745D01*
X47244472Y-74782149D01*
X47162405Y-74628613D01*
X47051962Y-74494038D01*
X46964184Y-74422000D01*
X47051962Y-74349962D01*
X47162405Y-74215387D01*
X47188803Y-74166000D01*
X47302289Y-74166000D01*
X47346226Y-74209937D01*
X47515744Y-74323205D01*
X47704102Y-74401226D01*
X47904061Y-74441000D01*
X48106732Y-74441000D01*
X48048629Y-74527957D01*
X47944225Y-74780011D01*
X47891000Y-75047589D01*
X47891000Y-75320411D01*
X47944225Y-75587989D01*
X48048629Y-75840043D01*
X48200201Y-76066886D01*
X48393114Y-76259799D01*
X48619957Y-76411371D01*
X48872011Y-76515775D01*
X49139589Y-76569000D01*
X49412411Y-76569000D01*
X49557365Y-76540167D01*
X50236205Y-77219008D01*
X50259999Y-77248001D01*
X50288992Y-77271795D01*
X50288996Y-77271799D01*
X50345996Y-77318577D01*
X50375724Y-77342974D01*
X50507753Y-77413546D01*
X50651014Y-77457003D01*
X50762667Y-77468000D01*
X50762676Y-77468000D01*
X50799999Y-77471676D01*
X50837322Y-77468000D01*
X51112289Y-77468000D01*
X51156226Y-77511937D01*
X51325744Y-77625205D01*
X51514102Y-77703226D01*
X51714061Y-77743000D01*
X51917939Y-77743000D01*
X52117898Y-77703226D01*
X52306256Y-77625205D01*
X52475774Y-77511937D01*
X52619937Y-77367774D01*
X52733205Y-77198256D01*
X52811226Y-77009898D01*
X52812864Y-77001665D01*
X53672645Y-77861447D01*
X53721026Y-77951961D01*
X53757989Y-77997000D01*
X53815999Y-78067686D01*
X53845003Y-78091489D01*
X59449516Y-83696003D01*
X59473314Y-83725001D01*
X59502312Y-83748799D01*
X59589039Y-83819974D01*
X59721068Y-83890546D01*
X59864276Y-83933987D01*
X59919226Y-83988937D01*
X60088744Y-84102205D01*
X60277102Y-84180226D01*
X60477061Y-84220000D01*
X60680939Y-84220000D01*
X60880898Y-84180226D01*
X61069256Y-84102205D01*
X61238774Y-83988937D01*
X61382937Y-83844774D01*
X61496205Y-83675256D01*
X61574226Y-83486898D01*
X61614000Y-83286939D01*
X61614000Y-83219999D01*
X61714947Y-83219999D01*
X61742774Y-83359898D01*
X61820795Y-83548256D01*
X61934063Y-83717774D01*
X62078226Y-83861937D01*
X62247744Y-83975205D01*
X62436102Y-84053226D01*
X62636061Y-84093000D01*
X62839939Y-84093000D01*
X63039898Y-84053226D01*
X63228256Y-83975205D01*
X63397774Y-83861937D01*
X63541937Y-83717774D01*
X63655205Y-83548256D01*
X63733226Y-83359898D01*
X63773000Y-83159939D01*
X63773000Y-83042974D01*
X63801898Y-83037226D01*
X63990256Y-82959205D01*
X64159774Y-82845937D01*
X64194710Y-82811001D01*
X64877802Y-82811001D01*
X64830553Y-82825334D01*
X64633377Y-82930726D01*
X64460551Y-83072561D01*
X64318716Y-83245387D01*
X64213324Y-83442563D01*
X64148423Y-83656511D01*
X64126509Y-83879010D01*
X64148423Y-84101509D01*
X64213324Y-84315457D01*
X64298066Y-84474000D01*
X59480741Y-84474000D01*
X59424999Y-84468510D01*
X59369257Y-84474000D01*
X59369248Y-84474000D01*
X59202501Y-84490423D01*
X58988553Y-84555324D01*
X58791377Y-84660716D01*
X58618551Y-84802551D01*
X58583004Y-84845865D01*
X58203869Y-85225000D01*
X49982248Y-85225000D01*
X49815501Y-85241423D01*
X49601553Y-85306324D01*
X49404377Y-85411716D01*
X49231551Y-85553551D01*
X49089716Y-85726377D01*
X48984324Y-85923553D01*
X48919423Y-86137501D01*
X48897509Y-86360000D01*
X48919423Y-86582499D01*
X48984324Y-86796447D01*
X49089716Y-86993623D01*
X49231551Y-87166449D01*
X49404377Y-87308284D01*
X49601553Y-87413676D01*
X49815501Y-87478577D01*
X49982248Y-87495000D01*
X58219868Y-87495000D01*
X50958614Y-94756255D01*
X50915300Y-94791802D01*
X50773465Y-94964628D01*
X50668074Y-95161804D01*
X50668073Y-95161805D01*
X50603172Y-95375753D01*
X50581258Y-95598251D01*
X50586749Y-95654002D01*
X50586750Y-108844118D01*
X49020861Y-110410008D01*
X49020856Y-110410012D01*
X47896856Y-111534013D01*
X47418012Y-112012857D01*
X47311717Y-112142378D01*
X47206324Y-112339554D01*
X47141423Y-112553502D01*
X47119509Y-112776000D01*
X47141423Y-112998498D01*
X47206324Y-113212446D01*
X47311717Y-113409622D01*
X47453552Y-113582448D01*
X47626378Y-113724283D01*
X47823554Y-113829676D01*
X48037502Y-113894577D01*
X48260000Y-113916491D01*
X48482498Y-113894577D01*
X48696446Y-113829676D01*
X48893622Y-113724283D01*
X49023143Y-113617988D01*
X49286619Y-113354512D01*
X72767783Y-113354512D01*
X72809213Y-113634130D01*
X72904397Y-113900292D01*
X72971329Y-114025514D01*
X73215298Y-114097097D01*
X74028395Y-113284000D01*
X74387605Y-113284000D01*
X75200702Y-114097097D01*
X75269928Y-114076785D01*
X75269928Y-114084000D01*
X75282188Y-114208482D01*
X75318498Y-114328180D01*
X75377463Y-114438494D01*
X75456815Y-114535185D01*
X75553506Y-114614537D01*
X75663820Y-114673502D01*
X75783518Y-114709812D01*
X75908000Y-114722072D01*
X77508000Y-114722072D01*
X77632482Y-114709812D01*
X77752180Y-114673502D01*
X77862494Y-114614537D01*
X77959185Y-114535185D01*
X78038537Y-114438494D01*
X78097502Y-114328180D01*
X78133812Y-114208482D01*
X78146072Y-114084000D01*
X78146072Y-112484000D01*
X78133812Y-112359518D01*
X78097502Y-112239820D01*
X78038537Y-112129506D01*
X77959185Y-112032815D01*
X77862494Y-111953463D01*
X77752180Y-111894498D01*
X77632482Y-111858188D01*
X77508000Y-111845928D01*
X75908000Y-111845928D01*
X75783518Y-111858188D01*
X75663820Y-111894498D01*
X75553506Y-111953463D01*
X75456815Y-112032815D01*
X75377463Y-112129506D01*
X75318498Y-112239820D01*
X75282188Y-112359518D01*
X75269928Y-112484000D01*
X75269928Y-112491215D01*
X75200702Y-112470903D01*
X74387605Y-113284000D01*
X74028395Y-113284000D01*
X73215298Y-112470903D01*
X72971329Y-112542486D01*
X72850429Y-112797996D01*
X72781700Y-113072184D01*
X72767783Y-113354512D01*
X49286619Y-113354512D01*
X49501987Y-113139144D01*
X50349833Y-112291298D01*
X73394903Y-112291298D01*
X74208000Y-113104395D01*
X75021097Y-112291298D01*
X74949514Y-112047329D01*
X74694004Y-111926429D01*
X74419816Y-111857700D01*
X74137488Y-111843783D01*
X73857870Y-111885213D01*
X73591708Y-111980397D01*
X73466486Y-112047329D01*
X73394903Y-112291298D01*
X50349833Y-112291298D01*
X50625988Y-112015144D01*
X50625992Y-112015139D01*
X52484890Y-110156242D01*
X52528198Y-110120700D01*
X52670033Y-109947874D01*
X52775425Y-109750698D01*
X52840326Y-109536750D01*
X52856749Y-109370003D01*
X52862240Y-109314251D01*
X52856749Y-109258500D01*
X52856749Y-96068382D01*
X60795132Y-88130000D01*
X64542666Y-88130000D01*
X64467148Y-88271285D01*
X64373657Y-88579484D01*
X64342089Y-88900000D01*
X64352399Y-89004682D01*
X64322082Y-89035000D01*
X60904248Y-89035000D01*
X60737501Y-89051423D01*
X60523553Y-89116324D01*
X60326377Y-89221716D01*
X60153551Y-89363551D01*
X60011716Y-89536377D01*
X59906324Y-89733553D01*
X59841423Y-89947501D01*
X59819509Y-90170000D01*
X59841423Y-90392499D01*
X59906324Y-90606447D01*
X60011716Y-90803623D01*
X60012846Y-90805000D01*
X60011716Y-90806377D01*
X59906324Y-91003553D01*
X59841423Y-91217501D01*
X59819509Y-91440000D01*
X59841423Y-91662499D01*
X59906324Y-91876447D01*
X60011716Y-92073623D01*
X60012846Y-92075000D01*
X60011716Y-92076377D01*
X59906324Y-92273553D01*
X59841423Y-92487501D01*
X59819509Y-92710000D01*
X59841423Y-92932499D01*
X59906324Y-93146447D01*
X60011716Y-93343623D01*
X60153551Y-93516449D01*
X60326377Y-93658284D01*
X60523553Y-93763676D01*
X60737501Y-93828577D01*
X60904248Y-93845000D01*
X66045628Y-93845000D01*
X66046148Y-93846715D01*
X66197969Y-94130752D01*
X66402286Y-94379714D01*
X66651248Y-94584031D01*
X66935285Y-94735852D01*
X67243484Y-94829343D01*
X67483678Y-94853000D01*
X69803322Y-94853000D01*
X70043516Y-94829343D01*
X70288011Y-94755176D01*
X70288011Y-95293750D01*
X67480687Y-98101075D01*
X67418286Y-98152286D01*
X67213969Y-98401249D01*
X67062148Y-98685286D01*
X66968657Y-98993485D01*
X66945000Y-99233678D01*
X66937089Y-99314000D01*
X66945000Y-99394320D01*
X66945001Y-104474322D01*
X66968658Y-104714516D01*
X67062149Y-105022715D01*
X67213970Y-105306752D01*
X67418287Y-105555714D01*
X67667249Y-105760031D01*
X67951286Y-105911852D01*
X68259485Y-106005343D01*
X68580000Y-106036911D01*
X68900516Y-106005343D01*
X69208715Y-105911852D01*
X69492752Y-105760031D01*
X69741714Y-105555714D01*
X69946031Y-105306752D01*
X70097852Y-105022715D01*
X70191343Y-104714516D01*
X70215000Y-104474322D01*
X70215000Y-99991238D01*
X71976743Y-98229495D01*
X77390000Y-98229495D01*
X77390000Y-98620505D01*
X77466282Y-99004003D01*
X77615915Y-99365250D01*
X77833149Y-99690364D01*
X78109636Y-99966851D01*
X78434750Y-100184085D01*
X78795997Y-100333718D01*
X79179495Y-100410000D01*
X79570505Y-100410000D01*
X79954003Y-100333718D01*
X80315250Y-100184085D01*
X80640364Y-99966851D01*
X80916851Y-99690364D01*
X81134085Y-99365250D01*
X81283718Y-99004003D01*
X81360000Y-98620505D01*
X81360000Y-98229495D01*
X81283718Y-97845997D01*
X81134085Y-97484750D01*
X80916851Y-97159636D01*
X80640364Y-96883149D01*
X80315250Y-96665915D01*
X79954003Y-96516282D01*
X79570505Y-96440000D01*
X79179495Y-96440000D01*
X78795997Y-96516282D01*
X78434750Y-96665915D01*
X78109636Y-96883149D01*
X77833149Y-97159636D01*
X77615915Y-97484750D01*
X77466282Y-97845997D01*
X77390000Y-98229495D01*
X71976743Y-98229495D01*
X73022329Y-97183910D01*
X73084724Y-97132704D01*
X73289041Y-96883742D01*
X73440862Y-96599705D01*
X73534353Y-96291506D01*
X73558010Y-96051312D01*
X73558010Y-96051310D01*
X73565921Y-95970991D01*
X73558010Y-95890671D01*
X73558010Y-93229495D01*
X77390000Y-93229495D01*
X77390000Y-93620505D01*
X77466282Y-94004003D01*
X77615915Y-94365250D01*
X77833149Y-94690364D01*
X78109636Y-94966851D01*
X78434750Y-95184085D01*
X78795997Y-95333718D01*
X79179495Y-95410000D01*
X79570505Y-95410000D01*
X79954003Y-95333718D01*
X80315250Y-95184085D01*
X80640364Y-94966851D01*
X80916851Y-94690364D01*
X81134085Y-94365250D01*
X81283718Y-94004003D01*
X81360000Y-93620505D01*
X81360000Y-93229495D01*
X81283718Y-92845997D01*
X81134085Y-92484750D01*
X80916851Y-92159636D01*
X80640364Y-91883149D01*
X80315250Y-91665915D01*
X79954003Y-91516282D01*
X79570505Y-91440000D01*
X79179495Y-91440000D01*
X78795997Y-91516282D01*
X78434750Y-91665915D01*
X78109636Y-91883149D01*
X77833149Y-92159636D01*
X77615915Y-92484750D01*
X77466282Y-92845997D01*
X77390000Y-93229495D01*
X73558010Y-93229495D01*
X73558010Y-92387057D01*
X73565922Y-92306727D01*
X73534353Y-91986210D01*
X73440862Y-91678012D01*
X73432570Y-91662499D01*
X73289041Y-91393975D01*
X73084724Y-91145013D01*
X73022335Y-91093812D01*
X70058521Y-88130000D01*
X77746043Y-88130000D01*
X77833149Y-88260364D01*
X78109636Y-88536851D01*
X78434750Y-88754085D01*
X78795997Y-88903718D01*
X79179495Y-88980000D01*
X79570505Y-88980000D01*
X79954003Y-88903718D01*
X80315250Y-88754085D01*
X80640364Y-88536851D01*
X80916851Y-88260364D01*
X81003957Y-88130000D01*
X83383249Y-88130000D01*
X83439000Y-88135491D01*
X83494751Y-88130000D01*
X83494752Y-88130000D01*
X83661499Y-88113577D01*
X83875447Y-88048676D01*
X84072623Y-87943284D01*
X84245449Y-87801449D01*
X84280996Y-87758135D01*
X87631141Y-84407991D01*
X87674449Y-84372449D01*
X87816284Y-84199623D01*
X87921676Y-84002447D01*
X87986577Y-83788499D01*
X88003000Y-83621752D01*
X88003000Y-83621743D01*
X88008490Y-83566001D01*
X88003000Y-83510259D01*
X88003000Y-76255751D01*
X88008491Y-76199999D01*
X87986577Y-75977501D01*
X87921676Y-75763553D01*
X87894534Y-75712774D01*
X87816284Y-75566377D01*
X87674449Y-75393551D01*
X87631140Y-75358009D01*
X85847995Y-73574864D01*
X85812448Y-73531550D01*
X85639622Y-73389715D01*
X85442446Y-73284323D01*
X85228498Y-73219422D01*
X85061751Y-73202999D01*
X85061750Y-73202999D01*
X85005999Y-73197508D01*
X84950248Y-73202999D01*
X73820336Y-73202999D01*
X73816459Y-73201823D01*
X73593960Y-73179909D01*
X73371461Y-73201823D01*
X73157513Y-73266724D01*
X73142104Y-73274960D01*
X73111239Y-73284323D01*
X72914063Y-73389715D01*
X72741237Y-73531550D01*
X72599402Y-73704376D01*
X72593144Y-73716084D01*
X71895087Y-74414142D01*
X71883377Y-74420401D01*
X71710551Y-74562236D01*
X71675011Y-74605542D01*
X68060554Y-78220000D01*
X61841544Y-78220000D01*
X61912537Y-78133494D01*
X61971502Y-78023180D01*
X62007812Y-77903482D01*
X62020072Y-77779000D01*
X62017000Y-76739750D01*
X61858250Y-76581000D01*
X60796500Y-76581000D01*
X60796500Y-76601000D01*
X60542500Y-76601000D01*
X60542500Y-76581000D01*
X59480750Y-76581000D01*
X59328441Y-76733309D01*
X59045072Y-76449941D01*
X59045072Y-75379000D01*
X59028008Y-75205746D01*
X59004728Y-75129000D01*
X59318928Y-75129000D01*
X59322000Y-76168250D01*
X59480750Y-76327000D01*
X60542500Y-76327000D01*
X60542500Y-74652750D01*
X60796500Y-74652750D01*
X60796500Y-76327000D01*
X61858250Y-76327000D01*
X61986915Y-76198335D01*
X61996774Y-76247898D01*
X62074795Y-76436256D01*
X62188063Y-76605774D01*
X62332226Y-76749937D01*
X62501744Y-76863205D01*
X62690102Y-76941226D01*
X62890061Y-76981000D01*
X63093939Y-76981000D01*
X63293898Y-76941226D01*
X63482256Y-76863205D01*
X63651774Y-76749937D01*
X63795937Y-76605774D01*
X63909205Y-76436256D01*
X63987226Y-76247898D01*
X64027000Y-76047939D01*
X64027000Y-75844061D01*
X63987226Y-75644102D01*
X63909205Y-75455744D01*
X63795937Y-75286226D01*
X63752000Y-75242289D01*
X63752000Y-75018000D01*
X66583928Y-75018000D01*
X66596188Y-75142482D01*
X66632498Y-75262180D01*
X66691463Y-75372494D01*
X66770815Y-75469185D01*
X66867506Y-75548537D01*
X66977820Y-75607502D01*
X67097518Y-75643812D01*
X67222000Y-75656072D01*
X67786250Y-75653000D01*
X67945000Y-75494250D01*
X67945000Y-74295000D01*
X68199000Y-74295000D01*
X68199000Y-75494250D01*
X68357750Y-75653000D01*
X68922000Y-75656072D01*
X69046482Y-75643812D01*
X69166180Y-75607502D01*
X69276494Y-75548537D01*
X69373185Y-75469185D01*
X69452537Y-75372494D01*
X69511502Y-75262180D01*
X69547812Y-75142482D01*
X69560072Y-75018000D01*
X69557000Y-74453750D01*
X69398250Y-74295000D01*
X68199000Y-74295000D01*
X67945000Y-74295000D01*
X66745750Y-74295000D01*
X66587000Y-74453750D01*
X66583928Y-75018000D01*
X63752000Y-75018000D01*
X63752000Y-74817909D01*
X63874886Y-74735799D01*
X64067799Y-74542886D01*
X64219371Y-74316043D01*
X64323775Y-74063989D01*
X64377000Y-73796411D01*
X64377000Y-73523589D01*
X64336106Y-73318000D01*
X66583928Y-73318000D01*
X66587000Y-73882250D01*
X66745750Y-74041000D01*
X67945000Y-74041000D01*
X67945000Y-71755000D01*
X68199000Y-71755000D01*
X68199000Y-74041000D01*
X69398250Y-74041000D01*
X69557000Y-73882250D01*
X69560072Y-73318000D01*
X69547812Y-73193518D01*
X69511502Y-73073820D01*
X69452537Y-72963506D01*
X69373185Y-72866815D01*
X69276494Y-72787463D01*
X69166180Y-72728498D01*
X69085534Y-72704034D01*
X69169588Y-72628269D01*
X69343641Y-72394920D01*
X69468825Y-72132099D01*
X69513476Y-71984890D01*
X69392155Y-71755000D01*
X68199000Y-71755000D01*
X67945000Y-71755000D01*
X66751845Y-71755000D01*
X66630524Y-71984890D01*
X66675175Y-72132099D01*
X66800359Y-72394920D01*
X66974412Y-72628269D01*
X67058466Y-72704034D01*
X66977820Y-72728498D01*
X66867506Y-72787463D01*
X66770815Y-72866815D01*
X66691463Y-72963506D01*
X66632498Y-73073820D01*
X66596188Y-73193518D01*
X66583928Y-73318000D01*
X64336106Y-73318000D01*
X64323775Y-73256011D01*
X64219371Y-73003957D01*
X64067799Y-72777114D01*
X63874886Y-72584201D01*
X63648043Y-72432629D01*
X63395989Y-72328225D01*
X63128411Y-72275000D01*
X62855589Y-72275000D01*
X62588011Y-72328225D01*
X62335957Y-72432629D01*
X62109114Y-72584201D01*
X61916201Y-72777114D01*
X61764629Y-73003957D01*
X61660225Y-73256011D01*
X61607000Y-73523589D01*
X61607000Y-73796411D01*
X61660225Y-74063989D01*
X61764629Y-74316043D01*
X61916201Y-74542886D01*
X62109114Y-74735799D01*
X62232000Y-74817909D01*
X62232000Y-75242289D01*
X62188063Y-75286226D01*
X62074795Y-75455744D01*
X62018706Y-75591154D01*
X62020072Y-75129000D01*
X62007812Y-75004518D01*
X61971502Y-74884820D01*
X61912537Y-74774506D01*
X61833185Y-74677815D01*
X61736494Y-74598463D01*
X61626180Y-74539498D01*
X61506482Y-74503188D01*
X61382000Y-74490928D01*
X60955250Y-74494000D01*
X60796500Y-74652750D01*
X60542500Y-74652750D01*
X60383750Y-74494000D01*
X59957000Y-74490928D01*
X59832518Y-74503188D01*
X59712820Y-74539498D01*
X59602506Y-74598463D01*
X59505815Y-74677815D01*
X59426463Y-74774506D01*
X59367498Y-74884820D01*
X59331188Y-75004518D01*
X59318928Y-75129000D01*
X59004728Y-75129000D01*
X58977472Y-75039150D01*
X58895405Y-74885614D01*
X58784962Y-74751038D01*
X58650386Y-74640595D01*
X58496850Y-74558528D01*
X58330254Y-74507992D01*
X58157000Y-74490928D01*
X57232000Y-74490928D01*
X57058746Y-74507992D01*
X56892150Y-74558528D01*
X56738614Y-74640595D01*
X56604038Y-74751038D01*
X56493595Y-74885614D01*
X56411528Y-75039150D01*
X56360992Y-75205746D01*
X56343928Y-75379000D01*
X56343928Y-77529000D01*
X56353993Y-77631191D01*
X53767801Y-75045000D01*
X53984411Y-75045000D01*
X54251989Y-74991775D01*
X54504043Y-74887371D01*
X54730886Y-74735799D01*
X54923799Y-74542886D01*
X55075371Y-74316043D01*
X55179775Y-74063989D01*
X55210008Y-73912000D01*
X56192289Y-73912000D01*
X56236226Y-73955937D01*
X56405744Y-74069205D01*
X56594102Y-74147226D01*
X56794061Y-74187000D01*
X56997939Y-74187000D01*
X57197898Y-74147226D01*
X57386256Y-74069205D01*
X57555774Y-73955937D01*
X57699937Y-73811774D01*
X57813205Y-73642256D01*
X57891226Y-73453898D01*
X57931000Y-73253939D01*
X57931000Y-73050061D01*
X57891226Y-72850102D01*
X57813205Y-72661744D01*
X57699937Y-72492226D01*
X57555774Y-72348063D01*
X57386256Y-72234795D01*
X57197898Y-72156774D01*
X56997939Y-72117000D01*
X56794061Y-72117000D01*
X56594102Y-72156774D01*
X56405744Y-72234795D01*
X56236226Y-72348063D01*
X56192289Y-72392000D01*
X54405956Y-72392000D01*
X54251989Y-72328225D01*
X53984411Y-72275000D01*
X53711589Y-72275000D01*
X53444011Y-72328225D01*
X53191957Y-72432629D01*
X52965114Y-72584201D01*
X52772201Y-72777114D01*
X52620629Y-73003957D01*
X52516225Y-73256011D01*
X52463000Y-73523589D01*
X52463000Y-73740199D01*
X50798000Y-72075199D01*
X50798000Y-71513236D01*
X50905957Y-71585371D01*
X51158011Y-71689775D01*
X51425589Y-71743000D01*
X51698411Y-71743000D01*
X51965989Y-71689775D01*
X52218043Y-71585371D01*
X52444886Y-71433799D01*
X52506685Y-71372000D01*
X56192289Y-71372000D01*
X56236226Y-71415937D01*
X56405744Y-71529205D01*
X56594102Y-71607226D01*
X56794061Y-71647000D01*
X56997939Y-71647000D01*
X57197898Y-71607226D01*
X57386256Y-71529205D01*
X57555774Y-71415937D01*
X57699937Y-71271774D01*
X57813205Y-71102256D01*
X57891226Y-70913898D01*
X57931000Y-70713939D01*
X57931000Y-70510061D01*
X57891226Y-70310102D01*
X57813205Y-70121744D01*
X57699937Y-69952226D01*
X57555774Y-69808063D01*
X57386256Y-69694795D01*
X57197898Y-69616774D01*
X57093459Y-69596000D01*
X57197898Y-69575226D01*
X57386256Y-69497205D01*
X57555774Y-69383937D01*
X57699937Y-69239774D01*
X57813205Y-69070256D01*
X57891226Y-68881898D01*
X57931000Y-68681939D01*
X57931000Y-68478061D01*
X57891226Y-68278102D01*
X57813205Y-68089744D01*
X57699937Y-67920226D01*
X57555774Y-67776063D01*
X57386256Y-67662795D01*
X57197898Y-67584774D01*
X56997939Y-67545000D01*
X56794061Y-67545000D01*
X56594102Y-67584774D01*
X56405744Y-67662795D01*
X56236226Y-67776063D01*
X56192289Y-67820000D01*
X54913956Y-67820000D01*
X54759989Y-67756225D01*
X54492411Y-67703000D01*
X54219589Y-67703000D01*
X53952011Y-67756225D01*
X53699957Y-67860629D01*
X53473114Y-68012201D01*
X53280201Y-68205114D01*
X53128629Y-68431957D01*
X53024225Y-68684011D01*
X52971000Y-68951589D01*
X52971000Y-69224411D01*
X53024225Y-69491989D01*
X53128629Y-69744043D01*
X53200764Y-69852000D01*
X52851521Y-69852000D01*
X52789371Y-69701957D01*
X52637799Y-69475114D01*
X52444886Y-69282201D01*
X52218043Y-69130629D01*
X51965989Y-69026225D01*
X51698411Y-68973000D01*
X51425589Y-68973000D01*
X51158011Y-69026225D01*
X51045796Y-69072706D01*
X51073000Y-68935939D01*
X51073000Y-68732061D01*
X51033226Y-68532102D01*
X50955205Y-68343744D01*
X50841937Y-68174226D01*
X50697774Y-68030063D01*
X50528256Y-67916795D01*
X50339898Y-67838774D01*
X50139939Y-67799000D01*
X49936061Y-67799000D01*
X49736102Y-67838774D01*
X49547744Y-67916795D01*
X49378226Y-68030063D01*
X49234063Y-68174226D01*
X49120795Y-68343744D01*
X49042774Y-68532102D01*
X49003000Y-68732061D01*
X49003000Y-68795021D01*
X49001226Y-68786102D01*
X48923205Y-68597744D01*
X48809937Y-68428226D01*
X48665774Y-68284063D01*
X48496256Y-68170795D01*
X48307898Y-68092774D01*
X48107939Y-68053000D01*
X47904061Y-68053000D01*
X47704102Y-68092774D01*
X47515744Y-68170795D01*
X47346226Y-68284063D01*
X47202063Y-68428226D01*
X47088795Y-68597744D01*
X47010774Y-68786102D01*
X46971000Y-68986061D01*
X46971000Y-69189939D01*
X47010774Y-69389898D01*
X47088795Y-69578256D01*
X47202063Y-69747774D01*
X47246001Y-69791712D01*
X47246000Y-71082677D01*
X47242324Y-71120000D01*
X47246000Y-71157322D01*
X47246000Y-71157332D01*
X47256997Y-71268985D01*
X47271728Y-71317546D01*
X47300454Y-71412246D01*
X47371026Y-71544276D01*
X47404752Y-71585371D01*
X47465999Y-71660001D01*
X47495003Y-71683804D01*
X48200638Y-72389439D01*
X48107939Y-72371000D01*
X47904061Y-72371000D01*
X47704102Y-72410774D01*
X47515744Y-72488795D01*
X47346226Y-72602063D01*
X47302289Y-72646000D01*
X47198424Y-72646000D01*
X47162405Y-72578613D01*
X47051962Y-72444038D01*
X46917387Y-72333595D01*
X46763851Y-72251528D01*
X46597255Y-72200992D01*
X46424001Y-72183928D01*
X45523999Y-72183928D01*
X45350745Y-72200992D01*
X45198865Y-72247064D01*
X44194000Y-71242199D01*
X44194000Y-68091000D01*
X44297939Y-68091000D01*
X44497898Y-68051226D01*
X44686256Y-67973205D01*
X44855774Y-67859937D01*
X44999937Y-67715774D01*
X45113205Y-67546256D01*
X45191226Y-67357898D01*
X45220876Y-67208834D01*
X45321063Y-67358774D01*
X45465226Y-67502937D01*
X45634744Y-67616205D01*
X45823102Y-67694226D01*
X46023061Y-67734000D01*
X46226939Y-67734000D01*
X46426898Y-67694226D01*
X46615256Y-67616205D01*
X46784774Y-67502937D01*
X46828711Y-67459000D01*
X66894716Y-67459000D01*
X66918525Y-67494632D01*
X67125368Y-67701475D01*
X67299760Y-67818000D01*
X67125368Y-67934525D01*
X66918525Y-68141368D01*
X66756010Y-68384589D01*
X66644068Y-68654842D01*
X66587000Y-68941740D01*
X66587000Y-69234260D01*
X66644068Y-69521158D01*
X66756010Y-69791411D01*
X66918525Y-70034632D01*
X67125368Y-70241475D01*
X67307534Y-70363195D01*
X67190645Y-70432822D01*
X66974412Y-70627731D01*
X66800359Y-70861080D01*
X66675175Y-71123901D01*
X66630524Y-71271110D01*
X66751845Y-71501000D01*
X67945000Y-71501000D01*
X67945000Y-71481000D01*
X68199000Y-71481000D01*
X68199000Y-71501000D01*
X69392155Y-71501000D01*
X69513476Y-71271110D01*
X69468825Y-71123901D01*
X69343641Y-70861080D01*
X69169588Y-70627731D01*
X68953355Y-70432822D01*
X68836466Y-70363195D01*
X69018632Y-70241475D01*
X69225475Y-70034632D01*
X69387990Y-69791411D01*
X69499932Y-69521158D01*
X69557000Y-69234260D01*
X69557000Y-68941740D01*
X69499932Y-68654842D01*
X69387990Y-68384589D01*
X69225475Y-68141368D01*
X69018632Y-67934525D01*
X68844240Y-67818000D01*
X69018632Y-67701475D01*
X69225475Y-67494632D01*
X69387990Y-67251411D01*
X69499932Y-66981158D01*
X69557000Y-66694260D01*
X69557000Y-66401740D01*
X69499932Y-66114842D01*
X69387990Y-65844589D01*
X69225475Y-65601368D01*
X69018632Y-65394525D01*
X68844240Y-65278000D01*
X69018632Y-65161475D01*
X69225475Y-64954632D01*
X69387990Y-64711411D01*
X69499932Y-64441158D01*
X69557000Y-64154260D01*
X69557000Y-63861740D01*
X69499932Y-63574842D01*
X69387990Y-63304589D01*
X69225475Y-63061368D01*
X69018632Y-62854525D01*
X68844240Y-62738000D01*
X69018632Y-62621475D01*
X69225475Y-62414632D01*
X69387990Y-62171411D01*
X69414965Y-62106285D01*
X79477000Y-62106285D01*
X79477000Y-62861715D01*
X79624377Y-63602628D01*
X79913467Y-64300554D01*
X80333161Y-64928670D01*
X80867330Y-65462839D01*
X81495446Y-65882533D01*
X82193372Y-66171623D01*
X82934285Y-66319000D01*
X83689715Y-66319000D01*
X84430628Y-66171623D01*
X85128554Y-65882533D01*
X85756670Y-65462839D01*
X86290839Y-64928670D01*
X86710533Y-64300554D01*
X86999623Y-63602628D01*
X87147000Y-62861715D01*
X87147000Y-62106285D01*
X86999623Y-61365372D01*
X86710533Y-60667446D01*
X86290839Y-60039330D01*
X85756670Y-59505161D01*
X85128554Y-59085467D01*
X84430628Y-58796377D01*
X83689715Y-58649000D01*
X82934285Y-58649000D01*
X82193372Y-58796377D01*
X81495446Y-59085467D01*
X80867330Y-59505161D01*
X80333161Y-60039330D01*
X79913467Y-60667446D01*
X79624377Y-61365372D01*
X79477000Y-62106285D01*
X69414965Y-62106285D01*
X69499932Y-61901158D01*
X69557000Y-61614260D01*
X69557000Y-61321740D01*
X69499932Y-61034842D01*
X69387990Y-60764589D01*
X69225475Y-60521368D01*
X69018632Y-60314525D01*
X68775411Y-60152010D01*
X68505158Y-60040068D01*
X68218260Y-59983000D01*
X67925740Y-59983000D01*
X67638842Y-60040068D01*
X67368589Y-60152010D01*
X67125368Y-60314525D01*
X66918525Y-60521368D01*
X66756010Y-60764589D01*
X66644068Y-61034842D01*
X66587000Y-61321740D01*
X66587000Y-61614260D01*
X66644068Y-61901158D01*
X66756010Y-62171411D01*
X66918525Y-62414632D01*
X67125368Y-62621475D01*
X67299760Y-62738000D01*
X67125368Y-62854525D01*
X66918525Y-63061368D01*
X66756010Y-63304589D01*
X66644068Y-63574842D01*
X66587000Y-63861740D01*
X66587000Y-64154260D01*
X66630790Y-64374408D01*
X65979199Y-65026000D01*
X64069917Y-65026000D01*
X64089588Y-65008269D01*
X64263641Y-64774920D01*
X64388825Y-64512099D01*
X64433476Y-64364890D01*
X64312155Y-64135000D01*
X63119000Y-64135000D01*
X63119000Y-64155000D01*
X62865000Y-64155000D01*
X62865000Y-64135000D01*
X61671845Y-64135000D01*
X61550524Y-64364890D01*
X61595175Y-64512099D01*
X61720359Y-64774920D01*
X61894412Y-65008269D01*
X61914083Y-65026000D01*
X45503322Y-65026000D01*
X45465999Y-65022324D01*
X45428676Y-65026000D01*
X45428667Y-65026000D01*
X45317014Y-65036997D01*
X45173753Y-65080454D01*
X45041724Y-65151026D01*
X44925999Y-65245999D01*
X44902201Y-65274997D01*
X44194000Y-65983199D01*
X44194000Y-62521322D01*
X44197676Y-62483999D01*
X44194000Y-62446676D01*
X44194000Y-62446667D01*
X44183003Y-62335014D01*
X44139546Y-62191753D01*
X44068974Y-62059724D01*
X43974001Y-61943999D01*
X43945003Y-61920202D01*
X43489803Y-61465002D01*
X43466001Y-61435999D01*
X43350276Y-61341026D01*
X43218247Y-61270454D01*
X43074986Y-61226997D01*
X42963333Y-61216000D01*
X42963322Y-61216000D01*
X42926000Y-61212324D01*
X42888678Y-61216000D01*
X41208802Y-61216000D01*
X41003484Y-61010683D01*
X41049205Y-60942256D01*
X41127226Y-60753898D01*
X41167000Y-60553939D01*
X41167000Y-60350061D01*
X44939000Y-60350061D01*
X44939000Y-60553939D01*
X44978774Y-60753898D01*
X45056795Y-60942256D01*
X45170063Y-61111774D01*
X45314226Y-61255937D01*
X45483744Y-61369205D01*
X45672102Y-61447226D01*
X45872061Y-61487000D01*
X45949774Y-61487000D01*
X46081752Y-61557545D01*
X46225013Y-61601002D01*
X46336666Y-61611999D01*
X46336676Y-61611999D01*
X46373998Y-61615675D01*
X46411321Y-61611999D01*
X52663198Y-61611999D01*
X53067000Y-62015802D01*
X53067000Y-62077939D01*
X53106774Y-62277898D01*
X53184795Y-62466256D01*
X53298063Y-62635774D01*
X53442226Y-62779937D01*
X53611744Y-62893205D01*
X53800102Y-62971226D01*
X54000061Y-63011000D01*
X54203939Y-63011000D01*
X54403898Y-62971226D01*
X54592256Y-62893205D01*
X54761774Y-62779937D01*
X54905937Y-62635774D01*
X55019205Y-62466256D01*
X55097226Y-62277898D01*
X55137000Y-62077939D01*
X55137000Y-61874061D01*
X55097226Y-61674102D01*
X55019205Y-61485744D01*
X54909622Y-61321740D01*
X61507000Y-61321740D01*
X61507000Y-61614260D01*
X61564068Y-61901158D01*
X61676010Y-62171411D01*
X61838525Y-62414632D01*
X62045368Y-62621475D01*
X62227534Y-62743195D01*
X62110645Y-62812822D01*
X61894412Y-63007731D01*
X61720359Y-63241080D01*
X61595175Y-63503901D01*
X61550524Y-63651110D01*
X61671845Y-63881000D01*
X62865000Y-63881000D01*
X62865000Y-63861000D01*
X63119000Y-63861000D01*
X63119000Y-63881000D01*
X64312155Y-63881000D01*
X64433476Y-63651110D01*
X64388825Y-63503901D01*
X64263641Y-63241080D01*
X64089588Y-63007731D01*
X63873355Y-62812822D01*
X63756466Y-62743195D01*
X63938632Y-62621475D01*
X64145475Y-62414632D01*
X64307990Y-62171411D01*
X64419932Y-61901158D01*
X64477000Y-61614260D01*
X64477000Y-61321740D01*
X64419932Y-61034842D01*
X64307990Y-60764589D01*
X64145475Y-60521368D01*
X63938632Y-60314525D01*
X63695411Y-60152010D01*
X63425158Y-60040068D01*
X63138260Y-59983000D01*
X62845740Y-59983000D01*
X62558842Y-60040068D01*
X62288589Y-60152010D01*
X62045368Y-60314525D01*
X61838525Y-60521368D01*
X61676010Y-60764589D01*
X61564068Y-61034842D01*
X61507000Y-61321740D01*
X54909622Y-61321740D01*
X54905937Y-61316226D01*
X54761774Y-61172063D01*
X54592256Y-61058795D01*
X54403898Y-60980774D01*
X54203939Y-60941000D01*
X54141802Y-60941000D01*
X53541802Y-60341001D01*
X53518000Y-60311998D01*
X53402275Y-60217025D01*
X53270246Y-60146453D01*
X53126985Y-60102996D01*
X53015332Y-60091999D01*
X53015321Y-60091999D01*
X52977999Y-60088323D01*
X52940677Y-60091999D01*
X46945159Y-60091999D01*
X46891205Y-59961744D01*
X46777937Y-59792226D01*
X46633774Y-59648063D01*
X46464256Y-59534795D01*
X46275898Y-59456774D01*
X46075939Y-59417000D01*
X45872061Y-59417000D01*
X45672102Y-59456774D01*
X45483744Y-59534795D01*
X45314226Y-59648063D01*
X45170063Y-59792226D01*
X45056795Y-59961744D01*
X44978774Y-60150102D01*
X44939000Y-60350061D01*
X41167000Y-60350061D01*
X41127226Y-60150102D01*
X41049205Y-59961744D01*
X40935937Y-59792226D01*
X40791774Y-59648063D01*
X40622256Y-59534795D01*
X40433898Y-59456774D01*
X40233939Y-59417000D01*
X40030061Y-59417000D01*
X39830102Y-59456774D01*
X39641744Y-59534795D01*
X39472226Y-59648063D01*
X39328063Y-59792226D01*
X39214795Y-59961744D01*
X39136774Y-60150102D01*
X39097000Y-60350061D01*
X39097000Y-60553939D01*
X39136774Y-60753898D01*
X39214795Y-60942256D01*
X39328063Y-61111774D01*
X39372000Y-61155711D01*
X39372000Y-61176678D01*
X39368324Y-61214000D01*
X39372000Y-61251322D01*
X39372000Y-61251333D01*
X39382997Y-61362986D01*
X39408397Y-61446718D01*
X39426454Y-61506246D01*
X39497026Y-61638276D01*
X39564361Y-61720323D01*
X39592000Y-61754001D01*
X39620998Y-61777799D01*
X40330201Y-62487002D01*
X40353999Y-62516001D01*
X40469724Y-62610974D01*
X40601753Y-62681546D01*
X40745014Y-62725003D01*
X40856667Y-62736000D01*
X40856675Y-62736000D01*
X40894000Y-62739676D01*
X40931325Y-62736000D01*
X42611199Y-62736000D01*
X42674000Y-62798802D01*
X42674000Y-63508000D01*
X35585000Y-63508000D01*
X35585000Y-57556000D01*
X90145000Y-57556000D01*
X90145001Y-74262581D01*
G36*
X81515000Y-75539939D02*
G01*
X81554774Y-75739898D01*
X81632795Y-75928256D01*
X81746063Y-76097774D01*
X81890226Y-76241937D01*
X82059744Y-76355205D01*
X82248102Y-76433226D01*
X82297188Y-76442990D01*
X82748135Y-76893936D01*
X82752992Y-76943255D01*
X82803528Y-77109851D01*
X82885595Y-77263387D01*
X82996038Y-77397962D01*
X83002594Y-77403342D01*
X82922815Y-77468815D01*
X82843463Y-77565506D01*
X82784498Y-77675820D01*
X82748188Y-77795518D01*
X82735928Y-77920000D01*
X82739000Y-78209250D01*
X82897750Y-78368000D01*
X83947000Y-78368000D01*
X83947000Y-78348000D01*
X84201000Y-78348000D01*
X84201000Y-78368000D01*
X85250250Y-78368000D01*
X85409000Y-78209250D01*
X85412072Y-77920000D01*
X85399812Y-77795518D01*
X85363502Y-77675820D01*
X85304537Y-77565506D01*
X85225185Y-77468815D01*
X85145406Y-77403342D01*
X85151962Y-77397962D01*
X85262405Y-77263387D01*
X85344472Y-77109851D01*
X85395008Y-76943255D01*
X85412072Y-76770001D01*
X85412072Y-76349204D01*
X85733000Y-76670132D01*
X85733001Y-83095867D01*
X85395488Y-83433380D01*
X85412072Y-83265001D01*
X85412072Y-82614999D01*
X85395008Y-82441745D01*
X85344472Y-82275149D01*
X85262405Y-82121613D01*
X85151962Y-81987038D01*
X85145406Y-81981658D01*
X85225185Y-81916185D01*
X85304537Y-81819494D01*
X85363502Y-81709180D01*
X85399812Y-81589482D01*
X85412072Y-81465000D01*
X85409000Y-81175750D01*
X85250250Y-81017000D01*
X84201000Y-81017000D01*
X84201000Y-81037000D01*
X83947000Y-81037000D01*
X83947000Y-81017000D01*
X82897750Y-81017000D01*
X82739000Y-81175750D01*
X82735928Y-81465000D01*
X82748188Y-81589482D01*
X82784498Y-81709180D01*
X82843463Y-81819494D01*
X82922815Y-81916185D01*
X83002594Y-81981658D01*
X82996038Y-81987038D01*
X82885595Y-82121613D01*
X82803528Y-82275149D01*
X82752992Y-82441745D01*
X82748135Y-82491064D01*
X82039002Y-83200197D01*
X82009999Y-83223999D01*
X81976350Y-83265001D01*
X81915026Y-83339724D01*
X81858297Y-83445856D01*
X81844454Y-83471754D01*
X81800997Y-83615015D01*
X81790000Y-83726668D01*
X81790000Y-83726678D01*
X81786324Y-83764000D01*
X81790000Y-83801323D01*
X81790000Y-84005289D01*
X81746063Y-84049226D01*
X81632795Y-84218744D01*
X81554774Y-84407102D01*
X81515000Y-84607061D01*
X81515000Y-84810939D01*
X81554774Y-85010898D01*
X81632795Y-85199256D01*
X81746063Y-85368774D01*
X81890226Y-85512937D01*
X82059744Y-85626205D01*
X82248102Y-85704226D01*
X82448061Y-85744000D01*
X82651939Y-85744000D01*
X82851898Y-85704226D01*
X83040256Y-85626205D01*
X83209774Y-85512937D01*
X83353937Y-85368774D01*
X83467205Y-85199256D01*
X83545226Y-85010898D01*
X83585000Y-84810939D01*
X83585000Y-84607061D01*
X83545226Y-84407102D01*
X83467205Y-84218744D01*
X83402054Y-84121238D01*
X83450745Y-84136008D01*
X83623999Y-84153072D01*
X84524001Y-84153072D01*
X84692380Y-84136488D01*
X82968869Y-85860000D01*
X81003957Y-85860000D01*
X80916851Y-85729636D01*
X80640364Y-85453149D01*
X80315250Y-85235915D01*
X79954003Y-85086282D01*
X79570505Y-85010000D01*
X79179495Y-85010000D01*
X78795997Y-85086282D01*
X78434750Y-85235915D01*
X78109636Y-85453149D01*
X77833149Y-85729636D01*
X77746043Y-85860000D01*
X66601023Y-85860000D01*
X66615283Y-85842624D01*
X66720675Y-85645448D01*
X66785576Y-85431500D01*
X66793653Y-85349490D01*
X66807490Y-85209002D01*
X66801999Y-85153250D01*
X66801999Y-84264750D01*
X66807490Y-84208999D01*
X66785576Y-83986500D01*
X66777536Y-83959997D01*
X66720675Y-83772552D01*
X66615283Y-83575376D01*
X66473448Y-83402550D01*
X66430134Y-83367003D01*
X66179006Y-83115875D01*
X66143459Y-83072561D01*
X65970633Y-82930726D01*
X65773457Y-82825334D01*
X65726208Y-82811001D01*
X77372489Y-82811001D01*
X77409811Y-82814677D01*
X77447133Y-82811001D01*
X77447144Y-82811001D01*
X77558797Y-82800004D01*
X77559772Y-82799708D01*
X77615915Y-82935250D01*
X77833149Y-83260364D01*
X78109636Y-83536851D01*
X78434750Y-83754085D01*
X78795997Y-83903718D01*
X79179495Y-83980000D01*
X79570505Y-83980000D01*
X79954003Y-83903718D01*
X80315250Y-83754085D01*
X80640364Y-83536851D01*
X80916851Y-83260364D01*
X81134085Y-82935250D01*
X81283718Y-82574003D01*
X81360000Y-82190505D01*
X81360000Y-81799495D01*
X81283718Y-81415997D01*
X81134085Y-81054750D01*
X80916851Y-80729636D01*
X80640364Y-80453149D01*
X80315250Y-80235915D01*
X79954003Y-80086282D01*
X79570505Y-80010000D01*
X79179495Y-80010000D01*
X78795997Y-80086282D01*
X78434750Y-80235915D01*
X78109636Y-80453149D01*
X77833149Y-80729636D01*
X77615915Y-81054750D01*
X77541253Y-81235000D01*
X77503134Y-81235000D01*
X77465811Y-81231324D01*
X77428489Y-81235000D01*
X77428479Y-81235000D01*
X77316826Y-81245997D01*
X77173565Y-81289454D01*
X77170671Y-81291001D01*
X76153800Y-81291001D01*
X78374801Y-79070000D01*
X82735928Y-79070000D01*
X82748188Y-79194482D01*
X82784498Y-79314180D01*
X82843463Y-79424494D01*
X82922815Y-79521185D01*
X83019506Y-79600537D01*
X83129820Y-79659502D01*
X83238600Y-79692500D01*
X83129820Y-79725498D01*
X83019506Y-79784463D01*
X82922815Y-79863815D01*
X82843463Y-79960506D01*
X82784498Y-80070820D01*
X82748188Y-80190518D01*
X82735928Y-80315000D01*
X82739000Y-80604250D01*
X82897750Y-80763000D01*
X83947000Y-80763000D01*
X83947000Y-79838750D01*
X83800750Y-79692500D01*
X83947000Y-79546250D01*
X83947000Y-78622000D01*
X84201000Y-78622000D01*
X84201000Y-79546250D01*
X84347250Y-79692500D01*
X84201000Y-79838750D01*
X84201000Y-80763000D01*
X85250250Y-80763000D01*
X85409000Y-80604250D01*
X85412072Y-80315000D01*
X85399812Y-80190518D01*
X85363502Y-80070820D01*
X85304537Y-79960506D01*
X85225185Y-79863815D01*
X85128494Y-79784463D01*
X85018180Y-79725498D01*
X84909400Y-79692500D01*
X85018180Y-79659502D01*
X85128494Y-79600537D01*
X85225185Y-79521185D01*
X85304537Y-79424494D01*
X85363502Y-79314180D01*
X85399812Y-79194482D01*
X85412072Y-79070000D01*
X85409000Y-78780750D01*
X85250250Y-78622000D01*
X84201000Y-78622000D01*
X83947000Y-78622000D01*
X82897750Y-78622000D01*
X82739000Y-78780750D01*
X82735928Y-79070000D01*
X78374801Y-79070000D01*
X78615746Y-78829056D01*
X78795997Y-78903718D01*
X79179495Y-78980000D01*
X79570505Y-78980000D01*
X79954003Y-78903718D01*
X80315250Y-78754085D01*
X80640364Y-78536851D01*
X80916851Y-78260364D01*
X81134085Y-77935250D01*
X81283718Y-77574003D01*
X81360000Y-77190505D01*
X81360000Y-76799495D01*
X81283718Y-76415997D01*
X81134085Y-76054750D01*
X80916851Y-75729636D01*
X80660214Y-75472999D01*
X81515000Y-75472999D01*
X81515000Y-75539939D01*
G37*
X81515000Y-75539939D02*
X81554774Y-75739898D01*
X81632795Y-75928256D01*
X81746063Y-76097774D01*
X81890226Y-76241937D01*
X82059744Y-76355205D01*
X82248102Y-76433226D01*
X82297188Y-76442990D01*
X82748135Y-76893936D01*
X82752992Y-76943255D01*
X82803528Y-77109851D01*
X82885595Y-77263387D01*
X82996038Y-77397962D01*
X83002594Y-77403342D01*
X82922815Y-77468815D01*
X82843463Y-77565506D01*
X82784498Y-77675820D01*
X82748188Y-77795518D01*
X82735928Y-77920000D01*
X82739000Y-78209250D01*
X82897750Y-78368000D01*
X83947000Y-78368000D01*
X83947000Y-78348000D01*
X84201000Y-78348000D01*
X84201000Y-78368000D01*
X85250250Y-78368000D01*
X85409000Y-78209250D01*
X85412072Y-77920000D01*
X85399812Y-77795518D01*
X85363502Y-77675820D01*
X85304537Y-77565506D01*
X85225185Y-77468815D01*
X85145406Y-77403342D01*
X85151962Y-77397962D01*
X85262405Y-77263387D01*
X85344472Y-77109851D01*
X85395008Y-76943255D01*
X85412072Y-76770001D01*
X85412072Y-76349204D01*
X85733000Y-76670132D01*
X85733001Y-83095867D01*
X85395488Y-83433380D01*
X85412072Y-83265001D01*
X85412072Y-82614999D01*
X85395008Y-82441745D01*
X85344472Y-82275149D01*
X85262405Y-82121613D01*
X85151962Y-81987038D01*
X85145406Y-81981658D01*
X85225185Y-81916185D01*
X85304537Y-81819494D01*
X85363502Y-81709180D01*
X85399812Y-81589482D01*
X85412072Y-81465000D01*
X85409000Y-81175750D01*
X85250250Y-81017000D01*
X84201000Y-81017000D01*
X84201000Y-81037000D01*
X83947000Y-81037000D01*
X83947000Y-81017000D01*
X82897750Y-81017000D01*
X82739000Y-81175750D01*
X82735928Y-81465000D01*
X82748188Y-81589482D01*
X82784498Y-81709180D01*
X82843463Y-81819494D01*
X82922815Y-81916185D01*
X83002594Y-81981658D01*
X82996038Y-81987038D01*
X82885595Y-82121613D01*
X82803528Y-82275149D01*
X82752992Y-82441745D01*
X82748135Y-82491064D01*
X82039002Y-83200197D01*
X82009999Y-83223999D01*
X81976350Y-83265001D01*
X81915026Y-83339724D01*
X81858297Y-83445856D01*
X81844454Y-83471754D01*
X81800997Y-83615015D01*
X81790000Y-83726668D01*
X81790000Y-83726678D01*
X81786324Y-83764000D01*
X81790000Y-83801323D01*
X81790000Y-84005289D01*
X81746063Y-84049226D01*
X81632795Y-84218744D01*
X81554774Y-84407102D01*
X81515000Y-84607061D01*
X81515000Y-84810939D01*
X81554774Y-85010898D01*
X81632795Y-85199256D01*
X81746063Y-85368774D01*
X81890226Y-85512937D01*
X82059744Y-85626205D01*
X82248102Y-85704226D01*
X82448061Y-85744000D01*
X82651939Y-85744000D01*
X82851898Y-85704226D01*
X83040256Y-85626205D01*
X83209774Y-85512937D01*
X83353937Y-85368774D01*
X83467205Y-85199256D01*
X83545226Y-85010898D01*
X83585000Y-84810939D01*
X83585000Y-84607061D01*
X83545226Y-84407102D01*
X83467205Y-84218744D01*
X83402054Y-84121238D01*
X83450745Y-84136008D01*
X83623999Y-84153072D01*
X84524001Y-84153072D01*
X84692380Y-84136488D01*
X82968869Y-85860000D01*
X81003957Y-85860000D01*
X80916851Y-85729636D01*
X80640364Y-85453149D01*
X80315250Y-85235915D01*
X79954003Y-85086282D01*
X79570505Y-85010000D01*
X79179495Y-85010000D01*
X78795997Y-85086282D01*
X78434750Y-85235915D01*
X78109636Y-85453149D01*
X77833149Y-85729636D01*
X77746043Y-85860000D01*
X66601023Y-85860000D01*
X66615283Y-85842624D01*
X66720675Y-85645448D01*
X66785576Y-85431500D01*
X66793653Y-85349490D01*
X66807490Y-85209002D01*
X66801999Y-85153250D01*
X66801999Y-84264750D01*
X66807490Y-84208999D01*
X66785576Y-83986500D01*
X66777536Y-83959997D01*
X66720675Y-83772552D01*
X66615283Y-83575376D01*
X66473448Y-83402550D01*
X66430134Y-83367003D01*
X66179006Y-83115875D01*
X66143459Y-83072561D01*
X65970633Y-82930726D01*
X65773457Y-82825334D01*
X65726208Y-82811001D01*
X77372489Y-82811001D01*
X77409811Y-82814677D01*
X77447133Y-82811001D01*
X77447144Y-82811001D01*
X77558797Y-82800004D01*
X77559772Y-82799708D01*
X77615915Y-82935250D01*
X77833149Y-83260364D01*
X78109636Y-83536851D01*
X78434750Y-83754085D01*
X78795997Y-83903718D01*
X79179495Y-83980000D01*
X79570505Y-83980000D01*
X79954003Y-83903718D01*
X80315250Y-83754085D01*
X80640364Y-83536851D01*
X80916851Y-83260364D01*
X81134085Y-82935250D01*
X81283718Y-82574003D01*
X81360000Y-82190505D01*
X81360000Y-81799495D01*
X81283718Y-81415997D01*
X81134085Y-81054750D01*
X80916851Y-80729636D01*
X80640364Y-80453149D01*
X80315250Y-80235915D01*
X79954003Y-80086282D01*
X79570505Y-80010000D01*
X79179495Y-80010000D01*
X78795997Y-80086282D01*
X78434750Y-80235915D01*
X78109636Y-80453149D01*
X77833149Y-80729636D01*
X77615915Y-81054750D01*
X77541253Y-81235000D01*
X77503134Y-81235000D01*
X77465811Y-81231324D01*
X77428489Y-81235000D01*
X77428479Y-81235000D01*
X77316826Y-81245997D01*
X77173565Y-81289454D01*
X77170671Y-81291001D01*
X76153800Y-81291001D01*
X78374801Y-79070000D01*
X82735928Y-79070000D01*
X82748188Y-79194482D01*
X82784498Y-79314180D01*
X82843463Y-79424494D01*
X82922815Y-79521185D01*
X83019506Y-79600537D01*
X83129820Y-79659502D01*
X83238600Y-79692500D01*
X83129820Y-79725498D01*
X83019506Y-79784463D01*
X82922815Y-79863815D01*
X82843463Y-79960506D01*
X82784498Y-80070820D01*
X82748188Y-80190518D01*
X82735928Y-80315000D01*
X82739000Y-80604250D01*
X82897750Y-80763000D01*
X83947000Y-80763000D01*
X83947000Y-79838750D01*
X83800750Y-79692500D01*
X83947000Y-79546250D01*
X83947000Y-78622000D01*
X84201000Y-78622000D01*
X84201000Y-79546250D01*
X84347250Y-79692500D01*
X84201000Y-79838750D01*
X84201000Y-80763000D01*
X85250250Y-80763000D01*
X85409000Y-80604250D01*
X85412072Y-80315000D01*
X85399812Y-80190518D01*
X85363502Y-80070820D01*
X85304537Y-79960506D01*
X85225185Y-79863815D01*
X85128494Y-79784463D01*
X85018180Y-79725498D01*
X84909400Y-79692500D01*
X85018180Y-79659502D01*
X85128494Y-79600537D01*
X85225185Y-79521185D01*
X85304537Y-79424494D01*
X85363502Y-79314180D01*
X85399812Y-79194482D01*
X85412072Y-79070000D01*
X85409000Y-78780750D01*
X85250250Y-78622000D01*
X84201000Y-78622000D01*
X83947000Y-78622000D01*
X82897750Y-78622000D01*
X82739000Y-78780750D01*
X82735928Y-79070000D01*
X78374801Y-79070000D01*
X78615746Y-78829056D01*
X78795997Y-78903718D01*
X79179495Y-78980000D01*
X79570505Y-78980000D01*
X79954003Y-78903718D01*
X80315250Y-78754085D01*
X80640364Y-78536851D01*
X80916851Y-78260364D01*
X81134085Y-77935250D01*
X81283718Y-77574003D01*
X81360000Y-77190505D01*
X81360000Y-76799495D01*
X81283718Y-76415997D01*
X81134085Y-76054750D01*
X80916851Y-75729636D01*
X80660214Y-75472999D01*
X81515000Y-75472999D01*
X81515000Y-75539939D01*
M02*
