G04 #@! TF.GenerationSoftware,KiCad,Pcbnew,(5.1.5)-3*
G04 #@! TF.CreationDate,2021-06-07T18:41:19+02:00*
G04 #@! TF.ProjectId,IotHenHouse,496f7448-656e-4486-9f75-73652e6b6963,rev?*
G04 #@! TF.SameCoordinates,Original*
G04 #@! TF.FileFunction,Legend,Bot*
G04 #@! TF.FilePolarity,Positive*
%FSLAX46Y46*%
G04 Gerber Fmt 4.6, Leading zero omitted, Abs format (unit mm)*
G04 Created by KiCad (PCBNEW (5.1.5)-3) date 2021-06-07 18:41:19*
%MOMM*%
%LPD*%
G04 APERTURE LIST*
%ADD10C,0.300000*%
%ADD11C,0.010000*%
%ADD12C,0.120000*%
%ADD13C,0.150000*%
G04 APERTURE END LIST*
D10*
X88054571Y-86826571D02*
X86554571Y-86826571D01*
X86554571Y-87183714D01*
X86626000Y-87398000D01*
X86768857Y-87540857D01*
X86911714Y-87612285D01*
X87197428Y-87683714D01*
X87411714Y-87683714D01*
X87697428Y-87612285D01*
X87840285Y-87540857D01*
X87983142Y-87398000D01*
X88054571Y-87183714D01*
X88054571Y-86826571D01*
X88054571Y-88969428D02*
X87268857Y-88969428D01*
X87126000Y-88898000D01*
X87054571Y-88755142D01*
X87054571Y-88469428D01*
X87126000Y-88326571D01*
X87983142Y-88969428D02*
X88054571Y-88826571D01*
X88054571Y-88469428D01*
X87983142Y-88326571D01*
X87840285Y-88255142D01*
X87697428Y-88255142D01*
X87554571Y-88326571D01*
X87483142Y-88469428D01*
X87483142Y-88826571D01*
X87411714Y-88969428D01*
X87054571Y-89540857D02*
X88054571Y-89898000D01*
X87054571Y-90255142D01*
X88054571Y-90826571D02*
X87054571Y-90826571D01*
X86554571Y-90826571D02*
X86626000Y-90755142D01*
X86697428Y-90826571D01*
X86626000Y-90898000D01*
X86554571Y-90826571D01*
X86697428Y-90826571D01*
X88054571Y-92183714D02*
X86554571Y-92183714D01*
X87983142Y-92183714D02*
X88054571Y-92040857D01*
X88054571Y-91755142D01*
X87983142Y-91612285D01*
X87911714Y-91540857D01*
X87768857Y-91469428D01*
X87340285Y-91469428D01*
X87197428Y-91540857D01*
X87126000Y-91612285D01*
X87054571Y-91755142D01*
X87054571Y-92040857D01*
X87126000Y-92183714D01*
X87983142Y-93469428D02*
X88054571Y-93326571D01*
X88054571Y-93040857D01*
X87983142Y-92898000D01*
X87840285Y-92826571D01*
X87268857Y-92826571D01*
X87126000Y-92898000D01*
X87054571Y-93040857D01*
X87054571Y-93326571D01*
X87126000Y-93469428D01*
X87268857Y-93540857D01*
X87411714Y-93540857D01*
X87554571Y-92826571D01*
X86554571Y-95612285D02*
X86554571Y-95898000D01*
X86626000Y-96040857D01*
X86768857Y-96183714D01*
X87054571Y-96255142D01*
X87554571Y-96255142D01*
X87840285Y-96183714D01*
X87983142Y-96040857D01*
X88054571Y-95898000D01*
X88054571Y-95612285D01*
X87983142Y-95469428D01*
X87840285Y-95326571D01*
X87554571Y-95255142D01*
X87054571Y-95255142D01*
X86768857Y-95326571D01*
X86626000Y-95469428D01*
X86554571Y-95612285D01*
X87911714Y-96898000D02*
X87983142Y-96969428D01*
X88054571Y-96898000D01*
X87983142Y-96826571D01*
X87911714Y-96898000D01*
X88054571Y-96898000D01*
X86697428Y-98683714D02*
X86626000Y-98755142D01*
X86554571Y-98898000D01*
X86554571Y-99255142D01*
X86626000Y-99398000D01*
X86697428Y-99469428D01*
X86840285Y-99540857D01*
X86983142Y-99540857D01*
X87197428Y-99469428D01*
X88054571Y-98612285D01*
X88054571Y-99540857D01*
X86554571Y-100469428D02*
X86554571Y-100612285D01*
X86626000Y-100755142D01*
X86697428Y-100826571D01*
X86840285Y-100898000D01*
X87126000Y-100969428D01*
X87483142Y-100969428D01*
X87768857Y-100898000D01*
X87911714Y-100826571D01*
X87983142Y-100755142D01*
X88054571Y-100612285D01*
X88054571Y-100469428D01*
X87983142Y-100326571D01*
X87911714Y-100255142D01*
X87768857Y-100183714D01*
X87483142Y-100112285D01*
X87126000Y-100112285D01*
X86840285Y-100183714D01*
X86697428Y-100255142D01*
X86626000Y-100326571D01*
X86554571Y-100469428D01*
X86697428Y-101540857D02*
X86626000Y-101612285D01*
X86554571Y-101755142D01*
X86554571Y-102112285D01*
X86626000Y-102255142D01*
X86697428Y-102326571D01*
X86840285Y-102398000D01*
X86983142Y-102398000D01*
X87197428Y-102326571D01*
X88054571Y-101469428D01*
X88054571Y-102398000D01*
X88054571Y-103826571D02*
X88054571Y-102969428D01*
X88054571Y-103398000D02*
X86554571Y-103398000D01*
X86768857Y-103255142D01*
X86911714Y-103112285D01*
X86983142Y-102969428D01*
X87054571Y-106255142D02*
X88268857Y-106255142D01*
X88411714Y-106183714D01*
X88483142Y-106112285D01*
X88554571Y-105969428D01*
X88554571Y-105755142D01*
X88483142Y-105612285D01*
X87983142Y-106255142D02*
X88054571Y-106112285D01*
X88054571Y-105826571D01*
X87983142Y-105683714D01*
X87911714Y-105612285D01*
X87768857Y-105540857D01*
X87340285Y-105540857D01*
X87197428Y-105612285D01*
X87126000Y-105683714D01*
X87054571Y-105826571D01*
X87054571Y-106112285D01*
X87126000Y-106255142D01*
X87054571Y-106755142D02*
X87054571Y-107326571D01*
X86554571Y-106969428D02*
X87840285Y-106969428D01*
X87983142Y-107040857D01*
X88054571Y-107183714D01*
X88054571Y-107326571D01*
X88054571Y-107826571D02*
X87054571Y-107826571D01*
X86554571Y-107826571D02*
X86626000Y-107755142D01*
X86697428Y-107826571D01*
X86626000Y-107898000D01*
X86554571Y-107826571D01*
X86697428Y-107826571D01*
X88054571Y-108540857D02*
X86554571Y-108540857D01*
X88054571Y-109183714D02*
X87268857Y-109183714D01*
X87126000Y-109112285D01*
X87054571Y-108969428D01*
X87054571Y-108755142D01*
X87126000Y-108612285D01*
X87197428Y-108540857D01*
X87054571Y-110540857D02*
X88054571Y-110540857D01*
X87054571Y-109898000D02*
X87840285Y-109898000D01*
X87983142Y-109969428D01*
X88054571Y-110112285D01*
X88054571Y-110326571D01*
X87983142Y-110469428D01*
X87911714Y-110540857D01*
X88054571Y-111255142D02*
X86554571Y-111255142D01*
X87126000Y-111255142D02*
X87054571Y-111398000D01*
X87054571Y-111683714D01*
X87126000Y-111826571D01*
X87197428Y-111898000D01*
X87340285Y-111969428D01*
X87768857Y-111969428D01*
X87911714Y-111898000D01*
X87983142Y-111826571D01*
X88054571Y-111683714D01*
X88054571Y-111398000D01*
X87983142Y-111255142D01*
X86483142Y-113683714D02*
X88411714Y-112398000D01*
X88054571Y-114183714D02*
X86554571Y-114183714D01*
X86554571Y-114540857D01*
X86626000Y-114755142D01*
X86768857Y-114898000D01*
X86911714Y-114969428D01*
X87197428Y-115040857D01*
X87411714Y-115040857D01*
X87697428Y-114969428D01*
X87840285Y-114898000D01*
X87983142Y-114755142D01*
X88054571Y-114540857D01*
X88054571Y-114183714D01*
X88054571Y-116326571D02*
X87268857Y-116326571D01*
X87126000Y-116255142D01*
X87054571Y-116112285D01*
X87054571Y-115826571D01*
X87126000Y-115683714D01*
X87983142Y-116326571D02*
X88054571Y-116183714D01*
X88054571Y-115826571D01*
X87983142Y-115683714D01*
X87840285Y-115612285D01*
X87697428Y-115612285D01*
X87554571Y-115683714D01*
X87483142Y-115826571D01*
X87483142Y-116183714D01*
X87411714Y-116326571D01*
X88054571Y-117683714D02*
X86554571Y-117683714D01*
X87983142Y-117683714D02*
X88054571Y-117540857D01*
X88054571Y-117255142D01*
X87983142Y-117112285D01*
X87911714Y-117040857D01*
X87768857Y-116969428D01*
X87340285Y-116969428D01*
X87197428Y-117040857D01*
X87126000Y-117112285D01*
X87054571Y-117255142D01*
X87054571Y-117540857D01*
X87126000Y-117683714D01*
X88054571Y-118398000D02*
X87054571Y-118398000D01*
X86554571Y-118398000D02*
X86626000Y-118326571D01*
X86697428Y-118398000D01*
X86626000Y-118469428D01*
X86554571Y-118398000D01*
X86697428Y-118398000D01*
X87054571Y-119755142D02*
X88268857Y-119755142D01*
X88411714Y-119683714D01*
X88483142Y-119612285D01*
X88554571Y-119469428D01*
X88554571Y-119255142D01*
X88483142Y-119112285D01*
X87983142Y-119755142D02*
X88054571Y-119612285D01*
X88054571Y-119326571D01*
X87983142Y-119183714D01*
X87911714Y-119112285D01*
X87768857Y-119040857D01*
X87340285Y-119040857D01*
X87197428Y-119112285D01*
X87126000Y-119183714D01*
X87054571Y-119326571D01*
X87054571Y-119612285D01*
X87126000Y-119755142D01*
X87054571Y-120469428D02*
X88054571Y-120469428D01*
X87197428Y-120469428D02*
X87126000Y-120540857D01*
X87054571Y-120683714D01*
X87054571Y-120898000D01*
X87126000Y-121040857D01*
X87268857Y-121112285D01*
X88054571Y-121112285D01*
X88054571Y-122040857D02*
X87983142Y-121898000D01*
X87911714Y-121826571D01*
X87768857Y-121755142D01*
X87340285Y-121755142D01*
X87197428Y-121826571D01*
X87126000Y-121898000D01*
X87054571Y-122040857D01*
X87054571Y-122255142D01*
X87126000Y-122398000D01*
X87197428Y-122469428D01*
X87340285Y-122540857D01*
X87768857Y-122540857D01*
X87911714Y-122469428D01*
X87983142Y-122398000D01*
X88054571Y-122255142D01*
X88054571Y-122040857D01*
D11*
G36*
X38820711Y-92541533D02*
G01*
X38901306Y-92660441D01*
X38853589Y-92762467D01*
X38796209Y-92956170D01*
X38864002Y-93216691D01*
X39047020Y-93508790D01*
X39073392Y-93540900D01*
X39360796Y-93782812D01*
X39673450Y-93861570D01*
X39908891Y-93815017D01*
X40029073Y-93778167D01*
X40098122Y-93806510D01*
X40138256Y-93933700D01*
X40171692Y-94193387D01*
X40174317Y-94217045D01*
X40350575Y-95103464D01*
X40678780Y-95936314D01*
X41161974Y-96719982D01*
X41803198Y-97458855D01*
X42605491Y-98157320D01*
X43199257Y-98581410D01*
X43782433Y-98945533D01*
X44403208Y-99283067D01*
X45085063Y-99603959D01*
X45851479Y-99918156D01*
X46725941Y-100235603D01*
X47731929Y-100566247D01*
X48302333Y-100742900D01*
X49196417Y-101058658D01*
X50055901Y-101445384D01*
X50847307Y-101884457D01*
X51537156Y-102357261D01*
X52091970Y-102845178D01*
X52102934Y-102856490D01*
X52330348Y-103133801D01*
X52455167Y-103415691D01*
X52500948Y-103632457D01*
X52558161Y-103870226D01*
X52667536Y-104221533D01*
X52814840Y-104644141D01*
X52985838Y-105095816D01*
X53039402Y-105230110D01*
X53333041Y-105985477D01*
X53552096Y-106621156D01*
X53703342Y-107165965D01*
X53793555Y-107648724D01*
X53829510Y-108098251D01*
X53818080Y-108542040D01*
X53724320Y-109245299D01*
X53546251Y-110037213D01*
X53298531Y-110869037D01*
X52995818Y-111692025D01*
X52652771Y-112457430D01*
X52622625Y-112517478D01*
X52440281Y-112801415D01*
X52186695Y-113105974D01*
X51993433Y-113295614D01*
X51566647Y-113716350D01*
X51125398Y-114231493D01*
X50718709Y-114779117D01*
X50395607Y-115297292D01*
X50367390Y-115349615D01*
X50156472Y-115702970D01*
X49900277Y-116070822D01*
X49725323Y-116289667D01*
X49456643Y-116647924D01*
X49164353Y-117120501D01*
X48874312Y-117659773D01*
X48612378Y-118218112D01*
X48429870Y-118675667D01*
X48303571Y-118981459D01*
X48155296Y-119214041D01*
X47939372Y-119434562D01*
X47736299Y-119604260D01*
X47525911Y-119789629D01*
X47265578Y-120043338D01*
X46980420Y-120337796D01*
X46695555Y-120645408D01*
X46436106Y-120938581D01*
X46227192Y-121189721D01*
X46093932Y-121371233D01*
X46058667Y-121447084D01*
X46006972Y-121545167D01*
X45907657Y-121665837D01*
X45806514Y-121808629D01*
X45655573Y-122062843D01*
X45478513Y-122387339D01*
X45361471Y-122614797D01*
X44985828Y-123517291D01*
X44773890Y-124400364D01*
X44726189Y-125259230D01*
X44843258Y-126089103D01*
X44938815Y-126419285D01*
X45181903Y-126970079D01*
X45490961Y-127377658D01*
X45858066Y-127636297D01*
X46275297Y-127740276D01*
X46702215Y-127692932D01*
X47073726Y-127612550D01*
X47352487Y-127610183D01*
X47599292Y-127692440D01*
X47797584Y-127812006D01*
X48241245Y-128013378D01*
X48765803Y-128080640D01*
X49354507Y-128018024D01*
X49990607Y-127829762D01*
X50657353Y-127520087D01*
X51337995Y-127093232D01*
X51689000Y-126828648D01*
X51974271Y-126592786D01*
X52239176Y-126360133D01*
X52427606Y-126180013D01*
X52431328Y-126176108D01*
X52582287Y-126031096D01*
X52714046Y-125971176D01*
X52895422Y-125979162D01*
X53079919Y-126014142D01*
X53637793Y-126043675D01*
X54224724Y-125915196D01*
X54822172Y-125633198D01*
X54930988Y-125565455D01*
X55262538Y-125379834D01*
X55616869Y-125225307D01*
X55869222Y-125147554D01*
X56333856Y-125025828D01*
X56708800Y-124865575D01*
X57056565Y-124632986D01*
X57430175Y-124303308D01*
X57697309Y-124064399D01*
X57944915Y-123870345D01*
X58129786Y-123754237D01*
X58166000Y-123739717D01*
X58305443Y-123683176D01*
X58569032Y-123563282D01*
X58929679Y-123392854D01*
X59360298Y-123184713D01*
X59833800Y-122951677D01*
X59887549Y-122924970D01*
X60361200Y-122693878D01*
X60793027Y-122491607D01*
X61156642Y-122329849D01*
X61425658Y-122220294D01*
X61573686Y-122174633D01*
X61582584Y-122174000D01*
X61752003Y-122151928D01*
X62027988Y-122093680D01*
X62354753Y-122011208D01*
X62398718Y-121999146D01*
X63302897Y-121667193D01*
X64174988Y-121191307D01*
X64977544Y-120596802D01*
X65673117Y-119908994D01*
X65897341Y-119634000D01*
X66318163Y-119083667D01*
X67241315Y-119032838D01*
X67662024Y-119006006D01*
X67971613Y-118970127D01*
X68228192Y-118910257D01*
X68489870Y-118811450D01*
X68814758Y-118658762D01*
X68943733Y-118595002D01*
X69619070Y-118224447D01*
X70242881Y-117802556D01*
X70841938Y-117306134D01*
X71443013Y-116711990D01*
X72072878Y-115996930D01*
X72386594Y-115612334D01*
X72639285Y-115280350D01*
X72953979Y-114842983D01*
X73305879Y-114337077D01*
X73670189Y-113799474D01*
X74022111Y-113267017D01*
X74336849Y-112776551D01*
X74589607Y-112364919D01*
X74694413Y-112183334D01*
X74948616Y-111730076D01*
X75139092Y-111404975D01*
X75283028Y-111187437D01*
X75397616Y-111056870D01*
X75500045Y-110992681D01*
X75607505Y-110974279D01*
X75700555Y-110978045D01*
X76039917Y-111018179D01*
X76455766Y-111087632D01*
X76905211Y-111176891D01*
X77345362Y-111276443D01*
X77733327Y-111376773D01*
X78026216Y-111468368D01*
X78150291Y-111521414D01*
X78464706Y-111777622D01*
X78734729Y-112155443D01*
X78930601Y-112607791D01*
X78992852Y-112854613D01*
X79056698Y-113160047D01*
X79123131Y-113361132D01*
X79219912Y-113520971D01*
X79357569Y-113683557D01*
X79515810Y-113815045D01*
X79610786Y-113807026D01*
X79620782Y-113664760D01*
X79611059Y-113622132D01*
X79622154Y-113422381D01*
X79673301Y-113323962D01*
X79727521Y-113172396D01*
X79761118Y-112910335D01*
X79772359Y-112595560D01*
X79759510Y-112285853D01*
X79720836Y-112038994D01*
X79712703Y-112010965D01*
X79706897Y-111881045D01*
X79830289Y-111844734D01*
X79840527Y-111844667D01*
X80112199Y-111777506D01*
X80423569Y-111599461D01*
X80728627Y-111345688D01*
X80981361Y-111051342D01*
X81071589Y-110904044D01*
X81214480Y-110740581D01*
X81456436Y-110562290D01*
X81635866Y-110461823D01*
X82073150Y-110168441D01*
X82374549Y-109793168D01*
X82516480Y-109408768D01*
X82523455Y-109190191D01*
X82427079Y-109088424D01*
X82218180Y-109100510D01*
X81910407Y-109213309D01*
X81679073Y-109313209D01*
X81520821Y-109376992D01*
X81481589Y-109389334D01*
X81489195Y-109319607D01*
X81545591Y-109145214D01*
X81573023Y-109071834D01*
X81658529Y-108806613D01*
X81746734Y-108466545D01*
X81794332Y-108246334D01*
X81823922Y-108022722D01*
X81850624Y-107688433D01*
X81873754Y-107274016D01*
X81892627Y-106810023D01*
X81906558Y-106327006D01*
X81914862Y-105855515D01*
X81916855Y-105426102D01*
X81911852Y-105069318D01*
X81899169Y-104815715D01*
X81878120Y-104695843D01*
X81874006Y-104691161D01*
X81767148Y-104700308D01*
X81618962Y-104758997D01*
X81392812Y-104959020D01*
X81199558Y-105306663D01*
X81047489Y-105782007D01*
X80944896Y-106365136D01*
X80942718Y-106383667D01*
X80881821Y-106829421D01*
X80797194Y-107347887D01*
X80704192Y-107847015D01*
X80675178Y-107987577D01*
X80577839Y-108408617D01*
X80483091Y-108713500D01*
X80369963Y-108953754D01*
X80217479Y-109180908D01*
X80158266Y-109257577D01*
X79968202Y-109488554D01*
X79815668Y-109622028D01*
X79638370Y-109691879D01*
X79374010Y-109731989D01*
X79264465Y-109743700D01*
X78878982Y-109765885D01*
X78592865Y-109733707D01*
X78406697Y-109671111D01*
X78145066Y-109599569D01*
X77736273Y-109543389D01*
X77202026Y-109505381D01*
X77089000Y-109500481D01*
X76478889Y-109464284D01*
X76012616Y-109410270D01*
X75695651Y-109339950D01*
X75533461Y-109254832D01*
X75531515Y-109156428D01*
X75609228Y-109091829D01*
X75718418Y-108962218D01*
X75870296Y-108692315D01*
X76055988Y-108303120D01*
X76266624Y-107815634D01*
X76493331Y-107250858D01*
X76727237Y-106629793D01*
X76959470Y-105973439D01*
X77086794Y-105594314D01*
X77318693Y-104889627D01*
X79320513Y-103917954D01*
X79873582Y-103652425D01*
X80391123Y-103409455D01*
X80849251Y-103199826D01*
X81224083Y-103034317D01*
X81491736Y-102923712D01*
X81618667Y-102880570D01*
X82030467Y-102855735D01*
X82373781Y-102984399D01*
X82661711Y-103271680D01*
X82677596Y-103294193D01*
X82914394Y-103558837D01*
X83153669Y-103689387D01*
X83370787Y-103674957D01*
X83440099Y-103631088D01*
X83549411Y-103438188D01*
X83531886Y-103172347D01*
X83439000Y-102954667D01*
X83326763Y-102690700D01*
X83350926Y-102516415D01*
X83514696Y-102416931D01*
X83557221Y-102406262D01*
X83849369Y-102278417D01*
X84031708Y-102038498D01*
X84115219Y-101670843D01*
X84119903Y-101603670D01*
X84168497Y-101280265D01*
X84265323Y-101060897D01*
X84286084Y-101037154D01*
X84400475Y-100877580D01*
X84553085Y-100604249D01*
X84725646Y-100257667D01*
X84899894Y-99878341D01*
X85057563Y-99506778D01*
X85180386Y-99183485D01*
X85250097Y-98948968D01*
X85259333Y-98878871D01*
X85237635Y-98708287D01*
X85137049Y-98644451D01*
X84999767Y-98636667D01*
X84625927Y-98706082D01*
X84267334Y-98924365D01*
X84186936Y-98994000D01*
X84003538Y-99160839D01*
X83949203Y-98665920D01*
X83846452Y-97858691D01*
X83724978Y-97159325D01*
X83620485Y-96689334D01*
X83549173Y-96330253D01*
X83484236Y-95889409D01*
X83438299Y-95454253D01*
X83434061Y-95398167D01*
X83401593Y-95067863D01*
X83359415Y-94813412D01*
X83314657Y-94673073D01*
X83296035Y-94657334D01*
X83189274Y-94714362D01*
X83026428Y-94856833D01*
X82970319Y-94914560D01*
X82756982Y-95249481D01*
X82618484Y-95693832D01*
X82566312Y-96200009D01*
X82582240Y-96522963D01*
X82603297Y-96769966D01*
X82627501Y-97144026D01*
X82652466Y-97602957D01*
X82675805Y-98104575D01*
X82686247Y-98361500D01*
X82739215Y-99737334D01*
X82478253Y-99737334D01*
X82228380Y-99801287D01*
X82096964Y-99973265D01*
X82104118Y-100223438D01*
X82119621Y-100269135D01*
X82137542Y-100331036D01*
X82129892Y-100389644D01*
X82080588Y-100454309D01*
X81973547Y-100534382D01*
X81792687Y-100639214D01*
X81521926Y-100778158D01*
X81145180Y-100960564D01*
X80646368Y-101195783D01*
X80035129Y-101481178D01*
X79472605Y-101743175D01*
X78959537Y-101981739D01*
X78516136Y-102187506D01*
X78162609Y-102351109D01*
X77919167Y-102463185D01*
X77806018Y-102514368D01*
X77801619Y-102516182D01*
X77734019Y-102464640D01*
X77672907Y-102304515D01*
X77461594Y-101771703D01*
X77110452Y-101327015D01*
X76631278Y-100983189D01*
X76318442Y-100842070D01*
X75718193Y-100591864D01*
X75219914Y-100317359D01*
X74757138Y-99976884D01*
X74337431Y-99600079D01*
X73984405Y-99250209D01*
X73646383Y-98885840D01*
X73306510Y-98485393D01*
X72947931Y-98027289D01*
X72553789Y-97489948D01*
X72107230Y-96851791D01*
X71591397Y-96091239D01*
X71559266Y-96043317D01*
X70860746Y-95026661D01*
X70213336Y-94141991D01*
X69597918Y-93367208D01*
X68995373Y-92680215D01*
X68386585Y-92058911D01*
X67752435Y-91481199D01*
X67255808Y-91068935D01*
X66124525Y-90240206D01*
X64997722Y-89574086D01*
X63858803Y-89065170D01*
X62691172Y-88708050D01*
X61478236Y-88497318D01*
X60203399Y-88427569D01*
X59250774Y-88460721D01*
X58740263Y-88499432D01*
X58351838Y-88541181D01*
X58038361Y-88595049D01*
X57752694Y-88670117D01*
X57447697Y-88775466D01*
X57276468Y-88841065D01*
X56857084Y-88984864D01*
X56347770Y-89130087D01*
X55826419Y-89255588D01*
X55537684Y-89313082D01*
X55106880Y-89395866D01*
X54697997Y-89484562D01*
X54362917Y-89567363D01*
X54183017Y-89621370D01*
X53769383Y-89747011D01*
X53210778Y-89884567D01*
X52530706Y-90028891D01*
X51752666Y-90174834D01*
X51308000Y-90251182D01*
X50251475Y-90456418D01*
X49150074Y-90722801D01*
X48089150Y-91028709D01*
X47593002Y-91192337D01*
X47250107Y-91309345D01*
X47028877Y-91374200D01*
X46891103Y-91390551D01*
X46798576Y-91362051D01*
X46713088Y-91292349D01*
X46697782Y-91277875D01*
X46381512Y-90985650D01*
X46130043Y-90778465D01*
X45891315Y-90618818D01*
X45613266Y-90469206D01*
X45494413Y-90411012D01*
X45191504Y-90271477D01*
X44977741Y-90199902D01*
X44792670Y-90184912D01*
X44575839Y-90215133D01*
X44516458Y-90227009D01*
X44263171Y-90271628D01*
X44118003Y-90264522D01*
X44024701Y-90194646D01*
X43971545Y-90120033D01*
X43889461Y-89898994D01*
X43896015Y-89591421D01*
X43902074Y-89548460D01*
X43931811Y-89128601D01*
X43879683Y-88833085D01*
X43748908Y-88672772D01*
X43634735Y-88646000D01*
X43309586Y-88717287D01*
X42955431Y-88936110D01*
X42633650Y-89231689D01*
X42418886Y-89422971D01*
X42221291Y-89548494D01*
X42123322Y-89577333D01*
X41913690Y-89625499D01*
X41777651Y-89696425D01*
X41590160Y-89781979D01*
X41321319Y-89855321D01*
X41215145Y-89874372D01*
X40851728Y-89981882D01*
X40631908Y-90136281D01*
X40471167Y-90276958D01*
X40343526Y-90339170D01*
X40339275Y-90339333D01*
X40204235Y-90398439D01*
X40132000Y-90466334D01*
X39968238Y-90574860D01*
X39873778Y-90593334D01*
X39711437Y-90655164D01*
X39566645Y-90784211D01*
X39369154Y-90964186D01*
X39176324Y-91080176D01*
X39017853Y-91173911D01*
X38995811Y-91277077D01*
X39023535Y-91340762D01*
X39160673Y-91526911D01*
X39252371Y-91616297D01*
X39329021Y-91695497D01*
X39290329Y-91740402D01*
X39111363Y-91773593D01*
X39073111Y-91778667D01*
X38818691Y-91842405D01*
X38722832Y-91940522D01*
X38789525Y-92063303D01*
X38920261Y-92150828D01*
X39158333Y-92279887D01*
X38925500Y-92283277D01*
X38737100Y-92318056D01*
X38706917Y-92410643D01*
X38820711Y-92541533D01*
G37*
X38820711Y-92541533D02*
X38901306Y-92660441D01*
X38853589Y-92762467D01*
X38796209Y-92956170D01*
X38864002Y-93216691D01*
X39047020Y-93508790D01*
X39073392Y-93540900D01*
X39360796Y-93782812D01*
X39673450Y-93861570D01*
X39908891Y-93815017D01*
X40029073Y-93778167D01*
X40098122Y-93806510D01*
X40138256Y-93933700D01*
X40171692Y-94193387D01*
X40174317Y-94217045D01*
X40350575Y-95103464D01*
X40678780Y-95936314D01*
X41161974Y-96719982D01*
X41803198Y-97458855D01*
X42605491Y-98157320D01*
X43199257Y-98581410D01*
X43782433Y-98945533D01*
X44403208Y-99283067D01*
X45085063Y-99603959D01*
X45851479Y-99918156D01*
X46725941Y-100235603D01*
X47731929Y-100566247D01*
X48302333Y-100742900D01*
X49196417Y-101058658D01*
X50055901Y-101445384D01*
X50847307Y-101884457D01*
X51537156Y-102357261D01*
X52091970Y-102845178D01*
X52102934Y-102856490D01*
X52330348Y-103133801D01*
X52455167Y-103415691D01*
X52500948Y-103632457D01*
X52558161Y-103870226D01*
X52667536Y-104221533D01*
X52814840Y-104644141D01*
X52985838Y-105095816D01*
X53039402Y-105230110D01*
X53333041Y-105985477D01*
X53552096Y-106621156D01*
X53703342Y-107165965D01*
X53793555Y-107648724D01*
X53829510Y-108098251D01*
X53818080Y-108542040D01*
X53724320Y-109245299D01*
X53546251Y-110037213D01*
X53298531Y-110869037D01*
X52995818Y-111692025D01*
X52652771Y-112457430D01*
X52622625Y-112517478D01*
X52440281Y-112801415D01*
X52186695Y-113105974D01*
X51993433Y-113295614D01*
X51566647Y-113716350D01*
X51125398Y-114231493D01*
X50718709Y-114779117D01*
X50395607Y-115297292D01*
X50367390Y-115349615D01*
X50156472Y-115702970D01*
X49900277Y-116070822D01*
X49725323Y-116289667D01*
X49456643Y-116647924D01*
X49164353Y-117120501D01*
X48874312Y-117659773D01*
X48612378Y-118218112D01*
X48429870Y-118675667D01*
X48303571Y-118981459D01*
X48155296Y-119214041D01*
X47939372Y-119434562D01*
X47736299Y-119604260D01*
X47525911Y-119789629D01*
X47265578Y-120043338D01*
X46980420Y-120337796D01*
X46695555Y-120645408D01*
X46436106Y-120938581D01*
X46227192Y-121189721D01*
X46093932Y-121371233D01*
X46058667Y-121447084D01*
X46006972Y-121545167D01*
X45907657Y-121665837D01*
X45806514Y-121808629D01*
X45655573Y-122062843D01*
X45478513Y-122387339D01*
X45361471Y-122614797D01*
X44985828Y-123517291D01*
X44773890Y-124400364D01*
X44726189Y-125259230D01*
X44843258Y-126089103D01*
X44938815Y-126419285D01*
X45181903Y-126970079D01*
X45490961Y-127377658D01*
X45858066Y-127636297D01*
X46275297Y-127740276D01*
X46702215Y-127692932D01*
X47073726Y-127612550D01*
X47352487Y-127610183D01*
X47599292Y-127692440D01*
X47797584Y-127812006D01*
X48241245Y-128013378D01*
X48765803Y-128080640D01*
X49354507Y-128018024D01*
X49990607Y-127829762D01*
X50657353Y-127520087D01*
X51337995Y-127093232D01*
X51689000Y-126828648D01*
X51974271Y-126592786D01*
X52239176Y-126360133D01*
X52427606Y-126180013D01*
X52431328Y-126176108D01*
X52582287Y-126031096D01*
X52714046Y-125971176D01*
X52895422Y-125979162D01*
X53079919Y-126014142D01*
X53637793Y-126043675D01*
X54224724Y-125915196D01*
X54822172Y-125633198D01*
X54930988Y-125565455D01*
X55262538Y-125379834D01*
X55616869Y-125225307D01*
X55869222Y-125147554D01*
X56333856Y-125025828D01*
X56708800Y-124865575D01*
X57056565Y-124632986D01*
X57430175Y-124303308D01*
X57697309Y-124064399D01*
X57944915Y-123870345D01*
X58129786Y-123754237D01*
X58166000Y-123739717D01*
X58305443Y-123683176D01*
X58569032Y-123563282D01*
X58929679Y-123392854D01*
X59360298Y-123184713D01*
X59833800Y-122951677D01*
X59887549Y-122924970D01*
X60361200Y-122693878D01*
X60793027Y-122491607D01*
X61156642Y-122329849D01*
X61425658Y-122220294D01*
X61573686Y-122174633D01*
X61582584Y-122174000D01*
X61752003Y-122151928D01*
X62027988Y-122093680D01*
X62354753Y-122011208D01*
X62398718Y-121999146D01*
X63302897Y-121667193D01*
X64174988Y-121191307D01*
X64977544Y-120596802D01*
X65673117Y-119908994D01*
X65897341Y-119634000D01*
X66318163Y-119083667D01*
X67241315Y-119032838D01*
X67662024Y-119006006D01*
X67971613Y-118970127D01*
X68228192Y-118910257D01*
X68489870Y-118811450D01*
X68814758Y-118658762D01*
X68943733Y-118595002D01*
X69619070Y-118224447D01*
X70242881Y-117802556D01*
X70841938Y-117306134D01*
X71443013Y-116711990D01*
X72072878Y-115996930D01*
X72386594Y-115612334D01*
X72639285Y-115280350D01*
X72953979Y-114842983D01*
X73305879Y-114337077D01*
X73670189Y-113799474D01*
X74022111Y-113267017D01*
X74336849Y-112776551D01*
X74589607Y-112364919D01*
X74694413Y-112183334D01*
X74948616Y-111730076D01*
X75139092Y-111404975D01*
X75283028Y-111187437D01*
X75397616Y-111056870D01*
X75500045Y-110992681D01*
X75607505Y-110974279D01*
X75700555Y-110978045D01*
X76039917Y-111018179D01*
X76455766Y-111087632D01*
X76905211Y-111176891D01*
X77345362Y-111276443D01*
X77733327Y-111376773D01*
X78026216Y-111468368D01*
X78150291Y-111521414D01*
X78464706Y-111777622D01*
X78734729Y-112155443D01*
X78930601Y-112607791D01*
X78992852Y-112854613D01*
X79056698Y-113160047D01*
X79123131Y-113361132D01*
X79219912Y-113520971D01*
X79357569Y-113683557D01*
X79515810Y-113815045D01*
X79610786Y-113807026D01*
X79620782Y-113664760D01*
X79611059Y-113622132D01*
X79622154Y-113422381D01*
X79673301Y-113323962D01*
X79727521Y-113172396D01*
X79761118Y-112910335D01*
X79772359Y-112595560D01*
X79759510Y-112285853D01*
X79720836Y-112038994D01*
X79712703Y-112010965D01*
X79706897Y-111881045D01*
X79830289Y-111844734D01*
X79840527Y-111844667D01*
X80112199Y-111777506D01*
X80423569Y-111599461D01*
X80728627Y-111345688D01*
X80981361Y-111051342D01*
X81071589Y-110904044D01*
X81214480Y-110740581D01*
X81456436Y-110562290D01*
X81635866Y-110461823D01*
X82073150Y-110168441D01*
X82374549Y-109793168D01*
X82516480Y-109408768D01*
X82523455Y-109190191D01*
X82427079Y-109088424D01*
X82218180Y-109100510D01*
X81910407Y-109213309D01*
X81679073Y-109313209D01*
X81520821Y-109376992D01*
X81481589Y-109389334D01*
X81489195Y-109319607D01*
X81545591Y-109145214D01*
X81573023Y-109071834D01*
X81658529Y-108806613D01*
X81746734Y-108466545D01*
X81794332Y-108246334D01*
X81823922Y-108022722D01*
X81850624Y-107688433D01*
X81873754Y-107274016D01*
X81892627Y-106810023D01*
X81906558Y-106327006D01*
X81914862Y-105855515D01*
X81916855Y-105426102D01*
X81911852Y-105069318D01*
X81899169Y-104815715D01*
X81878120Y-104695843D01*
X81874006Y-104691161D01*
X81767148Y-104700308D01*
X81618962Y-104758997D01*
X81392812Y-104959020D01*
X81199558Y-105306663D01*
X81047489Y-105782007D01*
X80944896Y-106365136D01*
X80942718Y-106383667D01*
X80881821Y-106829421D01*
X80797194Y-107347887D01*
X80704192Y-107847015D01*
X80675178Y-107987577D01*
X80577839Y-108408617D01*
X80483091Y-108713500D01*
X80369963Y-108953754D01*
X80217479Y-109180908D01*
X80158266Y-109257577D01*
X79968202Y-109488554D01*
X79815668Y-109622028D01*
X79638370Y-109691879D01*
X79374010Y-109731989D01*
X79264465Y-109743700D01*
X78878982Y-109765885D01*
X78592865Y-109733707D01*
X78406697Y-109671111D01*
X78145066Y-109599569D01*
X77736273Y-109543389D01*
X77202026Y-109505381D01*
X77089000Y-109500481D01*
X76478889Y-109464284D01*
X76012616Y-109410270D01*
X75695651Y-109339950D01*
X75533461Y-109254832D01*
X75531515Y-109156428D01*
X75609228Y-109091829D01*
X75718418Y-108962218D01*
X75870296Y-108692315D01*
X76055988Y-108303120D01*
X76266624Y-107815634D01*
X76493331Y-107250858D01*
X76727237Y-106629793D01*
X76959470Y-105973439D01*
X77086794Y-105594314D01*
X77318693Y-104889627D01*
X79320513Y-103917954D01*
X79873582Y-103652425D01*
X80391123Y-103409455D01*
X80849251Y-103199826D01*
X81224083Y-103034317D01*
X81491736Y-102923712D01*
X81618667Y-102880570D01*
X82030467Y-102855735D01*
X82373781Y-102984399D01*
X82661711Y-103271680D01*
X82677596Y-103294193D01*
X82914394Y-103558837D01*
X83153669Y-103689387D01*
X83370787Y-103674957D01*
X83440099Y-103631088D01*
X83549411Y-103438188D01*
X83531886Y-103172347D01*
X83439000Y-102954667D01*
X83326763Y-102690700D01*
X83350926Y-102516415D01*
X83514696Y-102416931D01*
X83557221Y-102406262D01*
X83849369Y-102278417D01*
X84031708Y-102038498D01*
X84115219Y-101670843D01*
X84119903Y-101603670D01*
X84168497Y-101280265D01*
X84265323Y-101060897D01*
X84286084Y-101037154D01*
X84400475Y-100877580D01*
X84553085Y-100604249D01*
X84725646Y-100257667D01*
X84899894Y-99878341D01*
X85057563Y-99506778D01*
X85180386Y-99183485D01*
X85250097Y-98948968D01*
X85259333Y-98878871D01*
X85237635Y-98708287D01*
X85137049Y-98644451D01*
X84999767Y-98636667D01*
X84625927Y-98706082D01*
X84267334Y-98924365D01*
X84186936Y-98994000D01*
X84003538Y-99160839D01*
X83949203Y-98665920D01*
X83846452Y-97858691D01*
X83724978Y-97159325D01*
X83620485Y-96689334D01*
X83549173Y-96330253D01*
X83484236Y-95889409D01*
X83438299Y-95454253D01*
X83434061Y-95398167D01*
X83401593Y-95067863D01*
X83359415Y-94813412D01*
X83314657Y-94673073D01*
X83296035Y-94657334D01*
X83189274Y-94714362D01*
X83026428Y-94856833D01*
X82970319Y-94914560D01*
X82756982Y-95249481D01*
X82618484Y-95693832D01*
X82566312Y-96200009D01*
X82582240Y-96522963D01*
X82603297Y-96769966D01*
X82627501Y-97144026D01*
X82652466Y-97602957D01*
X82675805Y-98104575D01*
X82686247Y-98361500D01*
X82739215Y-99737334D01*
X82478253Y-99737334D01*
X82228380Y-99801287D01*
X82096964Y-99973265D01*
X82104118Y-100223438D01*
X82119621Y-100269135D01*
X82137542Y-100331036D01*
X82129892Y-100389644D01*
X82080588Y-100454309D01*
X81973547Y-100534382D01*
X81792687Y-100639214D01*
X81521926Y-100778158D01*
X81145180Y-100960564D01*
X80646368Y-101195783D01*
X80035129Y-101481178D01*
X79472605Y-101743175D01*
X78959537Y-101981739D01*
X78516136Y-102187506D01*
X78162609Y-102351109D01*
X77919167Y-102463185D01*
X77806018Y-102514368D01*
X77801619Y-102516182D01*
X77734019Y-102464640D01*
X77672907Y-102304515D01*
X77461594Y-101771703D01*
X77110452Y-101327015D01*
X76631278Y-100983189D01*
X76318442Y-100842070D01*
X75718193Y-100591864D01*
X75219914Y-100317359D01*
X74757138Y-99976884D01*
X74337431Y-99600079D01*
X73984405Y-99250209D01*
X73646383Y-98885840D01*
X73306510Y-98485393D01*
X72947931Y-98027289D01*
X72553789Y-97489948D01*
X72107230Y-96851791D01*
X71591397Y-96091239D01*
X71559266Y-96043317D01*
X70860746Y-95026661D01*
X70213336Y-94141991D01*
X69597918Y-93367208D01*
X68995373Y-92680215D01*
X68386585Y-92058911D01*
X67752435Y-91481199D01*
X67255808Y-91068935D01*
X66124525Y-90240206D01*
X64997722Y-89574086D01*
X63858803Y-89065170D01*
X62691172Y-88708050D01*
X61478236Y-88497318D01*
X60203399Y-88427569D01*
X59250774Y-88460721D01*
X58740263Y-88499432D01*
X58351838Y-88541181D01*
X58038361Y-88595049D01*
X57752694Y-88670117D01*
X57447697Y-88775466D01*
X57276468Y-88841065D01*
X56857084Y-88984864D01*
X56347770Y-89130087D01*
X55826419Y-89255588D01*
X55537684Y-89313082D01*
X55106880Y-89395866D01*
X54697997Y-89484562D01*
X54362917Y-89567363D01*
X54183017Y-89621370D01*
X53769383Y-89747011D01*
X53210778Y-89884567D01*
X52530706Y-90028891D01*
X51752666Y-90174834D01*
X51308000Y-90251182D01*
X50251475Y-90456418D01*
X49150074Y-90722801D01*
X48089150Y-91028709D01*
X47593002Y-91192337D01*
X47250107Y-91309345D01*
X47028877Y-91374200D01*
X46891103Y-91390551D01*
X46798576Y-91362051D01*
X46713088Y-91292349D01*
X46697782Y-91277875D01*
X46381512Y-90985650D01*
X46130043Y-90778465D01*
X45891315Y-90618818D01*
X45613266Y-90469206D01*
X45494413Y-90411012D01*
X45191504Y-90271477D01*
X44977741Y-90199902D01*
X44792670Y-90184912D01*
X44575839Y-90215133D01*
X44516458Y-90227009D01*
X44263171Y-90271628D01*
X44118003Y-90264522D01*
X44024701Y-90194646D01*
X43971545Y-90120033D01*
X43889461Y-89898994D01*
X43896015Y-89591421D01*
X43902074Y-89548460D01*
X43931811Y-89128601D01*
X43879683Y-88833085D01*
X43748908Y-88672772D01*
X43634735Y-88646000D01*
X43309586Y-88717287D01*
X42955431Y-88936110D01*
X42633650Y-89231689D01*
X42418886Y-89422971D01*
X42221291Y-89548494D01*
X42123322Y-89577333D01*
X41913690Y-89625499D01*
X41777651Y-89696425D01*
X41590160Y-89781979D01*
X41321319Y-89855321D01*
X41215145Y-89874372D01*
X40851728Y-89981882D01*
X40631908Y-90136281D01*
X40471167Y-90276958D01*
X40343526Y-90339170D01*
X40339275Y-90339333D01*
X40204235Y-90398439D01*
X40132000Y-90466334D01*
X39968238Y-90574860D01*
X39873778Y-90593334D01*
X39711437Y-90655164D01*
X39566645Y-90784211D01*
X39369154Y-90964186D01*
X39176324Y-91080176D01*
X39017853Y-91173911D01*
X38995811Y-91277077D01*
X39023535Y-91340762D01*
X39160673Y-91526911D01*
X39252371Y-91616297D01*
X39329021Y-91695497D01*
X39290329Y-91740402D01*
X39111363Y-91773593D01*
X39073111Y-91778667D01*
X38818691Y-91842405D01*
X38722832Y-91940522D01*
X38789525Y-92063303D01*
X38920261Y-92150828D01*
X39158333Y-92279887D01*
X38925500Y-92283277D01*
X38737100Y-92318056D01*
X38706917Y-92410643D01*
X38820711Y-92541533D01*
D12*
X73279000Y-131826000D02*
G75*
G03X71374000Y-129921000I-1905000J0D01*
G01*
X66294000Y-129921000D02*
G75*
G03X64389000Y-131826000I0J-1905000D01*
G01*
X64389000Y-133096000D02*
G75*
G03X66294000Y-135001000I1905000J0D01*
G01*
X71374000Y-135001000D02*
G75*
G03X73279000Y-133096000I0J1905000D01*
G01*
X73279000Y-133096000D02*
X73279000Y-131826000D01*
X69469000Y-129921000D02*
X66294000Y-129921000D01*
X66294000Y-135001000D02*
X69469000Y-135001000D01*
X64389000Y-133096000D02*
X64389000Y-131826000D01*
X71374000Y-135001000D02*
X69469000Y-135001000D01*
X71374000Y-129921000D02*
X69469000Y-129921000D01*
X84784000Y-77208748D02*
X84784000Y-77731252D01*
X83364000Y-77208748D02*
X83364000Y-77731252D01*
X83364000Y-82176252D02*
X83364000Y-81653748D01*
X84784000Y-82176252D02*
X84784000Y-81653748D01*
X52258000Y-83820000D02*
G75*
G03X52258000Y-83820000I-950000J0D01*
G01*
X50226000Y-75184000D02*
G75*
G03X50226000Y-75184000I-950000J0D01*
G01*
X55306000Y-69088000D02*
G75*
G03X55306000Y-69088000I-950000J0D01*
G01*
X52512000Y-70358000D02*
G75*
G03X52512000Y-70358000I-950000J0D01*
G01*
X54798000Y-73660000D02*
G75*
G03X54798000Y-73660000I-950000J0D01*
G01*
X63942000Y-73660000D02*
G75*
G03X63942000Y-73660000I-950000J0D01*
G01*
X47178000Y-83820000D02*
G75*
G03X47178000Y-83820000I-950000J0D01*
G01*
X46684000Y-74160748D02*
X46684000Y-74683252D01*
X45264000Y-74160748D02*
X45264000Y-74683252D01*
X58579936Y-75094000D02*
X59784064Y-75094000D01*
X58579936Y-77814000D02*
X59784064Y-77814000D01*
D13*
X86177380Y-76954142D02*
X85701190Y-76620809D01*
X86177380Y-76382714D02*
X85177380Y-76382714D01*
X85177380Y-76763666D01*
X85225000Y-76858904D01*
X85272619Y-76906523D01*
X85367857Y-76954142D01*
X85510714Y-76954142D01*
X85605952Y-76906523D01*
X85653571Y-76858904D01*
X85701190Y-76763666D01*
X85701190Y-76382714D01*
X86177380Y-77906523D02*
X86177380Y-77335095D01*
X86177380Y-77620809D02*
X85177380Y-77620809D01*
X85320238Y-77525571D01*
X85415476Y-77430333D01*
X85463095Y-77335095D01*
X85177380Y-78239857D02*
X85177380Y-78858904D01*
X85558333Y-78525571D01*
X85558333Y-78668428D01*
X85605952Y-78763666D01*
X85653571Y-78811285D01*
X85748809Y-78858904D01*
X85986904Y-78858904D01*
X86082142Y-78811285D01*
X86129761Y-78763666D01*
X86177380Y-78668428D01*
X86177380Y-78382714D01*
X86129761Y-78287476D01*
X86082142Y-78239857D01*
X86176380Y-81272142D02*
X85700190Y-80938809D01*
X86176380Y-80700714D02*
X85176380Y-80700714D01*
X85176380Y-81081666D01*
X85224000Y-81176904D01*
X85271619Y-81224523D01*
X85366857Y-81272142D01*
X85509714Y-81272142D01*
X85604952Y-81224523D01*
X85652571Y-81176904D01*
X85700190Y-81081666D01*
X85700190Y-80700714D01*
X86176380Y-82224523D02*
X86176380Y-81653095D01*
X86176380Y-81938809D02*
X85176380Y-81938809D01*
X85319238Y-81843571D01*
X85414476Y-81748333D01*
X85462095Y-81653095D01*
X85271619Y-82605476D02*
X85224000Y-82653095D01*
X85176380Y-82748333D01*
X85176380Y-82986428D01*
X85224000Y-83081666D01*
X85271619Y-83129285D01*
X85366857Y-83176904D01*
X85462095Y-83176904D01*
X85604952Y-83129285D01*
X86176380Y-82557857D01*
X86176380Y-83176904D01*
X53260380Y-81570000D02*
X53355619Y-81522380D01*
X53498476Y-81522380D01*
X53641333Y-81570000D01*
X53736571Y-81665238D01*
X53784190Y-81760476D01*
X53831809Y-81950952D01*
X53831809Y-82093809D01*
X53784190Y-82284285D01*
X53736571Y-82379523D01*
X53641333Y-82474761D01*
X53498476Y-82522380D01*
X53403238Y-82522380D01*
X53260380Y-82474761D01*
X53212761Y-82427142D01*
X53212761Y-82093809D01*
X53403238Y-82093809D01*
X52784190Y-82522380D02*
X52784190Y-81522380D01*
X52403238Y-81522380D01*
X52308000Y-81570000D01*
X52260380Y-81617619D01*
X52212761Y-81712857D01*
X52212761Y-81855714D01*
X52260380Y-81950952D01*
X52308000Y-81998571D01*
X52403238Y-82046190D01*
X52784190Y-82046190D01*
X51784190Y-82522380D02*
X51784190Y-81522380D01*
X51117523Y-81522380D02*
X50927047Y-81522380D01*
X50831809Y-81570000D01*
X50736571Y-81665238D01*
X50688952Y-81855714D01*
X50688952Y-82189047D01*
X50736571Y-82379523D01*
X50831809Y-82474761D01*
X50927047Y-82522380D01*
X51117523Y-82522380D01*
X51212761Y-82474761D01*
X51308000Y-82379523D01*
X51355619Y-82189047D01*
X51355619Y-81855714D01*
X51308000Y-81665238D01*
X51212761Y-81570000D01*
X51117523Y-81522380D01*
X49736571Y-82522380D02*
X50308000Y-82522380D01*
X50022285Y-82522380D02*
X50022285Y-81522380D01*
X50117523Y-81665238D01*
X50212761Y-81760476D01*
X50308000Y-81808095D01*
X48879428Y-81522380D02*
X49069904Y-81522380D01*
X49165142Y-81570000D01*
X49212761Y-81617619D01*
X49308000Y-81760476D01*
X49355619Y-81950952D01*
X49355619Y-82331904D01*
X49308000Y-82427142D01*
X49260380Y-82474761D01*
X49165142Y-82522380D01*
X48974666Y-82522380D01*
X48879428Y-82474761D01*
X48831809Y-82427142D01*
X48784190Y-82331904D01*
X48784190Y-82093809D01*
X48831809Y-81998571D01*
X48879428Y-81950952D01*
X48974666Y-81903333D01*
X49165142Y-81903333D01*
X49260380Y-81950952D01*
X49308000Y-81998571D01*
X49355619Y-82093809D01*
X51228380Y-72934000D02*
X51323619Y-72886380D01*
X51466476Y-72886380D01*
X51609333Y-72934000D01*
X51704571Y-73029238D01*
X51752190Y-73124476D01*
X51799809Y-73314952D01*
X51799809Y-73457809D01*
X51752190Y-73648285D01*
X51704571Y-73743523D01*
X51609333Y-73838761D01*
X51466476Y-73886380D01*
X51371238Y-73886380D01*
X51228380Y-73838761D01*
X51180761Y-73791142D01*
X51180761Y-73457809D01*
X51371238Y-73457809D01*
X50752190Y-73886380D02*
X50752190Y-72886380D01*
X50371238Y-72886380D01*
X50276000Y-72934000D01*
X50228380Y-72981619D01*
X50180761Y-73076857D01*
X50180761Y-73219714D01*
X50228380Y-73314952D01*
X50276000Y-73362571D01*
X50371238Y-73410190D01*
X50752190Y-73410190D01*
X49752190Y-73886380D02*
X49752190Y-72886380D01*
X49085523Y-72886380D02*
X48895047Y-72886380D01*
X48799809Y-72934000D01*
X48704571Y-73029238D01*
X48656952Y-73219714D01*
X48656952Y-73553047D01*
X48704571Y-73743523D01*
X48799809Y-73838761D01*
X48895047Y-73886380D01*
X49085523Y-73886380D01*
X49180761Y-73838761D01*
X49276000Y-73743523D01*
X49323619Y-73553047D01*
X49323619Y-73219714D01*
X49276000Y-73029238D01*
X49180761Y-72934000D01*
X49085523Y-72886380D01*
X47704571Y-73886380D02*
X48276000Y-73886380D01*
X47990285Y-73886380D02*
X47990285Y-72886380D01*
X48085523Y-73029238D01*
X48180761Y-73124476D01*
X48276000Y-73172095D01*
X46847428Y-73219714D02*
X46847428Y-73886380D01*
X47085523Y-72838761D02*
X47323619Y-73553047D01*
X46704571Y-73553047D01*
X56054428Y-67635380D02*
X56054428Y-66635380D01*
X55721095Y-67349666D01*
X55387761Y-66635380D01*
X55387761Y-67635380D01*
X54721095Y-66635380D02*
X54530619Y-66635380D01*
X54435380Y-66683000D01*
X54340142Y-66778238D01*
X54292523Y-66968714D01*
X54292523Y-67302047D01*
X54340142Y-67492523D01*
X54435380Y-67587761D01*
X54530619Y-67635380D01*
X54721095Y-67635380D01*
X54816333Y-67587761D01*
X54911571Y-67492523D01*
X54959190Y-67302047D01*
X54959190Y-66968714D01*
X54911571Y-66778238D01*
X54816333Y-66683000D01*
X54721095Y-66635380D01*
X53911571Y-67587761D02*
X53768714Y-67635380D01*
X53530619Y-67635380D01*
X53435380Y-67587761D01*
X53387761Y-67540142D01*
X53340142Y-67444904D01*
X53340142Y-67349666D01*
X53387761Y-67254428D01*
X53435380Y-67206809D01*
X53530619Y-67159190D01*
X53721095Y-67111571D01*
X53816333Y-67063952D01*
X53863952Y-67016333D01*
X53911571Y-66921095D01*
X53911571Y-66825857D01*
X53863952Y-66730619D01*
X53816333Y-66683000D01*
X53721095Y-66635380D01*
X53483000Y-66635380D01*
X53340142Y-66683000D01*
X52911571Y-67635380D02*
X52911571Y-66635380D01*
X51609380Y-68108000D02*
X51704619Y-68060380D01*
X51847476Y-68060380D01*
X51990333Y-68108000D01*
X52085571Y-68203238D01*
X52133190Y-68298476D01*
X52180809Y-68488952D01*
X52180809Y-68631809D01*
X52133190Y-68822285D01*
X52085571Y-68917523D01*
X51990333Y-69012761D01*
X51847476Y-69060380D01*
X51752238Y-69060380D01*
X51609380Y-69012761D01*
X51561761Y-68965142D01*
X51561761Y-68631809D01*
X51752238Y-68631809D01*
X51133190Y-69060380D02*
X51133190Y-68060380D01*
X50752238Y-68060380D01*
X50657000Y-68108000D01*
X50609380Y-68155619D01*
X50561761Y-68250857D01*
X50561761Y-68393714D01*
X50609380Y-68488952D01*
X50657000Y-68536571D01*
X50752238Y-68584190D01*
X51133190Y-68584190D01*
X50133190Y-69060380D02*
X50133190Y-68060380D01*
X49466523Y-68060380D02*
X49276047Y-68060380D01*
X49180809Y-68108000D01*
X49085571Y-68203238D01*
X49037952Y-68393714D01*
X49037952Y-68727047D01*
X49085571Y-68917523D01*
X49180809Y-69012761D01*
X49276047Y-69060380D01*
X49466523Y-69060380D01*
X49561761Y-69012761D01*
X49657000Y-68917523D01*
X49704619Y-68727047D01*
X49704619Y-68393714D01*
X49657000Y-68203238D01*
X49561761Y-68108000D01*
X49466523Y-68060380D01*
X48085571Y-69060380D02*
X48657000Y-69060380D01*
X48371285Y-69060380D02*
X48371285Y-68060380D01*
X48466523Y-68203238D01*
X48561761Y-68298476D01*
X48657000Y-68346095D01*
X47466523Y-68060380D02*
X47371285Y-68060380D01*
X47276047Y-68108000D01*
X47228428Y-68155619D01*
X47180809Y-68250857D01*
X47133190Y-68441333D01*
X47133190Y-68679428D01*
X47180809Y-68869904D01*
X47228428Y-68965142D01*
X47276047Y-69012761D01*
X47371285Y-69060380D01*
X47466523Y-69060380D01*
X47561761Y-69012761D01*
X47609380Y-68965142D01*
X47657000Y-68869904D01*
X47704619Y-68679428D01*
X47704619Y-68441333D01*
X47657000Y-68250857D01*
X47609380Y-68155619D01*
X47561761Y-68108000D01*
X47466523Y-68060380D01*
X55324190Y-74938000D02*
X55419428Y-74890380D01*
X55562285Y-74890380D01*
X55705142Y-74938000D01*
X55800380Y-75033238D01*
X55848000Y-75128476D01*
X55895619Y-75318952D01*
X55895619Y-75461809D01*
X55848000Y-75652285D01*
X55800380Y-75747523D01*
X55705142Y-75842761D01*
X55562285Y-75890380D01*
X55467047Y-75890380D01*
X55324190Y-75842761D01*
X55276571Y-75795142D01*
X55276571Y-75461809D01*
X55467047Y-75461809D01*
X54848000Y-75890380D02*
X54848000Y-74890380D01*
X54467047Y-74890380D01*
X54371809Y-74938000D01*
X54324190Y-74985619D01*
X54276571Y-75080857D01*
X54276571Y-75223714D01*
X54324190Y-75318952D01*
X54371809Y-75366571D01*
X54467047Y-75414190D01*
X54848000Y-75414190D01*
X53848000Y-75890380D02*
X53848000Y-74890380D01*
X53181333Y-74890380D02*
X52990857Y-74890380D01*
X52895619Y-74938000D01*
X52800380Y-75033238D01*
X52752761Y-75223714D01*
X52752761Y-75557047D01*
X52800380Y-75747523D01*
X52895619Y-75842761D01*
X52990857Y-75890380D01*
X53181333Y-75890380D01*
X53276571Y-75842761D01*
X53371809Y-75747523D01*
X53419428Y-75557047D01*
X53419428Y-75223714D01*
X53371809Y-75033238D01*
X53276571Y-74938000D01*
X53181333Y-74890380D01*
X52276571Y-75890380D02*
X52086095Y-75890380D01*
X51990857Y-75842761D01*
X51943238Y-75795142D01*
X51848000Y-75652285D01*
X51800380Y-75461809D01*
X51800380Y-75080857D01*
X51848000Y-74985619D01*
X51895619Y-74938000D01*
X51990857Y-74890380D01*
X52181333Y-74890380D01*
X52276571Y-74938000D01*
X52324190Y-74985619D01*
X52371809Y-75080857D01*
X52371809Y-75318952D01*
X52324190Y-75414190D01*
X52276571Y-75461809D01*
X52181333Y-75509428D01*
X51990857Y-75509428D01*
X51895619Y-75461809D01*
X51848000Y-75414190D01*
X51800380Y-75318952D01*
X63682476Y-72267142D02*
X63730095Y-72314761D01*
X63872952Y-72362380D01*
X63968190Y-72362380D01*
X64111047Y-72314761D01*
X64206285Y-72219523D01*
X64253904Y-72124285D01*
X64301523Y-71933809D01*
X64301523Y-71790952D01*
X64253904Y-71600476D01*
X64206285Y-71505238D01*
X64111047Y-71410000D01*
X63968190Y-71362380D01*
X63872952Y-71362380D01*
X63730095Y-71410000D01*
X63682476Y-71457619D01*
X63301523Y-72314761D02*
X63158666Y-72362380D01*
X62920571Y-72362380D01*
X62825333Y-72314761D01*
X62777714Y-72267142D01*
X62730095Y-72171904D01*
X62730095Y-72076666D01*
X62777714Y-71981428D01*
X62825333Y-71933809D01*
X62920571Y-71886190D01*
X63111047Y-71838571D01*
X63206285Y-71790952D01*
X63253904Y-71743333D01*
X63301523Y-71648095D01*
X63301523Y-71552857D01*
X63253904Y-71457619D01*
X63206285Y-71410000D01*
X63111047Y-71362380D01*
X62872952Y-71362380D01*
X62730095Y-71410000D01*
X62111047Y-71362380D02*
X61920571Y-71362380D01*
X61825333Y-71410000D01*
X61730095Y-71505238D01*
X61682476Y-71695714D01*
X61682476Y-72029047D01*
X61730095Y-72219523D01*
X61825333Y-72314761D01*
X61920571Y-72362380D01*
X62111047Y-72362380D01*
X62206285Y-72314761D01*
X62301523Y-72219523D01*
X62349142Y-72029047D01*
X62349142Y-71695714D01*
X62301523Y-71505238D01*
X62206285Y-71410000D01*
X62111047Y-71362380D01*
X47466095Y-82236666D02*
X46989904Y-82236666D01*
X47561333Y-82522380D02*
X47228000Y-81522380D01*
X46894666Y-82522380D01*
X46561333Y-82522380D02*
X46561333Y-81522380D01*
X46323238Y-81522380D01*
X46180380Y-81570000D01*
X46085142Y-81665238D01*
X46037523Y-81760476D01*
X45989904Y-81950952D01*
X45989904Y-82093809D01*
X46037523Y-82284285D01*
X46085142Y-82379523D01*
X46180380Y-82474761D01*
X46323238Y-82522380D01*
X46561333Y-82522380D01*
X44989904Y-82427142D02*
X45037523Y-82474761D01*
X45180380Y-82522380D01*
X45275619Y-82522380D01*
X45418476Y-82474761D01*
X45513714Y-82379523D01*
X45561333Y-82284285D01*
X45608952Y-82093809D01*
X45608952Y-81950952D01*
X45561333Y-81760476D01*
X45513714Y-81665238D01*
X45418476Y-81570000D01*
X45275619Y-81522380D01*
X45180380Y-81522380D01*
X45037523Y-81570000D01*
X44989904Y-81617619D01*
X44776380Y-74255333D02*
X44300190Y-73922000D01*
X44776380Y-73683904D02*
X43776380Y-73683904D01*
X43776380Y-74064857D01*
X43824000Y-74160095D01*
X43871619Y-74207714D01*
X43966857Y-74255333D01*
X44109714Y-74255333D01*
X44204952Y-74207714D01*
X44252571Y-74160095D01*
X44300190Y-74064857D01*
X44300190Y-73683904D01*
X44776380Y-75207714D02*
X44776380Y-74636285D01*
X44776380Y-74922000D02*
X43776380Y-74922000D01*
X43919238Y-74826761D01*
X44014476Y-74731523D01*
X44062095Y-74636285D01*
X59348666Y-79091142D02*
X59396285Y-79138761D01*
X59539142Y-79186380D01*
X59634380Y-79186380D01*
X59777238Y-79138761D01*
X59872476Y-79043523D01*
X59920095Y-78948285D01*
X59967714Y-78757809D01*
X59967714Y-78614952D01*
X59920095Y-78424476D01*
X59872476Y-78329238D01*
X59777238Y-78234000D01*
X59634380Y-78186380D01*
X59539142Y-78186380D01*
X59396285Y-78234000D01*
X59348666Y-78281619D01*
X58491523Y-78186380D02*
X58682000Y-78186380D01*
X58777238Y-78234000D01*
X58824857Y-78281619D01*
X58920095Y-78424476D01*
X58967714Y-78614952D01*
X58967714Y-78995904D01*
X58920095Y-79091142D01*
X58872476Y-79138761D01*
X58777238Y-79186380D01*
X58586761Y-79186380D01*
X58491523Y-79138761D01*
X58443904Y-79091142D01*
X58396285Y-78995904D01*
X58396285Y-78757809D01*
X58443904Y-78662571D01*
X58491523Y-78614952D01*
X58586761Y-78567333D01*
X58777238Y-78567333D01*
X58872476Y-78614952D01*
X58920095Y-78662571D01*
X58967714Y-78757809D01*
M02*
